<?xml version="1.0" encoding="UTF-8" standalone="no"?>
<!-- Created with Inkscape (http://www.inkscape.org/) -->

<svg
   xmlns:dc="http://purl.org/dc/elements/1.1/"
   xmlns:cc="http://creativecommons.org/ns#"
   xmlns:rdf="http://www.w3.org/1999/02/22-rdf-syntax-ns#"
   xmlns:svg="http://www.w3.org/2000/svg"
   xmlns="http://www.w3.org/2000/svg"
   xmlns:sodipodi="http://sodipodi.sourceforge.net/DTD/sodipodi-0.dtd"
   xmlns:inkscape="http://www.inkscape.org/namespaces/inkscape"
   version="1.1"
   id="svg4573"
   width="1365.3333"
   height="1024"
   viewBox="0 0 1365.3333 1024"
   sodipodi:docname="Lighthouse1.svg"
   inkscape:version="0.92.3 (2405546, 2018-03-11)">
  <metadata
     id="metadata4579">
    <rdf:RDF>
      <cc:Work
         rdf:about="">
        <dc:format>image/svg+xml</dc:format>
        <dc:type
           rdf:resource="http://purl.org/dc/dcmitype/StillImage" />
        <dc:title></dc:title>
      </cc:Work>
    </rdf:RDF>
  </metadata>
  <defs
     id="defs4577" />
  <sodipodi:namedview
     pagecolor="#ffffff"
     bordercolor="#666666"
     borderopacity="1"
     objecttolerance="10"
     gridtolerance="10"
     guidetolerance="10"
     inkscape:pageopacity="0"
     inkscape:pageshadow="2"
     inkscape:window-width="1920"
     inkscape:window-height="1121"
     id="namedview4575"
     showgrid="false"
     inkscape:zoom="0.65186406"
     inkscape:cx="1177.9498"
     inkscape:cy="465.06232"
     inkscape:window-x="-9"
     inkscape:window-y="-9"
     inkscape:window-maximized="1"
     inkscape:current-layer="svg4573" />
  <g
     id="g4671"
     transform="translate(7.5953653e-7,1.534067)">
    <path
       style="fill:#e7dc43;stroke-width:1.33333337"
       d="m 853.0275,568.03456 c -17.97,-4.58309 -33.04715,-13.71584 -48.36085,-29.29383 -7.44991,-7.57848 -8.93684,-9.74049 -7.36852,-10.71386 1.08064,-0.6707 2.28064,-0.7394 2.66666,-0.1527 0.38602,0.58672 42.70186,1.712 94.03519,2.50063 91.41602,1.40443 93.4292,1.38053 98,-1.16319 l 4.66666,-2.59708 -3.51082,3.02607 c -1.93095,1.66433 -3.8913,4.28127 -4.35632,5.8154 -1.05068,3.46623 -28.98047,17.04221 -47.46619,23.07216 -34.44811,11.23677 -67.54909,14.8002 -88.30581,9.5064 z M 1000.6666,520 c 2.8644,-2.93333 5.5079,-5.33333 5.8746,-5.33333 0.3666,0 -1.6769,2.4 -4.5412,5.33333 -2.86434,2.93333 -5.50789,5.33333 -5.87456,5.33333 -0.36666,0 1.67688,-2.4 4.54116,-5.33333 z m 10.6667,-12 c 2.8643,-2.93333 5.5079,-5.33333 5.8745,-5.33333 0.3667,0 -1.6768,2.4 -4.5412,5.33333 -2.8643,2.93333 -5.5078,5.33333 -5.8745,5.33333 -0.3667,0 1.6769,-2.4 4.5412,-5.33333 z M 1022,496 c 2.8643,-2.93333 5.5078,-5.33333 5.8745,-5.33333 0.3667,0 -1.6769,2.4 -4.5412,5.33333 -2.8643,2.93333 -5.5079,5.33333 -5.8745,5.33333 -0.3667,0 1.6769,-2.4 4.5412,-5.33333 z m 10.6666,-12 c 2.8644,-2.93333 5.5079,-5.33333 5.8746,-5.33333 0.3666,0 -1.6769,2.4 -4.5412,5.33333 -2.8643,2.93333 -5.5079,5.33333 -5.8746,5.33333 -0.3666,0 1.6769,-2.4 4.5412,-5.33333 z m 10.6667,-12 c 2.8643,-2.93333 5.5079,-5.33333 5.8745,-5.33333 0.3667,0 -1.6768,2.4 -4.5412,5.33333 -2.8643,2.93333 -5.5078,5.33333 -5.8745,5.33333 -0.3667,0 1.6769,-2.4 4.5412,-5.33333 z M 1054,460 c 2.8643,-2.93333 5.5078,-5.33333 5.8745,-5.33333 0.3667,0 -1.6769,2.4 -4.5412,5.33333 -2.8643,2.93333 -5.5079,5.33333 -5.8745,5.33333 -0.3667,0 1.6769,-2.4 4.5412,-5.33333 z m 10.6666,-12 c 2.8644,-2.93333 5.5079,-5.33333 5.8746,-5.33333 0.3666,0 -1.6769,2.4 -4.5412,5.33333 -2.8643,2.93333 -5.5079,5.33333 -5.8746,5.33333 -0.3666,0 1.6769,-2.4 4.5412,-5.33333 z m 10,-11.33333 C 1077.1543,434.1 1079.4897,432 1079.8564,432 c 0.3667,0 -1.3687,2.1 -3.8564,4.66667 -2.4877,2.56666 -4.8231,4.66666 -5.1898,4.66666 -0.3667,0 1.3687,-2.1 3.8564,-4.66666 z m 10,-11.33334 C 1087.531,422.4 1090.1745,420 1090.5412,420 c 0.3666,0 -1.6769,2.4 -4.5412,5.33333 -2.8643,2.93334 -5.5079,5.33334 -5.8746,5.33334 -0.3666,0 1.6769,-2.4 4.5412,-5.33334 z m 10.6667,-12 C 1098.1976,410.4 1100.8412,408 1101.2078,408 c 0.3667,0 -1.6768,2.4 -4.5412,5.33333 -2.8643,2.93334 -5.5078,5.33334 -5.8745,5.33334 -0.3667,0 1.6769,-2.4 4.5412,-5.33334 z m 10.6667,-12 C 1108.8643,398.4 1111.5078,396 1111.8745,396 c 0.3667,0 -1.6769,2.4 -4.5412,5.33333 -2.8643,2.93334 -5.5079,5.33334 -5.8745,5.33334 -0.3667,0 1.6769,-2.4 4.5412,-5.33334 z m 10.6666,-12 C 1119.531,386.4 1122.1745,384 1122.5412,384 c 0.3666,0 -1.6769,2.4 -4.5412,5.33333 -2.8643,2.93334 -5.5079,5.33334 -5.8746,5.33334 -0.3666,0 1.6769,-2.4 4.5412,-5.33334 z m 10.6667,-12 C 1130.1976,374.4 1132.8412,372 1133.2078,372 c 0.3667,0 -1.6768,2.4 -4.5412,5.33333 -2.8643,2.93334 -5.5078,5.33334 -5.8745,5.33334 -0.3667,0 1.6769,-2.4 4.5412,-5.33334 z m 10.6667,-12 C 1140.8643,362.4 1143.5078,360 1143.8745,360 c 0.3667,0 -1.6769,2.4 -4.5412,5.33333 -2.8643,2.93334 -5.5079,5.33334 -5.8745,5.33334 -0.3667,0 1.6769,-2.4 4.5412,-5.33334 z M 1146,356 c 1.3273,-1.46667 2.7133,-2.66667 3.0799,-2.66667 0.3667,0 -0.4193,1.2 -1.7466,2.66667 -1.3273,1.46667 -2.7133,2.66667 -3.08,2.66667 -0.3666,0 0.4194,-1.2 1.7467,-2.66667 z"
       id="path4685"
       inkscape:connector-curvature="0" />
    <path
       style="fill:#ecca3a;stroke-width:1.33333337"
       d="m 911.99998,530.59679 c -27.5,-0.48994 -63.95,-0.97464 -81,-1.07712 -17.05,-0.10254 -31,-0.6943 -31,-1.31515 0,-0.62084 78.45,-41.21291 174.33333,-90.2046 95.88329,-48.99168 175.34859,-89.94529 176.58949,-91.00801 1.2409,-1.06274 3.0409,-1.65054 4,-1.30623 1.1379,0.40848 -0.1624,2.42512 -3.742,5.80349 -3.0173,2.84763 -39.5073,43.5775 -81.0889,90.51083 -41.5817,46.93333 -77.21304,86.38017 -79.18082,87.65965 -2.85105,1.85379 -6.15065,2.2757 -16.24444,2.07711 -6.96666,-0.13705 -35.16666,-0.65004 -62.66666,-1.13997 z"
       id="path4683"
       inkscape:connector-curvature="0" />
    <path
       style="fill:#66bec3;stroke-width:1.33333337"
       d="M 910.66664,632.39337 C 902.83566,631.53221 666.5627,608.24041 636.66665,605.38245 517.58548,593.99868 316.25146,583.26301 86.666665,576.055 62.833332,575.30673 33.583333,574.32437 21.666666,573.87199 L 0,573.04945 -0.00164273,545.52473 -0.00328545,518 14.33169,518.35436 c 29.891769,0.73891 640.62449,9.10135 660.33496,9.0416 59.7502,-0.18108 120,1.17769 120,2.70628 0,0.87035 5.67349,7.00635 12.60776,13.63555 9.86206,9.4282 15.21585,13.35872 24.58361,18.04824 17.39468,8.7078 28.25281,10.77516 51.38049,9.78269 29.30677,-1.25761 57.42005,-8.80792 89.18836,-23.95308 14.33032,-6.83181 17.36795,-8.80653 18.79084,-12.21573 l 1.69727,-4.06658 33.20912,0.8594 c 18.2651,0.47267 55.804,1.54746 83.4198,2.38842 43.2856,1.31813 137.2144,2.41401 229.4561,2.67708 l 26.3333,0.0751 V 556 574.66667 l -3.6667,0.0568 c -39.2673,0.60884 -74.4603,2.95705 -107,7.13945 -81.7866,10.51221 -136.0933,18.92577 -259.41688,40.19049 -60.51806,10.43516 -71.50429,11.77818 -84.58308,10.33991 z"
       id="path4681"
       inkscape:connector-curvature="0" />
    <path
       style="fill:#51aaaf;stroke-width:1.33333337"
       d="M 57.999999,705.26568 C 40.399999,704.76832 20.15,704.28008 13,704.18069 L 0,704 v -65.46511 -65.4651 l 22.333333,0.8239 c 12.283333,0.45314 41.233332,1.41995 64.333332,2.14844 143.761145,4.53379 293.687155,11.25106 401.999985,18.01116 89.09439,5.56064 114.19008,7.77336 316.66666,27.92102 54.63334,5.43636 104.73333,10.2763 111.33333,10.75546 11.14327,0.80899 16.71203,0.0563 78,-10.54249 96.91836,-16.76053 124.89796,-21.32807 176.66666,-28.83992 65.4069,-9.49081 116.1269,-15.81323 133.3333,-16.62043 32.4188,-1.52084 58.5039,-2.11972 57.7091,-1.32493 -0.4623,0.46236 -15.736,1.34483 -33.9415,1.96105 -24.7715,0.83847 -42.3276,2.30602 -69.7676,5.832 -59.9839,7.70784 -134.2197,18.83492 -196.6666,29.47804 -304.75174,51.94027 -494.13539,77.04123 -653.33334,86.59296 -111.73501,6.70402 -245.03588,8.98468 -350.666661,5.99963 z M 1237.0709,536.33804 c 7.5557,-0.23809 19.5557,-0.23712 26.6667,0.003 7.111,0.23926 0.929,0.43408 -13.7376,0.43289 -14.6667,-10e-4 -20.4848,-0.19695 -12.9291,-0.43504 z m 50.0668,-0.65096 c 2.4405,-1.56364 74.5583,-1.18917 76.8623,0.39909 1.3916,0.95926 -10.2284,1.25727 -38.1956,0.97959 -22.1076,-0.21951 -39.5076,-0.83991 -38.6667,-1.37868 z m -138.0668,-0.68237 c 7.5557,-0.2381 19.5557,-0.23712 26.6667,0.003 7.111,0.23927 0.929,0.43408 -13.7376,0.4329 -14.6667,-10e-4 -20.4848,-0.19695 -12.9291,-0.43504 z M 1064,533.27127 c -11.3667,-0.50508 -31.6167,-0.99775 -45,-1.0948 -13.5223,-0.098 -24.33336,-0.71323 -24.33336,-1.38459 0,-1.57093 85.09336,-0.34223 88.66666,1.28029 1.4667,0.66598 5.9667,1.41119 10,1.65603 l 7.3333,0.44519 -8,0.008 c -4.4,0.004 -17.3,-0.40514 -28.6666,-0.91023 z m -331.33335,-5.35348 c -27.86667,-0.50158 -67.46667,-0.7631 -88,-0.58115 -35.94377,0.31851 -36.39041,0.29207 -12,-0.71035 48.91025,-2.01017 162.74044,-0.90304 161.21326,1.56799 -0.38718,0.62648 -2.91857,1.02575 -5.62529,0.88727 -2.70672,-0.1385 -27.72131,-0.66219 -55.58797,-1.16376 z m -201,-2.24563 c 7.51667,-0.23767 19.81667,-0.23767 27.33334,0 7.51666,0.23767 1.36666,0.43212 -13.66667,0.43212 -15.03333,0 -21.18333,-0.19445 -13.66667,-0.43212 z m -87.99999,-1.33333 c 7.51666,-0.23767 19.81666,-0.23767 27.33333,0 7.51666,0.23766 1.36667,0.43212 -13.66667,0.43212 -15.03333,0 -21.18333,-0.19446 -13.66666,-0.43212 z m -88,-1.33334 c 7.51666,-0.23766 19.81666,-0.23766 27.33333,0 7.51667,0.23767 1.36667,0.43212 -13.66667,0.43212 -15.03333,0 -21.18333,-0.19445 -13.66666,-0.43212 z m -88,-1.33333 c 7.51667,-0.23767 19.81667,-0.23767 27.33333,0 7.51667,0.23767 1.36667,0.43212 -13.66666,0.43212 -15.03334,0 -21.18334,-0.19445 -13.66667,-0.43212 z m -88,-1.33333 c 7.51667,-0.23767 19.81667,-0.23767 27.33333,0 7.51667,0.23766 1.36667,0.43212 -13.66666,0.43212 -15.03333,0 -21.18333,-0.19446 -13.66667,-0.43212 z m -87.999996,-1.33334 c 7.516667,-0.23766 19.816666,-0.23766 27.333336,0 7.51666,0.23767 1.36666,0.43212 -13.66667,0.43212 -15.033332,0 -21.183332,-0.19445 -13.666666,-0.43212 z M 1.787061,517.64625 c -0.85044977,-0.53877 6.04955,-0.81706 15.333333,-0.61844 26.519294,0.5674 29.430053,1.1536 6.879605,1.3855 -11.366666,0.11693 -21.3624883,-0.22828 -22.212938,-0.76706 z"
       id="path4679"
       inkscape:connector-curvature="0" />
    <path
       style="fill:#4d9da1;stroke-width:1.33333337"
       d="M 0,863.79676 V 703.59351 l 22.999999,0.8614 c 89.796391,3.36304 239.052221,2.24905 336.333321,-2.51027 C 545.30664,692.8462 727.13997,669.74485 1062,612.67309 c 62.4469,-10.64312 136.6827,-21.7702 196.6666,-29.47804 27.111,-3.48372 45.1799,-5.0059 69.3334,-5.84089 17.9666,-0.62111 33.7166,-1.54408 35,-2.05104 2.2166,-0.87565 2.3333,10.32119 2.3333,223.88756 V 1024 H 682.66665 0 Z M 1278.3488,536.39032 c 1.6586,-0.31892 4.0586,-0.30681 5.3334,0.0269 1.2748,0.33372 -0.082,0.59467 -3.0156,0.57987 -2.9333,-0.0148 -3.9763,-0.28785 -2.3178,-0.60677 z m -76.7561,-1.38452 c 7.8427,-0.23532 21.0427,-0.23615 29.3334,-10e-4 8.2906,0.23432 1.8739,0.42685 -14.2595,0.42785 -16.1333,10e-4 -22.9165,-0.19069 -15.0739,-0.42601 z m 85.4077,-2.90748 c -3e-4,-2.20709 -2.5532,-5.70236 -8.0344,-11 -6.7123,-6.48767 -8.8099,-7.76499 -12.7516,-7.76499 -4.6222,0 -4.7346,-0.12826 -5.5518,-6.33333 -1.3865,-10.52668 -2.1379,-13.597 -3.5397,-14.46337 -2.7056,-1.67214 -16.63,-4.44239 -22.4563,-4.46767 -3.3,-0.0143 -11.5207,-1.34672 -18.2682,-2.96089 l -12.2682,-2.93488 -0.6994,-6.75326 c -0.7816,-7.5462 -4.8418,-104.94278 -5.245,-125.81461 -0.1893,-9.80483 -0.8083,-14.05964 -2.3043,-15.83903 -1.125,-1.33813 -4.645,-6.50734 -7.8221,-11.48714 C 1181.3936,311.83124 1177.1034,308 1172.0696,308 c -4.7881,0 -9.4005,5.28291 -13.9691,16 -2.0321,4.76667 -4.8359,9.66284 -6.2309,10.88039 -2.6668,2.32761 -3.2401,5.94577 -1.4015,8.844 0.8104,1.27748 -13.1034,8.95332 -53.6871,29.61764 -30.1296,15.34128 -110.2256,56.2653 -177.99117,90.94228 l -123.21016,63.04902 -26.12317,-0.84638 c -34.27354,-1.11047 -109.82117,-1.43751 -117.45652,-0.50847 -3.81522,0.46423 -5.06121,0.32069 -3.42184,-0.3942 1.63644,-0.71361 2.04106,-1.45623 1.10771,-2.03307 -0.80876,-0.49984 -23.86893,-6.00306 -51.24484,-12.22938 -56.50138,-12.85058 -75.10058,-17.82547 -88.44102,-23.65608 -12.32007,-5.38466 -23.0694,-8.33083 -79.13947,-21.69054 -59.88442,-14.26854 -79.09452,-19.65813 -111.79159,-31.36422 -14.52124,-5.19884 -33.60227,-11.1673 -42.40227,-13.26322 -13.70228,-3.26352 -53.88323,-10.13625 -74.18938,-12.68969 -7.56652,-0.95147 -7.95087,-2.14877 -6.84551,-21.32475 0.58159,-10.08945 1.36865,-14.10696 3.23507,-16.51314 5.80044,-7.47795 1.965,-9.48686 -18.11252,-9.48686 H 165.33333 V 352.912 c 0,-7.97945 0.24968,-8.64239 4.75837,-12.63408 3.67376,-3.25251 4.6615,-5.05595 4.33334,-7.912 -0.33746,-2.93692 -1.19727,-3.7878 -4.17234,-4.12893 -2.06101,-0.23632 -4.62226,0.29649 -5.69168,1.18401 -1.5515,1.28764 -2.47126,1.13687 -4.55201,-0.74617 -2.22149,-2.01043 -3.18352,-2.12132 -6.4968,-0.74892 -3.07419,1.27337 -4.45565,1.25717 -6.59243,-0.0773 -2.19172,-1.36874 -3.1022,-1.3571 -4.81152,0.0615 -2.73676,2.27132 -2.70704,9.21824 0.0525,12.26749 1.75592,1.94027 1.98613,4.01827 1.2287,11.09096 C 142.5291,359.30252 140,364.94014 140,358.824 c 0,-3.76 -1.93286,-4.63586 -13.72756,-6.22061 -8.41684,-1.13089 -10.67977,-1.05253 -11.89516,0.41192 -1.04411,1.25808 -3.05462,1.54601 -6.60577,0.94605 -4.35542,-0.73584 -5.1225,-0.5027 -5.2251,1.58807 -0.0661,1.3478 -0.68718,0.35053 -1.38011,-2.21613 -1.980178,-7.33482 -4.08079,-10.66667 -6.724942,-10.66667 -1.90541,1.1e-4 -2.4414,1.03384 -2.4414,4.70861 0,5.30903 -2.309883,6.95651 -6.562479,4.68059 -1.928341,-1.03201 -2.770854,-2.79351 -2.770854,-5.79316 0,-4.86457 -5.729918,-14.2626 -8.695817,-14.2626 -2.87047,0 -8.392322,9.18724 -9.416214,15.66667 -0.900797,5.70045 -3.545458,7.55305 -5.07865,3.55761 -0.445125,-1.15997 -0.809319,-6.55997 -0.809319,-12 0,-7.90307 0.40196,-9.89095 2,-9.89095 1.1,0 1.979416,-1.05 1.954259,-2.33333 -0.07764,-3.96013 -11.144624,-23.64029 -13.542737,-24.08271 -1.598924,-0.29497 -3.271519,1.73239 -5.747968,6.96718 -1.921052,4.06077 -5.051559,8.60932 -6.956683,10.10789 -3.136765,2.46739 -3.299585,3.03163 -1.724225,5.97521 1.780595,3.32707 1.302628,22.87412 -0.636022,26.01092 -1.425978,2.30728 -4.223886,-0.69813 -5.201772,-5.58757 -0.916086,-4.58043 -4.283015,-9.05759 -6.811518,-9.05759 -2.715762,0 -6.078986,4.78694 -6.89465,9.81328 -0.958197,5.90468 -2.226599,6.9636 -9.4386825,7.87978 L 0,355.74625 V 177.87312 0 h 682.66665 682.66665 l 4e-4,267.66667 3e-4,267.66666 h -39.1666 -39.1666 z m -173.4077,1.57415 c 7.8427,-0.23532 21.0427,-0.23615 29.3334,-10e-4 8.2906,0.23432 1.8739,0.42686 -14.2595,0.42786 -16.1333,10e-4 -22.9165,-0.1907 -15.0739,-0.42602 z M 1083.3333,532 c -0.5078,-0.82156 -12.9483,-1.38752 -32.412,-1.47452 -17.3734,-0.0776 -36.9364,-0.52765 -43.4734,-1 l -11.88534,-0.85881 75.21874,-84.72684 c 41.3703,-46.59976 76.1601,-86.15198 77.3108,-87.8938 l 2.0921,-3.16696 -0.4419,4.56046 C 1149.4992,359.94779 1147.7842,389.9 1145.931,424 l -3.3694,62 -8.0988,12.29568 c -4.4544,6.76263 -8.9086,12.96771 -9.8983,13.78908 -1.4022,1.16373 -4.4965,-0.59395 -14.0175,-7.96235 -6.72,-5.20066 -13.0229,-9.45574 -14.0064,-9.45574 -1.6427,0 -3.6688,5.65397 -10.3382,28.8498 -1.4459,5.02886 -1.5751,7.24418 -0.486,8.33333 1.0892,1.08916 1.0791,1.48353 -0.038,1.48353 -0.8367,0 -1.8921,-0.6 -2.3454,-1.33333 z m -497.74054,-6.32753 c 7.84268,-0.23532 21.04268,-0.23615 29.33333,-10e-4 8.29064,0.23432 1.87389,0.42686 -14.25944,0.42786 -16.13333,10e-4 -22.91658,-0.1907 -15.07389,-0.42602 z m -88,-1.33334 c 7.84268,-0.23532 21.04268,-0.23614 29.33333,-10e-4 8.29064,0.23432 1.8739,0.42685 -14.25944,0.42785 -16.13333,10e-4 -22.91658,-0.19069 -15.07389,-0.42601 z m -87.9261,-1.33408 c 7.88333,-0.23573 20.78333,-0.23573 28.66666,0 7.88334,0.23572 1.43334,0.4286 -14.33333,0.4286 -15.76667,0 -22.21667,-0.19288 -14.33333,-0.4286 z m -88,-1.33333 c 7.88333,-0.23573 20.78333,-0.23573 28.66666,0 7.88334,0.23572 1.43334,0.4286 -14.33333,0.4286 -15.76666,0 -22.21666,-0.19288 -14.33333,-0.4286 z m -88,-1.33333 c 7.88333,-0.23574 20.78333,-0.23574 28.66667,0 7.88333,0.23572 1.43333,0.4286 -14.33334,0.4286 -15.76666,0 -22.21666,-0.19288 -14.33333,-0.4286 z m -88,-1.33334 c 7.88334,-0.23573 20.78334,-0.23573 28.66667,0 7.88333,0.23572 1.43333,0.4286 -14.33333,0.4286 -15.76667,0 -22.21667,-0.19288 -14.33334,-0.4286 z m -87.999995,-1.33333 c 7.883333,-0.23573 20.783333,-0.23573 28.666666,0 7.883333,0.23572 1.433334,0.4286 -14.333333,0.4286 -15.766666,0 -22.216666,-0.19288 -14.333333,-0.4286 z m -52.6511195,-1.2814 c 1.6585499,-0.31892 4.0585499,-0.30681 5.3333335,0.0269 1.274783,0.3337 -0.08221,0.59464 -3.0155458,0.57984 -2.9333333,-0.0148 -3.9763378,-0.28785 -2.3177877,-0.60677 z M 1156.0859,388.77025 c -0.9118,-1.09866 -1.362,-4.60414 -1.0702,-8.33333 l 0.5036,-6.43692 0.2403,6.93375 c 0.174,5.0201 0.8843,7.30882 2.5737,8.29278 1.2833,0.74748 1.6568,1.3773 0.8299,1.39959 -0.8268,0.0223 -2.2116,-0.81284 -3.0773,-1.85587 z m 7.3331,0.17224 c 0.5007,-1.31496 1.2463,-2.05496 1.6568,-1.64444 0.4105,0.41052 9e-4,1.48639 -0.9104,2.39084 -1.3168,1.30702 -1.4699,1.15387 -0.7464,-0.7464 z M 1165.5932,378 c 0.027,-2.2 0.326,-2.93859 0.6641,-1.64129 0.338,1.29729 0.3158,3.09729 -0.05,4 -0.3652,0.9027 -0.6418,-0.15871 -0.6146,-2.35871 z m -6.5679,-5.59065 c 1.2973,-0.33806 3.0973,-0.31583 4,0.0495 0.9028,0.36524 -0.1587,0.64183 -2.3587,0.61466 -2.2,-0.0272 -2.9385,-0.326 -1.6413,-0.66406 z"
       id="path4677"
       inkscape:connector-curvature="0" />
    <path
       style="fill:#3c7d80;stroke-width:1.33333337"
       d="m 1166.6666,534.31799 c -47.3672,-0.73423 -79.9659,-1.7511 -80.9034,-2.52366 -1.1969,-0.98638 -1.0973,-2.9379 0.4193,-8.2108 6.6991,-23.29188 8.714,-28.91686 10.3581,-28.91686 0.9835,0 7.2864,4.25508 14.0064,9.45574 9.521,7.3684 12.6153,9.12608 14.0175,7.96235 0.9897,-0.82137 5.448,-7.0266 9.9074,-13.78941 l 8.1079,-12.29603 3.5232,-65.33299 c 3.4542,-64.05326 3.586,-65.42441 6.733,-69.99966 2.915,-4.23816 2.9934,-4.71144 0.8535,-5.15424 -4.8346,-1.00044 -5.8771,-7.09082 -1.8199,-10.63204 1.395,-1.21755 4.1988,-6.11372 6.2309,-10.88039 4.5686,-10.71709 9.181,-16 13.9691,-16 5.0338,0 9.324,3.83124 15.9898,14.27915 3.1771,4.9798 6.6971,10.14901 7.8221,11.48714 1.496,1.77939 2.115,6.0342 2.3043,15.83903 0.4032,20.87183 4.4634,118.26841 5.245,125.81461 l 0.6994,6.75326 12.2682,2.93488 c 6.7475,1.61417 14.9682,2.94657 18.2682,2.96089 5.8263,0.0253 19.7507,2.79553 22.4563,4.46767 1.4018,0.86637 2.1532,3.93669 3.5397,14.46337 0.8152,6.18977 0.9398,6.33333 5.4989,6.33333 3.7971,0 6.0437,1.30207 12.0782,7 7.4969,7.07894 9.9314,10.9626 8.7757,14 -0.7159,1.88172 2.0605,1.88207 -120.3488,-0.0153 z m 118.3604,-2.0535 c 0.3159,-0.95453 -2.6946,-5.00453 -6.6901,-9 -6.053,-6.05298 -8.0493,-7.26449 -11.9708,-7.26449 -6.1119,0 -7.3004,-1.64275 -8.4334,-11.65743 -0.5163,-4.56373 -1.6124,-8.8212 -2.4357,-9.46102 -2.4544,-1.90736 -13.5546,-4.21298 -20.4208,-4.2416 -6.7117,-0.028 -30.5712,-5.60162 -32.5805,-7.61084 -1.1524,-1.1524 -6.477,-110.10922 -6.4893,-132.7905 l -0.01,-11.76138 -8.5543,-12.97336 c -13.2901,-20.15594 -18.385,-20.49759 -26.9038,-1.80415 -2.5606,5.61872 -5.5826,11.24021 -6.7156,12.4922 -2.9449,3.25404 -1.833,7.24532 1.8732,6.72427 3.7756,-0.5308 3.7292,0.49733 -0.2864,6.34548 -3.2062,4.66932 -3.3048,5.69954 -6.7748,70.73833 l -3.5213,66 -9.9912,15 c -5.4953,8.25 -10.6037,15 -11.3521,15 -0.7484,0 -6.4712,-3.94475 -12.7173,-8.76609 -10.5921,-8.17602 -15.0564,-11.02018 -15.0564,-9.5922 0,0.32652 -2.091,7.69972 -4.6467,16.38488 -2.5556,8.68517 -4.3071,16.1322 -3.892,16.54897 0.7018,0.70477 165.1352,3.82321 187.0983,3.54828 6.8509,-0.0857 10.0696,-0.65751 10.4674,-1.85935 z M 1156.3333,391.14795 c -0.9167,-0.38692 -1.6667,-1.32698 -1.6667,-2.08899 0,-0.85993 0.7309,-0.77896 1.9267,0.21347 1.0596,0.87941 3.3096,1.40288 5,1.16325 2.3269,-0.32985 3.2858,-1.56915 3.948,-5.10235 l 0.8747,-4.66666 -0.208,5.33333 c -0.1922,4.92772 -0.5122,5.35304 -4.208,5.59239 -2.2,0.14248 -4.75,-0.0575 -5.6667,-0.44444 z m -1.6667,-17.81462 c 0,-0.73333 0.6355,-1.33333 1.4121,-1.33333 0.7766,0 1.0412,0.6 0.5879,1.33333 -0.4532,0.73334 -1.0886,1.33334 -1.412,1.33334 -0.3234,0 -0.588,-0.6 -0.588,-1.33334 z m 10,0 C 1164.2134,372.6 1164.478,372 1165.2546,372 c 0.7766,0 1.412,0.6 1.412,1.33333 0,0.73334 -0.2645,1.33334 -0.5879,1.33334 -0.3234,0 -0.9588,-0.6 -1.4121,-1.33334 z m -4.9166,-2.24414 c 0.9625,-0.38516 2.1125,-0.3378 2.5555,0.1052 0.4431,0.44305 -0.3444,0.75818 -1.75,0.70029 -1.5532,-0.064 -1.8692,-0.37992 -0.8055,-0.80555 z M 317.08298,521.45792 C 144.97862,518.79179 3.6830522,516.12749 3.0928293,515.53728 c -0.590223,-0.59023 13.9224357,-0.70101 32.2503507,-0.24619 59.829155,1.48471 572.91174,8.83566 588.6568,8.4337 l 15.33334,-0.39146 -9.33334,-2.32164 c -5.13333,-1.2769 -27.7031,-6.53134 -50.15503,-11.67654 -40.14167,-9.19907 -60.26675,-14.94522 -76.94114,-21.96838 -8.14492,-3.4306 -31.05941,-9.36165 -97.99499,-25.36446 -37.11338,-8.87299 -57.3557,-14.82834 -90.67084,-26.67563 -32.38756,-11.51744 -61.47696,-17.99863 -104.90465,-23.37301 -6.96667,-0.86216 -13.41667,-2.17791 -14.33333,-2.92388 -1.1677,-0.95026 -1.66518,-6.19735 -1.66168,-17.52638 0.004,-13.8661 0.38838,-16.79893 2.69581,-20.58357 1.47996,-2.42741 2.34231,-4.97741 1.91632,-5.66667 -0.42597,-0.68924 -7.78909,-1.26236 -16.36248,-1.27358 -8.57339,-0.0107 -16.42984,-0.55343 -17.45879,-1.20487 -1.45572,-0.92164 -1.69006,-3.34057 -1.05616,-10.9018 0.73698,-8.79055 1.20154,-10.02013 4.87083,-12.89177 6.90191,-5.40158 4.72493,-11.76888 -2.55375,-7.46926 -3.76238,2.2225 -4.07104,2.22184 -6.54168,-0.014 -2.21177,-2.00162 -3.0038,-2.09005 -5.38737,-0.60149 -2.23887,1.3982 -3.32092,1.41629 -5.44296,0.0911 -1.45672,-0.90974 -3.25672,-1.65407 -4,-1.65407 -2.09777,0 -1.59147,7.95044 0.64899,10.19089 1.57846,1.57847 1.82516,4.0193 1.1695,11.57143 -0.9243,10.64667 -3.03121,14.45256 -6.43633,11.62655 -1.13681,-0.94354 -2.06692,-2.72251 -2.06692,-3.95334 0,-3.41008 -19.67022,-6.12366 -22.95328,-3.1665 -1.36414,1.22873 -3.67752,1.79374 -5.73439,1.40056 -2.94595,-0.56316 -3.55921,-0.10187 -4.21339,3.16896 -1.51366,7.56832 -5.765606,3.85494 -5.765606,-5.03532 0,-6.01304 -2.45085,-10.95692 -4.122898,-8.31676 -0.64328,1.01574 -1.178788,3.13261 -1.190018,4.70414 -0.02623,3.67044 -2.890658,4.73111 -7.982849,2.95596 -3.091049,-1.07754 -4.037568,-2.21596 -4.037568,-4.8561 0,-4.43131 -5.071637,-14.9572 -7.206753,-14.9572 -2.377262,0 -7.459913,9.7077 -7.459913,14.2482 0,4.44478 -2.102489,7.08513 -5.641846,7.08513 -3.084116,0 -3.316183,-0.8312 -4.180026,-14.97167 -0.562645,-9.2101 -0.298682,-12.05064 1.265155,-13.61448 1.745968,-1.74596 1.431436,-3.05777 -2.700373,-11.26245 -2.572083,-5.10748 -5.237062,-9.63276 -5.922174,-10.05619 -0.685113,-0.42341 -2.505358,1.83234 -4.04499,5.0128 -1.539632,3.18046 -4.256064,7.15118 -6.036515,8.82382 -2.60445,2.44676 -2.951236,3.49905 -1.774226,5.38374 1.023632,1.6391 1.0984,6.29779 0.248976,15.5135 L 36.666666,354 h -3.955384 c -3.585707,0 -4.124685,-0.59943 -5.766843,-6.41363 -0.996301,-3.52748 -2.695205,-6.75274 -3.775341,-7.16722 -2.614409,-1.00324 -5.473352,3.07006 -6.555733,9.34036 -0.483521,2.80105 -1.569332,5.2999 -2.412913,5.55298 -4.4036097,1.32115 -11.5337854,1.69435 -11.5337854,0.60368 0,-0.68722 2.0265332,-1.2495 4.503407,-1.2495 5.2087304,0 6.7844184,-1.56012 7.9914784,-7.91251 0.927122,-4.87917 4.223848,-9.42083 6.838447,-9.42083 2.528503,0 5.895432,4.47716 6.811518,9.05759 0.977886,4.88944 3.775794,7.89485 5.201772,5.58757 1.93865,-3.1368 2.416617,-22.68385 0.636022,-26.01092 -1.57536,-2.94358 -1.41254,-3.50782 1.724225,-5.97521 1.905124,-1.49857 5.035631,-6.04712 6.956683,-10.10789 2.476449,-5.23479 4.149044,-7.26215 5.747968,-6.96718 2.398113,0.44242 13.465103,20.12258 13.542737,24.08271 0.02516,1.28333 -0.854259,2.33333 -1.954259,2.33333 -1.59804,0 -2,1.98788 -2,9.89095 0,5.44003 0.364194,10.84003 0.809319,12 1.533192,3.99544 4.177853,2.14284 5.07865,-3.55761 C 65.578526,341.18724 71.100378,332 73.970848,332 c 2.965899,0 8.695817,9.39803 8.695817,14.2626 0,2.99965 0.842513,4.76115 2.770854,5.79316 4.252596,2.27592 6.562479,0.62844 6.562479,-4.68059 0,-3.67477 0.53599,-4.7085 2.44136,-4.7085 2.644152,0 4.744764,3.33185 6.724942,10.66666 0.69293,2.56667 1.31397,3.56394 1.38011,2.21614 0.1026,-2.09078 0.86968,-2.32391 5.2251,-1.58807 3.55115,0.59996 5.56166,0.31203 6.60577,-0.94605 1.21539,-1.46446 3.47832,-1.54282 11.89516,-0.41192 11.7947,1.58474 13.72756,2.46061 13.72756,6.22061 0,6.11613 2.5291,0.47852 3.38946,-7.55544 0.75743,-7.07269 0.52722,-9.15069 -1.2287,-11.09096 -2.75954,-3.04925 -2.78926,-9.99617 -0.0525,-12.26749 1.70932,-1.41862 2.6198,-1.43026 4.81152,-0.0615 2.13678,1.33444 3.51824,1.35064 6.59243,0.0773 3.31328,-1.3724 4.27531,-1.2615 6.4968,0.74892 2.08075,1.88304 3.00051,2.03382 4.55201,0.74618 1.06942,-0.88752 3.63067,-1.42034 5.69168,-1.18402 2.97507,0.34114 3.83488,1.19202 4.17234,4.12894 0.32816,2.85605 -0.65958,4.65949 -4.33334,7.912 -4.50865,3.99158 -4.75833,4.65452 -4.75833,12.63397 v 8.42133 h 15.42099 c 20.07752,0 23.91296,2.00891 18.11252,9.48686 -1.86642,2.40618 -2.65348,6.42369 -3.23507,16.51314 -1.10536,19.17598 -0.72101,20.37328 6.84551,21.32475 20.30615,2.55344 60.4871,9.42617 74.18938,12.68969 8.8,2.09592 27.88103,8.06438 42.40227,13.26322 32.69707,11.70609 51.90717,17.09568 111.79159,31.36422 56.07007,13.35971 66.8194,16.30588 79.13947,21.69054 13.34044,5.83061 31.93964,10.8055 88.44102,23.65608 27.37591,6.22632 50.43608,11.72954 51.24484,12.22938 2.51181,1.55239 -3.16944,2.93364 -11.68587,2.84112 -4.4,-0.0477 -148.81265,-2.26828 -320.917,-4.93441 z"
       id="path4675"
       inkscape:connector-curvature="0" />
    <path
       style="fill:#235153;stroke-width:1.33333337"
       d="m 1176.4413,532.79051 c -48.524,-0.80144 -88.565,-1.79818 -88.98,-2.21495 -0.4151,-0.41677 1.3364,-7.8638 3.892,-16.54897 2.5557,-8.68516 4.6467,-16.05836 4.6467,-16.38488 0,-1.42798 4.4643,1.41618 15.0564,9.5922 6.2461,4.82134 11.9689,8.76609 12.7173,8.76609 0.7484,0 5.8568,-6.75 11.3521,-15 l 9.9912,-15 3.5213,-66 c 3.47,-65.03879 3.5686,-66.06901 6.7748,-70.73833 4.0156,-5.84815 4.062,-6.87628 0.2864,-6.34548 -3.7062,0.52105 -4.8181,-3.47023 -1.8732,-6.72427 1.133,-1.25199 4.155,-6.87348 6.7156,-12.4922 8.5188,-18.69344 13.6137,-18.35179 26.9038,1.80415 l 8.5543,12.97336 0.01,11.76138 c 0.012,22.68128 5.337,131.6381 6.4894,132.7905 2.0092,2.00922 25.8688,7.58285 32.5805,7.61084 6.8662,0.0287 17.9663,2.33424 20.4207,4.2416 0.8234,0.63982 1.9194,4.89729 2.4358,9.46102 1.133,10.01468 2.3214,11.65743 8.4334,11.65743 3.9214,0 5.9178,1.21151 11.9708,7.26449 3.9955,3.99547 7.006,8.04547 6.6901,9 -0.7508,2.26852 -2.5552,2.27727 -108.5858,0.52602 z M 1166.7608,384 c 0.4184,-4.03333 0.5117,-8.33252 0.2073,-9.55375 -0.6497,-2.60656 -5.1453,-4.00661 -9.3417,-2.90924 -2.6914,0.70383 -2.9598,1.59603 -2.9598,9.84072 0,9.7995 0.6107,10.65006 7.3334,10.21466 3.8258,-0.24778 4.0331,-0.57834 4.7608,-7.59239 z M 282.66666,519.20517 C 130.5,516.76429 4.6499999,515.05603 2.9999999,515.40901 L 0,516.0508 v -79.73544 -79.73545 l 6.8038302,-0.29603 c 8.5129788,-0.37041 8.7771628,-0.54851 9.8263998,-6.6242 1.06727,-6.18012 3.938908,-10.23823 6.538868,-9.24053 1.080136,0.41448 2.77904,3.63974 3.775341,7.16722 1.642158,5.8142 2.181136,6.41363 5.766843,6.41363 h 3.955384 l 1.21398,-13.17093 c 0.849424,-9.21571 0.774656,-13.8744 -0.248976,-15.5135 -1.17701,-1.88469 -0.830224,-2.93698 1.774226,-5.38374 1.780451,-1.67264 4.496883,-5.64336 6.036515,-8.82382 1.539632,-3.18046 3.359877,-5.43621 4.04499,-5.0128 0.685112,0.42343 3.350091,4.94871 5.922174,10.05619 4.131809,8.20468 4.446341,9.51649 2.700373,11.26245 -1.563837,1.56384 -1.8278,4.40438 -1.265155,13.61448 C 57.708636,355.1688 57.940703,356 61.024819,356 c 3.539357,0 5.641846,-2.64035 5.641846,-7.08513 0,-4.5405 5.082651,-14.2482 7.459913,-14.2482 2.135116,0 7.206753,10.52589 7.206753,14.9572 0,2.64014 0.946519,3.77856 4.037568,4.8561 5.092191,1.77515 7.956623,0.71448 7.982849,-2.95596 0.0112,-1.57153 0.546738,-3.6884 1.190018,-4.70414 1.672048,-2.64016 4.122898,2.30372 4.122898,8.31676 0,8.89026 4.251946,12.60364 5.765606,5.03532 0.65418,-3.27087 1.26744,-3.73212 4.21339,-3.16896 2.05687,0.39318 4.37025,-0.17183 5.73439,-1.40056 3.28306,-2.95716 22.95328,-0.24358 22.95328,3.1665 0,1.23083 0.93011,3.0098 2.06692,3.95327 3.40512,2.82601 5.51203,-0.97988 6.43633,-11.62655 0.65566,-7.55213 0.40896,-9.99296 -1.1695,-11.57142 -2.24046,-2.24046 -2.74676,-10.1909 -0.64899,-10.1909 0.74328,0 2.54328,0.74434 4,1.65407 2.12204,1.32523 3.20409,1.30713 5.44296,-0.0911 2.38357,-1.48856 3.1756,-1.40013 5.38737,0.6015 2.47064,2.2359 2.7793,2.23656 6.54168,0.014 7.27868,-4.29963 9.45566,2.06768 2.55375,7.46925 -3.66929,2.87164 -4.13385,4.10123 -4.87083,12.89177 -0.6339,7.56123 -0.39956,9.98016 1.05616,10.9018 1.02895,0.65144 8.8854,1.19364 17.45879,1.20487 8.57339,0.0107 15.93651,0.58435 16.36248,1.27359 0.42599,0.68925 -0.43636,3.23925 -1.91632,5.66666 -2.30743,3.78464 -2.69155,6.71747 -2.69581,20.58358 -0.004,11.32902 0.49398,16.57612 1.66168,17.52637 0.91666,0.74597 7.36666,2.06172 14.33333,2.92388 39.77842,4.92277 76.25905,12.73903 98.9149,21.19327 36.74963,13.71345 61.51033,20.77242 126.48487,36.05928 47.53243,11.18317 61.79665,15.11216 73.54454,20.25734 12.97401,5.6822 35.94196,11.90751 85.59989,23.2013 24.13265,5.48852 44.18265,10.28424 44.55556,10.65714 1.25652,1.25652 -77.86196,0.34099 -355.76643,-4.11682 z"
       id="path4673"
       inkscape:connector-curvature="0" />
  </g>
</svg>
