<?xml version="1.0" encoding="UTF-8" standalone="no"?>
<!-- Created with Inkscape (http://www.inkscape.org/) -->

<svg
   xmlns:dc="http://purl.org/dc/elements/1.1/"
   xmlns:cc="http://creativecommons.org/ns#"
   xmlns:rdf="http://www.w3.org/1999/02/22-rdf-syntax-ns#"
   xmlns:svg="http://www.w3.org/2000/svg"
   xmlns="http://www.w3.org/2000/svg"
   xmlns:sodipodi="http://sodipodi.sourceforge.net/DTD/sodipodi-0.dtd"
   xmlns:inkscape="http://www.inkscape.org/namespaces/inkscape"
   inkscape:version="0.92.3 (2405546, 2018-03-11)"
   sodipodi:docname="LighthouseNew.svg"
   id="svg8"
   version="1.1"
   viewBox="0 0 210 297"
   height="297mm"
   width="210mm">
  <defs
     id="defs2" />
  <sodipodi:namedview
     inkscape:window-maximized="1"
     inkscape:window-y="-9"
     inkscape:window-x="-9"
     inkscape:window-height="1121"
     inkscape:window-width="1920"
     showgrid="true"
     inkscape:current-layer="layer2"
     inkscape:document-units="mm"
     inkscape:cy="449.99622"
     inkscape:cx="438.66026"
     inkscape:zoom="0.35"
     inkscape:pageshadow="2"
     inkscape:pageopacity="0.0"
     borderopacity="1.0"
     bordercolor="#666666"
     pagecolor="#ffffff"
     id="base">
    <inkscape:grid
       type="xygrid"
       id="grid913" />
  </sodipodi:namedview>
  <metadata
     id="metadata5">
    <rdf:RDF>
      <cc:Work
         rdf:about="">
        <dc:format>image/svg+xml</dc:format>
        <dc:type
           rdf:resource="http://purl.org/dc/dcmitype/StillImage" />
        <dc:title />
      </cc:Work>
    </rdf:RDF>
  </metadata>
  <g
     inkscape:label="Layer 1"
     inkscape:groupmode="layer"
     id="layer1">
    <path
       style="opacity:1;fill:#4e9fa3;fill-opacity:1;stroke:none;stroke-width:0.26458332;stroke-opacity:1"
       d="m -330.72917,-9.9166667 0,507.9999967 801.6875,-8 V -9.9166667 Z M 313.89555,135.22641 h 8.31578 l -0.37828,14.36295 -8.31524,-2.26756 z"
       id="rect10"
       inkscape:connector-curvature="0"
       sodipodi:nodetypes="cccccccccc" />
    <path
       style="fill:#235153;fill-opacity:1;stroke:none;stroke-width:0.26458332px;stroke-linecap:butt;stroke-linejoin:miter;stroke-opacity:1"
       d="m -330.72917,236.14583 v -84.66666 l 13.22917,1.13392 4.53573,-15.875 3.77976,15.11905 h 8.31545 l 1.51191,-21.16666 -5.29166,-0.75596 10.58333,-16.63095 9.82739,20.41071 -4.53572,-0.75595 0.75596,19.65476 10.58334,0.75596 7.55951,-12.8512 2.26785,14.3631 h 16.63096 c 0,0 5.29167,-6.80357 14.3631,-6.04762 9.07143,0.75595 13.60714,8.31548 13.60714,8.31548 h 6.04762 l -1.51191,-27.97024 -4.53571,-0.75595 -3.77976,-8.31548 h 8.31547 l 1.51191,3.02381 5.29167,1.5119 -1.51191,-5.29166 h 6.04762 l 0.75595,4.53571 3.77976,1.51191 4.53572,-5.29167 h 4.53571 l -4.53571,7.55953 -6.80357,1.5119 -0.75596,26.45833 26.45834,0.75595 c 0,0 -10.58334,17.38691 -9.07143,24.94643 1.5119,7.55953 0.75595,15.875 0.75595,15.875 0,0 49.13691,-3.02381 68.79167,2.26786 19.65476,5.29167 63.499997,16.63095 74.839281,16.63095 11.339288,0 76.35119,9.07143 89.202381,11.33929 12.851191,2.26786 58.208328,13.60714 58.208328,13.60714 z"
       id="path875"
       inkscape:connector-curvature="0"
       sodipodi:nodetypes="ccccccccccccccccsccccccccccccccccccccssscc" />
    <path
       style="fill:#235153;fill-opacity:1;stroke:none;stroke-width:0.26458332px;stroke-linecap:butt;stroke-linejoin:miter;stroke-opacity:1"
       d="m 321.84533,94.407789 c -5.60279,-0.187384 -6.80218,13.604341 -6.80218,13.604341 l -6.8037,21.16666 -3.77963,66.52359 -13.60741,16.63103 -24.19028,15.11897 -17.38704,-16.63051 -12.09539,24.94628 58.96437,6.80372 123.22037,-1.51205 -9.82731,-13.60744 -10.58333,2.26808 c 0,0 -7.55968,3.77962 -12.09538,-1.51205 -4.53572,-5.29166 3.7796,-7.55923 3.7796,-7.55923 l -13.60691,-13.60744 -18.14309,3.78013 -15.875,-3.0241 -1.51153,-83.15461 c 0,-10e-6 -9.82753,-24.946732 -17.38704,-29.482444 -0.82683,-0.496094 -1.58105,-0.729914 -2.26912,-0.752927 z m -7.93647,40.818701 h 8.31577 l -0.37827,14.36295 -8.31525,-2.26757 z"
       id="path877"
       inkscape:connector-curvature="0" />
    <path
       style="fill:#66bec3;fill-opacity:1;stroke:none;stroke-width:0.26458332px;stroke-linecap:butt;stroke-linejoin:miter;stroke-opacity:1"
       d="m -330.72917,234.82292 801.6875,-1.32292 -1.30952,261.11905 -797.73214,3.46428 z"
       id="path60"
       inkscape:connector-curvature="0"
       sodipodi:nodetypes="ccccc" />
    <path
       style="fill:#51aaaf;fill-opacity:1;stroke:none;stroke-width:0.26458332px;stroke-linecap:butt;stroke-linejoin:miter;stroke-opacity:1"
       d="m -330.72917,265.25 c 0,0 324.6815507,8.31548 502.33036,49.13689 178.87744,41.10374 297.84524,57.45238 297.84524,57.45238 l 0.2024,122.77978 -797.73216,3.46428 z"
       id="path869"
       inkscape:connector-curvature="0"
       sodipodi:nodetypes="cscccc" />
    <path
       style="fill:none;stroke:#000000;stroke-width:0.26458332px;stroke-linecap:butt;stroke-linejoin:miter;stroke-opacity:1"
       d="M -330.35115,494.61904 H 469.64883"
       id="path871"
       inkscape:connector-curvature="0" />
    <path
       style="fill:#4d9da1;fill-opacity:1;stroke:none;stroke-width:0.26458332px;stroke-linecap:butt;stroke-linejoin:miter;stroke-opacity:1"
       d="m 470.95833,259.95833 c 0,0 -176.1369,1.51189 -333.375,49.89286 -157.238093,48.38094 -468.3125,40.06548 -468.3125,40.06548 l 2.64584,148.16666 799.04166,0 z"
       id="path873"
       inkscape:connector-curvature="0"
       sodipodi:nodetypes="cscccc" />
    <path
       style="fill:#ecca3a;fill-opacity:1;stroke:none;stroke-width:0.26458332px;stroke-linecap:butt;stroke-linejoin:miter;stroke-opacity:1"
       d="M 317.0729,126.7653 227.11457,234.11051 H 113.72171 Z"
       id="path908"
       inkscape:connector-curvature="0" />
    <path
       style="fill:#e7dc43;fill-opacity:1;stroke:none;stroke-width:0.26458332px;stroke-linecap:butt;stroke-linejoin:miter;stroke-opacity:1"
       d="m 227.11457,234.11051 c 0,0 -12.09524,11.71726 -34.39583,17.38691 -18.5491,4.71587 -57.64661,4.68271 -70.30357,-8.31548 l -8.69346,-9.07143 z"
       id="path910"
       inkscape:connector-curvature="0"
       sodipodi:nodetypes="csccc" />
  </g>
  <g
     inkscape:groupmode="layer"
     id="layer2"
     inkscape:label="Layer 2" />
</svg>
