<?xml version="1.0" encoding="UTF-8" standalone="no"?>
<!-- Created with Inkscape (http://www.inkscape.org/) -->

<svg
   xmlns:dc="http://purl.org/dc/elements/1.1/"
   xmlns:cc="http://creativecommons.org/ns#"
   xmlns:rdf="http://www.w3.org/1999/02/22-rdf-syntax-ns#"
   xmlns:svg="http://www.w3.org/2000/svg"
   xmlns="http://www.w3.org/2000/svg"
   xmlns:sodipodi="http://sodipodi.sourceforge.net/DTD/sodipodi-0.dtd"
   xmlns:inkscape="http://www.inkscape.org/namespaces/inkscape"
   width="210mm"
   height="297mm"
   viewBox="0 0 210 297"
   version="1.1"
   id="svg8"
   inkscape:version="0.92.3 (2405546, 2018-03-11)"
   sodipodi:docname="mountain-intro.svg">
  <defs
     id="defs2" />
  <sodipodi:namedview
     id="base"
     pagecolor="#ffffff"
     bordercolor="#666666"
     borderopacity="1.0"
     inkscape:pageopacity="0.0"
     inkscape:pageshadow="2"
     inkscape:zoom="0.35"
     inkscape:cx="445.51968"
     inkscape:cy="-7.2562021"
     inkscape:document-units="mm"
     inkscape:current-layer="layer7"
     showgrid="false"
     inkscape:window-width="1920"
     inkscape:window-height="1121"
     inkscape:window-x="-9"
     inkscape:window-y="-9"
     inkscape:window-maximized="1"
     showguides="true"
     inkscape:object-paths="false"
     inkscape:snap-grids="false"
     inkscape:snap-nodes="false"
     inkscape:snap-bbox="true"
     inkscape:snap-others="false">
    <inkscape:grid
       type="xygrid"
       id="grid823" />
  </sodipodi:namedview>
  <metadata
     id="metadata5">
    <rdf:RDF>
      <cc:Work
         rdf:about="">
        <dc:format>image/svg+xml</dc:format>
        <dc:type
           rdf:resource="http://purl.org/dc/dcmitype/StillImage" />
        <dc:title></dc:title>
      </cc:Work>
    </rdf:RDF>
  </metadata>
  <g
     inkscape:groupmode="layer"
     id="layer9"
     inkscape:label="sky/water"
     style="display:inline"
     sodipodi:insensitive="true">
    <rect
       style="opacity:1;fill:#000080;fill-opacity:1;stroke:none;stroke-width:0.26499999;stroke-miterlimit:4;stroke-dasharray:none;stroke-opacity:1"
       id="rect4986"
       width="732.51788"
       height="631.9762"
       x="-218.47023"
       y="-37.886906"
       ry="0.065259211" />
  </g>
  <g
     inkscape:label="mountain"
     inkscape:groupmode="layer"
     id="layer1"
     style="display:inline">
    <path
       style="fill:#e3dbde;fill-opacity:1;stroke:none;stroke-width:0.26458332px;stroke-linecap:butt;stroke-linejoin:miter;stroke-opacity:1"
       d="m -63.5,297 94.494047,-69.9256 c 0,0 10.961309,-12.85119 17.00893,-7.55952 6.047618,5.29167 26.080357,20.03274 26.080357,20.03274 l 38.931546,-35.90774 c 0,0 10.96131,-12.47321 15.11905,-7.55952 4.15774,4.91369 9.82738,11.71726 9.82738,11.71726 l 8.31548,-7.55953 c 0,0 4.15773,-4.91369 6.80357,-2.64583 2.64583,2.26786 18.89881,19.65476 18.89881,19.65476 l 12.47321,-9.82738 c 0,0 7.18155,-7.9375 9.44941,-4.91369 l 2.26785,3.02381 L 312.20833,297 H 211.66667 0 Z"
       id="path815"
       inkscape:connector-curvature="0"
       sodipodi:nodetypes="ccsccsccccccccccc" />
    <path
       style="display:inline;fill:#fff6d5;stroke:none;stroke-width:0.26499999;stroke-linecap:butt;stroke-linejoin:miter;stroke-miterlimit:4;stroke-dasharray:none;stroke-opacity:1"
       d="m -57.074405,292.08632 c 0,0 -36.663688,0 -32.883927,3.40177 3.779761,3.40178 15.119048,8.31549 23.8125,10.20535 8.693451,1.88989 20.78869,-3.77976 41.57738,-2.26785 20.7886902,1.51191 84.666666,15.11906 125.488092,12.47323 40.82143,-2.64584 60.09822,-15.11906 91.47024,-15.11906 31.37202,0 75.21727,15.11906 101.29762,12.85118 26.08035,-2.26785 42.71131,-13.60712 35.15177,-15.875 -7.55952,-2.26785 -23.8125,-5.29167 -23.8125,-5.29167 z"
       id="path4767"
       inkscape:connector-curvature="0" />
  </g>
  <g
     inkscape:groupmode="layer"
     id="layer6"
     inkscape:label="mountain 1"
     style="display:inline">
    <path
       style="display:inline;fill:#e3dbde;fill-opacity:1;stroke:none;stroke-width:0.01493295px;stroke-linecap:butt;stroke-linejoin:miter;stroke-opacity:1"
       d="m -28.638791,189.9259 5.333193,-3.94657 c 0,0 0.61865,-0.72532 0.959976,-0.42665 0.341325,0.29866 1.471964,1.13064 1.471964,1.13064 l 2.197276,-2.02662 c 0,0 0.61865,-0.70398 0.853314,-0.42666 0.234664,0.27733 0.554649,0.66132 0.554649,0.66132 l 0.469321,-0.42666 c 0,0 0.234664,-0.27732 0.383993,-0.14932 0.149329,0.12799 1.066637,1.1093 1.066637,1.1093 l 0.703985,-0.55465 c 0,0 0.40532,-0.44799 0.533322,-0.27733 l 0.127996,0.17067 6.5491669,5.16253 h -5.6745269 -11.946361 z"
       id="path815-7"
       inkscape:connector-curvature="0"
       sodipodi:nodetypes="ccsccsccccccccccc" />
    <path
       style="display:inline;fill:#fff6d5;fill-opacity:1;stroke:none;stroke-width:0.01495647;stroke-linecap:butt;stroke-linejoin:miter;stroke-miterlimit:4;stroke-dasharray:none;stroke-opacity:1"
       d="m -28.276132,189.64857 c 0,0 -2.06928,0 -1.855957,0.192 0.21333,0.19199 0.853314,0.46932 1.343969,0.57598 0.490654,0.10667 1.173299,-0.21333 2.346604,-0.12799 1.173299,0.0853 4.778545,0.8533 7.082483,0.70398 2.303944,-0.14933 3.391915,-0.85331 5.162537,-0.85331 1.770623,0 4.2452229,0.85331 5.7171869,0.72531 1.471964,-0.128 2.410606,-0.76798 1.983946,-0.89598 -0.426654,-0.12799 -1.343962,-0.29865 -1.343962,-0.29865 z"
       id="path4767-8"
       inkscape:connector-curvature="0" />
    <path
       style="display:inline;fill:#fff6d5;fill-opacity:1;stroke:none;stroke-width:0.01493295px;stroke-linecap:butt;stroke-linejoin:miter;stroke-opacity:1"
       d="m -21.470974,189.68697 c 0,0 1.791956,-0.59732 2.389272,-1.19464 0.597316,-0.59731 1.791949,-0.89597 2.389265,-0.29866 0.597324,0.59732 2.090621,1.4933 2.38928,1.4933 0.298658,0 -7.167817,0 -7.167817,0 z"
       id="path828-5"
       inkscape:connector-curvature="0" />
    <rect
       style="display:inline;opacity:1;fill:#666666;fill-opacity:1;stroke:none;stroke-width:0.00506799;stroke-opacity:1"
       id="rect865-1"
       width="0.068779953"
       height="0.99549943"
       x="-108.99029"
       y="153.57291"
       transform="rotate(-30)" />
    <rect
       style="display:inline;opacity:1;fill:#666666;fill-opacity:1;stroke:none;stroke-width:0.00508679;stroke-opacity:1"
       id="rect865-7-2"
       width="0.069035031"
       height="0.99919116"
       x="-78.433006"
       y="171.19417"
       transform="matrix(-0.8660254,-0.5,-0.5,0.8660254,0,0)" />
    <rect
       style="display:inline;opacity:1;fill:#cccccc;fill-opacity:1;stroke:none;stroke-width:0.00685601;stroke-opacity:1"
       id="rect859-2"
       width="0.34322622"
       height="0.38045532"
       x="-17.813747"
       y="186.8391" />
    <ellipse
       style="display:inline;opacity:1;fill:#999999;fill-opacity:1;stroke:none;stroke-width:0.00574674;stroke-opacity:1"
       id="path4602-1-0"
       cx="-17.641373"
       cy="187.20839"
       rx="0.1679472"
       ry="0.089666717" />
    <rect
       style="display:inline;opacity:1;fill:#cccccc;fill-opacity:1;stroke:none;stroke-width:0.00592985;stroke-opacity:1"
       id="rect861-1"
       width="0.29322851"
       height="0.24332249"
       x="-17.790699"
       y="187.24033" />
    <ellipse
       style="display:inline;opacity:1;fill:#999999;fill-opacity:1;stroke:none;stroke-width:0.00529031;stroke-opacity:1"
       id="path4602-9"
       cx="-17.644226"
       cy="187.48877"
       rx="0.14232813"
       ry="0.089666717" />
    <rect
       style="display:inline;opacity:1;fill:#cccccc;fill-opacity:1;stroke:none;stroke-width:0.0065138;stroke-opacity:1"
       id="rect863-4"
       width="0.20968886"
       height="0.11975536"
       x="-17.74847"
       y="187.51273" />
    <rect
       style="display:inline;opacity:1;fill:#666666;fill-opacity:1;stroke:none;stroke-width:0.0034151;stroke-opacity:1"
       id="rect865-0-0"
       width="0.068779953"
       height="0.45203704"
       x="-17.676876"
       y="187.66753" />
    <ellipse
       style="display:inline;opacity:1;fill:#cccccc;fill-opacity:1;stroke:none;stroke-width:0.00402677;stroke-opacity:1"
       id="path4602-1-4-3-7"
       cx="-17.644226"
       cy="187.52295"
       rx="0.10389954"
       ry="0.071164057" />
    <ellipse
       style="display:inline;opacity:1;fill:#000000;fill-opacity:1;stroke:none;stroke-width:0.00498524;stroke-opacity:1"
       id="path4600-6"
       cx="-17.643169"
       cy="187.63496"
       rx="0.10466684"
       ry="0.081894338" />
    <ellipse
       style="display:inline;opacity:1;fill:#cccccc;fill-opacity:1;stroke:none;stroke-width:0.00581934;stroke-opacity:1"
       id="path4602-1-4-7"
       cx="-17.642788"
       cy="186.84402"
       rx="0.17221704"
       ry="0.089666717" />
    <ellipse
       style="display:inline;opacity:1;fill:#cccccc;fill-opacity:1;stroke:none;stroke-width:0.00520139;stroke-opacity:1"
       id="path4602-1-4-8-5"
       cx="-17.64706"
       cy="187.2525"
       rx="0.14944455"
       ry="0.082550302" />
    <ellipse
       style="display:inline;opacity:1;fill:#666666;fill-opacity:1;stroke:none;stroke-width:0.0017558;stroke-opacity:1"
       id="path4600-2-4-8"
       cx="-17.642029"
       cy="188.11348"
       rx="0.034259401"
       ry="0.031035654" />
    <ellipse
       style="display:inline;opacity:1;fill:#666666;fill-opacity:1;stroke:none;stroke-width:0.00109338;stroke-opacity:1"
       id="path4600-2-1-32"
       cx="170.85823"
       cy="-114.34108"
       rx="0.012358119"
       ry="0.033364415"
       transform="matrix(-0.670482,0.7419258,-0.84269969,-0.5383839,0,0)" />
    <ellipse
       style="display:inline;opacity:1;fill:#666666;fill-opacity:1;stroke:none;stroke-width:0.00109338;stroke-opacity:1"
       id="path4600-2-1-3-3"
       cx="-151.61656"
       cy="140.89032"
       rx="0.012358119"
       ry="0.033364415"
       transform="matrix(-0.670482,-0.7419258,-0.84269969,0.5383839,0,0)" />
    <circle
       style="opacity:1;fill:#fff6d5;fill-opacity:1;stroke:none;stroke-width:0.10572419;stroke-miterlimit:4;stroke-dasharray:none;stroke-opacity:1"
       id="path4969"
       cx="-21.825621"
       cy="180.54276"
       r="1.5079708" />
  </g>
  <g
     inkscape:groupmode="layer"
     id="layer8"
     inkscape:label="stars">
    <circle
       r="1.1070665"
       cy="144.595"
       cx="115.41727"
       id="circle4971"
       style="opacity:1;fill:#fff6d5;fill-opacity:1;stroke:none;stroke-width:0.0776167;stroke-miterlimit:4;stroke-dasharray:none;stroke-opacity:1" />
    <circle
       style="opacity:1;fill:#fff6d5;fill-opacity:1;stroke:none;stroke-width:0.0776167;stroke-miterlimit:4;stroke-dasharray:none;stroke-opacity:1"
       id="circle4973"
       cx="32.296444"
       cy="120.80801"
       r="1.1070665" />
    <circle
       r="1.1070665"
       cy="82.053925"
       cx="189.45093"
       id="circle4975"
       style="opacity:1;fill:#fff6d5;fill-opacity:1;stroke:none;stroke-width:0.0776167;stroke-miterlimit:4;stroke-dasharray:none;stroke-opacity:1" />
    <circle
       style="opacity:1;fill:#fff6d5;fill-opacity:1;stroke:none;stroke-width:0.0776167;stroke-miterlimit:4;stroke-dasharray:none;stroke-opacity:1"
       id="circle4977"
       cx="-41.737213"
       cy="64.681404"
       r="1.1070665" />
    <circle
       r="1.1070665"
       cy="177.20187"
       cx="251.45746"
       id="circle4979"
       style="opacity:1;fill:#fff6d5;fill-opacity:1;stroke:none;stroke-width:0.0776167;stroke-miterlimit:4;stroke-dasharray:none;stroke-opacity:1" />
    <circle
       style="opacity:1;fill:#fff6d5;fill-opacity:1;stroke:none;stroke-width:0.0776167;stroke-miterlimit:4;stroke-dasharray:none;stroke-opacity:1"
       id="circle4981"
       cx="298.49689"
       cy="105.57364"
       r="1.1070665" />
    <circle
       r="12.466022"
       cy="167.17926"
       cx="73.322296"
       id="circle4983"
       style="opacity:1;fill:#fff6d5;fill-opacity:1;stroke:none;stroke-width:0.87399578;stroke-miterlimit:4;stroke-dasharray:none;stroke-opacity:1" />
  </g>
  <g
     inkscape:groupmode="layer"
     id="layer7"
     inkscape:label="clouds"
     style="display:inline">
    <path
       style="fill:#e3dbde;fill-opacity:1;stroke:none;stroke-width:0.26458332px;stroke-linecap:butt;stroke-linejoin:miter;stroke-opacity:1"
       d="m -74.033657,213.07737 c 0,0 28.597839,-4.54359 39.823157,-4.54359 11.225321,0 28.5978401,1.87089 43.832203,3.20724 15.234363,1.33635 49.177592,-1.87089 49.177592,-1.87089 0,0 -27.261491,4.54358 -40.357698,4.54358 -13.0962065,0 -39.555889,-4.81085 -45.168548,-4.54358 -5.612662,0.26727 -22.450642,2.40543 -31.805075,4.54358 -9.354434,2.13816 -20.045215,1.33635 -20.045215,1.33635 z"
       id="path4931"
       inkscape:connector-curvature="0" />
    <path
       inkscape:connector-curvature="0"
       id="path4933"
       d="m 379.25545,215.09551 c 0,0 -28.59784,4.54359 -39.82316,4.54359 -11.22532,0 -28.59784,-1.87089 -43.8322,-3.20724 -15.23436,-1.33635 -49.17759,1.87089 -49.17759,1.87089 0,0 27.26149,-4.54358 40.3577,-4.54358 13.0962,0 39.55589,4.81085 45.16855,4.54358 5.61266,-0.26727 22.45064,-2.40543 31.80507,-4.54358 9.35443,-2.13816 20.04522,-1.33635 20.04522,-1.33635 z"
       style="fill:#e3dbde;fill-opacity:1;stroke:none;stroke-width:0.26458332px;stroke-linecap:butt;stroke-linejoin:miter;stroke-opacity:1" />
    <path
       style="fill:#e3dbde;fill-opacity:1;stroke:none;stroke-width:0.20014277px;stroke-linecap:butt;stroke-linejoin:miter;stroke-opacity:1"
       d="m 22.567118,189.35805 c 0,0 20.91982,3.5541 29.131339,3.5541 8.211518,0 20.919819,-1.46345 32.06402,-2.50877 11.144201,-1.04533 35.974273,1.46345 35.974273,1.46345 0,0 -19.942262,-3.55409 -29.522369,-3.55409 -9.5801,0 -28.935826,3.76315 -33.041584,3.55409 -4.105759,-0.20907 -16.423036,-1.88158 -23.265966,-3.55409 -6.842929,-1.67252 -14.663429,-1.04533 -14.663429,-1.04533 z"
       id="path4935"
       inkscape:connector-curvature="0" />
    <path
       inkscape:connector-curvature="0"
       id="path4937"
       d="m -63.89822,193.45859 c 0,0 -11.906494,-2.5646 -16.580072,-2.5646 -4.673577,0 -11.906494,1.05601 -18.249204,1.8103 -6.342714,0.7543 -20.474724,-1.05601 -20.474724,-1.05601 0,0 11.35012,2.5646 16.80263,2.5646 5.452503,0 16.468795,-2.71545 18.805583,-2.5646 2.336788,0.15086 9.347154,1.35773 13.241801,2.5646 3.894646,1.20688 8.345678,0.7543 8.345678,0.7543 z"
       style="fill:#e3dbde;fill-opacity:1;stroke:none;stroke-width:0.12826215px;stroke-linecap:butt;stroke-linejoin:miter;stroke-opacity:1" />
    <path
       style="fill:#e3dbde;fill-opacity:1;stroke:none;stroke-width:0.15356483px;stroke-linecap:butt;stroke-linejoin:miter;stroke-opacity:1"
       d="m 330.86096,189.15336 c 0,0 -13.57564,3.22426 -18.90439,3.22426 -5.32875,0 -13.57563,-1.32763 -20.8075,-2.27594 -7.23188,-0.94832 -23.34501,1.32763 -23.34501,1.32763 0,0 12.94126,-3.22426 19.15814,-3.22426 6.21687,0 18.7775,3.41391 21.44187,3.22426 2.66438,-0.18966 10.6575,-1.70696 15.09813,-3.22426 4.44063,-1.51731 9.51564,-0.94832 9.51564,-0.94832 z"
       id="path4939"
       inkscape:connector-curvature="0" />
    <path
       inkscape:connector-curvature="0"
       id="path4947"
       d="m -170.27345,382.0574 c 0,0 74.706521,-24.60099 104.030571,-24.60099 29.324058,0 74.7065252,10.12982 114.503455,17.36541 39.79693,7.23558 128.467294,-10.12983 128.467294,-10.12983 0,0 -71.21556,24.60094 -105.426964,24.60094 -34.2114,0 -103.332384,-26.04805 -117.994409,-24.60094 -14.662033,1.44712 -58.648117,13.02406 -83.084827,24.60094 -24.43671,11.57694 -52.36439,7.23559 -52.36439,7.23559 z"
       style="fill:#e3dbde;fill-opacity:1;stroke:none;stroke-width:0.99506593px;stroke-linecap:butt;stroke-linejoin:miter;stroke-opacity:1" />
    <path
       style="fill:#e3dbde;fill-opacity:1;stroke:none;stroke-width:0.99506593px;stroke-linecap:butt;stroke-linejoin:miter;stroke-opacity:1"
       d="m 149.49441,460.4154 c 0,0 74.70652,24.60099 104.03057,24.60099 29.32406,0 74.70652,-10.12982 114.50345,-17.36541 39.79693,-7.23558 128.4673,10.12983 128.4673,10.12983 0,0 -71.21556,-24.60094 -105.42697,-24.60094 -34.2114,0 -103.33238,26.04805 -117.99441,24.60094 -14.66203,-1.44712 -58.64811,-13.02406 -83.08482,-24.60094 -24.43671,-11.57694 -52.36439,-7.23559 -52.36439,-7.23559 z"
       id="path4949"
       inkscape:connector-curvature="0" />
    <path
       inkscape:connector-curvature="0"
       id="path4966"
       d="m 199.38306,167.37428 c 0,0 1.60362,-4.27631 4.54358,-4.54358 2.93997,-0.26727 3.47451,-0.80181 7.21628,0.26727 3.74178,1.06908 6.1472,-2.13815 6.1472,-2.13815 0,0 3.74178,1.60361 6.1472,1.60361 2.40543,0 7.48355,-1.06908 7.48355,-1.06908 0,0 7.48354,3.20724 9.08716,2.6727 1.60362,-0.53454 4.81085,3.74178 4.81085,3.74178 0,0 -3.20723,1.06907 -5.34539,1.06907 -2.13815,0 -9.08716,-2.40542 -9.08716,-2.40542 0,0 0.53454,1.06907 -6.41447,2.67269 -6.94901,1.60362 -14.43255,0 -14.43255,0 0,0 -5.61267,1.06908 -7.48355,1.06908 -1.87089,0 -2.6727,-2.93997 -2.6727,-2.93997 z"
       style="display:inline;fill:#fff6d5;fill-opacity:1;stroke:none;stroke-width:0.26458332px;stroke-linecap:butt;stroke-linejoin:miter;stroke-opacity:1" />
    <path
       style="display:inline;fill:#e3dbde;fill-opacity:1;stroke:none;stroke-width:0.26458332px;stroke-linecap:butt;stroke-linejoin:miter;stroke-opacity:1"
       d="m 199.65033,165.77066 c 0,0 1.60362,-4.27631 4.54358,-4.54358 2.93997,-0.26727 3.47451,-0.80181 7.21628,0.26727 3.74178,1.06908 6.1472,-2.13815 6.1472,-2.13815 0,0 3.74178,1.60361 6.1472,1.60361 2.40543,0 7.48355,-1.06908 7.48355,-1.06908 0,0 7.48354,3.20724 9.08716,2.6727 1.60362,-0.53454 4.81085,3.74178 4.81085,3.74178 0,0 -3.20723,1.06907 -5.34539,1.06907 -2.13815,0 -9.08716,-2.40542 -9.08716,-2.40542 0,0 0.53454,1.06907 -6.41447,2.67269 -6.94901,1.60362 -14.43255,0 -14.43255,0 0,0 -5.61267,1.06908 -7.48355,1.06908 -1.87089,0 -2.6727,-2.93997 -2.6727,-2.93997 z"
       id="path4945"
       inkscape:connector-curvature="0" />
  </g>
  <g
     inkscape:groupmode="layer"
     id="layer3"
     inkscape:label="hill"
     style="display:inline">
    <path
       style="fill:#fff6d5;fill-opacity:1;stroke:none;stroke-width:0.26458332px;stroke-linecap:butt;stroke-linejoin:miter;stroke-opacity:1"
       d="m 63.499999,292.76664 c 0,0 31.75,-10.58333 42.333331,-21.16667 10.58334,-10.58333 31.75,-15.875 42.33333,-5.29166 10.58334,10.58333 37.04167,26.45833 42.33334,26.45833 5.29166,0 -127.000001,0 -127.000001,0 z"
       id="path828"
       inkscape:connector-curvature="0" />
  </g>
  <g
     inkscape:groupmode="layer"
     id="layer4"
     inkscape:label="telescope"
     sodipodi:insensitive="true" />
  <g
     inkscape:groupmode="layer"
     id="layer2"
     inkscape:label="star"
     style="display:none">
    <path
       sodipodi:type="star"
       style="opacity:1;fill:#fbf0f0;fill-opacity:1;stroke:none;stroke-width:0.26458332;stroke-opacity:1"
       id="path819"
       sodipodi:sides="5"
       sodipodi:cx="161.88481"
       sodipodi:cy="154.82581"
       sodipodi:r1="4.5357141"
       sodipodi:r2="2.2678571"
       sodipodi:arg1="1.5707963"
       sodipodi:arg2="2.1991149"
       inkscape:flatsided="false"
       inkscape:rounded="0"
       inkscape:randomized="0"
       d="m 161.88481,159.36152 -1.33301,-2.70098 -2.98071,-0.43312 2.15686,-2.10242 -0.50916,-2.96866 2.66602,1.40161 2.66603,-1.40161 -0.50917,2.96866 2.15686,2.10242 -2.98071,0.43312 z"
       inkscape:transform-center-x="1.5333333e-006"
       inkscape:transform-center-y="0.43312189" />
  </g>
  <rect
     style="opacity:1;fill:#666666;fill-opacity:1;stroke:none;stroke-width:0.08979521;stroke-opacity:1"
     id="rect865"
     width="1.2186493"
     height="17.638346"
     x="-12.587479"
     y="285.90744"
     transform="rotate(-30)" />
  <rect
     style="opacity:1;fill:#666666;fill-opacity:1;stroke:none;stroke-width:0.09012822;stroke-opacity:1"
     id="rect865-7"
     width="1.2231687"
     height="17.703758"
     x="-240.07097"
     y="154.19824"
     transform="matrix(-0.8660254,-0.5,-0.5,0.8660254,0,0)" />
  <rect
     style="opacity:1;fill:#cccccc;fill-opacity:1;stroke:none;stroke-width:0.12147529;stroke-opacity:1"
     id="rect859"
     width="6.0813127"
     height="6.7409401"
     x="128.29921"
     y="242.30783" />
  <ellipse
     style="opacity:1;fill:#999999;fill-opacity:1;stroke:none;stroke-width:0.10182135;stroke-opacity:1"
     id="path4602-1"
     cx="131.35336"
     cy="248.85106"
     rx="2.9757032"
     ry="1.5887226" />
  <rect
     style="opacity:1;fill:#cccccc;fill-opacity:1;stroke:none;stroke-width:0.10506562;stroke-opacity:1"
     id="rect861"
     width="5.1954484"
     height="4.3112092"
     x="128.7077"
     y="249.41699" />
  <ellipse
     style="opacity:1;fill:#999999;fill-opacity:1;stroke:none;stroke-width:0.09373415;stroke-opacity:1"
     id="path4602"
     cx="131.30293"
     cy="253.81898"
     rx="2.5217824"
     ry="1.5887226" />
  <rect
     style="opacity:1;fill:#cccccc;fill-opacity:1;stroke:none;stroke-width:0.11541203;stroke-opacity:1"
     id="rect863"
     width="3.7152855"
     height="2.1218359"
     x="129.45576"
     y="254.2433" />
  <rect
     style="opacity:1;fill:#666666;fill-opacity:1;stroke:none;stroke-width:0.06050896;stroke-opacity:1"
     id="rect865-0"
     width="1.2186493"
     height="8.0092316"
     x="130.72443"
     y="256.98621" />
  <ellipse
     style="opacity:1;fill:#cccccc;fill-opacity:1;stroke:none;stroke-width:0.07134672;stroke-opacity:1"
     id="path4602-1-4-3"
     cx="131.30293"
     cy="254.42421"
     rx="1.8409011"
     ry="1.260891" />
  <ellipse
     style="opacity:1;fill:#000000;fill-opacity:1;stroke:none;stroke-width:0.08832893;stroke-opacity:1"
     id="path4600"
     cx="131.32152"
     cy="256.40903"
     rx="1.8544961"
     ry="1.4510109" />
  <ellipse
     style="opacity:1;fill:#cccccc;fill-opacity:1;stroke:none;stroke-width:0.10310756;stroke-opacity:1"
     id="path4602-1-4"
     cx="131.32816"
     cy="242.39529"
     rx="3.0513566"
     ry="1.5887226" />
  <ellipse
     style="opacity:1;fill:#cccccc;fill-opacity:1;stroke:none;stroke-width:0.09215866;stroke-opacity:1"
     id="path4602-1-4-8"
     cx="131.2525"
     cy="249.63281"
     rx="2.6478715"
     ry="1.4626335" />
  <ellipse
     style="opacity:1;fill:#666666;fill-opacity:1;stroke:none;stroke-width:0.03110942;stroke-opacity:1"
     id="path4600-2-4"
     cx="131.34155"
     cy="264.88757"
     rx="0.60701108"
     ry="0.54989249" />
  <ellipse
     style="opacity:1;fill:#666666;fill-opacity:1;stroke:none;stroke-width:0.01937267;stroke-opacity:1"
     id="path4600-2-1"
     cx="163.24083"
     cy="-273.96185"
     rx="0.21896222"
     ry="0.59115368"
     transform="matrix(-0.670482,0.7419258,-0.8426997,-0.53838389,0,0)" />
  <ellipse
     style="opacity:1;fill:#666666;fill-opacity:1;stroke:none;stroke-width:0.01937267;stroke-opacity:1"
     id="path4600-2-1-3"
     cx="-307.0094"
     cy="76.425529"
     rx="0.21896224"
     ry="0.59115368"
     transform="matrix(-0.670482,-0.7419258,-0.8426997,0.53838389,0,0)" />
</svg>
