<?xml version="1.0" encoding="UTF-8" standalone="no"?>
<!-- Created with Inkscape (http://www.inkscape.org/) -->

<svg
   xmlns:dc="http://purl.org/dc/elements/1.1/"
   xmlns:cc="http://creativecommons.org/ns#"
   xmlns:rdf="http://www.w3.org/1999/02/22-rdf-syntax-ns#"
   xmlns:svg="http://www.w3.org/2000/svg"
   xmlns="http://www.w3.org/2000/svg"
   xmlns:sodipodi="http://sodipodi.sourceforge.net/DTD/sodipodi-0.dtd"
   xmlns:inkscape="http://www.inkscape.org/namespaces/inkscape"
   version="1.1"
   id="svg10"
   width="526.08002"
   height="464.64001"
   viewBox="0 0 526.08002 464.64001"
   sodipodi:docname="IntroMountain-Background.svg"
   inkscape:version="0.92.4 (5da689c313, 2019-01-14)">
  <metadata
     id="metadata16">
    <rdf:RDF>
      <cc:Work
         rdf:about="">
        <dc:format>image/svg+xml</dc:format>
        <dc:type
           rdf:resource="http://purl.org/dc/dcmitype/StillImage" />
        <dc:title></dc:title>
      </cc:Work>
    </rdf:RDF>
  </metadata>
  <defs
     id="defs14" />
  <sodipodi:namedview
     pagecolor="#ffffff"
     bordercolor="#666666"
     borderopacity="1"
     objecttolerance="10"
     gridtolerance="10"
     guidetolerance="10"
     inkscape:pageopacity="0"
     inkscape:pageshadow="2"
     inkscape:window-width="1920"
     inkscape:window-height="1017"
     id="namedview12"
     showgrid="false"
     inkscape:zoom="1.2935622"
     inkscape:cx="313.69104"
     inkscape:cy="170.47528"
     inkscape:window-x="-8"
     inkscape:window-y="-8"
     inkscape:window-maximized="1"
     inkscape:current-layer="layer3" />
  <g
     inkscape:groupmode="layer"
     id="layer3"
     inkscape:label="background">
    <g
       id="g20"
       transform="translate(1.3461912,1.1753434)">
      <path
         style="fill:#cce8e9;stroke-width:0.32000002"
         d="M 0,232.32001 V 0 h 263.04001 263.04001 v 232.32001 232.32 H 263.04001 0 Z"
         id="path26"
         inkscape:connector-curvature="0" />
    </g>
  </g>
  <g
     inkscape:groupmode="layer"
     id="layer2"
     inkscape:label="mountain"
     style="display:none">
    <path
       style="fill:#b1e4ad;stroke-width:0.32000002"
       d="m 222.59144,407.76487 c -0.0413,-0.0413 -2.25331,-0.15709 -4.91567,-0.25728 -2.66236,-0.10022 -5.31561,-0.3184 -5.89609,-0.48489 -0.5805,-0.16647 -2.03786,-0.30269 -3.2386,-0.30269 -1.20073,0 -2.47485,-0.15613 -2.83138,-0.34691 -0.35653,-0.19082 -2.03906,-0.47588 -3.73896,-0.63348 -6.26319,-0.5806 -8.73063,-1.35254 -16.69073,-5.2216 -2.38684,-1.16016 -6.66474,-3.88617 -7.84,-4.99593 -0.528,-0.49856 -1.85756,-1.42845 -2.95458,-2.06643 -1.09702,-0.63799 -2.65616,-1.73255 -3.46476,-2.43239 -0.80861,-0.69984 -1.92705,-1.50771 -2.48543,-1.79529 -0.55838,-0.28756 -1.44723,-0.8426 -1.97523,-1.23338 -1.33618,-0.98902 -4.20443,-2.39245 -5.92,-2.89667 -1.47432,-0.43335 -3.2539,-1.05997 -7.2,-2.5353 -2.81055,-1.05078 -3.61765,-1.26937 -6.4,-1.73325 -4.59811,-0.76662 -6.11744,-1.07846 -7.52,-1.54352 -1.08169,-0.35868 -3.51027,-0.50793 -9.76001,-0.59987 -8.17652,-0.12029 -18.75677,-0.83043 -20.96,-1.40688 -0.616,-0.16115 -3.64,-0.30665 -6.72,-0.32329 -3.08,-0.0166 -9.272,-0.0968 -13.76,-0.17824 -4.488,-0.0814 -11.184,-0.20061 -14.88,-0.265 -6.36132,-0.11075 -11.09539,-0.50944 -13.6,-1.14534 -0.616,-0.15638 -1.984,-0.38378 -3.04,-0.50528 -1.056,-0.1215 -2.064,-0.33427 -2.24,-0.47283 -0.176,-0.13856 -1.256,-0.49194 -2.4,-0.78531 -1.144,-0.29338 -2.2168,-0.66624 -2.384,-0.82861 -0.1672,-0.16237 -0.53728,-0.2952 -0.8224,-0.2952 -0.62681,0 -2.91807,-1.91427 -3.83856,-3.20698 -0.9443,-1.32614 -1.38528,-4.27795 -0.89317,-5.97865 0.48123,-1.66311 5.8631,-7.33549 9.62467,-10.14423 1.3676,-1.02118 2.6387,-2.14096 2.82467,-2.48845 0.73169,-1.36716 2.86018,-3.16588 6.36735,-5.3808 5.40121,-3.41104 7.14911,-4.86492 8.79121,-7.31244 1.34467,-2.0042 1.47753,-2.38272 1.65807,-4.72394 0.16949,-2.19792 0.10449,-2.72506 -0.4765,-3.86387 -0.93931,-1.84122 -2.66373,-3.15101 -5.65134,-4.29258 -1.408,-0.53798 -4.30913,-1.75888 -6.44695,-2.71312 -2.13783,-0.95421 -4.29783,-1.73658 -4.8,-1.73859 -0.87252,-0.004 -7.31913,-1.00283 -10.35305,-1.60495 -0.792,-0.15718 -4.248,-0.37966 -7.680002,-0.4944 -5.487837,-0.18347 -6.432862,-0.29463 -7.84,-0.92212 -0.88,-0.39243 -2.104,-0.90724 -2.72,-1.14403 -1.728714,-0.66451 -2.488669,-1.23989 -3.237132,-2.45093 -0.583156,-0.94357 -0.657727,-1.40735 -0.487756,-3.03355 0.164464,-1.5735 0.403006,-2.15609 1.322776,-3.23064 1.299545,-1.51822 2.633425,-2.47062 3.464456,-2.47362 0.320289,-0.001 1.218864,-0.44005 1.996834,-0.97531 0.77797,-0.53525 2.603913,-1.53047 4.057658,-2.21159 1.45374,-0.68112 3.651164,-1.96421 4.883165,-2.85131 1.232,-0.88709 3.203671,-2.20737 4.381491,-2.93394 1.17782,-0.72657 2.49109,-1.77754 2.91837,-2.3355 0.42729,-0.55795 1.82368,-1.66246 3.1031,-2.45446 1.27942,-0.792 2.63015,-1.76894 3.00163,-2.17099 0.37147,-0.40203 1.1139,-1.19403 1.64984,-1.76 0.53593,-0.56595 1.7284,-1.98998 2.64994,-3.1645 0.92153,-1.17451 2.43407,-2.63898 3.3612,-3.25437 2.0548,-1.36391 4.2799,-3.72208 4.55816,-4.83079 0.27404,-1.09184 -0.73023,-5.09418 -1.53493,-6.11718 -0.96165,-1.22255 -3.90844,-3.29948 -5.95589,-4.19779 -0.9971,-0.43747 -2.10091,-0.92495 -2.45291,-1.08329 -1.59716,-0.71844 -2.70197,-1.02386 -4.57156,-1.26378 -2.61092,-0.33505 -2.94844,-0.64243 -2.94844,-2.68511 0,-1.40251 0.18616,-1.91161 1.2436,-3.40082 0.68399,-0.96326 1.94399,-2.43137 2.8,-3.26246 1.39115,-1.35065 1.51393,-1.57952 1.1564,-2.15566 -0.22,-0.35452 -0.4,-1.00093 -0.4,-1.43646 0,-1.02623 -0.95616,-1.89477 -2.82318,-2.56447 -1.36311,-0.48894 -2.39398,-0.9634 -4.81107,-2.21431 -1.19581,-0.61887 -3.926651,-1.48141 -4.685751,-1.48001 -0.352,6.4e-4 -2.152001,-0.49921 -4.000001,-1.11081 -2.362502,-0.78187 -3.951827,-1.11425 -5.353524,-1.1196 -1.096439,-0.004 -2.536439,-0.20635 -3.2,-0.44926 -0.663562,-0.2429 -1.854476,-0.61961 -2.646476,-0.83711 -0.792,-0.2175 -1.8,-0.50915 -2.24,-0.64811 -0.44,-0.13896 -1.88,-0.4938 -3.2,-0.78854 -5.584344,-1.24691 -9.9889948,-2.88891 -10.3628408,-3.86314 -0.316555,-0.82493 -0.230148,-1.70944 0.259494,-2.6563 0.554521,-1.07232 4.6383358,-2.90363 11.8633468,-5.31988 l 4.8,-1.60527 1.44,-2.12088 c 2.967578,-4.37075 11.68545,-13.67432 15.613782,-16.66276 3.23058,-2.45764 4.63703,-4.02074 5.84531,-6.49636 0.44705,-0.91596 1.90957,-2.73444 3.42091,-4.25354 1.452,-1.45945 2.64,-2.71373 2.64,-2.78729 0,-0.0736 0.94639,-1.67959 2.1031,-3.56894 2.16372,-3.53419 2.51871,-4.32311 3.79338,-8.43023 0.40967,-1.32 0.96341,-2.92134 1.23054,-3.55854 0.55283,-1.31873 4.09523,-7.31503 5.17595,-8.76146 1.48887,-1.99268 5.29703,-9.34441 5.29703,-10.22601 0,-0.88435 3.38042,-7.18223 5.19984,-9.68754 0.92409,-1.27246 3.04816,-4.19933 4.72016,-6.50416 1.672,-2.30483 3.79644,-4.83924 4.72098,-5.63203 1.81402,-1.5555 3.91086,-4.15819 5.31518,-6.59742 1.1379,-1.97649 2.61981,-2.91502 5.91876,-3.74849 l 2.67491,-0.6758 2.28509,1.33964 c 1.2568,0.7368 3.00508,1.88388 3.88508,2.54906 0.88,0.66518 2.00353,1.39197 2.49674,1.61508 0.87453,0.39561 0.95669,0.34372 3.31817,-2.09559 1.93908,-2.003 2.69082,-3.08247 3.77377,-5.41899 0.74378,-1.60476 1.53289,-3.46719 1.75357,-4.13874 0.8189,-2.49193 2.8371,-3.263 11.5086,-4.397 2.14805,-0.28091 3.30996,-0.6614 5.76,-1.88623 1.68804,-0.84388 3.48144,-1.63149 3.98533,-1.75023 1.55397,-0.3662 4.36006,0.44948 8.24822,2.39761 3.06406,1.53522 3.85506,2.08157 4.46139,3.08146 0.40535,0.66846 1.30129,1.86338 1.99097,2.65538 0.68969,0.792 1.36496,1.728 1.50061,2.08 0.15708,0.40762 0.81234,0.80302 1.80464,1.08898 2.78117,0.80146 5.05906,1.5534 5.94852,1.96362 0.61103,0.28182 0.99258,0.30191 1.28,0.0674 0.22521,-0.18378 1.56148,-0.69475 2.96948,-1.13552 1.408,-0.44077 3.568,-1.18055 4.8,-1.64395 2.66444,-1.00221 3.62295,-0.91101 6.4,0.60895 1.056,0.57797 2.64,1.22343 3.52,1.43434 0.88,0.2109 2.38287,0.83079 3.33972,1.37749 l 1.73973,0.994 2.74027,-0.70601 c 3.23053,-0.83232 3.6984,-0.84726 5.95828,-0.1903 1.66382,0.48369 1.74576,0.47738 2.66943,-0.20552 0.76189,-0.56329 2.27257,-3.17952 2.27257,-3.93569 0,-0.0899 0.50306,-1.02188 1.11792,-2.07097 1.30071,-2.21933 3.81131,-4.77329 4.96208,-5.04777 0.44,-0.10495 2.32502,-0.68853 4.18893,-1.29685 2.63428,-0.85973 3.87599,-1.47525 5.57619,-2.76413 1.20298,-0.91195 2.29846,-1.8741 2.43439,-2.1381 0.13592,-0.264 1.3978,-2.424 2.80418,-4.8 1.40638,-2.376 2.69829,-4.968 2.87092,-5.76 0.17262,-0.792 0.47417,-2.232 0.67009,-3.2 0.64668,-3.195024 1.75445,-4.731565 4.96014,-6.88 2.67438,-1.792362 2.91199,-2.042435 3.57417,-3.761728 0.39014,-1.012954 1.35228,-2.697031 2.1381,-3.742397 0.78581,-1.045366 1.74477,-2.553463 2.13101,-3.351328 0.38623,-0.797866 1.28793,-1.914535 2.00377,-2.481488 0.83334,-0.660016 1.63057,-1.733981 2.21626,-2.985562 1.9875,-4.247203 4.04935,-5.130592 11.63185,-4.983616 3.17023,0.06145 5.07163,0.235386 5.6,0.512278 2.46447,1.291495 5.79801,6.6493 6.43576,10.343821 0.17184,0.995511 0.43011,2.50361 0.57392,3.351332 0.14381,0.847725 0.56947,1.957891 0.9459,2.467043 0.37643,0.509152 0.68179,1.327562 0.67856,1.818688 -0.009,1.434915 -1.97942,5.819735 -3.97853,8.855363 -1.79928,2.73217 -1.84515,2.856282 -1.70856,4.622573 0.10929,1.413351 0.38297,2.159011 1.23665,3.369371 1.95431,2.77086 2.16917,3.22484 2.19291,4.63335 0.0214,1.2717 -0.13539,1.55305 -1.87625,3.36598 -2.14947,2.23844 -3.22036,4.39547 -3.22036,6.48656 0,1.25199 0.17838,1.61789 1.4532,2.98077 2.0671,2.2099 5.00656,3.6805 11.8268,5.91696 3.01841,0.98976 3.56645,1.14206 4.10961,1.14206 1.63725,0 12.1237,4.87633 14.67591,6.82448 0.78115,0.59627 1.58123,1.14069 1.77796,1.20982 0.19673,0.0691 1.22272,0.84229 2.27998,1.71812 1.56499,1.29642 2.19574,2.13244 3.39332,4.49762 0.87425,1.72664 1.38933,3.11805 1.26969,3.42985 -0.26349,0.68663 -3.52707,3.14299 -4.77296,3.59241 -0.53543,0.19314 -1.42493,0.59301 -1.97666,0.88859 -0.55173,0.29559 -2.42373,1.03205 -4.16,1.63658 -1.73627,0.60453 -3.94885,1.45202 -4.91685,1.88333 -2.1851,0.9736 -4.60937,1.71451 -7.52,2.29828 -4.91482,0.98574 -7.03359,1.51086 -11.6,2.875 -4.6916,1.40153 -7.27721,2.10852 -10,2.73432 -3.33486,0.76648 -6.3517,1.68516 -7.84,2.38742 -0.528,0.24914 -1.824,0.80938 -2.88,1.24499 -4.95389,2.04351 -10.87781,6.18192 -12.1088,8.45912 -2.35121,4.34948 -2.45127,4.62629 -2.44538,6.76517 0.005,1.78792 0.15006,2.33754 0.93876,3.5549 1.4025,2.16479 2.72382,3.31236 4.65542,4.04326 0.528,0.19979 2.544,1.01997 4.48,1.82263 1.936,0.80265 4.888,1.83137 6.56,2.28603 1.672,0.45467 4.84,1.39201 7.04,2.083 2.2,0.69098 4.78335,1.49945 5.74079,1.79661 0.95743,0.29716 2.75743,0.99783 4,1.55705 1.24256,0.55923 3.12321,1.2688 4.17921,1.57684 1.056,0.30803 2.424,0.75348 3.04,0.98987 1.1157,0.42816 2.16086,0.77624 6.72,2.238 1.32,0.42322 3.41806,1.13383 4.66236,1.57912 2.56063,0.91637 12.97649,2.60016 17.89764,2.89328 1.76,0.10483 7.69204,0.32822 13.18232,0.49644 8.50274,0.2605 10.32882,0.40385 12.31999,0.96713 1.28572,0.36371 3.5472,0.79178 5.02547,0.95126 3.62025,0.39057 5.70886,1.02366 9.27936,2.81271 4.16822,2.08854 6.21526,3.86676 7.44445,6.46677 0.93769,1.98348 0.97325,2.20623 0.76592,4.8 -0.4537,5.67616 -1.1432,7.255 -5.52976,12.6621 -1.36826,1.68657 -3.18276,3.95556 -4.0322,5.0422 -2.89177,3.69922 -14.0166,15.25571 -14.68588,15.25571 -0.18266,0 -0.88996,0.504 -1.57181,1.12 -0.68183,0.616 -1.39136,1.12 -1.57674,1.12 -0.18537,0 -1.22688,0.72 -2.31443,1.6 -1.08759,0.88 -2.21388,1.6 -2.50287,1.6 -0.289,0 -0.70692,0.21865 -0.92872,0.4859 -0.2218,0.26725 -0.92343,0.71135 -1.55918,0.9869 -1.42682,0.61841 -1.68376,0.74792 -3.87592,1.95361 -5.99758,3.29866 -5.97697,3.2906 -9.21786,3.6086 -10.06724,0.98784 -18.58469,0.99373 -25.98214,0.018 -1.32,-0.17411 -4.056,-0.53003 -6.08,-0.79093 -2.024,-0.2609 -6.306,-0.4806 -9.51556,-0.48822 -5.72856,-0.0136 -5.98087,-0.0435 -13.76,-1.6328 -14.22847,-2.90685 -26.69971,-3.87281 -33.37296,-2.58491 -7.52825,1.45291 -15.40063,3.26383 -18.23148,4.19385 -0.968,0.31802 -3.272,1.03815 -5.12,1.60028 -1.848,0.56214 -3.936,1.21055 -4.64,1.44091 -0.704,0.23036 -3.656,1.16916 -6.56,2.08622 -9.92603,3.13455 -15.27909,4.9987 -18.2738,6.36364 -1.16258,0.52989 -3.46658,1.322 -5.12,1.76025 -1.65341,0.43825 -4.0142,1.17137 -5.2462,1.62915 -2.97942,1.10708 -4.10991,1.32356 -10.88,2.08343 -6.89529,0.77391 -9.61597,1.32706 -13.44001,2.73251 -1.584,0.58216 -3.75513,1.35204 -4.82474,1.71084 -2.35272,0.78921 -5.38549,2.37432 -7.97526,4.16835 -1.056,0.73153 -2.64124,1.81273 -3.52277,2.40268 -4.62243,3.09346 -7.15999,8.49385 -6.79733,14.46594 0.18269,3.00832 1.51232,5.21606 5.30708,8.81188 4.05866,3.84587 7.83525,5.7693 15.57302,7.93128 3.34718,0.93523 14.44793,3.21882 15.68001,3.22563 0.528,0.003 1.84822,0.28378 2.93384,0.62413 1.08561,0.34038 3.53361,0.84992 5.44,1.13235 4.92509,0.72963 12.01851,2.79299 15.94616,4.6385 1.056,0.49619 2.856,1.28953 4,1.76297 1.144,0.47348 4.312,2.05418 7.04,3.51268 4.80017,2.56636 9.64109,4.77891 12.97069,5.92825 0.88588,0.3058 2.41476,0.92378 3.3975,1.37328 0.98274,0.44954 2.41793,0.98333 3.1893,1.18624 0.77138,0.20288 3.05851,0.92608 5.08251,1.60704 2.024,0.681 5.768,1.6793 8.32,2.2185 2.552,0.5392 5.288,1.18701 6.08,1.43958 0.792,0.25258 3.096,0.76554 5.12,1.13994 2.024,0.3744 4.76,0.89472 6.08,1.15632 1.32,0.2616 3.336,0.62842 4.48,0.81517 1.144,0.18678 3.232,0.62633 4.64,0.9768 2.37335,0.59078 3.43762,0.80486 9.12,1.83443 1.144,0.2073 4.87191,0.45898 8.28424,0.55933 6.71543,0.19747 9.44594,-0.0959 15.74238,-1.69143 1.68663,-0.42736 3.63063,-0.77734 4.32,-0.77766 1.48446,0 10.73507,-1.14374 13.25338,-1.6376 2.09689,-0.4112 4.18608,-1.08691 9.77854,-3.16266 5.90768,-2.19273 8.01525,-2.87913 8.84018,-2.87913 0.39539,0 3.31593,-0.49623 6.49009,-1.10272 3.17416,-0.6065 8.01188,-1.33021 10.75052,-1.60826 4.50986,-0.45789 5.85056,-0.45952 14.22096,-0.0173 14.08154,0.74397 16.09603,0.68535 27.83971,-0.80992 1.584,-0.20169 4.248,-0.72406 5.92,-1.16083 1.672,-0.43674 4.048,-0.98138 5.28,-1.21024 1.232,-0.2289 2.816,-0.57261 3.52,-0.76384 0.704,-0.1912 2.216,-0.48685 3.36,-0.65696 1.144,-0.17011 3.448,-0.61386 5.12,-0.98608 1.672,-0.37223 4.33812,-0.87677 5.92471,-1.12122 2.95917,-0.45587 8.08237,-2.0152 10.0753,-3.06659 0.616,-0.32496 1.59984,-0.81939 2.18633,-1.09875 1.52922,-0.72839 6.77386,-4.22413 7.82074,-5.21283 0.48787,-0.46077 1.32224,-1.56375 1.85414,-2.45111 0.53194,-0.88736 1.46474,-2.33174 2.07296,-3.20973 0.60819,-0.87798 1.10583,-1.84147 1.10583,-2.14108 0,-0.29965 0.13568,-0.62864 0.3015,-0.73114 0.16582,-0.1025 0.39523,-0.86698 0.50979,-1.69888 0.11453,-0.8319 0.4976,-2.73654 0.85123,-4.23254 0.65229,-2.75932 0.65056,-3.5605 -0.0179,-8.32 -0.57891,-4.12137 -1.76966,-6.41923 -6.50704,-12.55698 -2.06224,-2.6718 -6.61148,-7.15612 -8.46336,-8.34257 -0.67878,-0.43487 -1.73814,-1.31987 -2.35414,-1.96667 -0.616,-0.64681 -1.624,-1.47707 -2.24,-1.84504 -0.616,-0.36796 -2.056,-1.26761 -3.2,-1.99921 -2.68723,-1.71852 -5.51837,-3.28013 -9.46669,-5.22166 -4.38221,-2.15491 -6.09946,-2.78768 -10.53331,-3.88128 -7.73501,-1.90783 -10.33847,-2.82952 -12.00669,-4.25066 -0.68173,-0.58077 -1.66099,-1.37588 -2.17616,-1.76694 -0.61498,-0.46681 -1.06038,-1.20236 -1.2969,-2.1417 -0.42761,-1.69827 -0.47968,-6.68082 -0.078,-7.47164 0.1552,-0.30561 0.45174,-1.27565 0.65894,-2.15565 0.2072,-0.88 0.71347,-1.96 1.12502,-2.4 0.41156,-0.44 1.01504,-1.30403 1.34106,-1.92007 0.32602,-0.61604 0.98877,-1.63763 1.47277,-2.27021 0.484,-0.63257 0.88,-1.25831 0.88,-1.39053 0,-0.13222 0.26601,-0.62263 0.59117,-1.0898 1.18758,-1.70632 2.71196,-4.75042 3.63027,-7.2494 0.51741,-1.408 1.18326,-3.208 1.47965,-4 0.44384,-1.18598 0.53891,-2.65361 0.53891,-8.32 0,-6.16492 -0.0774,-7.17933 -0.74493,-9.76 -1.00502,-3.8855 -1.70566,-5.20224 -4.40906,-8.28611 -2.66342,-3.03826 -3.40848,-3.57369 -8.60601,-6.18471 -2.112,-1.06098 -4.416,-2.23131 -5.12,-2.60075 -0.704,-0.36943 -2.33248,-0.82014 -3.61882,-1.00157 -1.28633,-0.18144 -2.72633,-0.52204 -3.2,-0.75691 -0.89587,-0.44422 -3.0095,-0.85037 -8.70118,-1.672 -6.40378,-0.92443 -8.53632,-1.07292 -20.15586,-1.40345 -6.42172,-0.18268 -12.46972,-0.46597 -13.44,-0.62955 -0.97028,-0.16358 -3.11775,-0.46706 -4.77215,-0.67439 -4.95477,-0.62095 -28.93234,-6.9652 -31.45532,-8.32279 -0.68803,-0.37023 -4.9511,-1.12315 -8.89668,-1.57128 -8.5754,-0.97399 -10.40574,-1.33908 -12.8,-2.55314 -0.264,-0.13387 -0.81657,-0.73388 -1.22793,-1.33337 -0.69503,-1.01288 -0.73935,-1.33894 -0.62672,-4.60998 0.14325,-4.1603 0.46042,-4.92263 3.09148,-7.43059 1.3738,-1.30953 2.22037,-1.83252 3.56259,-2.20089 0.96832,-0.26575 2.33658,-0.67765 3.04058,-0.91533 0.704,-0.23768 2.72,-0.74813 4.48,-1.13433 3.07163,-0.67401 7.06665,-1.8133 11.84,-3.37651 2.19451,-0.71868 4.79958,-1.34758 9.28,-2.24035 3.33978,-0.66549 4.28978,-0.9863 10.40001,-3.5121 3.08,-1.27319 6.392,-2.57436 7.36,-2.89148 3.53217,-1.15719 7.29892,-3.93446 8.50842,-6.27339 0.62885,-1.21604 0.71643,-3.90638 0.1649,-5.06503 -0.84349,-1.772 -2.97451,-4.90272 -4.31971,-6.34618 -1.14877,-1.23266 -5.69811,-4.28457 -8.03361,-5.38931 -0.88,-0.41626 -2.392,-1.2487 -3.36,-1.84987 -1.88082,-1.16811 -3.66606,-1.87177 -8.00001,-3.15325 -2.90657,-0.85943 -8.38339,-2.66678 -9.44,-3.11519 -3.13437,-1.3302 -5.88403,-2.71791 -6.48,-3.27036 -0.42388,-0.39293 -0.72,-1.04456 -0.72,-1.5844 -6e-5,-1.0301 1.12558,-3.45148 1.60444,-3.45148 0.17131,0 0.74439,-0.5976 1.27349,-1.32801 1.60133,-2.21056 1.23796,-5.0557 -1.06493,-8.33838 -0.73318,-1.04512 -1.59272,-2.28574 -1.91008,-2.756919 -0.8564,-1.271465 -0.55679,-3.108333 0.82842,-5.079094 1.45797,-2.074275 2.94208,-5.010797 3.40923,-6.745671 0.33832,-1.256422 0.44174,-1.351926 1.46397,-1.351926 0.60496,0 1.57141,0.287462 2.14767,0.638803 0.57625,0.351344 1.34293,0.639344 1.70373,0.64 0.3608,6.4e-4 0.7928,0.136845 0.96,0.302637 0.39245,0.389152 4.00394,0.972208 6.064,0.979002 1.41793,0.0047 1.8239,0.179088 3.56756,1.53264 1.08216,0.840051 2.53867,2.249881 3.23671,3.132963 2.30333,2.913936 4.7673,4.832678 7.84308,6.107571 2.18126,0.904124 3.04341,1.447174 3.68824,2.323164 0.46285,0.62877 1.39166,1.75739 2.06401,2.50803 1.06963,1.1942 3.7604,6.30104 3.7604,7.13692 0,0.16711 0.756,1.13227 1.68,2.14481 0.924,1.01253 2.07877,2.32163 2.56616,2.90909 0.48739,0.58746 1.07444,0.99587 1.30457,0.90756 0.23012,-0.0883 0.68358,-0.85865 1.00768,-1.71187 0.3241,-0.85322 1.05986,-2.27132 1.63502,-3.15132 0.57516,-0.88 1.35606,-2.574 1.73534,-3.76444 0.37928,-1.19044 1.29074,-2.99044 2.02547,-4 0.73472,-1.00956 1.58909,-2.23183 1.89859,-2.71616 1.25072,-1.95726 4.27156,-3.171381 9.38407,-3.771605 4.14521,-0.486662 6.55862,-1.89392 9.74169,-5.680435 1.12864,-1.342595 3.90045,-2.135622 6.51831,-1.864912 3.48864,0.360768 5.24218,0.708618 5.76672,1.143968 0.28352,0.235293 1.51571,1.738605 2.73824,3.340694 1.2225,1.60209 2.70355,3.48889 3.29117,4.19289 0.58765,0.704 1.54713,2.36 2.13219,3.68 1.3327,3.00683 2.27914,4.0538 3.9143,4.33006 1.42695,0.24108 4.20288,2.52445 6.99031,5.74994 1.768,2.04583 3.03568,3.12169 6.44649,5.47097 l 2.13636,1.47145 4.10364,0.25915 c 5.2297,0.33026 6.88509,1.03667 10.20189,4.35349 0.87786,0.87787 1.77127,1.44154 2.50218,1.57865 0.62525,0.1173 1.30358,0.41421 1.50739,0.6598 0.61859,0.74536 1.38099,0.50933 2.69223,-0.83348 1.08886,-1.11513 1.43369,-1.28003 2.67683,-1.28003 0.95331,0 1.89053,0.27168 2.82361,0.81854 0.76816,0.45017 2.3648,1.0168 3.5481,1.25918 1.96205,0.40188 2.26416,0.57577 3.43146,1.97515 0.704,0.84396 2.5566,2.76025 4.11686,4.25844 2.67754,2.57096 2.96704,2.98472 5.15418,7.36634 1.27452,2.55331 2.62832,5.57838 3.00841,6.72238 1.44506,4.34908 2.41175,5.32172 6.33101,6.37008 5.57677,1.49174 7.81136,1.71467 14.7831,1.47484 l 6.60644,-0.22725 1.44553,1.10898 c 1.63223,1.25217 4.79895,2.90625 6.22349,3.25072 0.52199,0.12621 1.62128,0.72294 2.44288,1.32606 0.8216,0.60311 1.64231,1.09657 1.82378,1.09657 0.77133,0 3.13872,3.29721 4.74637,6.61058 0.95286,1.96381 2.60096,4.69981 3.66249,6.08 1.06154,1.38018 2.36576,3.26706 2.89831,4.19305 0.53254,0.92599 1.73872,2.34878 2.68038,3.16175 1.00653,0.86898 2.12512,2.25302 2.7143,3.35843 0.6561,1.23096 1.35447,2.06166 2.02234,2.40548 0.56106,0.28885 1.61094,1.00793 2.33309,1.59795 0.72211,0.59002 1.48528,1.07276 1.6959,1.07276 0.98615,0 2.2272,1.02391 2.71315,2.2384 0.28676,0.71664 0.77261,1.38806 1.07968,1.49203 1.89684,0.64227 3.95008,1.7684 5.20736,2.85604 1.80535,1.56175 4.20407,2.78494 7.19095,3.6669 1.65142,0.48764 2.72,1.16542 2.72,1.72528 0,0.24414 -0.57622,1.17286 -1.28048,2.06382 -1.09283,1.38252 -1.55008,1.69409 -3.12,2.1259 -1.01174,0.27827 -2.18515,0.649 -2.60759,0.82383 -0.42243,0.17483 -2.11209,0.51964 -3.75478,0.76624 -2.6624,0.39966 -3.37456,0.66447 -6.5577,2.43839 -1.964,1.09452 -4.01833,2.1587 -4.56518,2.36484 -2.50755,0.94528 -3.41222,1.50481 -3.87267,2.39524 -0.4457,0.86187 -0.4449,1.0718 0.008,2.1589 0.27609,0.66231 1.09462,2.11476 1.81894,3.22769 1.02835,1.58003 1.45267,1.98799 1.93626,1.86153 0.41712,-0.10908 0.97795,0.19668 1.71779,0.93651 0.60416,0.60416 1.22461,1.09846 1.37878,1.09846 0.24935,0 3.63178,2.67175 5.77834,4.56424 1.54963,1.36623 5.63226,3.60398 7.88506,4.32192 2.37053,0.75546 4.1328,1.76458 4.71421,2.69946 0.50835,0.81742 -0.81988,2.07642 -2.47415,2.34527 -0.72883,0.11843 -1.75712,0.40008 -2.28512,0.62589 -0.528,0.2258 -2.89635,0.94803 -5.26301,1.60494 -2.36662,0.65691 -5.17462,1.51881 -6.24,1.91532 -1.06534,0.3965 -2.62099,0.8202 -3.45699,0.94155 -0.836,0.12135 -1.52,0.36445 -1.52,0.54022 0,0.17577 0.504,0.97966 1.12,1.78641 1.52768,2.00075 1.47984,2.95162 -0.24,4.76982 -1.13802,1.20311 -1.7256,1.5341 -3.6,2.02797 -2.13344,0.56212 -4.54365,1.37669 -13.6,4.59636 -5.06419,1.80039 -5.03965,1.78966 -5.22982,2.2853 -0.42461,1.10649 4.89644,9.30262 7.3551,11.32926 2.2063,1.81863 6.91837,7.86457 9.48608,12.1714 0.89293,1.49772 1.4297,1.95492 4.06864,3.46574 1.672,0.95722 3.73978,2.3267 4.59504,3.04327 1.34237,1.12468 1.95507,1.38364 4.48,1.89349 2.77107,0.55957 6.99552,2.34493 10.12496,4.27909 0.616,0.38072 1.984,1.16387 3.04,1.74035 3.59245,1.96112 5.28,4.10305 5.28,6.70163 0,2.40559 -0.24774,2.64915 -3.88249,3.81711 -1.82464,0.5863 -3.89351,1.33112 -4.59751,1.65515 -0.704,0.32403 -3.512,1.56008 -6.24,2.74676 -5.22736,2.27393 -7.06784,3.43892 -7.86342,4.97736 -0.3128,0.6049 -0.81834,1.00308 -1.42848,1.12511 -1.36298,0.2726 -3.8281,2.66238 -3.8281,3.71115 0,0.46023 -0.15411,1.24215 -0.34246,1.73754 -0.18836,0.49542 -0.40138,1.89418 -0.47338,3.10832 -0.0857,1.44528 -0.3121,2.40778 -0.65555,2.7873 -0.78474,0.8671 -0.33303,2.7344 0.91321,3.7751 0.54679,0.45661 1.29207,1.17299 1.65616,1.59197 2.77565,3.19395 3.57389,3.88637 5.7073,4.95088 1.27309,0.6352 3.34429,1.42342 4.60269,1.75158 2.024,0.52781 2.56579,0.84829 4.69616,2.77773 2.46272,2.2305 2.76387,2.72806 2.77149,4.57907 0.006,1.46291 -0.3776,2.05514 -2.14781,3.31555 -4.19299,2.98557 -5.86407,3.68324 -10.96781,4.57914 -1.672,0.29347 -3.904,0.73066 -4.96,0.97149 -1.056,0.2408 -2.496,0.53075 -3.2,0.64429 -1.46819,0.23676 -14.11507,3.2624 -18.88,4.5168 -1.76,0.46332 -4.424,1.16483 -5.92,1.55891 -6.2375,1.64301 -15.93392,2.46761 -28.32,2.40841 -1.936,-0.009 -4.168,0.12772 -4.96,0.30442 -0.792,0.17667 -2.808,0.46154 -4.48,0.63302 -8.59712,0.88176 -9.76183,1.05751 -13.76,2.07626 -0.968,0.24666 -2.912,0.69219 -4.32,0.99011 -2.61424,0.55315 -4.95587,1.14647 -7.52,1.90538 -0.792,0.2344 -2.376,0.59878 -3.52,0.80976 -2.26192,0.41715 -4.78061,1.05753 -7.04,1.78995 -0.792,0.25674 -2.376,0.76157 -3.52,1.12186 -1.144,0.36028 -2.728,0.86486 -3.52,1.12121 -0.792,0.25639 -2.088,0.66618 -2.88,0.91066 -0.792,0.24445 -2.448,0.82208 -3.68,1.28358 -4.42164,1.65639 -6.02768,2.1217 -8.27648,2.39795 -3.03978,0.37341 -6.32749,0.94964 -6.6874,1.17207 -0.15984,0.0988 -1.17833,0.3815 -2.26336,0.62832 -1.08502,0.24678 -2.83676,0.66694 -3.89276,0.93369 -1.056,0.26676 -2.568,0.62656 -3.36,0.79959 -1.37802,0.30102 -3.28125,0.97209 -6.40001,2.25664 -0.792,0.32621 -2.232,0.80422 -3.2,1.06224 -0.968,0.25801 -2.768,0.84701 -4,1.30886 -4.63961,1.73936 -6.00582,2.10339 -8.93321,2.38035 -1.65453,0.15655 -3.27342,0.4218 -3.59752,0.58944 -0.32409,0.16765 -1.59727,0.484 -2.82927,0.70301 -1.232,0.21901 -3.032,0.61245 -4,0.87427 -0.968,0.26186 -2.48,0.66944 -3.36,0.90576 -0.88,0.23632 -2.464,0.66832 -3.52,0.96 -1.056,0.29168 -2.712,0.74503 -3.68,1.00746 -0.968,0.2624 -2.408,0.66384 -3.2,0.89206 -1.65558,0.47709 -3.75202,0.92516 -6.72,1.43623 -1.144,0.19699 -2.8,0.49392 -3.68,0.65987 -0.88,0.16598 -3.06231,0.4353 -4.84958,0.59853 -1.78727,0.16323 -3.51527,0.43027 -3.84,0.59344 -0.32473,0.16317 -1.67042,0.47846 -2.99042,0.7007 -1.32,0.22224 -3.696,0.68003 -5.28,1.01735 -5.4259,1.15545 -7.04262,1.48278 -9.12,1.84659 -2.16375,0.37891 -9.81562,0.79917 -12.70143,0.69757 -0.91378,-0.0322 -2.20978,0.0873 -2.88,0.26553 -0.67021,0.17818 -3.37857,0.41168 -6.01857,0.51888 -4.9751,0.20202 -17.11681,0.36861 -17.24857,0.23664 z"
       id="path24"
       inkscape:connector-curvature="0" />
  </g>
  <g
     inkscape:groupmode="layer"
     id="layer1"
     inkscape:label="shadow"
     style="display:none">
    <path
       style="fill:#9fc1a1;stroke-width:0.32000002"
       d="m 55.5684,295.16083 c -0.10588,-0.17131 -0.26137,-1.27389 -0.34553,-2.45018 l -0.15302,-2.1387 2.77697,-2.69767 c 1.52733,-1.48372 3.01301,-2.74966 3.3015,-2.8132 1.07549,-0.23687 2.87858,-1.66508 5.573,-4.41431 3.00834,-3.06956 4.10627,-4.72466 4.10627,-6.19016 0,-0.5173 0.288,-1.4533 0.64,-2.08 0.5396,-0.96072 0.64,-1.73262 0.64,-4.92057 0,-2.57055 -0.14251,-4.07859 -0.4451,-4.71027 -0.24481,-0.51104 -0.67789,-1.43686 -0.9624,-2.05737 -0.28451,-0.62051 -1.26551,-1.70051 -2.17999,-2.4 -3.43938,-2.63076 -4.0872,-3.76202 -4.09073,-7.14343 -0.002,-1.98676 0.6292,-3.49394 2.12984,-5.08508 1.28603,-1.36359 1.31076,-1.55307 0.2378,-1.82236 -0.45681,-0.11466 -1.78728,-0.85027 -2.95658,-1.63469 -1.16931,-0.78443 -2.29588,-1.42623 -2.50349,-1.42623 -0.20762,0 -0.78516,-0.20002 -1.28342,-0.44449 -1.39662,-0.68524 -3.0333,-1.2199 -4.26593,-1.39356 -0.616,-0.0868 -1.264,-0.2692 -1.44,-0.40537 -0.176,-0.13616 -1.40919,-0.5511 -2.74042,-0.92208 -1.91606,-0.53395 -3.32522,-0.6745 -6.76267,-0.6745 -3.99809,0 -4.35488,-0.0482 -4.50138,-0.60845 -0.14485,-0.55391 -0.55697,-0.61856 -4.59733,-0.72124 -3.42753,-0.0871 -4.68623,-0.24003 -5.52737,-0.67155 -0.78806,-0.40429 -1.85207,-0.55876 -3.8488,-0.55876 -3.23054,0 -4.18203,-0.4434 -4.18203,-1.94882 0,-0.66218 0.34186,-1.29439 1.12157,-2.07409 0.61686,-0.61686 1.56022,-1.94406 2.09634,-2.94933 1.41992,-2.66245 3.59979,-5.80085 5.04802,-7.26777 0.69503,-0.704 1.40449,-1.55209 1.57659,-1.88464 0.17209,-0.33256 1.51992,-1.85008 2.99518,-3.37227 1.47527,-1.52219 3.42584,-3.55409 4.33463,-4.51535 0.90878,-0.96125 2.26461,-2.17974 3.01296,-2.70774 2.96505,-2.092 5.71607,-5.0319 7.22628,-7.72242 1.03233,-1.83916 2.10486,-3.20593 3.48277,-4.43828 1.36969,-1.225 2.56998,-2.75109 3.84605,-4.89002 1.02025,-1.71011 2.0327,-3.32529 2.24991,-3.58929 0.2172,-0.264 1.00368,-2.352 1.74773,-4.64 0.74404,-2.288 1.63993,-4.736 1.99085,-5.44 0.7967,-1.5983 3.94597,-6.84914 5.33624,-8.89724 1.37265,-2.02215 4.81488,-8.71663 4.81488,-9.36403 0,-0.82276 3.72734,-7.8901 4.88886,-9.26968 0.58765,-0.69797 1.41296,-1.84505 1.83401,-2.54905 1.63789,-2.7385 5.65887,-7.79821 8.13778,-10.24 1.42942,-1.408 3.19798,-3.496 3.93015,-4.64 2.63598,-4.11866 3.33013,-4.65197 7.19032,-5.52423 l 2.14112,-0.48381 2.65888,1.58513 c 1.46238,0.87182 3.43947,2.15164 4.39353,2.84403 0.95406,0.69238 2.0467,1.25888 2.42808,1.25888 0.46239,0 1.51439,-0.90184 3.1574,-2.70672 2.46516,-2.70806 2.67962,-3.08893 5.54833,-9.85359 0.86418,-2.03783 2.95895,-2.7538 11.10673,-3.79618 2.14011,-0.2738 3.37499,-0.63621 4.93065,-1.44708 1.1415,-0.59499 2.14795,-1.00931 2.23656,-0.92071 0.0886,0.0886 -2.9e-4,0.70182 -0.19753,1.36269 -0.19725,0.66088 -0.44796,2.54143 -0.55713,4.17902 -0.15525,2.32861 -0.0967,3.13274 0.26853,3.69021 0.80522,1.22892 2.14374,6.50938 2.14374,8.45706 0,0.97052 -0.38327,1.7074 -2.03647,3.91541 -1.12005,1.49594 -2.14842,3.07989 -2.28528,3.51989 -0.13685,0.44 -0.8437,1.592 -1.57079,2.56 -0.72709,0.968 -1.51626,2.192 -1.75371,2.72 -0.23744,0.528 -0.63018,1.34222 -0.87274,1.80938 -0.24256,0.46715 -0.44102,1.16492 -0.44102,1.5506 0,0.38567 -0.27174,1.08346 -0.60387,1.55062 -0.61666,0.86739 -0.99938,2.08247 -1.61515,5.12789 -0.19111,0.94516 -0.55156,2.16916 -0.801,2.72 -0.24944,0.55083 -0.60864,2.08151 -0.79823,3.40151 -0.55617,3.87233 -0.69059,4.60425 -0.9697,5.28 -0.73633,1.78271 -1.29205,3.61839 -1.29205,4.268 0,0.39963 -0.432,1.50303 -0.96,2.452 -0.528,0.94898 -0.96,1.91512 -0.96,2.14698 0,0.23186 -0.50401,1.16996 -1.12001,2.08467 -1.28538,1.90869 -1.41496,3.14705 -0.45677,4.3652 0.51347,0.65277 0.94437,0.84315 1.90834,0.84315 1.13701,0 1.38917,-0.17364 2.90442,-2 0.91262,-1.1 2.53787,-2.80106 3.61167,-3.78015 2.44917,-2.23315 7.47617,-5.73985 8.22831,-5.73985 0.31145,0 0.65285,-0.14008 0.75867,-0.3113 0.10582,-0.17122 0.79832,-0.45806 1.53889,-0.63743 0.74057,-0.17937 2.28249,-0.60854 3.42649,-0.9537 3.01819,-0.91064 5.91791,-1.32062 11.52,-1.62873 9.95535,-0.54754 11.78965,-1.14004 15.20977,-4.9129 1.13473,-1.25177 2.06474,-2.43084 2.06668,-2.62016 0.002,-0.18932 0.36227,-0.68122 0.80072,-1.09312 0.43844,-0.4119 1.09546,-1.409 1.46004,-2.21578 2.60819,-5.7717 4.49601,-8.40757 9.88839,-13.80671 3.92723,-3.93215 4.61997,-4.48256 7.3744,-5.85923 3.18025,-1.58949 4.30372,-2.45934 6.7685,-5.24051 1.25161,-1.41227 1.6781,-2.2661 2.67976,-5.36485 1.33875,-4.14158 2.71217,-6.64979 4.69476,-8.57383 1.11463,-1.08171 1.98395,-1.51683 5.04191,-2.52361 2.03229,-0.66909 3.99675,-1.2169 4.36547,-1.21734 0.36872,-3.2e-4 0.94215,-0.30107 1.27427,-0.66806 0.33213,-0.367 1.29648,-1.17569 2.14301,-1.7971 0.87166,-0.63986 1.88644,-1.77292 2.34,-2.61273 1.23999,-2.29601 3.44868,-5.99562 3.88803,-6.51257 0.59888,-0.70462 1.32671,-2.972005 1.69593,-5.283202 0.39534,-2.474755 1.82685,-5.452397 3.16091,-6.574934 0.53155,-0.447274 1.77462,-1.275604 2.76236,-1.840733 1.61958,-0.926628 1.89862,-1.252925 2.84219,-3.323434 0.57545,-1.262755 1.58143,-2.997005 2.2355,-3.853888 0.65408,-0.85688 1.53811,-2.246448 1.96452,-3.087927 0.42641,-0.841477 1.37496,-2.006117 2.1079,-2.588088 0.90747,-0.720557 1.63429,-1.721712 2.27823,-3.138131 0.56274,-1.237805 1.40888,-2.46529 2.08974,-3.031562 1.59276,-1.324704 5.03726,-2.187533 7.66701,-1.920547 2.26108,0.229555 2.37529,0.429449 1.31544,2.302374 -1.03838,1.834992 -1.16891,4.979181 -0.31894,7.682434 1.29732,4.126001 2.00948,7.849802 1.79145,9.3673 -0.47072,3.276384 -1.44317,4.385018 -10.22795,11.660327 -7.60566,6.298801 -9.76,9.469431 -9.76,14.364221 0,1.66278 0.12232,1.96952 1.52,3.81158 0.836,1.1018 2.47286,3.01141 3.63747,4.24357 2.93172,3.10179 3.59994,4.49816 3.62363,7.57223 0.0172,2.22748 -0.0699,2.57898 -0.95166,3.84 -1.19509,1.70919 -7.42319,6.50793 -10.83324,8.34698 -5.47915,2.95492 -10.58813,6.11845 -14.1162,8.74086 -1.232,0.91575 -3.34399,2.43792 -4.69331,3.38261 -7.0621,4.94434 -10.41327,8.06718 -14.72059,13.71762 l -2.56132,3.36 0.13537,2.49177 c 0.0745,1.37046 0.30288,2.65926 0.50761,2.864 0.20473,0.20473 0.37224,0.56353 0.37224,0.79734 0,0.23381 0.48744,1.46501 1.08319,2.736 0.59576,1.27099 1.51397,3.24689 2.04047,4.39089 1.08689,2.36166 1.61115,2.90846 5.2837,5.51101 3.12717,2.21606 6.235,3.75494 9.88291,4.89364 2.95964,0.92385 6.31937,2.23666 7.78973,3.04383 0.528,0.28984 1.824,1.00158 2.88,1.58164 1.056,0.58005 2.064,1.16631 2.24,1.30279 0.176,0.13648 1.544,0.61567 3.04,1.06487 1.496,0.4492 3.44,1.04718 4.32,1.32884 0.88,0.28166 2.72784,0.87369 4.10631,1.31562 3.17417,1.01761 6.92634,3.28427 8.44581,5.10204 0.6465,0.77342 1.53118,2.29533 1.96596,3.38202 0.82301,2.05703 1.9683,3.39424 5.28088,6.16579 2.78428,2.32953 3.8007,5.22803 2.62834,7.49513 -0.67467,1.30467 -1.56526,1.58314 -5.7873,1.80958 -2.112,0.11328 -4.56,0.34728 -5.44,0.52002 -0.88,0.17273 -3.472,0.44989 -5.76,0.61589 -2.288,0.16601 -5.35422,0.39059 -6.81382,0.49908 -1.66248,0.12357 -3.21644,0.0545 -4.16,-0.18491 -0.8284,-0.21019 -3.37818,-0.49992 -5.66618,-0.64385 -2.288,-0.14393 -4.88868,-0.48895 -5.77929,-0.76672 -1.29682,-0.40446 -3.78205,-0.53288 -12.48,-0.64491 -5.97339,-0.0769 -12.68606,-0.29846 -14.91704,-0.49229 -2.96399,-0.25751 -4.47202,-0.25686 -5.6,0.003 -0.84902,0.19515 -4.63967,0.47545 -8.42367,0.62289 -8.84823,0.34476 -12.15282,1.00039 -16.92333,3.35754 -1.86817,0.92308 -3.75667,1.77662 -4.19667,1.89674 -0.90509,0.24709 -2.57424,0.90734 -5.04949,1.99734 -0.92921,0.4092 -1.76511,0.74399 -1.85755,0.74399 -0.1637,0 -1.85969,0.73222 -4.45296,1.9225 -0.704,0.32313 -2.26352,1.02695 -3.46561,1.56405 -1.20208,0.53709 -2.85808,1.4589 -3.68,2.04847 -1.35547,0.97229 -4.78969,2.78498 -5.27627,2.78498 -0.33003,0 -14.79426,6.96824 -15.89814,7.65904 -0.264,0.16521 -0.984,0.54607 -1.6,0.84636 -3.72229,1.81456 -5.24874,2.67566 -7.70571,4.34692 -1.51014,1.02722 -2.95014,1.87114 -3.2,1.87538 -0.50988,0.009 -6.1619,2.79189 -9.0844,4.47347 -1.05057,0.60449 -2.43359,1.62254 -3.0734,2.26234 -1.00296,1.00297 -1.1944,1.43842 -1.38916,3.15986 -0.24431,2.15948 0.0336,5.35762 0.49008,5.63974 0.15543,0.0961 0.2826,0.37856 0.2826,0.62776 0,0.24921 0.42589,1.38298 0.94643,2.5195 1.49996,3.27495 2.08362,5.28758 1.6571,5.7141 -0.19994,0.19994 -0.36353,0.55863 -0.36353,0.79708 0,1.50955 -1.90429,4.07639 -3.83318,5.16686 -1.53115,0.86562 -5.35326,1.60015 -8.25455,1.58636 -3.3088,-0.0157 -7.62756,0.55948 -8.55227,1.13904 -0.352,0.22062 -1.65403,0.7859 -2.8934,1.25618 -1.23937,0.47028 -3.52546,1.49879 -5.08021,2.28558 -1.55475,0.78679 -3.27672,1.49976 -3.8266,1.58439 -2.13903,0.32919 -6.31415,0.38333 -6.49898,0.0843 z M 451.38623,189.92722 c -0.21923,-0.21924 -0.39862,-0.64678 -0.39862,-0.95007 0,-0.3033 -0.32599,-0.9585 -0.72442,-1.456 -0.3984,-0.49751 -1.07427,-1.55256 -1.50192,-2.34456 -0.42765,-0.792 -1.44745,-2.38141 -2.26627,-3.53203 -0.81882,-1.15062 -1.54695,-2.24732 -1.61808,-2.43711 -0.0711,-0.18978 -0.92131,-1.61742 -1.88931,-3.17252 -1.18413,-1.90232 -2.82858,-3.87952 -5.02589,-6.04289 -1.79623,-1.7685 -4.63543,-4.7716 -6.30935,-6.67356 -2.53494,-2.8803 -3.12937,-3.76252 -3.55747,-5.28 -0.28269,-1.00204 -0.79145,-2.7681 -1.13062,-3.92459 -0.33917,-1.15649 -0.61667,-2.37653 -0.61667,-2.7112 0,-0.55776 0.041,-0.55003 0.4911,0.0926 0.85245,1.21705 3.88099,2.25667 10.0689,3.45642 2.26803,0.43974 3.84326,0.48993 9.48006,0.30205 4.9744,-0.16581 6.82032,-0.12783 6.98816,0.14376 0.12547,0.203 -0.10854,1.04633 -0.52006,1.87406 -0.64458,1.29662 -0.74311,1.948 -0.71152,4.70497 0.0424,3.70067 0.6183,6.17744 2.20771,9.49401 0.6136,1.28036 1.11565,2.5755 1.11565,2.87808 0,0.30258 0.144,0.63914 0.32,0.74791 0.18045,0.11152 0.32,1.66227 0.32,3.55572 0,3.41954 -0.66727,7.39937 -1.44807,8.63666 -0.23334,0.36981 -0.471,1.16181 -0.52809,1.76 -0.0944,0.98844 -0.20611,1.09625 -1.22522,1.18225 -0.61673,0.0521 -1.30073,-0.0847 -1.52,-0.304 z M 346.5076,138.39479 c -1.16115,-0.42173 -7.79859,-5.12433 -10.77741,-7.63575 -0.82358,-0.69434 -1.62556,-1.26245 -1.7822,-1.26245 -0.15664,0 -1.0568,-0.576 -2.00039,-1.28 -1.40157,-1.04572 -1.97689,-1.28 -3.14329,-1.28 -1.46215,0 -5.73476,-1.10874 -6.28071,-1.62984 -0.1672,-0.15958 -0.49814,-0.29016 -0.73545,-0.29016 -0.43712,0 -1.6465,-0.55984 -4.21766,-1.95245 -1.44072,-0.78032 -3.86289,-3.04193 -3.86289,-3.60681 0,-0.17069 -0.23495,-0.56996 -0.52211,-0.88727 -0.4843,-0.53514 -0.47171,-0.71077 0.17383,-2.4252 0.38277,-1.01655 1.19919,-2.64027 1.81426,-3.60827 0.61507,-0.968 1.33119,-2.48 1.59138,-3.36 0.50224,-1.6987 1.05289,-2.7007 3.31626,-6.03449 2.10094,-3.09454 4.09003,-4.012925 10.20696,-4.712701 3.69107,-0.422256 5.7032,-1.497802 8.56397,-4.577713 1.48195,-1.595488 2.50208,-2.435094 2.95862,-2.435094 0.83421,0 0.85837,0.217837 0.17594,1.585834 -0.80004,1.603712 -1.13005,5.396381 -0.57248,6.578934 0.59158,1.25463 1.03414,2.71529 1.59241,5.25565 0.24906,1.13324 1.0552,3.29324 1.79143,4.8 1.55382,3.18011 1.71389,4.3154 1.28851,9.13958 -0.30576,3.46736 -0.29866,3.53561 0.47421,4.56342 1.35686,1.80444 2.66681,4.58079 2.66681,5.65207 0,1.37435 0.86256,3.84622 1.97504,5.6599 0.85047,1.38654 1.20061,3.27499 0.66496,3.58634 -0.61606,0.35809 -4.49324,0.47127 -5.36,0.15647 z"
       id="path22"
       inkscape:connector-curvature="0" />
  </g>
</svg>
