<?xml version="1.0" encoding="UTF-8" standalone="no"?>
<svg
   xmlns:dc="http://purl.org/dc/elements/1.1/"
   xmlns:cc="http://creativecommons.org/ns#"
   xmlns:rdf="http://www.w3.org/1999/02/22-rdf-syntax-ns#"
   xmlns:svg="http://www.w3.org/2000/svg"
   xmlns="http://www.w3.org/2000/svg"
   xmlns:sodipodi="http://sodipodi.sourceforge.net/DTD/sodipodi-0.dtd"
   xmlns:inkscape="http://www.inkscape.org/namespaces/inkscape"
   id="morwoodLogoID"
   class="morwood"
   width="1500"
   height="300"
   version="1.1"
   sodipodi:docname="morwood.svg"
   inkscape:version="0.92.4 (5da689c313, 2019-01-14)">
  <metadata
     id="metadata1695">
    <rdf:RDF>
      <cc:Work
         rdf:about="">
        <dc:format>image/svg+xml</dc:format>
        <dc:type
           rdf:resource="http://purl.org/dc/dcmitype/StillImage" />
        <dc:title></dc:title>
      </cc:Work>
    </rdf:RDF>
  </metadata>
  <defs
     id="defs1693" />
  <sodipodi:namedview
     pagecolor="#ffffff"
     bordercolor="#666666"
     borderopacity="1"
     objecttolerance="10"
     gridtolerance="10"
     guidetolerance="10"
     inkscape:pageopacity="0"
     inkscape:pageshadow="2"
     inkscape:window-width="2560"
     inkscape:window-height="1346"
     id="namedview1691"
     showgrid="false"
     inkscape:zoom="0.52266667"
     inkscape:cx="375"
     inkscape:cy="75"
     inkscape:window-x="-11"
     inkscape:window-y="-11"
     inkscape:window-maximized="1"
     inkscape:current-layer="morwoodLogoID" />
  <linearGradient
     id="gradientBackground"
     x1="0"
     y1="0"
     x2="1"
     y2="0">
    <stop
       class="gradientBG1"
       offset="0%"
       stop-color="pink"
       id="stop1654">
      <animate
         attributeName="stop-color"
         values="pink;red;pink"
         dur="2s"
         repeatCount="indefinite" />
    </stop>
    <stop
       class="gradientBG2"
       offset="100%"
       stop-color="blue"
       id="stop1656">
      <animate
         attributeName="stop-color"
         values="blue;cyan;blue"
         dur="2s"
         repeatCount="indefinite" />
    </stop>
  </linearGradient>
  <clipPath
     id="clipGroup">
    <path
       class="moveMbg"
       d="M 175,125 V 75 a 50,50 0 0 1 100,0 v 50 z"
       id="path1661"
       inkscape:connector-curvature="0" />
    <path
       class="moveO1bg"
       d="m 225,75 a 50,50 0 0 1 100,0 50,50 0 0 1 -100,0 z"
       id="path1663"
       inkscape:connector-curvature="0" />
    <path
       class="moveRbg"
       d="M 275,125 V 25 h 50 a 50,50 0 0 1 50,50 v 50 z"
       id="path1665"
       inkscape:connector-curvature="0" />
    <path
       class="moveWbg"
       d="m 325,75 a 50,50 0 0 0 100,0 V 25 H 325 Z"
       id="path1667"
       inkscape:connector-curvature="0" />
    <path
       class="moveO2bg"
       d="m 375,75 a 50,50 0 0 1 100,0 50,50 0 0 1 -100,0 z"
       id="path1669"
       inkscape:connector-curvature="0" />
    <path
       class="moveO3bg"
       d="m 425,75 a 50,50 0 0 1 100,0 50,50 0 0 1 -100,0 z"
       id="path1671"
       inkscape:connector-curvature="0" />
    <path
       class="moveDbg"
       d="M 475,125 V 25 h 50 a 50,50 0 0 1 0,100 z"
       id="path1673"
       inkscape:connector-curvature="0" />
  </clipPath>
  <path
     class="moveM"
     d="m 565.30612,209.94898 v -50 a 50,50 0 0 1 100,0 v 50 z"
     id="path1676"
     style="fill:none;stroke:#ffffff;stroke-width:10;stroke-miterlimit:4;stroke-dasharray:none;stroke-opacity:1"
     inkscape:connector-curvature="0" />
  <path
     class="moveO1"
     d="m 615.30612,159.94898 a 50,50 0 0 1 100,0 50,50 0 0 1 -100,0 z"
     id="path1678"
     style="fill:none;stroke:#ffffff;stroke-width:10;stroke-miterlimit:4;stroke-dasharray:none;stroke-opacity:1"
     inkscape:connector-curvature="0" />
  <path
     class="moveR"
     d="m 665.30612,209.94898 v -100 h 50 a 50,50 0 0 1 50,50 v 50 z"
     id="path1680"
     style="fill:none;stroke:#ffffff;stroke-width:10;stroke-miterlimit:4;stroke-dasharray:none;stroke-opacity:1"
     inkscape:connector-curvature="0" />
  <path
     class="moveW"
     d="m 715.30612,159.94898 a 50,50 0 0 0 100,0 v -50 h -100 z"
     id="path1682"
     style="fill:none;stroke:#ffffff;stroke-width:10;stroke-miterlimit:4;stroke-dasharray:none;stroke-opacity:1"
     inkscape:connector-curvature="0" />
  <path
     class="moveO2"
     d="m 765.30612,159.94898 a 50,50 0 0 1 100,0 50,50 0 0 1 -100,0 z"
     id="path1684"
     style="fill:none;stroke:#ffffff;stroke-width:10;stroke-miterlimit:4;stroke-dasharray:none;stroke-opacity:1"
     inkscape:connector-curvature="0" />
  <path
     class="moveO3"
     d="m 815.30612,159.94898 a 50,50 0 0 1 100,0 50,50 0 0 1 -100,0 z"
     id="path1686"
     style="fill:none;stroke:#ffffff;stroke-width:10;stroke-miterlimit:4;stroke-dasharray:none;stroke-opacity:1"
     inkscape:connector-curvature="0" />
  <path
     class="moveD"
     d="m 865.30612,209.94898 v -100 h 50 a 50,50 0 0 1 0,100 z"
     id="path1688"
     style="fill:none;stroke:#ffffff;stroke-width:10;stroke-miterlimit:4;stroke-dasharray:none;stroke-opacity:1"
     inkscape:connector-curvature="0" />
</svg>
