<?xml version="1.0" encoding="UTF-8" standalone="no"?>
<!-- Created with Inkscape (http://www.inkscape.org/) -->

<svg
   xmlns:dc="http://purl.org/dc/elements/1.1/"
   xmlns:cc="http://creativecommons.org/ns#"
   xmlns:rdf="http://www.w3.org/1999/02/22-rdf-syntax-ns#"
   xmlns:svg="http://www.w3.org/2000/svg"
   xmlns="http://www.w3.org/2000/svg"
   xmlns:sodipodi="http://sodipodi.sourceforge.net/DTD/sodipodi-0.dtd"
   xmlns:inkscape="http://www.inkscape.org/namespaces/inkscape"
   version="1.1"
   id="svg3713"
   width="152"
   height="264.64001"
   viewBox="0 0 152 264.64001"
   sodipodi:docname="TelescopeTest-Shadow.svg"
   inkscape:version="0.92.4 (5da689c313, 2019-01-14)">
  <metadata
     id="metadata3719">
    <rdf:RDF>
      <cc:Work
         rdf:about="">
        <dc:format>image/svg+xml</dc:format>
        <dc:type
           rdf:resource="http://purl.org/dc/dcmitype/StillImage" />
        <dc:title></dc:title>
      </cc:Work>
    </rdf:RDF>
  </metadata>
  <defs
     id="defs3717" />
  <sodipodi:namedview
     pagecolor="#ffffff"
     bordercolor="#666666"
     borderopacity="1"
     objecttolerance="10"
     gridtolerance="10"
     guidetolerance="10"
     inkscape:pageopacity="0"
     inkscape:pageshadow="2"
     inkscape:window-width="1920"
     inkscape:window-height="1017"
     id="namedview3715"
     showgrid="false"
     inkscape:zoom="3.2119103"
     inkscape:cx="38.801001"
     inkscape:cy="123.36922"
     inkscape:window-x="-8"
     inkscape:window-y="-8"
     inkscape:window-maximized="1"
     inkscape:current-layer="layer3"
     showguides="false"
     showborder="false">
    <inkscape:grid
       type="xygrid"
       id="grid3781" />
  </sodipodi:namedview>
  <g
     id="g3741" />
  <g
     inkscape:groupmode="layer"
     id="layer3"
     inkscape:label="background"
     style="display:none">
    <path
       style="fill:#ceeaeb;stroke-width:0.16"
       d="M 0,132.32 V 0 H 75.999996 152 V 132.32 264.64001 H 75.999996 0 Z"
       id="path3747"
       inkscape:connector-curvature="0" />
  </g>
  <g
     inkscape:groupmode="layer"
     id="layer1"
     inkscape:label="mountain"
     style="display:none">
    <path
       style="fill:#b2e6ae;stroke-width:0.16"
       d="m 0,195.2268 v -69.29538 l 2.108339,-0.51519 c 1.324986,-0.4423 2.108501,-0.83486 2.108501,-0.83486 0.782334,-0.26399 1.179711,-0.83391 2.52625,-1.79402 1.346538,-0.9601 1.939404,-1.35489 2.683922,-1.9843 0.904988,-0.36342 1.221889,-0.76794 2.171906,-1.35926 0.33,-0.20541 1.298094,-0.62284 1.628094,-0.8325 0.33,-0.20966 1.018102,-0.65341 1.624249,-0.98612 0.606147,-0.33271 1.787354,-1.337 2.862735,-2.13664 4.104232,-3.05183 9.003377,-6.5769 10.286004,-7.04722 3.18019,-1.16611 7.899656,-1.32767 11.12,-0.38066 0.704,0.20702 1.639085,0.46237 2.077965,0.56745 0.882982,0.2114 3.925302,1.51655 5.485723,2.35336 0.641598,0.34407 1.478558,0.62218 2.32,0.7709 0.723971,0.12796 2.180312,0.45976 3.236312,0.73735 1.745954,0.45895 1.975608,0.56306 2.533448,1.1484 0.998387,1.04762 1.267717,1.71662 1.27709,3.17219 0.0074,1.14235 -0.03269,1.31543 -0.395773,1.71036 -0.222178,0.24167 -0.728445,0.9794 -1.125039,1.6394 -0.396593,0.66 -0.979344,1.62 -1.295,2.13332 -0.926812,1.50718 -1.170443,3.25516 -0.585595,4.20146 0.289151,0.46785 1.168696,1.25574 2.205699,1.97584 0.182656,0.12683 0.485165,0.58641 0.672242,1.02129 0.323616,0.75226 0.327659,0.82336 0.08322,1.46341 -0.302329,0.79164 -0.734325,1.19969 -1.885777,1.78126 -1.039239,0.52488 -3.738205,3.2325 -4.225519,4.23907 -1.228491,2.53749 -1.249009,2.5987 -1.201483,3.58436 0.03813,0.79089 -0.01988,1.05796 -0.329381,1.51613 -0.437475,0.64763 -1.723341,1.68324 -2.528049,2.03604 -0.636204,0.27892 -3.676824,2.24946 -3.920082,2.54049 -0.088,0.10528 -0.52,0.46083 -0.96,0.79011 -1.408859,1.05434 -3.12,2.97227 -3.12,3.49706 0,0.24702 0.513642,1.2629 0.843702,1.66867 0.146916,0.18062 1.677479,1.15755 2.731244,1.7433 0.18978,0.10549 0.777054,0.35666 1.305054,0.55816 0.528,0.20149 1.334048,0.55925 1.791216,0.79502 0.45717,0.23578 1.21317,0.5025 1.68,0.59272 1.112179,0.21495 4.114662,0.46553 7.00301,0.58447 1.406436,0.0579 2.504779,0.18071 2.8,0.31305 0.267176,0.11976 0.845774,0.2648 1.285774,0.3223 1.011779,0.13222 2.68759,0.63798 3.286843,0.99197 0.792269,0.46801 0.984391,1.43498 0.427639,2.15236 -0.205396,0.26466 -2.545495,2.01808 -3.351133,2.51099 -0.478107,0.29252 -0.754629,0.82173 -0.80852,1.54736 -0.0294,0.39583 0.08119,0.54736 0.708934,0.97146 0.677741,0.45789 0.897882,0.51307 2.48,0.62165 0.95493,0.0656 2.852237,0.14166 4.216237,0.16917 1.364,0.0275 2.804,0.1224 3.2,0.21088 0.396,0.0885 1.152,0.24657 1.68,0.35132 0.528,0.10476 1.464,0.35693 2.08,0.56039 2.480621,0.81928 2.91832,0.88104 7.399638,1.04401 2.397802,0.0872 4.54449,0.22884 4.770416,0.31474 0.688274,0.26168 4.076975,0.17608 6.370199,-0.16093 2.010952,-0.2955 2.297385,-0.38374 4.208776,-1.29649 1.128033,-0.53866 2.302971,-1.0909 2.610971,-1.2272 0.308,-0.13629 0.74,-0.33616 0.96,-0.44415 0.22,-0.108 0.976,-0.32693 1.68,-0.48653 1.080899,-0.24502 2.419199,-0.88705 2.799999,-1.34324 0.044,-0.0527 0.4533,-0.36615 0.90956,-0.69653 0.85708,-0.62061 1.04589,-0.96922 1.25461,-2.31642 0.25062,-1.61758 -1.04367,-4.74459 -2.67552,-6.46406 -0.72082,-0.75953 -0.9571,-0.90845 -1.568649,-0.9887 -0.396,-0.052 -1.08,-0.16334 -1.52,-0.24749 -0.44,-0.0842 -1.638371,-0.1573 -2.663048,-0.16255 -1.024675,-0.005 -2.608675,-0.0959 -3.52,-0.20139 -2.109093,-0.2442 -3.519765,-0.21391 -4.737854,0.10172 -0.530909,0.13758 -1.256647,0.25014 -1.612751,0.25014 -0.356104,0 -0.692077,0.0722 -0.746608,0.16042 -0.05453,0.0882 -0.414829,0.30423 -0.800664,0.48 -0.861889,0.39263 -3.044046,0.43701 -4.388579,0.0892 -4.912578,-1.27064 -7.480034,-1.53432 -12.570496,-1.29098 -2.443856,0.11683 -2.567757,0.14674 -4.556768,1.10034 -1.446283,0.6934 -3.129926,0.97378 -3.584083,0.59686 -0.127802,-0.10607 -1.74025,-0.28072 -3.878936,-0.42015 -2.013117,-0.13124 -3.984213,-0.30893 -4.380213,-0.39487 -0.727093,-0.15778 -0.935128,-0.2126 -2.96,-0.77997 -0.616,-0.1726 -1.391539,-0.35947 -1.723421,-0.41525 -0.331881,-0.0558 -0.845387,-0.31389 -1.141123,-0.57355 -0.295734,-0.25966 -0.651662,-0.4721 -0.790949,-0.4721 -0.387448,0 -0.571873,-0.50222 -0.473289,-1.28885 0.179086,-1.42898 1.158942,-2.54774 3.441648,-3.92954 0.817924,-0.49511 1.678249,-1.03552 1.911833,-1.20091 0.233584,-0.16539 0.525461,-0.3007 0.648613,-0.3007 0.22455,0 1.246688,-0.95701 1.246688,-1.16725 0,-0.0616 0.488021,-0.46628 0.799096,-0.89927 0.555308,-0.77295 0.642851,-0.81335 0.611773,-2.22158 -0.02921,-1.32381 0.04322,-1.34032 0.473328,-2.07925 0.306304,-0.52617 1.202038,-1.60251 2.463897,-2.69231 1.056,-0.912 2.018222,-1.593 2.423667,-1.989 0.720088,-0.70332 0.545148,-1.06038 0.653263,-2.28436 0.149387,-1.69123 0.311021,-2.46256 -0.370409,-3.78915 -0.512084,-0.9969 -0.69155,-1.32972 -0.687369,-2.39784 0.0073,-1.86459 0.397932,-2.23215 3.086357,-4.87682 4.489824,-4.41674 4.866811,-5.05993 6.866397,-5.51483 1.440627,-0.32775 3.221325,-0.94688 4.16,-1.4464 2.522456,-1.34235 3.453222,-1.70608 4.894102,-1.91255 1.123104,-0.16094 1.534218,-0.1655 1.806048,-0.02 1.141821,0.61109 4.525826,0.81539 6.89985,0.41657 2.068472,-0.3475 5.061939,-1.74249 7.04,-3.28073 0.308,-0.23952 1.352,-0.92444 2.32,-1.52206 0.968,-0.59761 2.084,-1.28668 2.48,-1.53126 1.179469,-0.72848 3.830099,-1.84931 5.199999,-2.19885 3.03508,-0.77442 4.66291,-0.81469 6.64,-0.16428 1.37441,0.45214 6.72439,3.16692 7.84,3.97831 2.01971,1.46893 4.67804,3.10875 6.49595,4.0071 1.22077,0.60326 2.35173,1.3053 3.05098,1.8939 1.08583,0.91399 3.65603,2.33818 4.93307,2.73348 0.352,0.10896 1.684,0.68489 2.96,1.27986 1.276,0.59496 2.824,1.31301 3.44,1.59567 0.616,0.28266 2.08096,0.76014 3.25548,1.06107 1.17451,0.30093 2.25451,0.60934 2.4,0.68534 0.14548,0.076 0.77891,0.25394 1.4076,0.39541 0.62869,0.14148 1.67269,0.46717 2.32,0.72376 0.64731,0.2566 1.60457,0.55341 2.12726,0.65958 0.52269,0.10617 1.1452,0.3371 1.38335,0.51317 0.23815,0.17608 0.7645,0.3575 1.16966,0.40317 l 0.73665,0.083 v 70.7792 70.77919 H 76 0 Z"
       id="path3745"
       inkscape:connector-curvature="0"
       sodipodi:nodetypes="cccccccsscccccccccccsccccccccccssccccccccccccccccccscccccccccccccccscccccccccccsscssscccccscscccccccccsccccccsccccscccccccc" />
  </g>
  <g
     inkscape:groupmode="layer"
     id="layer2"
     inkscape:label="shadow"
     style="display:inline">
    <path
       style="fill:#a0c2a2;stroke-width:0.16"
       d="m 0,135.52574 v -9.59432 l 1.7432,-0.55199 c 1.64361,-0.52046 1.90069,-0.66476 4.49947,-2.52568 4.13211,-2.95889 6.06547,-4.23242 8.23733,-5.42602 0.528,-0.29018 1.63641,-1.03612 2.46313,-1.65763 1.79607,-1.35026 6.66399,-4.68614 8.65687,-5.93237 0.82775,-0.51763 0.75558,-0.39256 -0.66957,1.16044 -0.92992,1.01334 -1.94727,2.4198 -2.43047,3.36006 -0.42465,0.82633 -0.70996,2.66238 -0.8008,5.15333 -0.0923,2.53029 0.0469,3.16498 0.76576,3.49252 0.20323,0.0926 0.84953,0.69658 1.43623,1.34217 0.58669,0.6456 1.5319,1.49781 2.10045,1.89381 1.25023,0.87079 1.56282,1.43862 1.64897,2.99536 0.0904,1.63368 -0.49946,2.87573 -2.10731,4.43731 -1.24001,1.20432 -2.17011,1.68479 -5.86326,3.02882 -2.90916,1.05872 -6.15327,2.52272 -7.11354,3.2102 -0.53155,0.38055 -1.44809,1.13448 -2.03675,1.67539 -1.15942,1.06538 -1.71658,1.31711 -4.45701,2.0137 -0.84001,0.21352 -1.80473,0.50415 -2.14382,0.64583 -0.4516,0.18869 -3.50008,0.8734 -3.88857,0.8734 -0.0222,0 -0.0403,-4.31745 -0.0403,-9.59433 z m 50.96212,7.66199 c 0.0744,-0.12522 0.3203,-0.47507 0.54654,-0.77746 0.37823,-0.50555 0.40845,-0.66446 0.37549,-1.97452 -0.0555,-2.2048 0.25812,-2.64845 4.19974,-5.94172 0.88214,-0.73704 1.71012,-1.53856 1.83996,-1.78116 0.16916,-0.31608 0.23607,-0.96709 0.2361,-2.29695 4e-5,-1.78365 -0.02,-1.8932 -0.5141,-2.81586 -0.76471,-1.42786 -0.93306,-2.41433 -0.60689,-3.55622 0.14513,-0.50808 0.4509,-1.21178 0.67949,-1.56378 0.51882,-0.79892 3.29952,-3.56162 5.00497,-4.97258 0.70617,-0.58423 1.34792,-1.1804 1.4261,-1.32482 0.18656,-0.34464 1.13048,-0.89812 1.13048,-0.66287 0,0.0978 -0.216,0.68541 -0.48,1.3058 -0.264,0.62039 -0.48159,1.39044 -0.48352,1.71123 -0.002,0.32078 -0.13774,0.87882 -0.3018,1.24008 -0.44162,0.97243 -1.61468,4.77062 -1.61468,5.22807 0,0.74291 0.52279,2.75327 0.98288,3.77961 0.98488,2.19699 1.10669,3.12947 0.70611,5.40562 -0.27699,1.57387 -0.51449,2.05922 -1.3142,2.68565 -0.78651,0.61609 -2.90871,1.36422 -3.86985,1.36422 -1.14499,0 -2.82858,0.53421 -3.80677,1.20792 -0.48234,0.3322 -1.49003,1.25523 -2.23931,2.05119 -1.34438,1.42813 -2.1882,2.17933 -1.89674,1.68855 z"
       id="path3743"
       inkscape:connector-curvature="0" />
  </g>
</svg>
