<?xml version="1.0" encoding="UTF-8" standalone="no"?>
<!-- Created with Inkscape (http://www.inkscape.org/) -->

<svg
   xmlns:dc="http://purl.org/dc/elements/1.1/"
   xmlns:cc="http://creativecommons.org/ns#"
   xmlns:rdf="http://www.w3.org/1999/02/22-rdf-syntax-ns#"
   xmlns:svg="http://www.w3.org/2000/svg"
   xmlns="http://www.w3.org/2000/svg"
   xmlns:sodipodi="http://sodipodi.sourceforge.net/DTD/sodipodi-0.dtd"
   xmlns:inkscape="http://www.inkscape.org/namespaces/inkscape"
   version="1.1"
   id="svg10"
   width="160.32001"
   height="116.48"
   viewBox="0 0 160.32001 116.48"
   sodipodi:docname="Caterpillar-Main.svg"
   inkscape:version="0.92.4 (5da689c313, 2019-01-14)">
  <metadata
     id="metadata16">
    <rdf:RDF>
      <cc:Work
         rdf:about="">
        <dc:format>image/svg+xml</dc:format>
        <dc:type
           rdf:resource="http://purl.org/dc/dcmitype/StillImage" />
        <dc:title></dc:title>
      </cc:Work>
    </rdf:RDF>
  </metadata>
  <defs
     id="defs14" />
  <sodipodi:namedview
     pagecolor="#ffffff"
     bordercolor="#666666"
     borderopacity="1"
     objecttolerance="10"
     gridtolerance="10"
     guidetolerance="10"
     inkscape:pageopacity="0"
     inkscape:pageshadow="2"
     inkscape:window-width="1920"
     inkscape:window-height="1017"
     id="namedview12"
     showgrid="false"
     inkscape:zoom="3.648695"
     inkscape:cx="53.569632"
     inkscape:cy="91.6079"
     inkscape:window-x="-8"
     inkscape:window-y="-8"
     inkscape:window-maximized="1"
     inkscape:current-layer="layer2" />
  <g
     inkscape:groupmode="layer"
     id="layer1"
     inkscape:label="Main"
     style="display:inline">
    <path
       style="fill:#fdb176;stroke-width:0.32000002"
       d="m 84.099367,115.65605 c -0.683693,-0.13905 -2.36722,0.0352 -3.07122,-0.11533 -0.704,-0.15048 -2.11928,-0.44209 -3.145066,-0.64801 -2.314595,-0.46466 -7.091267,-2.71085 -7.742755,-3.64099 -0.266477,-0.38044 -0.589732,-0.69172 -0.718343,-0.69172 -0.128611,0 -0.197837,-0.108 -0.153837,-0.24 0.044,-0.132 -0.06701,-0.24 -0.246688,-0.24 -0.509465,0 -4.698611,-4.38413 -5.255165,-5.49977 -0.273981,-0.54921 -0.498147,-1.13571 -0.498147,-1.30334 0,-0.16764 -0.432,-0.85024 -0.96,-1.51689 -0.528,-0.66665 -0.96,-1.41458 -0.96,-1.66205 0,-0.247473 -0.126179,-0.58675 -0.280397,-0.75395 -0.355229,-0.385133 -1.643338,-4.305811 -1.803853,-5.490483 -0.206358,-1.522995 -0.612814,-4.985409 -1.082059,-5.417697 -1.025011,-0.944284 -5.238945,-2.810847 -6.745173,-3.188108 -2.79336,-0.699645 -5.577428,-1.55671 -6.688046,-2.574 -0.644723,-0.590541 -2.498966,-1.895924 -2.613152,-1.895924 -0.426275,0 -2.867514,-1.883263 -2.872259,-2.36094 -0.0026,-0.273267 -0.721709,-1.280253 -1.597763,-2.237747 -0.876059,-0.957495 -1.682386,-2.037495 -1.791845,-2.4 C 35.76414,73.416595 35.43279,72.832 35.13726,72.48 c -0.54937,-0.654346 -1.610855,-3.775286 -1.578141,-4.64 0.0169,-0.44665 -0.24599,-2.944269 -0.506003,-4.807402 -0.06198,-0.444073 -0.206125,-1.524073 -0.320339,-2.4 C 32.618562,59.756669 32.292077,58.536 32.007251,57.92 c -0.651196,-1.408358 -1.928342,-3.611106 -2.334934,-3.611106 -0.338328,0 -3.466823,-1.29411 -5.102472,-2.111889 -1.1182,-0.559069 -5.501185,-3.753901 -5.380782,-4.127226 0.04076,-0.126377 -0.176774,-0.585821 -0.483407,-1.020982 -0.306633,-0.435159 -0.557514,-0.701386 -0.557514,-0.591613 0,0.109776 -0.412382,-0.185632 -0.916404,-0.656461 C 15.95894,44.611754 14.702071,41.803014 14.112613,38.830378 13.838825,37.44967 13.42424,35.573363 13.191313,34.660806 12.661092,32.583517 12.854041,27.106867 13.544358,24.64 c 0.123128,-0.44 0.257316,-0.957568 0.298196,-1.150152 0.09513,-0.448158 2.532013,-4.892217 3.131665,-5.711114 0.418693,-0.571774 0.358696,-0.673744 -0.753123,-1.28 C 15.556664,16.13643 14.198461,15.084 13.202868,14.16 c -0.995593,-0.924 -2.023931,-1.68 -2.285195,-1.68 -0.261265,0 -1.0092904,-0.270427 -1.6622794,-0.600948 -0.652988,-0.330521 -1.648978,-0.700585 -2.21331,-0.822363 -0.926128,-0.199852 -1.17545,-0.0712 -2.56,1.320947 C 2.9100446,13.958306 1.7749906,14.72 0.99156359,14.72 c -0.243882,0 -0.443422,-0.126554 -0.443422,-0.281231 0,-0.301434 1.76431101,-3.300673 2.56405901,-4.358769 1.10071,-1.456282 3.647578,-2.060069 5.618096,-1.331885 3.4727004,1.2833 4.7479764,1.823563 4.9147674,2.082114 0.32229,0.499595 2.731077,1.588762 4.037962,1.825823 0.695814,0.126216 1.646631,0.422445 2.112928,0.658288 0.697983,0.353024 0.909243,0.354785 1.19542,0.01 0.191184,-0.230362 0.940971,-0.614669 1.666192,-0.854013 0.725222,-0.239345 1.394878,-0.633989 1.488125,-0.876986 0.09325,-0.242998 0.941945,-0.79512 1.885996,-1.226938 0.944051,-0.431817 1.716456,-0.890932 1.716456,-1.020255 0,-0.129323 0.612,-0.503618 1.36,-0.831765 1.823969,-0.800175 7.523754,-2.723923 7.661744,-2.585933 0.06042,0.06042 1.06291,-0.14601 2.227745,-0.458741 1.164836,-0.312731 2.530225,-0.533808 3.034199,-0.491283 1.443834,0.121831 3.786973,0.639183 4.282797,0.945619 0.17824,0.110159 0.700227,0.268499 1.159968,0.351866 0.459744,0.08337 0.996848,0.181401 1.193565,0.217852 0.196717,0.03645 0.524221,0.279047 0.727786,0.539101 0.313184,0.400095 0.612784,0.245836 1.947718,-1.002837 0.86768,-0.811614 2.033648,-1.575827 2.59104,-1.698251 0.557392,-0.122423 1.01344,-0.339536 1.01344,-0.482472 0,-0.142936 0.394557,-0.358911 0.876794,-0.479945 0.482237,-0.121034 0.950237,-0.320898 1.04,-0.444141 0.08976,-0.123244 1.303949,-0.795827 2.698192,-1.494629 L 62.098114,0.16 66.283132,0.1697 c 4.000925,0.0093 4.244557,0.04799 5.538656,0.88 0.744502,0.47866 1.776723,0.870291 2.293827,0.870291 1.562816,0 1.952532,0.294251 1.952532,1.474236 0,0.861426 -0.128333,1.085764 -0.621114,1.085764 -0.341613,0 -0.710112,0.144 -0.818886,0.32 C 74.286915,5.352117 72.259372,5.149349 70.855398,4.42269 69.261087,3.597519 68.810476,3.504926 66.395257,3.506203 64.38717,3.507303 61.122549,4.765141 59.428626,6.190481 58.419157,7.039893 56.396053,8.053145 54.558747,8.62951 53.527585,8.952988 53.41683,9.078658 53.726254,9.574124 c 0.196298,0.314324 0.826279,0.82427 1.399952,1.133215 0.938055,0.505175 3.02194,2.957263 3.02194,3.555887 0,0.131235 0.576,1.001516 1.28,1.933957 0.704,0.932441 1.28,1.909028 1.28,2.170192 0.200351,0.553771 0.483452,1.001492 0.64,1.509058 0,0.351269 0.318989,1.31477 0.708864,2.141114 0.690813,1.464177 0.780051,2.453053 0.603053,6.682419 -0.03921,0.936892 0.212272,1.837179 0.836003,2.992833 0.94256,1.746389 2.038682,2.542629 3.516189,2.554219 0.492739,0.0039 1.523616,0.291866 2.290835,0.64 0.767223,0.348135 1.691578,0.632973 2.054128,0.632973 0.904445,0 3.234091,1.643085 5.151738,2.980099 1.170693,0.880592 3.459115,3.315908 3.660583,3.601619 0.872087,1.23675 1.883059,2.929936 1.883059,2.929936 0.580401,0.928279 1.603917,1.949376 1.876106,3.048346 0.03269,0.132 0.08814,0.276 0.123222,0.32 0.03508,0.044 0.127946,0.428698 0.206368,0.854886 0.07843,0.426186 0.319725,0.98826 0.536221,1.24905 0.528231,0.636304 1.288666,4.553658 1.351575,6.962573 0.03215,1.23103 0.247705,2.227584 0.586445,2.7112 0.294585,0.420582 0.535612,0.94591 0.535612,1.167395 0,0.58465 1.038173,0.740621 4.640001,0.697091 1.76,-0.02128 3.488,0.03558 3.84,0.126327 1.645021,0.424096 4.294362,1.297593 5.600002,1.846342 0.792,0.332867 2.04552,0.757504 2.7856,0.943632 0.74008,0.186128 1.53208,0.51983 1.76,0.741558 0.22792,0.221732 0.98756,0.829924 1.68808,1.351546 2.47108,1.839987 4.81571,4.00832 5.70116,5.27248 0.44256,0.631846 0.85632,0.773373 2.51491,0.86024 1.09186,0.05718 2.82928,-0.21474 2.91347,-0.130548 2.91669,-0.65251 1.15121,-0.03839 3.52127,-0.898341 1.54989,-0.567056 2.09195,-0.577895 6.02634,-0.586423 4.13991,-0.009 4.85995,0.07123 6.33465,0.705632 1.49253,0.64207 1.99997,0.695523 4.92917,0.519229 1.79594,-0.108087 3.52235,-0.270218 3.83647,-0.360291 1.98955,-0.570496 7.22675,-0.652922 9.06449,-0.14266 0.68441,0.190032 1.60664,0.346317 2.04938,0.347296 0.44275,9.6e-4 1.2632,0.253786 1.82323,0.561786 1.09341,0.601347 3.21745,3.185923 3.40172,4.139293 0.0617,0.319389 0.27825,0.98608 0.48115,1.481539 0.49865,1.217638 0.3284,3.254633 -0.20614,4.533964 -0.59468,1.423274 -6.90765,7.487336 -7.32517,7.06981 -0.0859,-0.0859 -0.96168,1.156156 -1.52747,1.587701 -0.56579,0.431546 -1.11647,0.696867 -1.22374,0.589597 -0.34584,-0.34584 -4.6629,3.808289 -5.37806,5.295508 -0.38084,0.792 -0.99662,2.718587 -1.5359,3.862587 -0.53927,1.144 -1.48767,2.62801 -2.10755,3.29781 -0.61988,0.66979 -1.12706,1.337 -1.12706,1.48268 0,0.33151 -5.19394,4.12305 -6.69964,4.8907 -0.61363,0.31285 -1.36474,0.56881 -1.66914,0.56881 -0.3044,0 -0.63259,0.12805 -0.72931,0.28455 -0.0967,0.1565 -0.54106,0.37621 -0.98741,0.48824 -0.44635,0.11202 -1.63383,0.5798 -2.63884,1.0395 -1.94405,0.88923 -2.69133,0.95463 -7.36012,0.64411 -2.91799,-0.19408 -3.81266,-0.46999 -8.67966,-2.67674 -0.91832,-0.41638 -2.42251,-0.73617 -3.71588,-0.78998 -1.24875,-0.052 -4.2114,0.4793 -5.36,0.96115 -0.484,0.20304 -1.276,0.5353 -1.76,0.73834 -0.484002,0.20304 -1.024002,0.40187 -1.200002,0.44183 -0.176,0.04 -1.112,0.31551 -2.08,0.61232 -0.968,0.2968 -2.115527,0.61051 -2.550061,0.69713 -0.434534,0.0866 -0.974534,0.31057 -1.2,0.49769 -0.225466,0.18713 -0.409939,0.23296 -0.409939,0.10186 0,-0.1311 -0.18,-0.089 -0.4,0.0936 -0.22,0.18258 -0.508,0.34421 -0.64,0.35918 -0.439658,0.0499 -2.021245,0.15662 -3.388724,0.0721 -1.689352,0.59359 -2.504511,-0.18084 -4.180057,0.0911 z"
       id="path26"
       inkscape:connector-curvature="0"
       sodipodi:nodetypes="ccccssscsssccsscsccscccssssccscssscssssscssssscsscsccsscsscccccssscccssssssssssscssccccccsscsccccsccscccsccccccccssscccccccscccscsccccccccccccsccccc" />
  </g>
  <g
     inkscape:groupmode="layer"
     id="layer2"
     inkscape:label="Shadow"
     style="display:none">
    <g
       id="g22"
       transform="translate(0.548142)">
      <path
         style="fill:#cf7f7e;stroke-width:0.32000002"
         d="m 81.920005,115.8652 c -1.910631,-0.3689 -3.401481,-0.8393 -5.100563,-1.1423 -2.025578,-0.30211 -6.188903,-2.49959 -8.061022,-4.25475 -3.132118,-2.93645 -5.398416,-5.34343 -5.398416,-5.73353 0,-0.45704 -1.213814,-1.8353 -1.770202,-3.29521 -0.363859,-0.4112 -1.063187,-1.84989 -1.282985,-2.63941 -0.03675,-0.132 -0.102813,-0.312 -0.146813,-0.4 -0.044,-0.088 -0.100205,-0.268 -0.124899,-0.4 -0.0247,-0.132 -0.131786,-0.384 -0.237981,-0.56 C 59.460833,96.88265 58.837908,94.766138 58.691476,93.683334 58.308967,90.854883 57.389251,89.18534 55.982643,88.517859 55.020779,87.885115 54.309572,87.523849 53.366285,87.04 52.799661,86.682778 51.433897,86.252751 50.971862,86.061114 50.322671,85.763351 49.767388,85.613454 49.077081,85.301514 48.031852,84.836724 44.081338,83.829755 46.671056,84.48 47.61735,84.717602 44.019616,83.669408 42.942735,82.67657 42.395948,82.172458 41.418809,81.328 40.771311,80.8 40.123811,80.272 38.930583,78.996894 38.705898,78.468894 38.070108,77.735341 37.80959,77.327139 37.045914,76.518784 36.28224,75.710428 35.789193,74.56191 35.531535,74.050266 35.273877,73.538621 34.825865,72.76 34.535951,72.32 33.852345,71.282493 32.929128,68.512152 32.821339,67.0911 32.425361,61.870655 32.044584,58.995344 31.22242,57.465158 30.054901,55.292208 29.62638,54.72 29.166596,54.72 c -0.2417,0 -0.963062,-0.269059 -1.603025,-0.59791 -1.223204,-0.628554 -2.091926,-1.00513 -3.794823,-1.644996 -0.56719,-0.21312 -1.43119,-0.746131 -1.92,-1.184467 -2.491952,-2.23463 -2.72123,-2.275568 -2.968747,-2.6039 -0.753694,-0.999774 -1.179397,-1.82304 -2.11842,-2.750663 C 15.822558,45.010445 15.27353,43.816 15.039055,43.2 14.804581,42.584 14.489138,41.916746 14.338071,41.717213 14.070237,41.36345 13.0791,36.686784 13.175097,36.229734 13.201635,36.103379 13.044488,35.568 12.825881,35.04 12.101284,33.289888 12.382039,27.338133 13.36295,23.654629 13.732832,22.265651 16.226849,17.92 16.654116,17.92 c 0.386002,0 0.394689,0.41857 0.01694,0.816 -0.158922,0.1672 -0.608425,1.45556 -0.998895,2.863023 -0.572881,2.064971 -0.664953,2.960781 -0.476904,4.64 0.128174,1.144537 0.261584,2.584977 0.296469,3.200977 0.235056,4.150627 6.105271,13.44 8.493112,13.44 0.201346,0 0.962176,0.288 1.690732,0.64 1.933012,0.93393 7.141311,0.787114 10.964437,-0.309075 0.704,-0.201856 1.712,-0.479872 2.24,-0.617811 0.528,-0.137943 1.67418,-0.695668 2.547069,-1.239392 0.872887,-0.543725 1.71938,-0.90682 1.881092,-0.806874 0.161715,0.09994 0.02355,0.330298 -0.307066,0.511898 -0.693226,0.380784 -2.040125,1.858441 -2.040704,2.238809 -2.14e-4,0.141658 -0.273712,0.861658 -0.607773,1.6 -1.026093,2.267888 -1.417504,5.860266 -1.24105,11.390339 0.121213,3.798836 0.293248,5.335908 0.685143,6.121476 0.287808,0.576928 0.52329,1.295414 0.52329,1.59664 0,0.301225 0.281116,0.905062 0.6247,1.341859 0.343588,0.4368 0.830656,1.391968 1.082378,2.122595 0.494771,1.436077 1.950547,3.237219 3.732922,4.618506 0.616,0.477379 2.101686,1.72223 3.30153,2.766332 2.050397,1.78426 2.306448,1.911748 4.259782,2.120932 3.473799,0.372012 9.83306,-0.551917 11.469892,-1.666445 C 65.138366,75.073405 65.718724,74.88 66.080884,74.88 c 0.362163,0 1.662122,-0.64703 2.8888,-1.437843 2.320596,-1.496045 2.71032,-1.657402 2.71032,-1.122157 -0.6051,0.659417 -1.295593,1.44872 -1.84,2.176758 -0.66,0.69794 -2.057942,2.956256 -3.106541,5.018477 0,0 -1.557686,2.391461 -1.906544,3.749495 -0.322593,1.25579 -0.126339,3.887635 -0.126339,3.887635 0,0 -0.350624,2.610619 -0.126339,3.887635 0.198706,1.131379 1.278877,3.2 1.278877,3.2 1.630214,4.079123 2.755251,6.19454 3.82488,7.19196 1.575777,1.65808 3.47351,2.63435 5.09339,3.9096 1.097405,1.03374 4.94799,2.04792 9.228617,2.49283 1.936,0.20122 4.245245,0.51642 5.131658,0.70045 1.415885,0.29394 3.604588,-0.0603 6.019955,-0.38606 2.170682,-0.5332 3.216371,-0.82038 4.057239,-1.27075 1.802103,-0.96522 3.023333,-2.3327 4.561613,-4.19817 0.48975,-0.59392 1.26288,-1.87186 1.71807,-2.83986 1.01545,-2.159469 2.41087,-5.194342 3.12659,-6.8 0.2942,-0.66 0.6505,-1.2 0.79179,-1.2 0.14129,0 0.35172,1.447136 0.46763,3.215859 0.24201,3.692938 0.95291,5.459811 2.97781,7.401091 1.4686,1.40795 6.45144,3.95592 8.32461,4.25678 2.31762,0.37225 7.39414,-0.38527 9.38304,-1.40013 7.75391,-3.95655 8.93946,-5.05821 10.36242,-9.629194 0.59281,-1.904291 0.97968,-3.967484 1.08268,-5.773929 0.18971,-3.327274 0.46449,-4.000362 1.2043,-2.950083 0.87591,1.243491 3.03421,2.011177 5.13672,1.827081 1.01491,-0.08886 2.00022,-0.272365 2.18958,-0.407779 0.18937,-0.135414 0.9168,-0.441318 1.61652,-0.679782 1.26378,-0.430695 4.68893,-2.597386 5.60778,-3.547389 0.264,-0.272951 0.87327,-0.837463 1.35393,-1.254474 l 0.87393,-0.758205 -0.5317,1.353565 c -0.29243,0.744458 -1.27356,2.098992 -2.18029,3.010077 -2.3888,2.400275 -5.20472,4.863584 -5.50045,4.811686 -0.14048,-0.02464 -0.68742,0.263124 -1.21542,0.639504 -0.528,0.376381 -1.08122,0.684551 -1.22937,0.684826 -0.14816,2.72e-4 -1.02745,0.648496 -1.95398,1.440496 -1.76563,1.509261 -2.9189,3.25 -4.45213,6.72 -0.50548,1.144 -1.29829,2.55571 -1.76179,3.13712 -0.4635,0.58142 -1.16025,1.49309 -1.54832,2.02594 -1.2103,1.66181 -6.78632,5.60091 -8.3594,5.90539 -1.60672,0.98324 -2.59147,1.90329 -4.56769,2.34034 -1.95512,0.31739 -4.75523,0.43805 -6.64177,0.41715 -3.91065,-0.0433 -4.37954,-0.5188 -9.48555,-2.77984 -1.38108,-0.61156 -3.10796,-1.04231 -3.77975,-0.94281 -0.31886,0.0472 -1.41936,0.17019 -2.44555,0.27323 -1.02619,0.10304 -2.70931,0.57778 -3.74025,1.05498 -1.175182,0.64315 -2.313692,1.12408 -3.441781,1.49088 -0.571232,0.24667 -2.038286,0.65395 -3.67884,1.15629 -1.640554,0.50234 -3.327124,0.88994 -4.78331,1.16586 -2.354854,0.14895 -4.310368,0.33571 -6.770524,-0.17934 z M 21.846555,20.895024 c -0.842101,-0.162672 -2.006554,-1.676961 -2.006554,-2.609381 0,-0.484958 -0.312288,-0.742287 -1.2,-0.988817 -0.66,-0.183291 -1.44852,-0.33406 -1.752266,-0.335041 -0.804928,-0.0026 -2.167948,-0.907696 -4.227547,-2.807246 C 11.661591,13.233543 10.630795,12.48 10.369531,12.48 10.108266,12.48 9.3602409,12.209573 8.7072524,11.879052 8.0542639,11.548531 7.0582744,11.178467 6.4939428,11.056689 5.5678141,10.856837 5.3184925,10.985486 3.9339426,12.377636 2.3619029,13.958306 1.2268496,14.72 0.44342182,14.72 0.19953982,14.72 0,14.593446 0,14.438769 0,14.137335 1.7643113,11.138096 2.564059,10.08 3.6647695,8.6237184 6.2116378,8.0199309 8.1821551,8.7481149 c 3.4726999,1.2833001 4.7479759,1.8235631 4.9147669,2.0821141 0.322101,0.499301 2.73069,1.588675 4.037963,1.82632 1.483007,0.269591 3.372594,1.165407 3.965706,1.880063 0.231271,0.278665 0.907369,0.503388 1.514484,0.503388 2.193385,0 3.944927,1.516218 3.944927,3.414917 0,0.794813 -0.246377,1.220433 -1.070206,1.848798 -1.024059,0.781088 -1.913508,0.925449 -3.643241,0.591309 z m 24.010203,-7.138798 c -0.386784,-0.155763 -0.942573,-0.746016 -1.235085,-1.311673 -0.437421,-0.845878 -0.468541,-1.239746 -0.175283,-2.218549 0.461638,-1.5408162 0.884864,-1.861468 2.785898,-2.110701 1.317837,-0.172774 1.850553,-0.4725235 3.342221,-1.880608 1.016064,-0.9591286 2.212816,-1.7713427 2.8,-1.9003104 0.564022,-0.1238796 1.025494,-0.3421836 1.025494,-0.4851196 0,-0.142936 0.394557,-0.3589114 0.876794,-0.4799453 0.482237,-0.1210339 0.950237,-0.3208973 1.04,-0.444141 0.08976,-0.1232438 1.303949,-0.7958269 2.698192,-1.4946291 L 61.549972,0.16 65.73499,0.169709 c 4.000925,0.009281 4.244557,0.0479905 5.538656,0.88 C 72.018148,1.5283688 73.050369,1.92 73.567473,1.92 c 1.562816,0 1.952532,0.2942508 1.952532,1.4742365 C 75.520005,4.2556621 75.391672,4.48 74.898891,4.48 74.557278,4.48 74.188779,4.624 74.080005,4.8 73.738773,5.3521258 71.71123,5.1493578 70.307256,4.4226995 68.712945,3.5975283 68.262334,3.504935 65.847115,3.5062122 c -2.008087,0.00106 -5.272708,1.2589376 -6.966631,2.684278 -1.032205,0.8685444 -3.053626,1.8718736 -4.960481,2.462129 -0.704,0.217919 -1.66223,0.6642285 -2.129398,0.9917987 -0.467168,0.3275703 -1.007168,0.5955821 -1.2,0.5955821 -0.192832,0 -0.350602,0.484364 -0.350602,1.076364 0,2.098394 -2.195933,3.320724 -4.383245,2.439862 z"
         id="path24"
         inkscape:connector-curvature="0"
         sodipodi:nodetypes="cccsccscccccccsccccscssssccsccccssscscssscccccccscscsccscscccsscssccsccssccsscccsccccsssccsccccsccccsccsccsccccssssscssssscscsssscccsscsscscsssssssscsssscc" />
    </g>
  </g>
</svg>
