<?xml version="1.0" encoding="UTF-8" standalone="no"?>
<!-- Created with Inkscape (http://www.inkscape.org/) -->

<svg
   xmlns:dc="http://purl.org/dc/elements/1.1/"
   xmlns:cc="http://creativecommons.org/ns#"
   xmlns:rdf="http://www.w3.org/1999/02/22-rdf-syntax-ns#"
   xmlns:svg="http://www.w3.org/2000/svg"
   xmlns="http://www.w3.org/2000/svg"
   xmlns:sodipodi="http://sodipodi.sourceforge.net/DTD/sodipodi-0.dtd"
   xmlns:inkscape="http://www.inkscape.org/namespaces/inkscape"
   width="210mm"
   height="297mm"
   viewBox="0 0 210 297"
   version="1.1"
   id="svg2298"
   inkscape:version="0.92.4 (5da689c313, 2019-01-14)"
   sodipodi:docname="CircuitBoard-Blue.svg">
  <defs
     id="defs2292" />
  <sodipodi:namedview
     id="base"
     pagecolor="#ffffff"
     bordercolor="#666666"
     borderopacity="1.0"
     inkscape:pageopacity="0.0"
     inkscape:pageshadow="2"
     inkscape:zoom="0.7"
     inkscape:cx="480.65301"
     inkscape:cy="640.34483"
     inkscape:document-units="mm"
     inkscape:current-layer="layer1"
     showgrid="false"
     inkscape:snap-global="false"
     inkscape:window-width="1920"
     inkscape:window-height="1017"
     inkscape:window-x="-8"
     inkscape:window-y="-8"
     inkscape:window-maximized="1" />
  <metadata
     id="metadata2295">
    <rdf:RDF>
      <cc:Work
         rdf:about="">
        <dc:format>image/svg+xml</dc:format>
        <dc:type
           rdf:resource="http://purl.org/dc/dcmitype/StillImage" />
        <dc:title></dc:title>
      </cc:Work>
    </rdf:RDF>
  </metadata>
  <g
     inkscape:label="Layer 1"
     inkscape:groupmode="layer"
     id="layer1">
    <g
       id="g2854"
       transform="translate(2.598463,-2.9867751)">
      <path
         style="fill:#b7e9ea;stroke-width:0.26458332"
         d="m 10.388101,239.06691 c -0.336605,-0.21379 -0.348752,-5.20986 -0.337682,-138.88856 l 0.0038,-45.309897 H 32.543754 55.033338 V 77.225744 99.583035 H 33.998963 12.964587 v -20.637499 -20.6375 h 19.314584 19.314584 v 19.05 19.049999 H 33.430177 15.266599 l 0.17191,-2.421895 c 0.09455,-1.332045 0.171912,-9.249701 0.171912,-17.594791 V 61.218453 H 32.146879 48.683338 V 77.622619 94.026786 H 33.205213 17.727087 V 78.945536 63.864286 H 31.882296 46.037504 V 77.754911 91.645536 H 32.808338 19.579171 V 78.680952 65.716369 h 12.305821 12.305821 l -0.06884,11.972396 -0.06884,11.972396 -11.443229,0.06895 -11.443229,0.06896 V 78.419179 67.039286 H 31.8823 42.597925 V 77.622619 88.205952 H 32.70608 22.814235 l -0.09618,-0.727604 c -0.0529,-0.400182 -0.06338,-4.865026 -0.02331,-9.921875 l 0.07287,-9.19427 h 9.385984 9.385983 v 9.260416 9.260417 H 32.67604 23.812498 v -8.73125 -8.73125 h 8.338254 8.338257 l -0.07003,8.003646 -0.07002,8.003645 h -7.672917 -7.672917 l -0.0702,-7.60677 -0.0702,-7.606771 h 7.280099 7.2801 v 7.011458 7.011458 h -6.746875 -6.746875 l 0.03069,-0.595312 c 0.0231,-0.447985 0.06064,-0.480724 0.151692,-0.132292 0.111073,0.425032 0.651241,0.463021 6.58389,0.463021 h 6.462893 V 77.225744 70.478869 H 32.14688 25.135422 v 6.449219 c 0,3.54707 0.07441,6.821289 0.165364,7.276041 l 0.165365,0.826823 h 7.242969 7.242969 V 77.358036 69.685119 H 32.14688 24.341672 v 8.334375 8.334375 h 8.334375 8.334375 v -8.73125 -8.73125 h -8.995833 -8.995834 l 0.0029,8.400521 c 0.0016,4.620286 0.07671,8.847005 0.16691,9.392708 l 0.163999,0.992188 h 9.358089 9.35809 V 77.622619 67.568453 H 31.874963 21.681168 l 0.07348,10.78177 0.07348,10.781771 10.781771,0.06911 10.781771,0.06911 V 77.757879 l -10e-7,-11.512343 H 31.750004 20.108337 l 0.0023,11.046354 c 0.0013,6.075495 0.07738,11.671432 0.169146,12.435416 l 0.166846,1.389063 H 32.845194 45.243757 V 77.754911 64.393453 H 31.882298 18.520839 V 78.813244 93.233036 H 33.205215 47.88959 V 77.622619 62.012203 H 32.146881 16.404173 V 78.813244 95.614285 H 33.469798 50.535423 V 77.356223 59.098164 l -18.322396,0.06796 -18.322398,0.06796 -0.08092,16.668749 c -0.04451,9.167813 -0.003,18.008203 0.09225,19.645313 l 0.173168,2.976562 H 34.025064 53.975005 V 77.225744 55.926786 H 32.543754 11.112504 v 50.261884 50.26188 l 2.844271,0.0751 2.844271,0.0751 0.07997,1.38907 0.07997,1.38906 h 12.892498 12.892498 l 4.375399,4.36562 4.375401,4.36563 h 5.340152 5.340149 v -0.79375 -0.79375 H 58.02975 53.882414 l -3.867309,-3.83646 c -3.067113,-3.04265 -4.015586,-3.83646 -4.583917,-3.83646 -1.716357,0 -2.357175,-2.19479 -0.946838,-3.24291 1.166596,-0.86697 2.611483,-0.0484 2.611483,1.47942 0,0.7327 0.482206,1.32582 3.641444,4.47902 l 3.641448,3.63447 h 3.899178 3.89918 v -0.79375 -0.79375 H 59.48273 56.788372 l -4.393062,-4.36562 -4.39306,-4.36563 H 36.544421 c -11.057196,0 -11.481349,0.0185 -12.130553,0.52917 -0.89143,0.7012 -1.545429,0.66749 -2.333182,-0.12027 -0.824074,-0.82407 -0.824074,-1.58123 0,-2.4053 0.827391,-0.82739 1.581664,-0.82364 2.417329,0.012 l 0.661459,0.66146 H 36.858267 48.55706 l 4.359611,4.36562 4.359611,4.36563 h 2.450402 2.450404 v -1.14962 c 0,-0.8136 -0.154667,-1.28959 -0.529167,-1.62851 -0.673012,-0.60907 -0.697462,-2.01464 -0.04531,-2.60482 0.64222,-0.58121 1.972241,-0.55692 2.517846,0.046 0.602285,0.66552 0.555628,1.97341 -0.09128,2.55885 -0.460904,0.41712 -0.529166,0.81491 -0.529166,3.08372 v 2.60482 h 6.420472 6.420472 l 2.182973,-2.91309 2.182974,-2.91309 -1.439643,-1.69704 c -0.791802,-0.93337 -1.571916,-1.9442 -1.733587,-2.24628 -0.279683,-0.5226 -0.510389,-0.54926 -4.754245,-0.54926 -4.9603,0 -4.781499,0.0701 -4.781499,-1.87372 v -1.0367 H 43.564971 c -24.096934,0 -24.439539,0.007 -24.911842,0.52917 -0.646738,0.71464 -1.606608,0.6664 -2.393277,-0.12027 -0.766055,-0.76605 -0.824813,-1.46592 -0.18641,-2.22038 0.774941,-0.91583 1.783282,-0.99335 2.578399,-0.19823 l 0.686799,0.6868 H 43.659329 67.98002 l 0.0751,-2.84427 0.0751,-2.84427 2.976563,-0.0748 2.976562,-0.0748 v -0.78508 -0.78509 h -4.337317 c -3.71099,0 -4.360508,-0.0604 -4.497917,-0.41851 -0.08833,-0.23018 -0.160599,-1.53987 -0.160599,-2.91042 v -2.4919 h -2.44965 -2.449653 l -5.816322,5.82083 -5.816323,5.82084 H 31.926283 c -16.228641,0 -16.645479,0.0127 -17.301999,0.52916 -0.863271,0.67905 -1.780191,0.67326 -2.469047,-0.0156 -0.752204,-0.7522 -0.598035,-2.01993 0.329479,-2.70929 0.61987,-0.46072 0.811973,-0.48634 1.502342,-0.20038 0.435374,0.18034 0.855939,0.49558 0.934589,0.70054 0.119705,0.31196 1.87942,0.37266 10.802409,0.37266 h 10.659411 l 8.066537,-8.06979 c 5.556896,-5.55914 7.901851,-8.06979 7.537194,-8.06979 -0.340267,0 -3.126962,2.59891 -7.801777,7.27604 l -7.272433,7.27604 h -4.524859 c -4.188842,0 -4.560423,0.0393 -5.00375,0.52917 -0.685362,0.75731 -1.826978,0.68043 -2.494338,-0.16798 -0.638039,-0.81113 -0.690644,-1.38839 -0.189037,-2.07438 0.305942,-0.4184 0.296113,-0.60282 -0.06615,-1.2412 -0.390916,-0.68887 -0.390916,-0.81068 0,-1.49955 0.362259,-0.63838 0.372088,-0.8228 0.06615,-1.2412 -1.241261,-1.69752 1.507413,-3.6591 2.833162,-2.02187 0.360702,0.44544 0.750497,0.57326 1.748252,0.57326 h 1.284049 l 3.697079,-3.70417 3.697079,-3.70416 h -3.738463 c -3.164911,0 -3.7631,-0.0642 -3.899058,-0.41852 -0.08833,-0.23018 -0.1606,-4.97423 -0.1606,-10.54232 0,-9.78779 -0.01757,-10.13971 -0.529166,-10.6027 -1.071117,-0.96935 -0.299918,-3.04271 1.131752,-3.04271 1.607526,0 2.421475,1.98208 1.249498,3.04271 -0.3745,0.33891 -0.529167,0.81491 -0.529167,1.6285 v 1.14962 h 21.368205 21.368206 l 4.190545,-4.19669 c 2.685402,-2.68934 4.157281,-4.35403 4.097938,-4.63475 -0.0646,-0.30559 -1.251725,0.72565 -3.925901,3.41038 l -3.833299,3.84843 -3.310451,-0.0736 -3.310451,-0.0736 -0.07124,-6.0705 c -0.06642,-5.659497 -0.106728,-6.103558 -0.595313,-6.558745 -0.73796,-0.687514 -0.70299,-2.164384 0.06397,-2.701586 0.802074,-0.561795 1.688039,-0.517049 2.322378,0.11729 0.679122,0.679122 0.679122,1.898943 0,2.513541 -0.496927,0.449713 -0.529167,0.814909 -0.529167,5.99413 v 5.51525 h 2.248959 2.248958 v -9.86308 c 0,-9.535653 -0.01757,-9.878114 -0.529167,-10.316158 -0.748233,-0.64066 -0.715227,-2.15002 0.05887,-2.692223 0.802074,-0.561795 1.688039,-0.517049 2.322377,0.11729 0.679122,0.679122 0.679122,1.898944 0,2.513542 -0.510254,0.461772 -0.529166,0.814908 -0.529166,9.880091 v 9.401198 l 0.79375,-0.76046 0.79375,-0.76046 V 101.709 c 0,-5.38511 -0.03033,-5.738498 -0.529167,-6.165615 -0.748234,-0.640659 -0.715227,-2.15002 0.05887,-2.692223 0.802074,-0.561795 1.688039,-0.517048 2.322378,0.11729 0.679122,0.679122 0.679122,1.898944 0,2.513542 -0.493932,0.447003 -0.529167,0.814909 -0.529167,5.525266 v 5.04638 l 2.248959,-2.23727 2.248958,-2.23728 V 90.190327 78.80156 l -2.248958,-2.237274 c -1.688568,-1.679797 -2.248959,-2.104623 -2.248959,-1.704912 0,0.295225 0.652619,1.176549 1.465099,1.978533 l 1.465101,1.44617 -0.07604,1.852084 -0.07604,1.852083 -6.114886,0.07093 c -5.710764,0.06624 -6.146249,0.105587 -6.589445,0.595313 -0.987687,1.091382 -3.038377,0.284562 -3.038377,-1.195412 0,-1.48395 2.050957,-2.286497 3.042708,-1.190625 0.449712,0.496928 0.814909,0.529167 5.994133,0.529167 h 5.515242 v -1.001226 c 0,-0.86302 -0.200871,-1.199602 -1.455208,-2.438357 -1.416537,-1.39894 -1.455208,-1.476164 -1.455208,-2.90589 v -1.46876 L 73.818748,70.081992 70.908331,67.1806 v -4.436283 c 0,-4.083505 -0.04208,-4.478363 -0.529166,-4.96545 -0.988084,-0.988082 -0.338252,-3.174999 0.943435,-3.174999 0.509275,0 1.501682,0.50591 1.764493,0.899505 0.375558,0.562452 0.198911,1.754571 -0.326678,2.204594 -0.488331,0.418122 -0.529167,0.780504 -0.529167,4.696019 v 4.242934 l 5.820833,5.816322 5.820834,5.816322 v 14.821757 14.821759 l -4.56682,4.56123 -4.566822,4.56123 H 53.112352 31.485421 v 5.15937 5.15937 H 48.574782 65.66414 l 0.464204,-0.57326 c 0.639908,-0.79025 2.053317,-0.77494 2.704558,0.0293 0.632309,0.78087 0.616394,1.36762 -0.06043,2.22806 -0.667361,0.84842 -1.808977,0.9253 -2.494338,0.16798 -0.469511,-0.5188 -0.814909,-0.52917 -17.6358,-0.52917 H 31.485421 v 0.79375 0.79375 h 17.267264 17.267264 l 4.094639,4.10104 c 2.252052,2.25558 4.171241,4.10104 4.264869,4.10104 0.09363,0 0.308893,-0.55069 0.478375,-1.22376 0.475086,-1.88674 2.027227,-4.9546 3.473326,-6.86517 l 1.30843,-1.72867 v -4.81915 -4.81914 l 2.910417,-2.9014 2.910417,-2.90139 V 94.557458 75.896814 l -4.365625,-4.359611 -4.365625,-4.359611 v -4.434778 c 0,-4.082 -0.0421,-4.476872 -0.529167,-4.963945 -1.162323,-1.162321 -0.20797,-3.429212 1.282666,-3.046743 0.881411,0.226153 1.575445,0.228031 2.427396,0.0066 1.574223,-0.409217 2.785713,1.818182 1.581605,2.907885 -0.487442,0.441128 -0.529167,0.814908 -0.529167,4.740368 v 4.261479 l 4.365625,4.359611 4.365625,4.359611 v 7.08061 7.080612 h 5.159375 5.15938 v -2.240008 -2.240007 l -2.844276,-0.0751 -2.84427,-0.0751 -0.06862,-13.331375 c -0.04953,-9.624389 0.01466,-13.431705 0.230836,-13.692188 0.244504,-0.294608 2.418263,-0.360812 11.84709,-0.360812 h 11.54764 l 2.90139,-2.910416 2.90139,-2.910417 h 21.79091 c 21.39026,0 21.80327,-0.0097 22.46363,-0.529167 1.35925,-1.069188 2.9826,-0.39614 2.9826,1.236597 0,1.558562 -2.01688,2.287298 -3.06784,1.108467 -0.50401,-0.565334 -0.50439,-0.565348 -11.98395,-0.420314 l -11.47992,0.145038 -0.6849,0.684898 -0.6849,0.684898 h 10.66788 c 10.26725,0 10.69315,-0.01987 11.34061,-0.529167 1.35925,-1.069189 2.98261,-0.39614 2.98261,1.236597 0,0.438931 -0.21773,0.995102 -0.48385,1.235937 -0.66552,0.602285 -1.97341,0.555627 -2.55886,-0.09128 -0.45987,-0.508155 -0.8149,-0.529167 -8.94135,-0.529167 h -8.46247 l -2.2783,2.24516 -2.27829,2.24516 7.88207,0.0038 c 7.59963,0.0037 7.90904,-0.01614 8.63489,-0.552787 1.2405,-0.917143 2.66533,-0.122478 2.66533,1.486522 0,1.633213 -1.87601,2.288324 -3.01954,1.054438 l -0.61301,-0.661459 h -8.77537 c -7.77549,0 -8.79374,-0.04791 -8.93672,-0.420514 -0.11213,-0.292196 0.59526,-1.180299 2.31818,-2.910417 l 2.47955,-2.489902 h -1.96551 -1.96551 l -5.17301,5.157545 -5.17302,5.157545 6.32608,0.0018 6.32607,0.0018 1.52563,-1.455209 1.52565,-1.455208 h 7.22196 7.22197 l 5.84185,-5.820833 5.84187,-5.820834 h 8.91624 c 4.94703,9e-6 8.91622,-0.103484 8.91622,-0.232475 0,-0.127866 0.36477,-0.383577 0.8106,-0.568246 0.71333,-0.295471 0.89589,-0.272372 1.52136,0.192498 0.92751,0.689364 1.08168,1.957095 0.32947,2.709298 -0.73315,0.733143 -1.74983,0.686676 -2.5532,-0.116691 l -0.66146,-0.661458 h -8.39433 -8.39434 l -2.23727,2.248958 -2.23728,2.248958 h 12.19014 c 11.8541,0 12.20332,-0.01459 12.66901,-0.529167 0.57299,-0.63314 1.64506,-0.684365 2.45467,-0.117288 0.74133,0.519246 0.79932,1.960737 0.10419,2.589823 -0.66552,0.602284 -1.97341,0.555626 -2.55886,-0.09128 -0.46638,-0.515343 -0.81491,-0.529166 -13.34216,-0.529166 h -12.86327 l -2.23728,2.248958 -2.23727,2.248958 h 13.64534 c 13.30932,0 13.65713,-0.01303 14.12423,-0.529166 0.60906,-0.673012 2.01463,-0.697463 2.60482,-0.04531 0.5812,0.64222 0.55692,1.97224 -0.046,2.517847 -0.66552,0.602284 -1.97341,0.555627 -2.55885,-0.09128 -0.46638,-0.515344 -0.81491,-0.529167 -13.34217,-0.529167 h -12.86327 l -2.23727,2.248958 -2.23728,2.248959 h 12.19013 c 11.85411,0 12.20333,-0.01459 12.66902,-0.529167 0.60907,-0.673012 2.01464,-0.697462 2.60483,-0.04531 0.5812,0.642219 0.55691,1.97224 -0.046,2.517846 -0.66552,0.602285 -1.97341,0.555627 -2.55886,-0.09128 -0.45607,-0.503957 -0.81491,-0.529167 -7.53213,-0.529167 h -7.05324 l -0.76046,0.79375 -0.76046,0.79375 h 10.72412 c 10.3881,0 10.73912,-0.01658 11.20301,-0.529166 0.60906,-0.673012 2.01464,-0.697463 2.60482,-0.04531 0.5812,0.64222 0.55692,1.972241 -0.046,2.517846 -0.66551,0.602285 -1.97341,0.555628 -2.55885,-0.09128 -0.46973,-0.519042 -0.81491,-0.529167 -18.04098,-0.529167 -15.80546,0 -17.57823,-0.04206 -17.72345,-0.420516 -0.11213,-0.292195 0.59525,-1.180297 2.31818,-2.910415 l 2.47954,-2.489902 h -6.14633 -6.14634 v 21.166666 21.166668 h 0.79185 0.79184 l 0.068,-17.396356 0.068,-17.396353 16.16655,-0.06816 c 15.76499,-0.06647 16.1784,-0.08126 16.6436,-0.595313 0.6073,-0.671041 2.01374,-0.694433 2.60301,-0.04329 0.5812,0.64222 0.55691,1.972241 -0.046,2.517846 -0.66552,0.602284 -1.97341,0.555628 -2.55885,-0.09128 -0.45949,-0.507727 -0.81491,-0.529167 -8.77226,-0.529167 h -8.29337 v 5.159375 5.159375 h 6.95854 c 5.05941,0 7.04518,0.08665 7.27604,0.3175 0.22659,0.226592 0.31749,1.893242 0.31749,5.820834 v 5.503333 h 3.92776 c 3.59172,0 3.9687,-0.04527 4.40663,-0.529167 0.60907,-0.673013 2.01463,-0.697463 2.60481,-0.04531 0.64211,0.709519 0.56334,2.044107 -0.15014,2.543853 -0.80962,0.56708 -1.88169,0.51585 -2.45467,-0.11729 -0.43792,-0.483897 -0.81491,-0.529168 -4.40663,-0.529168 h -3.92776 v 5.159378 5.15938 h 6.83816 c 6.50214,0 6.86169,-0.026 7.31705,-0.52917 0.60907,-0.67301 2.01464,-0.69746 2.60483,-0.0453 0.95052,1.05031 0.14713,2.95573 -1.24623,2.95573 -0.34418,0 -0.92608,-0.23622 -1.29312,-0.52493 -0.62391,-0.49077 -1.1471,-0.52951 -8.03932,-0.59532 l -7.37199,-0.0704 -0.0689,-11.575523 -0.0689,-11.575521 h -6.61181 -6.6118 v 0.79375 0.79375 h 4.04812 c 2.79577,0 4.14635,0.09822 4.36563,0.3175 0.23818,0.23818 0.3175,3.51014 0.3175,13.096874 v 12.77938 h 8.25118 c 8.04882,0 8.26585,-0.0138 8.84965,-0.56224 1.70976,-1.60623 4.13565,0.75701 2.47834,2.41432 -0.67311,0.67311 -1.59601,0.67446 -2.44887,0.004 -0.63192,-0.49707 -1.14671,-0.52935 -9.49454,-0.59531 l -8.82639,-0.0697 -0.0686,-13.03073 -0.0686,-13.030727 h -3.70168 -3.70167 v 0.79375 c 0,0.758883 0.05,0.79375 1.13771,0.79375 0.62574,0 1.28058,0.142875 1.45521,0.3175 0.23586,0.235868 0.3175,2.917367 0.3175,10.429407 0,5.56154 -0.0723,10.30023 -0.1606,10.53041 -0.14438,0.37625 -2.07538,0.41852 -19.11772,0.41852 h -18.95713 l -8.32728,8.33044 c -7.28062,7.28336 -8.2781,8.37775 -7.93593,8.70692 0.3419,0.32889 1.35937,-0.62373 8.04976,-7.53669 l 7.6584,-7.91317 h 19.07775 c 14.48547,0 19.15417,0.0764 19.39525,0.3175 0.17462,0.17462 0.3175,0.82947 0.3175,1.45521 v 1.13771 h 12.6168 c 12.50005,0 12.62234,-0.005 13.21528,-0.56224 1.70976,-1.60623 4.13564,0.75701 2.47833,2.41432 -0.67422,0.67423 -1.59629,0.67423 -2.45344,0 -0.65133,-0.51233 -1.07336,-0.52917 -13.26485,-0.52917 H 168.2749 v 0.79375 0.79375 h 11.32416 c 8.45491,0 11.40462,0.0804 11.64167,0.3175 0.24409,0.2441 0.3175,9.40351 0.3175,39.61703 v 39.29954 l -2.83436,2.84318 -2.83436,2.84317 2.83853,2.88054 2.83854,2.88053 -0.0703,7.50977 -0.0703,7.50978 -0.59531,0.0845 -0.59532,0.0846 v -7.36285 -7.36284 l -5.82083,-5.81632 -5.82083,-5.81633 v -31.8184 -31.8184 h -6.61459 -6.61457 l -2.6e-4,9.85573 -2.7e-4,9.85573 -2.90989,4.36562 -2.90981,4.36563 -2.6e-4,5.4901 -3.4e-4,5.49011 h 8.57065 c 7.57123,0 8.58937,0.0488 8.73125,0.41851 0.0883,0.23018 0.1606,6.86451 0.1606,14.74295 v 14.32444 l 5.82083,5.84186 5.82083,5.84187 v 5.9965 c 0,5.65777 -0.0289,6.01197 -0.51178,6.27039 -0.54391,0.29109 -8.40612,0.38872 -9.12387,0.11329 -0.35734,-0.13712 -0.41851,-0.77526 -0.41851,-4.36562 v -4.20503 l -1.12448,-0.002 c -2.48993,-0.003 -3.63803,-0.7853 -3.63803,-2.47829 0,-0.85724 1.05677,-1.75346 2.06757,-1.75346 1.12981,0 1.1623,0.82174 0.0491,1.24193 -0.51377,0.19393 -0.79374,0.48437 -0.79374,0.82345 0,0.65212 0.21561,0.72243 2.51354,0.81973 1.01865,0.0431 1.94139,0.13303 2.05053,0.19977 0.10914,0.0667 0.19843,2.02414 0.19843,4.34977 v 4.22842 l 2.18282,-0.0769 2.18281,-0.0768 0.0704,-5.29166 0.0704,-5.29167 -5.8251,-5.81858 -5.8251,-5.81857 v -12.89708 -12.89708 l -8.6651,-0.0698 -8.66511,-0.0698 -0.0679,-18.85156 -0.0679,-18.85157 H 136.3909 117.47496 l -0.005,1.38907 c -0.004,1.22317 -0.42604,3.65363 -0.94126,5.42109 l -0.1727,0.59245 11.34105,0.069 11.34105,0.069 0.0727,4.29434 0.0727,4.29433 5.74816,0.0713 5.74816,0.0713 0.0689,11.57238 0.0689,11.57238 10.11754,0.0693 10.11753,0.0693 0.0682,16.17501 c 0.0611,14.49575 0.11241,16.21173 0.49431,16.52868 0.36725,0.30479 0.50966,0.24892 1.03055,-0.40435 0.39235,-0.49205 0.75271,-0.70111 1.02705,-0.59583 0.60886,0.23364 0.52161,0.81431 -0.26235,1.74598 -0.8663,1.02955 -1.88536,1.07781 -2.77463,0.13141 l -0.64143,-0.68264 -0.0722,-15.85068 -0.0722,-15.85068 -10.11426,-0.0693 -10.11427,-0.0693 -0.0689,-11.57552 -0.0689,-11.57553 h -5.1566 -5.15659 v 10.98021 10.98021 h 4.1717 4.1717 l 2.89738,2.9064 2.89738,2.90639 7.41686,0.0702 7.41685,0.0702 0.0688,12.41751 c 0.0609,10.98505 0.11797,12.47184 0.49511,12.88858 0.4701,0.51946 0.3212,1.28453 -0.25001,1.28453 -0.2003,0 -0.59099,-0.25053 -0.8682,-0.55673 -0.47786,-0.52783 -0.50786,-1.18709 -0.57787,-12.7 l -0.0738,-12.14327 h -7.07443 -7.07442 l -2.89541,-2.90441 -2.8954,-2.90441 -4.50842,-0.0721 -4.50842,-0.0721 -0.0682,-15.94115 -0.0682,-15.94115 h -11.05243 -11.05242 l -0.29847,0.79074 -0.29847,0.79073 10.49306,0.0692 10.49307,0.0692 0.0685,13.85191 c 0.0662,13.37549 0.0866,13.87494 0.59531,14.52162 0.69886,0.88845 0.66441,1.54311 -0.12264,2.33016 -0.82407,0.82407 -1.58122,0.82407 -2.4053,0 -0.82739,-0.82739 -0.82364,-1.58167 0.012,-2.41733 l 0.66146,-0.66146 v -5.9411 -5.9411 h -2.24896 -2.24896 v 8.0698 8.06979 h 5.62691 5.62691 l 2.89795,2.90696 2.89796,2.90697 8.87149,0.0696 8.87148,0.0696 0.13229,11.13828 c 0.14195,11.95114 0.11964,11.76957 1.51048,12.29836 0.69918,0.26583 0.76639,0.57498 0.22303,1.02594 -0.50705,0.42081 -1.61168,-0.10661 -2.37117,-1.13217 -0.53634,-0.72422 -0.55521,-1.06833 -0.62772,-11.44323 l -0.0747,-10.69655 h -8.52872 -8.52872 l -2.90139,-2.91042 c -1.76494,-1.77043 -3.10904,-2.91042 -3.43153,-2.91042 -0.37967,0 0.51799,1.05014 3.16293,3.70015 l 3.69307,3.70015 7.41589,0.0702 7.41589,0.0702 0.0641,9.12812 c 0.072,10.25828 0.0439,10.45105 -1.52713,10.45105 -0.74184,0 -0.91823,-0.10166 -0.91823,-0.52917 0,-0.34733 0.20457,-0.55822 0.59531,-0.61372 l 0.59532,-0.0845 v -8.58056 -8.58056 h -7.08062 -7.08061 l -4.35361,-4.35962 -4.35362,-4.35962 -4.50693,-0.0722 -4.50692,-0.0721 -0.0711,-5.95312 -0.0711,-5.95313 -2.70225,-2.71198 -2.70226,-2.71198 h -2.45212 -2.45213 v 3.91255 3.91255 l 1.25677,1.23766 1.25677,1.23765 3.04271,0.0753 3.04271,0.0753 0.0711,6.02425 c 0.0661,5.59974 0.10806,6.06118 0.59531,6.54843 1.06897,1.06897 0.26838,2.90991 -1.26175,2.90139 -0.88249,-0.005 -1.21183,-0.20675 -1.6287,-0.99813 -0.37746,-0.71658 -0.2078,-1.39616 0.51097,-2.04664 0.48755,-0.44123 0.52242,-0.832 0.52242,-5.85573 v -5.38295 h -2.70083 -2.70082 l -1.00335,-0.97974 -1.00334,-0.97974 v 7.80271 7.8027 l 1.26376,1.24476 1.26375,1.24475 16.1326,0.0682 16.1326,0.0682 0.0693,10.12844 0.0693,10.12845 4.45318,-0.0291 c 5.99161,-0.0391 6.94502,0.3602 8.559,3.58467 0.98038,1.95864 2.22371,3.30729 3.04901,3.30729 0.7715,0 1.00081,-0.55507 0.64772,-1.56792 -0.21356,-0.61263 -0.18803,-0.85064 0.11854,-1.10507 0.64666,-0.53668 1.2902,0.35106 1.2902,1.77977 0,1.44817 -0.7472,2.21613 -2.15622,2.21613 -1.2166,0 -2.68536,-1.40749 -3.99267,-3.82613 -1.58756,-2.93712 -1.86791,-3.05303 -7.38399,-3.05303 h -4.59108 v 0.80372 0.80372 l 4.5933,-0.039 c 4.92999,-0.0419 5.60213,0.0971 5.88316,1.21677 0.33806,1.34694 -0.45865,1.97396 -0.9996,0.7867 l -0.30138,-0.66146 h -4.58774 -4.58774 v 0.79779 0.79779 l 4.43177,-0.0456 c 3.66564,-0.0377 4.57765,0.03 5.27561,0.39133 1.67999,0.86981 2.08541,2.27678 1.17808,4.08848 -0.7028,1.40333 -0.88608,2.36926 -0.5638,2.97145 0.3664,0.68463 0.89735,0.66461 1.37301,-0.0518 0.25063,-0.37746 0.53489,-0.5169 0.82602,-0.40518 0.59422,0.22802 0.55946,0.76241 -0.10447,1.60647 -1.00048,1.2719 -2.84066,0.73395 -3.41208,-0.99749 -0.24846,-0.75284 -0.20542,-1.15116 0.26434,-2.44658 0.89611,-2.47111 0.92294,-2.8764 0.22289,-3.36674 -0.41622,-0.29152 -1.17715,-0.42955 -2.36811,-0.42955 h -1.75483 l -2.73416,4.11846 c -1.50378,2.26516 -2.94197,4.22969 -3.19598,4.36563 -0.25401,0.13594 -1.67928,0.24716 -3.16728,0.24716 h -2.70545 l -1.52564,1.45521 -1.52563,1.45521 h -5.75041 -5.75041 l -1.52563,1.4552 -1.52564,1.45521 -59.484748,-0.004 c -32.716611,-0.002 -59.632136,-0.0977 -59.812276,-0.21207 z m 119.722799,-1.96669 0.83345,-0.8599 -58.705232,0.0673 c -53.142534,0.0609 -58.744743,0.0278 -59.122175,-0.34963 -0.375746,-0.37575 -0.416939,-4.25769 -0.416939,-39.29179 v -38.87485 h -0.79375 -0.79375 v 39.90798 c 0,21.9494 0.07938,39.98736 0.176389,40.08438 0.09701,0.097 26.684127,0.17639 59.082473,0.17639 h 58.906084 z m 14.48743,-2.84796 0.75693,-0.79006 H 80.898613 c -58.244172,0 -64.496718,-0.0401 -64.872418,-0.41577 -0.374057,-0.37406 -0.415774,-4.17034 -0.415774,-37.83542 v -37.41964 h -0.79375 -0.79375 v 38.45277 c 0,21.14903 0.08008,38.53286 0.177949,38.63073 0.09787,0.0979 29.307033,0.17559 64.909242,0.1727 l 64.731298,-0.005 0.75692,-0.79006 z m 9.96622,-5.09335 c 1.08709,-1.63501 2.18958,-3.30017 2.44996,-3.70036 l 0.47344,-0.7276 h -1.88251 -1.88252 v 1.18132 c 0,0.89714 -0.12311,1.2472 -0.51177,1.45521 -0.34566,0.18499 -12.32556,0.27389 -36.90938,0.27389 -20.018678,0 -36.397598,0.1 -36.397598,0.22211 0,0.12216 -0.297186,0.35752 -0.660411,0.52302 -1.75501,0.79963 -3.349112,-1.49811 -1.985423,-2.8618 0.713722,-0.71372 1.648746,-0.6661 2.597582,0.13229 l 0.786098,0.66146 h 8.230037 8.230034 v -0.79375 -0.79375 H 81.354972 65.607858 l -2.901603,1.45521 -2.901604,1.45521 H 38.368996 16.933337 v 2.07257 c 0,1.13991 0.08017,2.15274 0.178165,2.25073 0.09799,0.098 30.620294,0.17565 67.827339,0.17258 l 67.649169,-0.006 1.97654,-2.97276 z m 32.69858,-5.354 0.0704,-5.29167 -5.8251,-5.81858 -5.8251,-5.81857 V 192.5238 178.17152 l -8.6651,-0.0698 -8.66511,-0.0698 -0.0679,-18.85156 -0.0679,-18.85156 H 137.7597 117.30208 l 0.11625,0.79205 0.11625,0.79205 19.48324,0.0678 19.48324,0.0678 0.0679,18.84795 0.0679,18.84795 8.66335,0.0698 8.66334,0.0698 0.0686,13.23383 0.0686,13.23383 5.81842,5.81391 5.81842,5.81391 v 5.64223 5.64222 l 0.7276,-0.0837 0.72761,-0.0837 z m -126.144375,1.71979 1.455208,-0.76878 -5.701771,-0.0125 c -4.06726,-0.009 -5.792787,-0.1035 -6.019271,-0.32998 -0.174625,-0.17463 -0.3175,-0.82947 -0.3175,-1.45521 v -1.13771 H 37.790108 c -11.524328,0 -12.791992,0.0422 -13.232581,0.44098 -0.714252,0.64638 -2.050332,0.56455 -2.638337,-0.16161 -0.632309,-0.78087 -0.616394,-1.36761 0.06043,-2.22806 0.712131,-0.90533 1.795173,-0.92073 2.625085,-0.0373 l 0.619863,0.65982 24.29709,-0.001 24.297093,-0.001 v -15.52844 c 0,-8.54064 -0.09949,-15.41533 -0.221091,-15.27709 -0.1216,0.13825 -2.700692,4.7162 -5.731317,10.17323 -3.030622,5.45703 -5.639803,10.00935 -5.79818,10.11626 -0.158374,0.10692 -8.544018,0.19621 -18.634763,0.19844 -17.942998,0.004 -18.361617,0.0157 -19.019536,0.53322 -0.37,0.29104 -0.900207,0.52917 -1.178238,0.52917 -0.674308,2e-4 -1.804376,-1.15975 -1.804376,-1.85188 0,-0.69924 1.132719,-1.85209 1.819757,-1.85209 0.286491,0 0.875623,0.29849 1.309183,0.66331 l 0.78829,0.6633 18.039949,-0.068 18.03995,-0.068 7.279762,-13.03073 7.279762,-13.03073 h 9.101881 9.101884 v -8.73125 c 0,-7.36093 -0.05889,-8.73125 -0.375235,-8.73125 -0.20638,0 -0.561803,-0.0716 -0.789831,-0.15909 -0.369867,-0.14194 -0.422154,0.70728 -0.484661,7.87135 l -0.07006,8.03045 -8.839718,0.13229 -8.839717,0.13229 -7.131243,12.83229 c -3.922186,7.05776 -7.266657,12.91977 -7.432159,13.02668 -0.165502,0.10691 -8.795102,0.19621 -19.176889,0.19844 -18.472168,0.004 -18.890368,0.0154 -19.548703,0.53322 -0.89143,0.7012 -1.545428,0.66749 -2.333182,-0.12027 -0.824074,-0.82407 -0.824074,-1.58123 0,-2.4053 0.824812,-0.82481 1.487178,-0.82112 2.479449,0.0138 l 0.788231,0.66325 18.605169,-0.0679 18.60517,-0.0679 1.920097,-3.43958 c 1.056053,-1.89177 1.922687,-3.52888 1.925857,-3.63802 0.0032,-0.10914 -4.708192,-0.19844 -10.469692,-0.19844 -10.074826,0 -10.501183,0.0202 -11.148182,0.52917 -0.891429,0.7012 -1.545429,0.66749 -2.333181,-0.12027 -0.824076,-0.82407 -0.824076,-1.58122 0,-2.4053 0.82739,-0.82739 1.581664,-0.82364 2.417329,0.012 l 0.661458,0.66146 h 10.902067 10.902066 l 1.785909,-3.21197 1.785906,-3.21195 v -9.22345 -9.22344 h -3.699008 -3.699007 l -0.07131,5.75469 -0.07131,5.75469 -8.665104,0.0698 c -4.765807,0.0384 -8.665104,0.12766 -8.665104,0.19843 0,0.0708 0.238125,0.36681 0.529166,0.65785 0.988084,0.98808 0.338252,3.175 -0.943435,3.175 -0.509275,0 -1.501682,-0.50591 -1.764493,-0.89951 -0.371009,-0.55564 -0.199665,-1.74915 0.326678,-2.27549 0.487665,-0.48767 0.529167,-0.88195 0.529167,-5.02709 v -4.49791 h -5.159375 -5.159375 v 2.47253 c 0,2.13652 0.07191,2.53762 0.529167,2.95143 0.646911,0.58544 0.693568,1.89333 0.09128,2.55885 -0.545605,0.60289 -1.875625,0.62717 -2.517846,0.046 -0.6384,-0.57774 -0.615791,-1.81143 0.04531,-2.47253 0.454898,-0.4549 0.529166,-0.88195 0.529166,-3.04271 v -2.51354 H 24.998507 19.83451 l 0.07077,6.54843 0.07077,6.54844 19.896198,0.0678 19.896202,0.0678 0.663128,-0.66313 c 0.837274,-0.83728 1.591151,-0.84155 2.418998,-0.0137 0.824076,0.82407 0.824076,1.58123 0,2.4053 -0.787752,0.78775 -1.441752,0.82147 -2.333181,0.12027 -0.660164,-0.51929 -1.073356,-0.52917 -22.12839,-0.52917 l -21.455664,1e-5 v 18.07986 c 0,9.94393 0.07937,18.15924 0.176389,18.25625 0.09701,0.097 9.711311,0.17077 21.365106,0.16391 l 21.188714,-0.0125 z m 56.356255,-2.91042 v -3.70416 h -5.58664 -5.58663 l -2.10013,-2.04373 c -1.23473,-1.20158 -2.17619,-1.92964 -2.28472,-1.76686 -0.10153,0.15229 -1.46451,2.01013 -3.028864,4.12853 -1.564349,2.11841 -2.844271,3.91868 -2.844271,4.0006 0,0.0819 0.506016,0.18556 1.124479,0.23031 l 1.12448,0.0814 0.07997,1.38907 0.07997,1.38906 h 9.511166 9.51118 z m 34.925,-10.18645 V 198.5372 H 136.6344 120.86879 l -1.69689,-1.62944 -1.69689,-1.62944 v -13.11807 -13.11807 l -4.16409,-4.1702 c -2.29025,-2.29361 -4.25478,-4.1702 -4.36563,-4.1702 -0.65379,0 0.18879,1.05834 3.37034,4.23334 l 3.57188,3.56452 v 13.10528 13.10528 l 2.71368,2.70445 2.71369,2.70445 11.77225,0.069 11.77225,0.0689 0.0697,9.11033 c 0.0544,7.11243 -0.004,9.15686 -0.26459,9.32251 -0.18384,0.1167 -6.07902,0.21401 -13.1004,0.21624 l -12.76615,0.004 v 3.70416 3.70417 h 16.80104 16.80105 z m -69.934658,4.49791 c 2.938573,-3.4925 5.350388,-6.43929 5.35959,-6.54844 0.0092,-0.10914 -2.84077,-0.19843 -6.33327,-0.19843 h -6.35 v 5.66023 c 0,4.91732 -0.05493,5.68131 -0.418516,5.82083 -0.230182,0.0883 -5.468932,0.1606 -11.641666,0.1606 H 51.858338 v 0.61736 c 0,0.33955 0.07922,0.69659 0.176054,0.79342 0.09683,0.0968 5.781262,0.14644 12.632076,0.11024 l 12.456025,-0.0658 z m 4.645776,-2.11666 7.074665,-8.46667 0.0029,-7.78856 0.0029,-7.78857 -0.79375,0.76046 -0.79375,0.76046 v 7.25518 7.25518 l -6.521935,7.84272 c -3.587064,4.31349 -6.71213,8.06321 -6.944587,8.33271 -0.39709,0.46036 -0.382691,0.48436 0.238082,0.39687 0.496176,-0.0699 2.422671,-2.20174 7.735396,-8.55978 z m -2.60908,6.54843 c 5.160224,-6.19845 10.738657,-13.19092 10.675226,-13.38121 -0.04003,-0.1201 -0.188875,-0.18422 -0.330758,-0.14247 -0.141883,0.0417 -2.984614,3.35466 -6.317179,7.36203 -3.332565,4.00737 -6.238282,7.49449 -6.457151,7.74915 -0.361389,0.42049 -0.346469,0.46302 0.162428,0.46302 0.375724,0 1.12286,-0.67566 2.267434,-2.05052 z m 6.856722,-4.93634 c 3.842679,-4.78779 5.417699,-6.93834 5.223632,-7.13241 -0.194069,-0.19407 -0.384252,-0.16159 -0.630751,0.1077 -0.312684,0.34159 -10.422297,12.80564 -11.11717,13.70625 -0.216053,0.28003 -0.136117,0.33658 0.374018,0.26459 0.485007,-0.0684 2.037646,-1.822 6.150271,-6.94613 z m 2.102194,0.77087 c 4.306676,-5.57386 4.94905,-6.53706 4.346099,-6.51666 -0.199996,0.007 -10.229974,12.41102 -10.229974,12.6516 0,0.0648 0.266236,0.0798 0.591637,0.0333 0.415324,-0.0593 1.992453,-1.89754 5.292238,-6.16825 z m 2.044626,0.9363 c 2.183374,-2.90384 4.001331,-5.43392 4.039905,-5.6224 0.216876,-1.05971 -0.980247,0.22642 -4.798677,5.15544 -2.342623,3.02398 -4.259313,5.55406 -4.259313,5.6224 0,0.0683 0.235871,0.12425 0.524158,0.12425 0.372348,0 1.673887,-1.52911 4.493927,-5.27969 z m 1.921582,0.84792 c 3.831568,-5.1782 3.724128,-5.01357 3.504118,-5.36955 -0.14267,-0.23085 -7.533368,9.25061 -7.533368,9.66449 0,0.0753 0.168749,0.13683 0.374999,0.13683 0.206248,0 1.85066,-1.99429 3.654251,-4.43177 z m 46.241588,-2.18253 v -0.79403 h -18.71089 -18.71089 l -4.57244,-4.57245 -4.572451,-4.57244 v -8.99649 -8.99649 l 1.455208,-1.43713 c 0.805564,-0.79556 1.455213,-1.67479 1.455213,-1.96949 0,-0.39972 -0.560395,0.0251 -2.248963,1.70491 l -2.248958,2.23727 0.005,8.47251 0.005,8.47251 5.629291,5.6184 5.62929,5.61841 18.44283,0.004 18.44282,0.004 v -0.79403 z m 0,-8.73153 v -6.61458 h -11.41871 -11.41871 l -3.13338,-3.09478 -3.13337,-3.09478 v -13.11463 -13.11462 l -3.50928,-3.50205 c -1.9301,-1.92613 -3.59697,-3.50206 -3.70417,-3.50206 -0.10718,0 -0.19488,1.40846 -0.19488,3.12991 v 3.12991 l 1.4552,1.60806 1.45521,1.60806 v 15.76517 15.76518 l 15.94115,0.0682 15.94114,0.0682 0.0725,4.59541 c 0.0499,3.16481 -0.0219,4.7092 -0.23083,4.96093 -0.25254,0.30429 -3.25493,0.36553 -17.91976,0.36553 h -17.61639 l -3.121,-3.121 -3.121,-3.121 v -8.99273 -8.99272 l 1.4552,-1.43713 1.45521,-1.43713 v -5.57433 -5.57432 l -1.45521,-1.43714 -1.4552,-1.43713 v -3.53234 -3.53234 l -0.727609,0.0837 -0.727604,0.0837 -0.07377,3.17651 -0.07377,3.17651 1.462833,1.44466 1.46283,1.44466 v 6.10349 6.1035 l -1.455204,1.43713 -1.455209,1.43713 v 8.48647 8.48647 l 4.185853,4.15642 4.18586,4.15642 h 18.43602 18.43602 z m -2.91042,0 v -3.70417 h -15.58878 c -8.57383,0 -15.77711,-0.0723 -16.00729,-0.1606 -0.37525,-0.14399 -0.41851,-1.81516 -0.41851,-16.16506 V 172.0279 l -1.45521,-1.65751 -1.45521,-1.6575 v -2.92424 -2.92423 l -0.79375,0.2996 -0.79375,0.29961 v 3.98593 3.98593 l 1.45521,1.43713 1.45521,1.43713 v 15.81583 15.81582 l 15.94114,0.0682 15.94115,0.0682 0.0794,1.67674 c 0.0477,1.00843 -0.0443,1.82573 -0.23084,2.05052 -0.26101,0.31451 -2.87122,0.37378 -16.46148,0.37378 h -16.15129 l -1.67569,-1.6757 -1.6757,-1.67569 v -8.98282 -8.98283 l 1.45521,-1.43713 1.45521,-1.43713 v -5.57433 -5.57432 l -1.45521,-1.43714 -1.45521,-1.43713 v -3.91164 c 0,-2.1514 -0.0893,-3.91002 -0.19844,-3.90803 -0.10914,0.002 -0.46632,0.0754 -0.79375,0.16315 -0.57914,0.15521 -0.59531,0.25416 -0.59531,3.64345 v 3.48391 l 1.45521,1.43713 1.45521,1.43713 v 6.10349 6.1035 l -1.45521,1.43713 -1.45521,1.43713 v 8.47119 8.47118 l 2.70725,2.7165 2.70726,2.7165 h 17.0042 17.00421 z m -50.557712,-0.46302 1.077211,-1.25677 0.0016,-7.27905 0.0018,-7.27905 4.365625,-4.35961 4.365626,-4.35961 v -4.11309 -4.11308 l -1.455209,-1.43714 -1.455208,-1.43713 v -3.38247 -3.38248 h -0.790366 -0.790364 l -0.06953,9.32656 -0.06953,9.32657 -9.309071,0.0695 -9.309068,0.0695 -0.811245,1.4179 -0.811241,1.41791 v 11.01414 11.01415 h 6.990871 6.990874 z m 47.647292,0.46302 v -0.79375 h -15.58877 c -8.57383,0 -15.77711,-0.0723 -16.0073,-0.1606 -0.37093,-0.14234 -0.41851,-1.24599 -0.41851,-9.70679 v -9.54619 l -0.79375,0.76046 -0.79375,0.76046 v 8.47422 8.47422 l 1.24682,1.26586 1.24683,1.26586 h 15.55422 15.55421 z m 49.80308,-5.22056 2.58442,-2.57472 v -38.70028 -38.70027 h -0.79375 -0.79375 v 27.32124 27.32123 l -4.36562,4.35961 -4.36563,4.35961 v 7.14179 7.14178 l 2.44217,2.45237 c 1.3432,1.3488 2.50193,2.45237 2.57496,2.45237 0.073,0 1.29577,-1.15863 2.7172,-2.57473 z M 18.520837,178.66904 c 0,-9.41337 -0.0216,-9.84146 -0.529166,-10.48673 -0.635292,-0.80764 -0.674085,-1.59963 -0.117289,-2.39457 0.499744,-0.71349 1.834332,-0.79226 2.543851,-0.15016 0.65215,0.59019 0.627699,1.99576 -0.04531,2.60483 -0.374498,0.33891 -0.529167,0.81491 -0.529167,1.62851 v 1.14961 h 5.159375 5.159375 v -3.70416 -3.70417 h -6.614583 -6.614584 v 12.25903 c 0,6.74246 0.07937,12.3384 0.176389,12.43541 0.09701,0.097 0.454202,0.17639 0.79375,0.17639 h 0.617361 z m 53.443932,4.98535 2.165882,-3.90261 h 8.575302 8.575302 l -0.0013,-7.47447 -0.0013,-7.47448 -2.132054,-0.63888 c -1.172629,-0.35139 -3.014089,-1.14153 -4.092131,-1.75588 l -1.960078,-1.117 -4.138729,5.52619 -4.138727,5.52619 H 72.06891 69.320884 v 7.85813 c 0,4.68767 0.09644,7.75671 0.239025,7.60677 0.131463,-0.13825 1.213673,-2.00753 2.404906,-4.15396 z M 187.32501,149.92356 v -27.05719 h -0.79375 -0.79375 v 25.86753 25.86753 l -2.91042,2.9014 -2.91042,2.90139 v 1.98534 1.98534 l 3.70417,-3.69707 3.70417,-3.69708 z M 59.266671,177.50283 v -5.15938 h -0.787196 -0.787196 l -0.0727,4.29948 -0.0727,4.29948 -7.209896,0.0704 -7.209896,0.0704 v 0.7895 0.7895 h 8.069792 8.069791 z m -2.910416,-1.45521 v -3.70417 h -0.779923 c -0.754317,0 -0.78255,0.0456 -0.859896,1.38906 l -0.07997,1.38907 -5.754688,0.0713 -5.754687,0.0713 v 2.2438 2.24379 h 6.614583 6.614584 z M 184.41459,154.29148 v -19.78345 h -15.81111 -15.81111 l -5.81632,-5.82083 -5.81632,-5.82083 h -5.5605 -5.56048 l -6.61062,6.61458 -6.61061,6.61458 h 31.38898 c 28.37856,0 31.40438,0.0401 31.54957,0.41852 0.0883,0.23018 0.1606,9.78232 0.1606,21.22697 v 20.80846 l 2.24896,-2.23728 2.24896,-2.23727 z m -130.916433,18.25041 0.07997,-1.38906 10.31875,-0.0789 10.31875,-0.0789 3.938529,-5.28711 c 2.166192,-2.90792 3.872037,-5.35361 3.790768,-5.43489 -0.08127,-0.0813 -1.719448,1.94647 -3.640392,4.50609 l -3.492627,4.65385 H 63.348952 51.885992 l -0.07997,1.38907 -0.07997,1.38906 -15.941146,0.0682 -15.941146,0.0682 v 0.6153 c 0,0.33841 0.07937,0.69467 0.176389,0.79168 0.09701,0.097 7.651261,0.17639 16.787216,0.17639 H 53.41819 Z m 74.397113,-1.81719 c -0.69974,-0.71042 -1.51141,-1.29167 -1.80372,-1.29167 -0.41187,0 -0.14617,0.38936 1.18068,1.73018 1.2547,1.2679 1.73661,1.61301 1.80372,1.29166 0.0525,-0.25169 -0.45044,-0.98878 -1.18068,-1.73017 z m -89.001516,-0.74086 c 0,-1.9626 -0.261474,-1.87372 5.51257,-1.87372 h 5.191372 l -2.237275,-2.24896 -2.237274,-2.24896 h -6.818863 -6.818863 v 3.70417 3.70416 h 3.704167 3.704166 z m 11.641667,0.24294 v -0.79375 h -5.159375 -5.159375 v 0.79375 0.79375 h 5.159375 5.159375 z m 78.581249,-0.52916 c 0,-0.14552 -0.12609,-0.26459 -0.2802,-0.26459 -0.15411,0 -0.20661,0.11907 -0.11667,0.26459 0.0899,0.14552 0.21602,0.26458 0.2802,0.26458 0.0642,0 0.11667,-0.11906 0.11667,-0.26458 z m -54.489232,-2.18281 c 0.273145,-0.32743 0.500589,-0.68461 0.505431,-0.79375 0.0048,-0.10915 -2.610572,-0.19844 -5.812031,-0.19844 h -5.820833 v 0.79375 0.79375 h 5.315402 c 5.188731,0 5.327238,-0.0142 5.812031,-0.59531 z m 51.578822,-3.30278 v -3.89809 l -2.70726,-2.71649 -2.70725,-2.7165 h -3.23316 -3.23316 l -0.77605,1.12448 c -0.42683,0.61846 -1.32551,1.71305 -1.99709,2.43242 -0.67157,0.71937 -1.22103,1.37282 -1.22103,1.45211 0,0.0793 1.81426,1.96126 4.03169,4.18216 l 4.03169,4.038 h 3.90581 3.90581 z m 8.73125,0.19392 v -3.70417 h -3.70417 -3.70417 v 3.70417 3.70417 h 3.70417 3.70417 z m 26.95043,-4.30968 2.15373,-3.25134 v -9.71324 -9.71324 h -23.70851 c -21.51037,0 -23.69363,0.0388 -23.54792,0.41852 0.0883,0.23018 0.1606,0.58666 0.1606,0.79217 0,0.31816 3.15382,0.38372 21.23281,0.44138 l 21.23281,0.0677 0.0688,12.10469 c 0.0379,6.65758 0.11047,12.10469 0.16137,12.10469 0.0509,0 1.06174,-1.46311 2.24629,-3.25135 z m -118.893144,1.39926 -0.76046,-0.79375 h -12.6505 -12.650499 v 0.79375 0.79375 h 13.41096 13.410959 z m 91.942714,-2.91041 v -0.79375 h -3.70417 -3.70417 v 0.79375 0.79375 h 3.70417 3.70417 z m -9.95266,-2.4125 c -0.69973,-0.71042 -1.5114,-1.29167 -1.80371,-1.29167 -0.41187,0 -0.14617,0.38936 1.18068,1.73017 1.25469,1.26791 1.73661,1.61301 1.80371,1.29167 0.0526,-0.2517 -0.45044,-0.98878 -1.18068,-1.73017 z m 2.41203,-0.49792 c -0.41825,-0.43656 -0.99858,-0.79375 -1.28963,-0.79375 -0.47776,0 -0.4553,0.0771 0.2313,0.79375 0.41825,0.43656 0.99858,0.79375 1.28962,0.79375 0.47777,0 0.45531,-0.0771 -0.23129,-0.79375 z m 2.91042,0 c -0.41826,-0.43656 -0.99859,-0.79375 -1.28963,-0.79375 -0.47777,0 -0.4553,0.0771 0.23129,0.79375 0.41826,0.43656 0.99859,0.79375 1.28963,0.79375 0.47777,0 0.4553,-0.0771 -0.23129,-0.79375 z m 4.63021,0 v -0.79375 h -1.7693 -1.76929 l 0.76046,0.79375 c 0.58461,0.6102 0.99375,0.79375 1.76929,0.79375 0.94454,0 1.00884,-0.0506 1.00884,-0.79375 z m -59.163156,-3.56039 c -0.36353,-0.79405 -0.912077,-2.46093 -1.218996,-3.70417 L 73.997322,146.1497 H 71.65908 69.320838 v 3.70417 3.70416 h 3.557239 3.557235 z m -25.503516,-12.4469 8.066537,-8.06979 H 56.353 54.368625 l -8.066537,8.06979 -8.066538,8.06979 h 1.984375 1.984375 z m 2.910417,2.91042 5.154287,-5.15938 h -1.984375 -1.984375 l -5.154287,5.15938 -5.154288,5.15937 h 1.984375 1.984375 z m -10.186459,-4.36563 6.610615,-6.61458 h -3.439853 -3.439856 l -5.816323,5.82083 -5.816322,5.82083 h -1.602985 c -1.81472,0 -2.371918,0.32189 -1.890794,1.09229 0.281286,0.45041 0.692666,0.49521 4.547085,0.49521 h 4.237818 z m -7.276042,-1.45521 c 3.617103,-3.62067 4.996334,-5.15937 4.624658,-5.15937 -0.33224,0 -2.154439,1.62705 -4.889241,4.36562 l -4.359611,4.36563 h -1.603736 c -1.815429,0 -2.372717,0.32181 -1.891546,1.09229 0.235465,0.37703 0.626162,0.49521 1.637228,0.49521 h 1.327961 z m 38.364584,4.3038 c 0,-0.7343 -0.402537,-1.25936 -2.839759,-3.70416 l -2.839758,-2.8486 h -5.577406 -5.577409 l -0.754959,0.78802 -0.754962,0.788 5.269521,0.0719 5.269524,0.0719 0.0751,2.84427 0.0751,2.84427 h 3.827508 3.827507 z m 61.519752,-19.51734 h 6.0858 l 5.81632,5.82083 5.81633,5.82084 h 15.54652 15.54653 v -0.79375 -0.79375 h -15.81111 -15.81111 l -5.81632,-5.82084 -5.81632,-5.82083 h -5.56031 -5.56031 l -7.24233,7.24592 c -4.7525,4.75486 -7.17332,7.35757 -7.0416,7.57069 0.13411,0.217 2.45064,-1.92392 6.98141,-6.45217 l 6.7807,-6.77694 z m -69.32496,10.84792 c -0.746922,-0.77962 -0.808162,-0.79375 -3.439584,-0.79375 -2.631421,0 -2.692662,0.0141 -3.439583,0.79375 l -0.76046,0.79375 h 4.200043 4.200044 z m 69.32483,-13.75833 h 6.08593 l 5.81632,5.82083 5.81633,5.82083 h 15.54652 15.54653 v -0.79375 -0.79375 h -15.81111 -15.81111 l -5.81632,-5.82083 -5.81632,-5.82083 h -5.57229 -5.5723 l -7.59298,7.84077 c -4.17614,4.31242 -7.59299,7.9728 -7.59299,8.13416 0,0.16137 3.30477,-3.00979 7.34393,-7.04702 l 7.34393,-7.34041 z m -14.42379,2.51354 8.33123,-8.33438 h 18.72084 18.72085 v -9.525 -9.524998 h -0.7872 -0.78719 l -0.0727,4.299479 -0.0727,4.299479 -7.2099,0.0704 -7.20989,0.0704 v 3.69991 3.69992 h 1.01732 c 0.68131,0 1.1755,-0.17479 1.49622,-0.52917 0.58544,-0.64691 1.89334,-0.69357 2.55885,-0.0913 0.60289,0.54561 0.62718,1.87563 0.046,2.51785 -0.57774,0.6384 -1.81143,0.61579 -2.47253,-0.0453 -0.51616,-0.51616 -0.88194,-0.52917 -14.88455,-0.52917 H 124.2184 l -7.49255,7.49602 -7.49256,7.49601 1.67346,1.62711 c 0.92041,0.89491 1.7337,1.62936 1.80733,1.63211 0.0736,0.003 3.88292,-3.74547 8.46509,-8.32937 z m -38.643804,1.45069 0.01464,-3.57638 2.910417,-2.9014 2.910417,-2.90139 V 94.557458 75.896814 l -4.365626,-4.359611 -4.365625,-4.359611 v -4.471755 c 0,-3.950684 -0.05387,-4.511144 -0.462272,-4.809776 -0.958813,-0.701103 -1.125228,-0.0382 -1.125228,4.482275 v 4.270089 l 4.365625,4.359611 4.365625,4.359611 v 19.189811 19.189812 l -2.910416,2.90139 -2.910417,2.90139 v 3.92724 3.92724 l 0.779111,-0.61543 0.77911,-0.61544 0.01463,-3.57639 z m 101.879224,2.52167 v -2.24534 l -8.6651,-0.0698 -8.66511,-0.0698 -0.0751,-2.84427 -0.0751,-2.84427 h -11.9609 -11.9609 l 5.15428,5.15937 5.15429,5.15937 h 15.54681 15.54682 z m -75.67083,-8.71015 v -8.50946 l -1.45521,-1.43713 -1.45521,-1.43713 v -7.54834 -7.54834 l 9.7221,-9.72476 c 6.62626,-6.628077 9.55442,-9.724761 9.19555,-9.724761 -0.33992,0 -4.06686,3.539413 -10.51584,9.986717 l -9.98931,9.986713 v 7.021804 7.021797 l 1.45521,1.43714 1.45521,1.43713 v 8.71112 c 0,7.98555 0.0385,8.73927 0.46227,9.04914 1.05488,0.77135 1.12523,0.2261 1.12523,-8.72164 z m -22.457351,7.44761 c 2.959838,-1.45942 5.626973,-2.07973 9.095888,-2.1155 1.600729,-0.0165 3.29737,0.0608 3.770313,0.17188 l 0.8599,0.20188 V 106.48323 90.851786 h -5.15938 -5.159375 v 11.447744 11.44774 l -2.910417,2.90139 -2.910416,2.90139 v 2.73854 c 0,1.5062 0.0893,2.69886 0.198437,2.65035 0.109141,-0.0485 1.105914,-0.53565 2.21505,-1.08254 z m 19.546931,-7.95199 v -8.02029 l -0.79375,-0.76046 -0.79375,-0.76046 v 8.52469 8.5247 l 0.59531,0.23928 c 0.32742,0.13161 0.68461,0.24684 0.79375,0.25606 0.10914,0.009 0.19844,-3.59236 0.19844,-8.00352 z m 5.82083,-1.22522 v -7.29443 l 7.47619,-7.472736 7.47619,-7.472738 h 7.0759 7.07589 V 81.922887 71.406486 l -16.66501,16.663433 -16.66501,16.663431 1.31918,1.33577 1.31917,1.33576 v 8.04483 8.04483 l 0.79375,-0.76046 0.79375,-0.76046 z m -7.76907,-43.178997 0.95949,-0.982606 -0.89469,-0.08551 c -0.88018,-0.08412 -0.89598,-0.108023 -0.97466,-1.474567 -0.0774,-1.343978 -0.10532,-1.389062 -0.86113,-1.389062 h -0.78115 l 0.0674,27.438601 0.0674,27.438591 0.66146,0.15615 0.66146,0.15616 0.0675,-25.137578 0.0675,-25.137576 z m 10.67949,41.727637 v -5.83536 l 6.01711,-6.02139 6.01712,-6.021378 h 7.07976 7.07976 v -0.79375 -0.79375 h -6.81486 -6.81486 l -7.07577,7.079408 -7.07576,7.07941 v 6.33155 6.33155 l 0.79375,-0.76046 0.79375,-0.76046 z m 20.57323,-9.14688 h 5.62052 v -3.70416 -3.704171 h -6.81076 -6.81077 l -5.62465,5.620091 -5.62465,5.62009 v 4.89519 4.89519 l 6.81489,-6.81111 6.81489,-6.81112 z m -56.758011,7.47758 c 2.604691,-2.60087 4.170196,-4.36266 4.170196,-4.69304 0,-0.37669 -1.124394,0.59356 -3.905808,3.37033 l -3.905806,3.8993 H 53.111905 31.485421 v 0.79375 0.79375 h 21.362096 21.362096 z m 62.378531,-3.9057 v -2.24896 h -5.36366 -5.36365 l -2.23727,2.24896 -2.23728,2.24896 h 7.60093 7.60093 z m 5.82083,-19.41857 c 0,-19.513874 0.0416,-21.683489 0.41852,-21.828125 0.23018,-0.08833 3.60119,-0.160599 7.49112,-0.160599 h 7.07261 l 0.76046,-0.79375 0.76046,-0.79375 h -7.7976 -7.7976 l -1.43713,1.455208 -1.43714,1.455209 h -20.18351 -20.18352 v 0.791987 0.791987 l 18.85156,0.06791 18.85156,0.06791 0.0678,20.306771 0.0678,20.306772 h 2.24732 2.24731 z m -8.7814,-17.701898 -1.90711,-0.0788 -14.3672,14.365388 -14.3672,14.365388 v 1.984482 1.98448 l 16.2743,-16.271073 16.27431,-16.271068 z m 26.2439,18.202757 V 76.299702 h -6.61458 -6.61458 v 12.435417 12.435421 h 6.61458 6.61458 z m -30.59365,-18.21689 c -0.60521,-0.12803 -26.29176,25.551605 -26.29176,26.284687 0,0.359867 4.27659,-3.745781 13.36553,-12.831279 9.07549,-9.072057 13.22453,-13.390305 12.92623,-13.453408 z m -4.38083,0.01414 -1.90702,-0.07879 -10.00196,9.999358 -10.00195,9.999361 v 1.984579 1.984579 l 11.90897,-11.90515 11.90898,-11.905146 z m -23.23385,10.68374 v -5.832507 l 2.44217,-2.452367 2.44217,-2.452368 h -1.92434 c -1.92415,0 -1.92447,1.22e-4 -3.23592,1.226831 l -1.31158,1.22683 v 7.818504 7.818503 l 0.79375,-0.76046 0.79375,-0.76046 z m 11.5884,-10.677279 -4.82008,-0.07233 -2.7227,2.713434 -2.7227,2.713437 v 4.897776 4.897779 l 7.54278,-7.538884 7.54278,-7.538884 z m -17.40923,4.755454 c 0,-6.19125 0.0839,-8.497618 0.3175,-8.73125 0.22059,-0.220591 1.61474,-0.3175 4.5676,-0.3175 h 4.25011 l 3.69708,-3.704167 3.69708,-3.704166 H 106.02823 95.514589 v 12.435416 12.435417 h 2.248958 2.248963 z m 59.39895,-4.021667 c 0.6866,-0.716652 0.70907,-0.79375 0.2313,-0.79375 -0.29104,0 -0.87138,0.357188 -1.28963,0.79375 -0.6866,0.716652 -0.70906,0.79375 -0.23129,0.79375 0.29104,0 0.87137,-0.357187 1.28962,-0.79375 z m 8.73125,0 0.76046,-0.79375 h -3.43958 -3.43958 l -0.76046,0.79375 -0.76046,0.79375 h 3.43958 3.43958 z m -52.3875,-8.73125 c 2.53551,-2.540372 3.53779,-3.704166 3.19007,-3.704166 -0.29806,0 -2.04117,1.525478 -4.22979,3.701694 -2.67858,2.66341 -3.57336,3.702388 -3.19006,3.704167 0.33433,0.0016 1.90947,-1.376933 4.22978,-3.701695 z m 8.73125,-2.910416 6.61062,-6.614583 h -1.96793 -1.96793 l -6.62905,6.613641 -6.62904,6.613641 1.98636,9.42e-4 1.98636,9.42e-4 z m 5.82084,0 6.61061,-6.614583 h -1.97163 -1.97162 l -6.62535,6.613131 -6.62535,6.613131 1.98636,0.0015 1.98636,0.0014 z m 5.82083,0 6.61062,-6.614583 h -1.97163 -1.97163 l -6.62535,6.613131 -6.62534,6.613131 1.98636,0.0015 1.98636,0.0014 z m -13.09687,-4.365625 c 1.56492,-1.573101 2.08882,-2.248958 1.74328,-2.248958 -0.27169,0 -1.51922,1.010322 -2.77228,2.245159 -1.71164,1.686743 -2.14523,2.246105 -1.74329,2.248959 0.32258,0.0023 1.42334,-0.889168 2.77229,-2.24516 z"
         id="path2858"
         inkscape:connector-curvature="0" />
    </g>
  </g>
  <g
     inkscape:groupmode="layer"
     id="layer4"
     inkscape:label="Yellow"
     style="display:none">
    <path
       style="fill:#d9cb75;stroke-width:0.26458332"
       d="m 80.352127,224.23493 c -0.23747,-0.61881 0.0978,-1.19062 0.69807,-1.19062 0.67316,0 0.966,0.66427 0.52637,1.19399 -0.42014,0.50624 -1.02953,0.50456 -1.22444,-0.003 z m -55.0889,-5.65443 c -0.59034,-0.38027 -0.25063,-1.22473 0.49267,-1.22473 0.52434,0 0.65784,0.1335 0.65784,0.65783 0,0.69469 -0.53947,0.96051 -1.15051,0.5669 z m -0.2019,-11.78951 c -0.26344,-0.68651 0.1058,-1.25391 0.75591,-1.1616 0.43729,0.0621 0.5965,0.26126 0.5965,0.74617 0,0.48491 -0.15921,0.68406 -0.5965,0.74616 -0.35779,0.0508 -0.66029,-0.0815 -0.75591,-0.33073 z m -2.910416,-2.91042 c -0.263436,-0.6865 0.105803,-1.25391 0.755912,-1.16159 0.437285,0.0621 0.596496,0.26125 0.596496,0.74616 0,0.48491 -0.159211,0.68407 -0.596496,0.74616 -0.357791,0.0508 -0.660291,-0.0815 -0.755912,-0.33073 z m 20.372916,-8.73125 c -0.26344,-0.6865 0.1058,-1.25391 0.75591,-1.16159 0.43729,0.0621 0.5965,0.26125 0.5965,0.74616 0,0.48491 -0.15921,0.68407 -0.5965,0.74616 -0.35779,0.0508 -0.66029,-0.0815 -0.75591,-0.33073 z m 86.204283,-3.90793 c -0.45794,-0.45795 -0.39082,-0.94756 0.17113,-1.24831 0.3362,-0.17992 0.58383,-0.16631 0.79375,0.0436 0.43744,0.43743 0.37611,1.17376 -0.11339,1.3616 -0.53286,0.20448 -0.48045,0.21414 -0.85149,-0.1569 z m -65.302203,-4.82332 c -0.26343,-0.6865 0.10581,-1.25391 0.75592,-1.16159 0.43728,0.0621 0.59649,0.26125 0.59649,0.74616 0,0.48491 -0.15921,0.68407 -0.59649,0.74616 -0.35779,0.0508 -0.66029,-0.0815 -0.75592,-0.33073 z m -19.1528,-2.92897 c -0.26278,-0.31663 -0.26278,-0.47712 0,-0.79375 0.18116,-0.21828 0.47882,-0.39688 0.66146,-0.39688 0.18265,0 0.4803,0.1786 0.66146,0.39688 0.26278,0.31663 0.26278,0.47712 0,0.79375 -0.18116,0.21828 -0.47881,0.39687 -0.66146,0.39687 -0.18264,0 -0.4803,-0.17859 -0.66146,-0.39687 z m 92.971553,-2.89186 c -0.26343,-0.68651 0.10581,-1.25391 0.75592,-1.16159 0.43728,0.0621 0.59649,0.26125 0.59649,0.74616 0,0.48491 -0.15921,0.68406 -0.59649,0.74616 -0.35779,0.0508 -0.6603,-0.0816 -0.75592,-0.33073 z M 32.962177,179.742 c -0.18191,-0.0734 -0.33073,-0.42119 -0.33073,-0.77287 0,-0.49802 0.14,-0.63941 0.63315,-0.63941 0.72983,0 1.10384,0.69169 0.66193,1.22416 -0.31737,0.38242 -0.42891,0.40417 -0.96435,0.18812 z M 21.320506,164.64588 c -0.480894,-0.17243 -0.405457,-1.31211 0.09968,-1.50595 0.4924,-0.18896 1.157089,0.26664 1.157089,0.79309 0,0.42733 -0.795185,0.87837 -1.256769,0.71286 z m 73.091151,-3.36437 c -7.97261,-1.58515 -14.06916,-7.05531 -16.53274,-14.83408 -0.83242,-2.62835 -1.01853,-7.21534 -0.41385,-10.19959 2.01964,-9.96733 10.56496,-16.922 20.78304,-16.91443 4.506333,0.003 8.022203,1.07097 11.811543,3.5867 8.05579,5.34822 11.37035,15.59078 8.0212,24.78687 -2.35114,6.45575 -7.84814,11.42889 -14.67336,13.27499 -2.23423,0.60433 -6.712873,0.75345 -8.995833,0.29954 z m -29.61444,-5.59256 c -0.43573,-0.43573 -0.31009,-1.05413 0.25849,-1.27232 0.47769,-0.18331 1.19714,0.53614 1.01383,1.01384 -0.21818,0.56857 -0.83659,0.69421 -1.27232,0.25848 z m -17.54839,-1.21226 c -0.20992,-0.20992 -0.22353,-0.45756 -0.0436,-0.79375 0.31644,-0.59128 0.85513,-0.62927 1.30122,-0.0918 0.62131,0.74864 -0.56159,1.58154 -1.25761,0.88551 z m -22.1875,-2.98362 c -0.26344,-0.6865 0.1058,-1.25391 0.75591,-1.16159 0.43729,0.0621 0.5965,0.26125 0.5965,0.74616 0,0.48491 -0.15921,0.68407 -0.5965,0.74616 -0.35779,0.0508 -0.66029,-0.0815 -0.75591,-0.33073 z m -5.820832,-2.91041 c -0.263438,-0.68651 0.105802,-1.25391 0.755911,-1.1616 0.437286,0.0621 0.596495,0.26125 0.596495,0.74616 0,0.48491 -0.159209,0.68407 -0.596495,0.74617 -0.357791,0.0508 -0.660291,-0.0815 -0.755911,-0.33073 z m -3.975872,-2.92898 c -0.209601,-0.54621 0.07459,-1.19062 0.525077,-1.19062 0.541579,0 1.00236,0.65765 0.810709,1.15709 -0.207421,0.54053 -1.132324,0.56375 -1.335786,0.0335 z m 12.707124,-2.89186 c -0.26344,-0.6865 0.1058,-1.25391 0.75591,-1.16159 0.43729,0.0621 0.5965,0.26125 0.5965,0.74616 0,0.48491 -0.15921,0.68407 -0.5965,0.74616 -0.35779,0.0508 -0.66029,-0.0815 -0.75591,-0.33073 z m 0,-2.91041 c -0.26344,-0.68651 0.1058,-1.25391 0.75591,-1.1616 0.43729,0.0621 0.5965,0.26125 0.5965,0.74616 0,0.48491 -0.15921,0.68407 -0.5965,0.74617 -0.35779,0.0508 -0.66029,-0.0815 -0.75591,-0.33073 z m 0.0847,-2.69733 c -0.38181,-0.38181 -0.17033,-1.12749 0.36825,-1.29843 0.66907,-0.21236 1.1159,0.16778 0.98766,0.84024 -0.0946,0.49582 -1.0092,0.8049 -1.35591,0.45819 z m 41.275,-11.64167 c -0.32932,-0.32932 -0.20131,-1.09579 0.20932,-1.25337 0.64979,-0.24934 1.22519,0.11691 1.13847,0.72467 -0.0794,0.55632 -0.97058,0.90592 -1.34779,0.5287 z m 127.762233,-8.99643 c -0.18895,-0.4924 0.26664,-1.15709 0.7931,-1.15709 0.42732,0 0.87837,0.79519 0.71286,1.25677 -0.17243,0.4809 -1.31212,0.40546 -1.50596,-0.0997 z m -2.91041,-2.91042 c -0.18896,-0.4924 0.26663,-1.15708 0.79309,-1.15708 0.42733,0 0.87837,0.79518 0.71286,1.25677 -0.17243,0.48089 -1.31212,0.40545 -1.50595,-0.0997 z m -37.72687,-6.06018 c 0,-0.80316 0.68354,-1.14134 1.22086,-0.60402 0.52888,0.52888 0.18519,1.27378 -0.58771,1.27378 -0.50107,0 -0.63315,-0.13972 -0.63315,-0.66976 z m 40.63728,0.23935 c -0.18895,-0.4924 0.26664,-1.15709 0.7931,-1.15709 0.42732,0 0.87837,0.79519 0.71286,1.25677 -0.17243,0.4809 -1.31212,0.40546 -1.50596,-0.0997 z M 32.807837,106.45125 c -0.097,-0.097 -0.17639,-0.4542 -0.17639,-0.79375 0,-0.47477 0.14623,-0.61736 0.63315,-0.61736 0.34823,0 0.70747,0.19369 0.79831,0.43041 0.28055,0.73109 -0.72161,1.51417 -1.25507,0.9807 z M 191.2729,96.143075 c -0.18895,-0.4924 0.26664,-1.157089 0.79309,-1.157089 0.42733,0 0.87837,0.795187 0.71286,1.256771 -0.17243,0.480894 -1.31211,0.405458 -1.50595,-0.09968 z M 70.494697,94.622647 c -0.39126,-0.471437 -0.0981,-1.224161 0.47672,-1.224161 0.71253,0 1.09927,0.533448 0.79667,1.098868 -0.3095,0.57831 -0.85304,0.63179 -1.27339,0.125293 z m 8.74066,-2.899068 c -0.44958,-0.541711 -0.0807,-1.279303 0.59174,-1.183352 0.40038,0.05713 0.56164,0.269012 0.56164,0.737968 0,0.754793 -0.67899,1.016987 -1.15338,0.445384 z m -2.91041,-5.820834 c -0.44958,-0.54171 -0.0808,-1.279303 0.59174,-1.183351 0.40037,0.05713 0.56163,0.269012 0.56163,0.737968 0,0.754792 -0.67898,1.016986 -1.15337,0.445383 z m -7.40505,-6.857058 c -0.4416,-0.441595 -0.37439,-1.174422 0.12529,-1.366165 0.4924,-0.188952 1.15709,0.266639 1.15709,0.793094 0,0.536601 -0.91152,0.943938 -1.28238,0.573071 z M 185.7118,73.138962 c -0.43573,-0.435729 -0.31009,-1.054135 0.25849,-1.272318 0.4777,-0.183311 1.19714,0.536136 1.01383,1.013833 -0.21818,0.568579 -0.83659,0.694216 -1.27232,0.258485 z m 8.73125,-2.910417 c -0.43573,-0.435729 -0.31009,-1.054133 0.25849,-1.272318 0.4777,-0.18331 1.19714,0.536136 1.01383,1.013833 -0.21818,0.568579 -0.83659,0.694217 -1.27232,0.258485 z m -5.82083,-2.910416 c -0.43573,-0.435731 -0.31009,-1.054134 0.25849,-1.272319 0.47769,-0.18331 1.19714,0.536136 1.01383,1.013834 -0.21818,0.56858 -0.83659,0.694215 -1.27232,0.258485 z m 5.72256,-5.72256 c -0.41658,-0.41658 -0.4006,-0.619935 0.087,-1.107567 0.44554,-0.445536 1.06339,-0.326524 1.28356,0.247243 0.13636,0.355348 -0.4644,1.177824 -0.86032,1.177824 -0.10602,0 -0.33564,-0.142875 -0.51027,-0.3175 z m -31.97182,-2.989791 c -0.2096,-0.546211 0.0746,-1.190625 0.52508,-1.190625 0.54158,0 1.00236,0.657654 0.8107,1.157089 -0.20742,0.540529 -1.13232,0.563749 -1.33578,0.03354 z m 34.88224,-2.831042 c -0.17463,-0.174625 -0.3175,-0.404245 -0.3175,-0.510268 0,-0.395918 0.82247,-0.996684 1.17782,-0.860324 0.57377,0.220175 0.69278,0.838025 0.24724,1.28356 -0.48763,0.487633 -0.69098,0.503612 -1.10756,0.08703 z M 73.375677,53.841346 c -0.29277,-0.352758 -0.28136,-0.489963 0.07,-0.841278 0.5674,-0.567397 1.31549,-0.252165 1.20697,0.508595 -0.10338,0.724684 -0.8008,0.906387 -1.27693,0.332683 z m 5.82083,0 c -0.29276,-0.352758 -0.28135,-0.489963 0.07,-0.841278 0.5674,-0.567397 1.31549,-0.252165 1.20697,0.508595 -0.10337,0.724684 -0.8008,0.906387 -1.27693,0.332683 z m 2.91042,0 c -0.29277,-0.352758 -0.28136,-0.489963 0.07,-0.841278 0.5674,-0.567397 1.31549,-0.252165 1.20697,0.508595 -0.10338,0.724684 -0.8008,0.906387 -1.27693,0.332683 z m 86.036243,-1.122547 c -0.34288,-0.666679 -0.0945,-1.124479 0.61014,-1.124479 0.71126,0 1.07629,0.698332 0.63989,1.22416 -0.41436,0.499266 -0.96454,0.455393 -1.25003,-0.09968 z m 2.91042,-2.910417 c -0.34288,-0.666678 -0.0945,-1.124479 0.61014,-1.124479 0.71126,0 1.07628,0.698332 0.63988,1.22416 -0.41435,0.499267 -0.96453,0.455393 -1.25002,-0.09968 z m 23.12973,0.03261 c -0.18896,-0.4924 0.26663,-1.157089 0.79309,-1.157089 0.5366,0 0.94394,0.911515 0.57307,1.282383 -0.44159,0.441595 -1.17442,0.374386 -1.36616,-0.125294 z"
       id="path2856"
       inkscape:connector-curvature="0" />
  </g>
</svg>
