<?xml version="1.0" encoding="UTF-8" standalone="no"?>
<!-- Created with Inkscape (http://www.inkscape.org/) -->

<svg
   xmlns:dc="http://purl.org/dc/elements/1.1/"
   xmlns:cc="http://creativecommons.org/ns#"
   xmlns:rdf="http://www.w3.org/1999/02/22-rdf-syntax-ns#"
   xmlns:svg="http://www.w3.org/2000/svg"
   xmlns="http://www.w3.org/2000/svg"
   xmlns:sodipodi="http://sodipodi.sourceforge.net/DTD/sodipodi-0.dtd"
   xmlns:inkscape="http://www.inkscape.org/namespaces/inkscape"
   version="1.1"
   id="svg79"
   width="277.33334"
   height="341.33334"
   viewBox="0 0 277.33334 341.33334"
   sodipodi:docname="fractal06.svg"
   inkscape:version="0.92.4 (5da689c313, 2019-01-14)">
  <metadata
     id="metadata85">
    <rdf:RDF>
      <cc:Work
         rdf:about="">
        <dc:format>image/svg+xml</dc:format>
        <dc:type
           rdf:resource="http://purl.org/dc/dcmitype/StillImage" />
        <dc:title></dc:title>
      </cc:Work>
    </rdf:RDF>
  </metadata>
  <defs
     id="defs83" />
  <sodipodi:namedview
     pagecolor="#ffffff"
     bordercolor="#666666"
     borderopacity="1"
     objecttolerance="10"
     gridtolerance="10"
     guidetolerance="10"
     inkscape:pageopacity="0"
     inkscape:pageshadow="2"
     inkscape:window-width="1920"
     inkscape:window-height="1017"
     id="namedview81"
     showgrid="false"
     inkscape:zoom="1.9555921"
     inkscape:cx="-35.615819"
     inkscape:cy="170.66667"
     inkscape:window-x="-8"
     inkscape:window-y="-8"
     inkscape:window-maximized="1"
     inkscape:current-layer="svg79" />
  <path
     style="fill:#a0f3fd;stroke-width:1.33333337"
     d="m 108.45535,340.44484 c -2.4349,-1.07116 -3.04852,-2.8705 -3.98566,-11.6875 -1.90393,-17.91276 -0.8702,-31.06298 3.50227,-44.5528 2.16712,-6.68594 4.49069,-12.84154 5.1635,-13.67911 0.6728,-0.83757 1.63405,-3.44469 2.1361,-5.79359 0.50205,-2.34889 1.97406,-5.64889 3.27113,-7.33333 1.29708,-1.68444 3.89105,-6.36262 5.76438,-10.39595 12.20347,-26.27439 11.698,-46.36123 -1.80215,-71.61613 -3.83693,-7.1778 -8.6665,-15.01722 -10.73239,-17.42094 -2.06588,-2.40373 -4.90483,-6.622 -6.30877,-9.37394 -2.3372,-4.5813 -13.903683,-14.89914 -23.054557,-20.56573 -2.534513,-1.56948 -6.831507,-2.37215 -13.40318,-2.5037 -13.662966,-0.27349 -36.037744,-7.86649 -41.078464,-13.94018 -0.87308,-1.05199 -2.36321,-1.91271 -3.3114,-1.91271 -2.61412,0 -15.8268,-15.756753 -19.74604,-23.548085 -2.98846,-5.940971 -3.55923,-9.129787 -4.17652997,-23.333334 -0.60134,-13.836559 -0.29856,-17.902864 1.90460997,-25.579047 1.44079,-5.019916 3.15901,-9.819916 3.81827,-10.666667 1.9149,-2.459495 4.2502,-13.520022 4.2502,-20.1299716 V 0.33588504 h 22.66666 22.666672 l -0.05807,7.66666656 c -0.03193,4.2166684 -0.60508,10.0666684 -1.273655,13.0000014 -0.668573,2.933333 -1.603417,7.133334 -2.077417,9.333334 -0.47401,2.2 -2.30087,7.702333 -4.05968,12.227406 -3.64023,9.365587 -4.11262,18.80271 -1.22108,24.394325 2.78329,5.382292 14.261882,11.419038 25.356569,13.335359 5.133334,0.886652 10.446279,1.919439 11.806545,2.295081 2.195228,0.606222 2.377988,0.105907 1.626008,-4.451258 -1.117908,-6.774774 3.594224,-28.58928 7.546765,-34.937261 1.661376,-2.668251 4.08273,-6.954131 5.380787,-9.524176 1.298057,-2.570046 3.816537,-7.057351 5.596627,-9.97179 1.78009,-2.91444 3.92225,-9.36444 4.76037,-14.3333344 l 1.52384,-9.03435356 h 29.15245 29.15244 l 0.88566,4.72099336 c 1.06415,5.6723526 -2.7985,25.7910006 -6.31516,32.8925576 -1.34732,2.720785 -2.44966,5.894688 -2.44966,7.053118 0,2.19191 -3.0352,8.219437 -8.72834,17.333333 -6.2529,10.010047 -6.29888,10.236586 -4.94909,24.387823 1.10955,11.63262 2.00444,14.83941 6.89759,24.71706 3.09245,6.24263 7.60958,13.94783 10.03806,17.12268 2.42848,3.17484 6.1135,9.67244 8.1889,14.43911 2.07541,4.76667 4.85762,10.17593 6.1827,12.0206 2.21123,3.07828 7.29286,15.79943 10.49314,26.26808 1.1583,3.789 1.99805,13.09567 2.4117,26.72804 l 0.132,4.35007 5.63302,-3.55596 c 3.09814,-1.95579 8.64814,-4.90166 12.33333,-6.54639 7.93376,-3.54092 16.8198,-11.41969 20.22352,-17.93111 1.34168,-2.56666 3.0685,-9.95268 3.83736,-16.41336 1.61711,-13.58821 0.38679,-18.25002 -6.18048,-23.41844 -2.21197,-1.74081 -5.46185,-5.34081 -7.22193,-8 -1.76009,-2.65917 -5.00019,-7.23486 -7.2002,-10.1682 -7.97371,-10.6315 -13.61308,-23.11225 -16.8045,-37.19074 -1.94185,-8.566221 -0.9079,-24.622151 1.92666,-29.918579 2.22545,-4.158301 9.72504,-15.250195 11.65105,-17.231911 0.89512,-0.921008 2.04551,-3.021008 2.55643,-4.666667 0.51091,-1.645658 2.19845,-4.792106 3.75009,-6.992106 2.4053,-3.410374 2.82174,-5.915866 2.82507,-16.997135 l 0.004,-12.99713496 24.67613,-0.00287 24.67606,-0.00287 -0.16982,14.33333496 c -0.21513,18.157165 -2.84758,28.942044 -9.40372,38.525822 -2.81164,4.110072 -6.23116,9.343659 -7.59894,11.630195 -1.36779,2.286536 -3.91779,5.857869 -5.66667,7.936294 -4.24277,5.042241 -4.01561,10.075937 0.87,19.279046 5.23051,9.852811 9.038,15.032691 16.34468,22.236001 3.26121,3.21507 6.35416,7.53767 6.87321,9.60576 0.51906,2.0681 1.4697,4.08523 2.11251,4.48251 2.27739,1.4075 5.28583,16.67176 5.23956,26.58451 -0.0259,5.52925 -0.81555,15.4532 -1.75496,22.0532 -1.42977,10.04507 -2.79444,14.02636 -8.37679,24.43848 -7.4091,13.81936 -14.11641,22.93648 -19.15466,26.03659 -1.83334,1.12808 -5.8855,4.41533 -9.0048,7.30501 -3.11931,2.88968 -7.61931,6.24804 -10,7.46303 -2.3807,1.21498 -6.12854,3.37341 -8.32854,4.79652 -2.2,1.42309 -5.48074,3.23121 -7.29054,4.01804 -1.8098,0.78682 -5.70981,3.4098 -8.66667,5.82883 -2.95687,2.41902 -6.64699,4.79948 -8.20028,5.2899 -1.55328,0.49043 -3.89627,2.07636 -5.20664,3.52431 -1.31038,1.44795 -3.07182,2.63263 -3.9143,2.63263 -2.12182,0 -10.03316,8.36158 -10.15236,10.73014 -0.0999,1.98394 -0.53593,2.73011 -10.1719,17.40439 l -5.6027,8.53213 0.1965,16.96176 c 0.10813,9.32898 -0.14318,17.30142 -0.55831,17.71655 -1.37265,1.37267 -49.66734,2.07352 -52.64412,0.76397 z"
     id="path89"
     inkscape:connector-curvature="0" />
</svg>
