<?xml version="1.0" encoding="UTF-8" standalone="no"?>
<!-- Created with Inkscape (http://www.inkscape.org/) -->

<svg
   xmlns:dc="http://purl.org/dc/elements/1.1/"
   xmlns:cc="http://creativecommons.org/ns#"
   xmlns:rdf="http://www.w3.org/1999/02/22-rdf-syntax-ns#"
   xmlns:svg="http://www.w3.org/2000/svg"
   xmlns="http://www.w3.org/2000/svg"
   xmlns:sodipodi="http://sodipodi.sourceforge.net/DTD/sodipodi-0.dtd"
   xmlns:inkscape="http://www.inkscape.org/namespaces/inkscape"
   version="1.1"
   id="svg151"
   width="278.66666"
   height="340"
   viewBox="0 0 278.66666 340"
   sodipodi:docname="fractal12.svg"
   inkscape:version="0.92.4 (5da689c313, 2019-01-14)">
  <metadata
     id="metadata157">
    <rdf:RDF>
      <cc:Work
         rdf:about="">
        <dc:format>image/svg+xml</dc:format>
        <dc:type
           rdf:resource="http://purl.org/dc/dcmitype/StillImage" />
        <dc:title></dc:title>
      </cc:Work>
    </rdf:RDF>
  </metadata>
  <defs
     id="defs155" />
  <sodipodi:namedview
     pagecolor="#ffffff"
     bordercolor="#666666"
     borderopacity="1"
     objecttolerance="10"
     gridtolerance="10"
     guidetolerance="10"
     inkscape:pageopacity="0"
     inkscape:pageshadow="2"
     inkscape:window-width="1920"
     inkscape:window-height="1017"
     id="namedview153"
     showgrid="false"
     inkscape:zoom="1.3882353"
     inkscape:cx="-34.268367"
     inkscape:cy="170"
     inkscape:window-x="-8"
     inkscape:window-y="-8"
     inkscape:window-maximized="1"
     inkscape:current-layer="svg151" />
  <path
     style="fill:#a0f3fd;stroke-width:1.33333337"
     d="m 111.54381,337.65828 c -1.45027,-4.56941 -3.65822,-58.33795 -4.11974,-100.32495 -0.31497,-28.65485 -1.33482,-34.5213 -7.76261,-44.6528 -4.20382,-6.62606 -15.86127,-21.47677 -18.85031,-24.01386 -0.86396,-0.73334 -2.72576,-3.12343 -4.13733,-5.31134 -3.68268,-5.70808 -5.4019,-7.69226 -16.56648,-19.11981 C 54.60734,138.60599 49.07513,132.2 47.81353,130 c -1.2616,-2.2 -5.01214,-8.2 -8.33454,-13.33333 -3.32241,-5.13334 -8.46729,-14.23314 -11.43308,-20.221795 -2.96579,-5.98866 -7.45942,-13.48866 -9.98585,-16.66667 -2.52642,-3.17801 -4.59932,-6.8111 -4.60644,-8.07352 -0.007,-1.26242 -1.51125,-5.68325 -3.3425,-9.82405 C 8.2798602,57.739835 6.2301132,50.972725 5.5561302,46.842615 4.8821462,42.712515 3.6804492,37.644273 2.8856922,35.579867 2.0909342,33.515461 1.4406782,24.665461 1.4406782,15.9132 V 4.2372878e-7 H 24.77401 48.10734 L 48.19924,13.666667 c 0.12487,18.576386 0.47346,20.412834 5.35477,28.210368 2.3377,3.7343 5.43879,8.88963 6.89131,11.4563 1.45252,2.56666 3.69198,6.16666 4.97657,8 1.2846,1.83333 2.79058,4.79612 3.34663,6.58398 0.55605,1.78785 3.63476,7.34399 6.84159,12.34697 3.20683,5.00298 5.8306,9.69019 5.8306,10.41602 0,0.72583 0.46287,1.31969 1.0286,1.31969 0.56572,0 4.31572,4.24232 8.33333,9.427365 10.65654,13.75314 24.99235,29.23931 27.06733,29.23931 0.64213,0 2.8152,1.65 4.82904,3.66666 13.72882,13.74806 19.25844,13.11624 32.07503,-3.66487 4.03333,-5.28096 11.08333,-14.31517 15.66667,-20.07603 4.58333,-5.76086 8.33333,-10.990475 8.33333,-11.621365 0,-0.63089 1.96873,-2.90747 4.37496,-5.05907 2.40621,-2.1516 6.1528,-6.312 8.32575,-9.24533 2.17293,-2.93333 4.32752,-5.63333 4.78797,-6 0.46045,-0.36667 4.24032,-5.89927 8.39972,-12.29467 11.56888,-17.78804 21.7238,-38.561735 22.64722,-46.328926 0.43874,-3.690354 1.15402,-9.709736 1.5895,-13.3764026 L 229.69094,4.2372879e-7 h 25.2503 25.25029 L 279.43061,14.333333 c -0.41851,7.883334 -1.05135,16.625912 -1.40631,19.427952 -0.79224,6.25394 -8.41282,21.64989 -15.393,31.09859 -2.85482,3.86444 -5.1906,7.5745 -5.1906,8.24457 0,0.67007 -3.51349,5.64569 -7.80774,11.05693 -4.29427,5.41124 -9.30028,12.53862 -11.12448,15.83862 C 236.68428,103.3 232.26774,110.5 228.69396,116 c -3.57379,5.5 -7.30931,11.49866 -8.30118,13.33036 -0.99186,1.8317 -2.66184,4.27895 -3.71106,5.43832 -1.04923,1.15937 -1.90768,2.60408 -1.90768,3.21045 0,0.60638 -1.36744,2.95912 -3.03876,5.22835 -1.67132,2.26921 -4.46997,6.98427 -6.21924,10.47788 -1.74925,3.49361 -3.98181,7.01708 -4.96124,7.82992 -0.97941,0.81285 -1.78076,2.04633 -1.78076,2.74108 0,0.69475 -1.75671,3.81645 -3.90379,6.93713 -5.21825,7.58448 -12.79849,23.31788 -13.90861,28.8685 -0.49241,2.46206 -2.09401,5.75246 -3.55913,7.312 -2.53599,2.69945 -2.70104,5.262 -3.43926,53.39744 -0.69402,45.25485 -0.7686,65.1382 -0.26713,71.22857 0.0905,1.1 0.0701,3.35 -0.0453,5 l -0.21011,3 h -30.57682 c -27.9915,0 -30.63966,-0.198 -31.32005,-2.34172 z"
     id="path161"
     inkscape:connector-curvature="0" />
</svg>
