<?xml version="1.0" encoding="UTF-8" standalone="no"?>
<!-- Created with Inkscape (http://www.inkscape.org/) -->

<svg
   xmlns:dc="http://purl.org/dc/elements/1.1/"
   xmlns:cc="http://creativecommons.org/ns#"
   xmlns:rdf="http://www.w3.org/1999/02/22-rdf-syntax-ns#"
   xmlns:svg="http://www.w3.org/2000/svg"
   xmlns="http://www.w3.org/2000/svg"
   xmlns:sodipodi="http://sodipodi.sourceforge.net/DTD/sodipodi-0.dtd"
   xmlns:inkscape="http://www.inkscape.org/namespaces/inkscape"
   version="1.1"
   id="svg57"
   width="285.33334"
   height="341.33334"
   viewBox="0 0 285.33334 341.33334"
   sodipodi:docname="fractal05.svg"
   inkscape:version="0.92.4 (5da689c313, 2019-01-14)">
  <metadata
     id="metadata63">
    <rdf:RDF>
      <cc:Work
         rdf:about="">
        <dc:format>image/svg+xml</dc:format>
        <dc:type
           rdf:resource="http://purl.org/dc/dcmitype/StillImage" />
        <dc:title></dc:title>
      </cc:Work>
    </rdf:RDF>
  </metadata>
  <defs
     id="defs61" />
  <sodipodi:namedview
     pagecolor="#ffffff"
     bordercolor="#666666"
     borderopacity="1"
     objecttolerance="10"
     gridtolerance="10"
     guidetolerance="10"
     inkscape:pageopacity="0"
     inkscape:pageshadow="2"
     inkscape:window-width="1920"
     inkscape:window-height="1017"
     id="namedview59"
     showgrid="false"
     inkscape:zoom="1.9555921"
     inkscape:cx="-31.615819"
     inkscape:cy="170.66667"
     inkscape:window-x="-8"
     inkscape:window-y="-8"
     inkscape:window-maximized="1"
     inkscape:current-layer="svg57" />
  <path
     style="fill:#a0f3fd;stroke-width:1.33333337"
     d="m 129.14246,338.3316 c -8.099,-12.36063 -11.92593,-53.51054 -6.18371,-66.49176 l 2.79408,-6.31648 -2.71869,-4.60783 c -2.95716,-5.01202 -20.85911,-14.6864 -17.59036,-14.00071 0,0 -4.49225,-0.6 -4.94547,-1.33333 -1.707616,-2.76299 -6.28549,-1.25462 -12.0691,3.21438 C 67.782285,264.74981 38.175175,264.04725 16.771855,247.0955 7.9762051,240.12922 0.14507505,223.5813 0.59619505,212.91482 c 0.062,-1.46667 0.0881,-3.41667 0.0579,-4.33333 -0.29668,-9.01491 -0.18185,-16.58206 0.32014,-21.09644 0.85858005,-7.72108 11.18819995,-37.32472 15.78453995,-45.2369 5.70694,-9.82396 5.99958,-10.35769 7.73359,-14.10515 2.12673,-4.59621 2.34227,-20.80391 0.30376,-22.84242 -0.87217,-0.87217 -1.58576,-2.63035 -1.58576,-3.90707 0,-1.27672 -0.6091,-2.697753 -1.35354,-3.157843 -0.74444,-0.46009 -2.23238,-2.745499 -3.30653,-5.078689 -1.07414,-2.33319 -2.49552,-5.14216 -3.15861,-6.24216 -7.5659999,-12.551236 -8.1592999,-31.934454 -1.45901,-47.666667 0.70272,-1.65 1.84367,-4.35 2.53544,-6 2.76183,-6.587512 3.79104,-21.18954 2.05171,-29.1086672 l -0.85468,-3.89133298 h 20.08054 20.08054 l 0.86597,3.45030898 c 0.47628,1.89767 0.43335,11.0476692 -0.0954,20.3333332 -0.82674,14.518691 -1.48608,18.00336 -4.70812,24.883025 -6.24496,13.334187 -6.26674,13.130875 3.4461,32.167288 0,0 7.35035,10.898505 8.75853,17.166041 1.315865,5.856663 2.02063,18.000003 2.02063,18.000003 -0.29488,9.9 -3.75669,19.2 -4.56798,20.66667 -0.81129,1.46667 -3.12405,6.41667 -5.13947,11 -2.01542,4.58333 -4.02259,8.33333 -4.46039,8.33333 -1.27295,0 -4.97511,7.70011 -10.25694,21.33334 -3.90711,10.08486 -5.03262,15.04061 -5.52189,24.31358 l -0.61453,11.64692 4.25765,3.97724 c 5.91891,5.5291 11.82648,6.39519 19.21722,2.81739 3.2477,-1.57219 7.41124,-4.25453 9.2523,-5.96077 1.84106,-1.70624 6.15192,-4.4599 9.57969,-6.11926 5.16827,-2.50192 7.522865,-2.87106 13.791535,-2.16218 9.42354,1.06562 20.61108,4.4626 27.45948,8.33774 5.68443,3.21652 19.43309,16.08411 19.43309,18.18774 0,0.71446 2.25,-1.75148 5,-5.47987 2.75,-3.72839 6.2518,-7.45315 7.78177,-8.27723 1.52997,-0.82408 5.01476,-4.8995 7.74396,-9.05649 4.59603,-7.00044 4.90527,-8.08452 4.19089,-14.69159 -0.4242,-3.92338 -1.50898,-8.52896 -2.41062,-10.23461 -2.7079,-5.12263 -13.41979,-12.3346 -27.2095,-18.31927 -21.71733,-9.42524 -35.77731,-24.80108 -37.09238,-40.56381 -0.35556,-4.26188 -1.27755,-10.39936 -2.04886,-13.63885 -0.77131,-3.23949 -1.08214,-7.43949 -0.69075,-9.33333 0.3914,-1.89385 1.00683,-7.756362 1.36762,-13.027812 0.36079,-5.271447 1.80234,-12.171447 3.20345,-15.333331 2.55708,-5.770566 6.28929,-15.04923 9.55265,-23.748879 2.87269,-7.658194 2.47887,-29.978693 -0.81749,-46.3333342 l -0.87341,-4.33333298 h 35.33628 35.33628 l 0.81505,4.34464698 c 0.4483,2.3895556 0.78455,14.9555942 0.74723,27.9245312 -0.0655,22.778718 -0.20396,23.956191 -4.07452,34.655353 -2.20369,6.091508 -4.59955,13.018868 -5.32413,15.394132 -0.72459,2.375266 -2.47787,6.875264 -3.89619,10.000004 -3.79904,8.369742 -3.41921,10.891142 2.02933,13.471372 2.56667,1.21548 6.88866,3.25996 9.60442,4.5433 2.71574,1.28333 6.58374,3.70974 8.59556,5.39202 l 3.65781,3.05869 1.65344,-5.72536 c 1.54345,-5.34453 7.47785,-15.467043 11.42337,-19.485262 0.95044,-0.96794 2.10383,-3.25709 2.56311,-5.08698 0.45928,-1.8299 5.57165,-9.137944 11.36084,-16.240101 11.22727,-13.773561 15.15576,-22.521901 14.77979,-32.913013 -0.19937,-5.510373 3.28632,-21.545123 5.24631,-24.133908 0.61097,-0.806983 1.26188,-4.552679 1.44644,-8.3237686 l 0.33558,-6.85652658 22.2,-0.0096 22.2,-0.0096 0.0195,4.99999998 c 0.0263,6.7358052 -2.88576,18.4244312 -6.29539,25.2689252 -1.58361,3.179064 -2.79074,8.186909 -2.79074,11.577795 0,7.017661 -7.29332,30.744012 -10.86115,35.333093 -1.35971,1.748896 -2.48369,3.848896 -2.49776,4.666666 -0.0141,0.81777 -2.13913,3.886855 -4.72235,6.820188 -8.25104,9.369339 -14.91334,18.567192 -15.9353,22.000002 -0.54582,1.83333 -3.48071,6.03333 -6.52202,9.33333 -5.86369,6.36248 -7.82768,11.42091 -9.78811,25.21014 -1.25617,8.83564 -0.86454,10.82201 4.36176,22.1232 4.5956,9.93737 6.32168,32.99021 3.62283,48.38486 -2.29403,13.08542 -11.87045,28.88854 -26.3246,43.44106 -12.59902,12.68477 -13.22591,13.49747 -18.64752,24.17408 -2.83863,5.59003 -3.26314,7.85097 -2.62862,14 1.04892,10.16473 3.0742,19.41681 6.06719,27.71668 1.39825,3.87751 2.54228,9.12751 2.54228,11.66667 v 4.61665 h -31.3026 -31.30259 z"
     id="path67"
     inkscape:connector-curvature="0"
     sodipodi:nodetypes="csccsccscccscssscsccsccccsssssssssscssssccssscccscscssscccccccccsscccccsccccccccsccsccsssssccscccc" />
</svg>
