<?xml version="1.0" encoding="UTF-8" standalone="no"?>
<!-- Created with Inkscape (http://www.inkscape.org/) -->

<svg
   xmlns:dc="http://purl.org/dc/elements/1.1/"
   xmlns:cc="http://creativecommons.org/ns#"
   xmlns:rdf="http://www.w3.org/1999/02/22-rdf-syntax-ns#"
   xmlns:svg="http://www.w3.org/2000/svg"
   xmlns="http://www.w3.org/2000/svg"
   xmlns:sodipodi="http://sodipodi.sourceforge.net/DTD/sodipodi-0.dtd"
   xmlns:inkscape="http://www.inkscape.org/namespaces/inkscape"
   version="1.1"
   id="svg91"
   width="329.33334"
   height="341.33334"
   viewBox="0 0 329.33334 341.33334"
   sodipodi:docname="fractal07.svg"
   inkscape:version="0.92.4 (5da689c313, 2019-01-14)">
  <metadata
     id="metadata97">
    <rdf:RDF>
      <cc:Work
         rdf:about="">
        <dc:format>image/svg+xml</dc:format>
        <dc:type
           rdf:resource="http://purl.org/dc/dcmitype/StillImage" />
        <dc:title></dc:title>
      </cc:Work>
    </rdf:RDF>
  </metadata>
  <defs
     id="defs95" />
  <sodipodi:namedview
     pagecolor="#ffffff"
     bordercolor="#666666"
     borderopacity="1"
     objecttolerance="10"
     gridtolerance="10"
     guidetolerance="10"
     inkscape:pageopacity="0"
     inkscape:pageshadow="2"
     inkscape:window-width="1920"
     inkscape:window-height="1017"
     id="namedview93"
     showgrid="false"
     inkscape:zoom="0.69140623"
     inkscape:cx="-9.6158193"
     inkscape:cy="170.66667"
     inkscape:window-x="-8"
     inkscape:window-y="-8"
     inkscape:window-maximized="1"
     inkscape:current-layer="svg91" />
  <path
     style="fill:#a0f3fd;stroke-width:1.33333337"
     d="m 137.66667,340.35035 -7,-0.4897 v -78.96698 c 0,-88.25375 0.90378,-79.97287 -9.94115,-91.08573 -7.44089,-7.62472 -11.81633,-12.79999 -20.925667,-24.75094 -4.3081,-5.65197 -8.61168,-10.75197 -9.56352,-11.33333 -0.95184,-0.58135 -2.64606,-2.4001 -3.76493,-4.04167 -1.11888,-1.64157 -6.19023,-7.34157 -11.26968,-12.66667 -5.07944,-5.32509 -12.94433,-14.78199 -17.47753,-21.015323 -4.5332,-6.23334 -11.72564,-15.13165 -15.98319,-19.77403 C 30.431602,63.894347 30.493579,63.965497 23.289695,55.042877 19.64703,50.531117 15.236248,44.550757 13.487958,41.753177 8.9394922,34.474807 2.0449054e-7,9.7699369 2.0449054e-7,4.4783169 V -1.4366242e-7 H 18.349986 36.699971 L 39.195679,8.7144469 c 1.372639,4.7929501 3.530314,10.0429501 4.794824,11.6666701 1.26451,1.62372 3.36767,5.05222 4.67368,7.61888 1.30601,2.56667 2.74085,4.96667 3.18853,5.33334 0.44767,0.36666 3.1763,3.66666 6.0636,7.33333 6.31262,8.01656 15.45818,18.28701 26.7142,30 4.5807,4.76667 14.95743,16.76667 23.059407,26.66667 8.10197,9.900003 16.58619,19.762253 18.85381,21.916123 l 4.12294,3.91612 V 61.582787 -1.4366229e-7 h 26.65957 26.65959 L 184.32624,119.89601 l 0.34043,119.89601 18.30235,-20.22935 c 10.06629,-11.12613 20.26629,-23.227 22.66666,-26.8908 2.40038,-3.66381 7.96432,-10.19268 12.36432,-14.50861 4.4,-4.31592 9.50001,-10.08582 11.33334,-12.82199 11.6944,-17.4534 20.93809,-31.62121 21.75329,-33.34127 0.52132,-1.1 2.49862,-4.7 4.39396,-8 7.75654,-13.5049 10.87347,-27.532883 14.51668,-65.333333 1.09552,-11.36667 1.9943,-29.21667 1.9973,-39.66667 L 291.99957,-1.4366231e-7 h 18.66666 18.66667 L 329.3279,19.666667 c -0.005,19.46147 -2.83859,55.40533 -5.28112,67 -0.69519,3.3 -1.29011,8.4281 -1.32204,11.39579 -0.032,2.967673 -2.38314,12.267673 -5.22487,20.666663 -5.32639,15.74256 -13.43457,30.79406 -25.46463,47.27088 -3.74796,5.13334 -8.87464,12.43187 -11.39265,16.21895 -2.518,3.78709 -7.65579,10.38709 -11.41729,14.66667 -3.76151,4.27958 -7.40176,8.98105 -8.08946,10.44772 -2.07344,4.4221 -4.7389,8.80306 -6.31474,10.3789 -0.81827,0.81827 -1.50055,2.41776 -1.51619,3.55443 -0.0156,1.13667 -8.48492,10.16667 -18.82064,20.06667 -18.11918,17.35533 -33.07923,34.68708 -37.6391,43.60624 -1.20146,2.35011 -4.58314,6.20052 -7.51482,8.55649 L 184,297.77965 v 20.90908 20.90908 l -13,0.86086 c -12.90714,0.85472 -19.89166,0.83203 -33.33333,-0.10826 z"
     id="path101"
     inkscape:connector-curvature="0" />
</svg>
