<?xml version="1.0" encoding="UTF-8" standalone="no"?>
<!-- Created with Inkscape (http://www.inkscape.org/) -->

<svg
   xmlns:dc="http://purl.org/dc/elements/1.1/"
   xmlns:cc="http://creativecommons.org/ns#"
   xmlns:rdf="http://www.w3.org/1999/02/22-rdf-syntax-ns#"
   xmlns:svg="http://www.w3.org/2000/svg"
   xmlns="http://www.w3.org/2000/svg"
   xmlns:sodipodi="http://sodipodi.sourceforge.net/DTD/sodipodi-0.dtd"
   xmlns:inkscape="http://www.inkscape.org/namespaces/inkscape"
   version="1.1"
   id="svg10"
   width="192"
   height="341.33334"
   viewBox="0 0 192 341.33334"
   sodipodi:docname="fractal01.svg"
   inkscape:version="0.92.4 (5da689c313, 2019-01-14)">
  <metadata
     id="metadata16">
    <rdf:RDF>
      <cc:Work
         rdf:about="">
        <dc:format>image/svg+xml</dc:format>
        <dc:type
           rdf:resource="http://purl.org/dc/dcmitype/StillImage" />
        <dc:title></dc:title>
      </cc:Work>
    </rdf:RDF>
  </metadata>
  <defs
     id="defs14" />
  <sodipodi:namedview
     pagecolor="#ffffff"
     bordercolor="#666666"
     borderopacity="1"
     objecttolerance="10"
     gridtolerance="10"
     guidetolerance="10"
     inkscape:pageopacity="0"
     inkscape:pageshadow="2"
     inkscape:window-width="1920"
     inkscape:window-height="1017"
     id="namedview12"
     showgrid="false"
     inkscape:zoom="9.9609372"
     inkscape:cx="61.113117"
     inkscape:cy="296.31878"
     inkscape:window-x="-8"
     inkscape:window-y="-8"
     inkscape:window-maximized="1"
     inkscape:current-layer="svg10" />
  <path
     style="fill:#a0f3fd;stroke-width:1.33333337"
     d="m 64.724354,340.06825 c -0.28891,-0.91666 -0.91978,-4.60293 -1.40193,-8.19169 -0.86591,-6.44517 -4.72513,-15.27484 -14.63102,-33.47497 -2.79395,-5.13334 -6.0425,-11.13334 -7.21899,-13.33334 -1.65153,-3.08829 -2.12001,-7.79876 -2.05543,-20.66666 0.0888,-17.68597 2.65415,-30.58173 7.46774,-37.53917 1.34674,-1.94653 2.132097,-3.98295 3.352139,-5.88115 2.796791,-4.35136 3.585751,-5.62817 9.072651,-12.58946 5.48689,-6.96129 9.98689,-13.13485 10,-13.71901 0.0131,-0.58418 2.73475,-5.76208 6.04811,-11.50648 11.30924,-19.60687 12.84061,-32.06834 5.96921,-48.57418 -2.33482,-5.60847 -6.38244,-12.19906 -9.6711,-15.74706 -3.11065,-3.35597 -6.65082,-7.22865 -7.86705,-8.60596 -1.21622,-1.37731 -6.51336,-6.1042 -11.77142,-10.504215 -15.02707,-12.57481 -25.79889,-25.8013 -27.89003,-34.245597 -0.96536,-3.898256 -2.58891,-8.41663 -3.60788,-10.040828 -1.01898,-1.624199 -1.85269,-3.633522 -1.85269,-4.465162 0,-1.600638 -1.884,-6.137772 -8.05213,-19.391507 C 7.351444,24.580283 3.9059443,14.812334 0.67084426,3.4015687 L -0.17969573,0.40156864 H 21.208914 42.597524 l 6.70124,13.92814736 c 3.68568,7.660482 6.70124,14.504553 6.70124,15.209045 0,0.704492 1.8,5.292756 4,10.196141 2.2,4.903386 4,9.961978 4,11.241315 0,1.279337 5.22511,7.073407 11.61137,12.875711 6.38625,5.802303 14.17071,13.099893 17.2988,16.216867 l 5.687441,5.667225 2.034495,-3.934289 c 1.11897,-2.163859 2.78625,-4.414109 3.70507,-5.000559 0.91881,-0.586448 3.46882,-3.725972 5.66669,-6.976721 2.19787,-3.250748 7.36355,-9.402248 11.47928,-13.669998 4.11574,-4.267751 8.91574,-10.608048 10.66667,-14.089548 1.75093,-3.481502 4.17194,-7.836154 5.38002,-9.677004 3.44975,-5.256676 7.95201,-20.08634 7.99061,-26.3196656 l 0.0351,-5.66666676 h 23.37585 23.37586 l -0.92514,7.40446276 c -0.50881,4.0724536 -2.4172,10.8224546 -4.24084,14.9999996 -4.1537,9.515144 -8.09845,18.408712 -10.46584,23.595538 -1.00413,2.2 -2.20081,5.329524 -2.6593,6.954499 -0.4585,1.624973 -5.8997,8.147592 -12.09156,14.494707 -6.19182,6.347114 -11.25788,12.134265 -11.25788,12.860332 0,0.726068 -3,6.286776 -6.66667,12.357129 -3.66667,6.070359 -6.66667,12.311864 -6.66667,12.311864 -0.29163,0.63765 -1.14452,2.31062 -2.54337,3.57657 -1.39885,1.26595 -3.80082,5.22475 -5.33771,8.79733 -1.53688,3.57259 -3.53191,5.48393 -4.21031,7.37073 -0.86005,2.70183 -1.12255,6.7304 -0.50391,19.07599 1.28179,25.57896 -2.02431,38.19538 -15.01139,57.28514 -3.14965,4.62968 -5.72664,8.6496 -5.72664,8.93316 0,1.15948 -8.115005,12.29579 -12.094196,16.597 -2.34793,2.53794 -6.6349,8.08052 -9.5266,12.31686 -4.97031,7.2815 -5.29847,8.38696 -6.00497,20.22903 0,0 -0.734544,7.91816 0.156179,11.72347 1.45714,6.22514 8.283031,17.29946 8.283031,17.29946 11.956873,23.95799 15.242466,28.63571 17.105686,40.48341 0.4613,2.93334 1.16589,6.98334 1.56574,9 l 0.72701,3.66667 H 84.730764 c -14.41586,0 -19.6177,-0.43335 -20.00641,-1.66667 z"
     id="path20"
     inkscape:connector-curvature="0"
     sodipodi:nodetypes="csscccasccccccscscscccsssssscccscssccccccsccssssccssssssascccsc" />
</svg>
