<?xml version="1.0" encoding="UTF-8" standalone="no"?>
<!-- Created with Inkscape (http://www.inkscape.org/) -->

<svg
   xmlns:dc="http://purl.org/dc/elements/1.1/"
   xmlns:cc="http://creativecommons.org/ns#"
   xmlns:rdf="http://www.w3.org/1999/02/22-rdf-syntax-ns#"
   xmlns:svg="http://www.w3.org/2000/svg"
   xmlns="http://www.w3.org/2000/svg"
   xmlns:sodipodi="http://sodipodi.sourceforge.net/DTD/sodipodi-0.dtd"
   xmlns:inkscape="http://www.inkscape.org/namespaces/inkscape"
   version="1.1"
   id="svg163"
   width="248"
   height="341.33334"
   viewBox="0 0 248 341.33334"
   sodipodi:docname="fractal13.svg"
   inkscape:version="0.92.4 (5da689c313, 2019-01-14)">
  <metadata
     id="metadata169">
    <rdf:RDF>
      <cc:Work
         rdf:about="">
        <dc:format>image/svg+xml</dc:format>
        <dc:type
           rdf:resource="http://purl.org/dc/dcmitype/StillImage" />
        <dc:title></dc:title>
      </cc:Work>
    </rdf:RDF>
  </metadata>
  <defs
     id="defs167" />
  <sodipodi:namedview
     pagecolor="#ffffff"
     bordercolor="#666666"
     borderopacity="1"
     objecttolerance="10"
     gridtolerance="10"
     guidetolerance="10"
     inkscape:pageopacity="0"
     inkscape:pageshadow="2"
     inkscape:window-width="1920"
     inkscape:window-height="1017"
     id="namedview165"
     showgrid="false"
     inkscape:zoom="1.9555921"
     inkscape:cx="-50.282491"
     inkscape:cy="170.66667"
     inkscape:window-x="-8"
     inkscape:window-y="-8"
     inkscape:window-maximized="1"
     inkscape:current-layer="svg163" />
  <path
     style="fill:#a0f3fd;stroke-width:1.33333337"
     d="M 86.78561,335.57905 C 85.25352,332.41418 84,328.58745 84,327.07521 c 0,-1.51224 -0.94386,-5.00851 -2.09746,-7.76946 -2.10954,-5.04885 -2.04788,-24.2808 0.16236,-50.63908 2.03624,-24.28333 -11.97968,-57.40372 -30.07594,-71.07104 -10.30861,-7.78564 -12.8545,-10.08844 -17.97901,-16.26229 -2.73911,-3.3 -6.8619,-7.19299 -9.16174,-8.65108 -5.386118,-3.41479 -11.514877,-8.82728 -11.514877,-10.16915 0,-0.57535 -1.803415,-3.71824 -4.0075885,-6.98421 -2.204174,-3.26596 -4.403902,-7.91968 -4.888286,-10.3416 -0.484383,-2.42192 -1.677272,-5.92984 -2.650863,-7.79539 -2.43203202,-4.66014 -2.28254802,-24.68496 0.267982,-35.89878 1.552871,-6.82745 3.679409,-11.26202 8.7085555,-18.16035 3.659688,-5.01989 8.46276,-12.91703 10.673494,-17.54921 C 25.8568,56.52193 28.921,54.07138 34.53884,55.30526 c 2.65371,0.58285 4.51241,2.41843 6.50296,6.4221 2.41024,4.84778 2.59648,6.41746 1.37704,11.60598 -2.38088,10.1302 -5.29313,17.49075 -10.13881,25.62522 -6.24409,10.48199 -7.22225,21.79339 -2.97039,34.34945 4.16008,12.28502 4.6364,12.92361 12.51854,16.78311 3.90169,1.91048 10.3365,6.60022 14.29957,10.42166 3.96307,3.82144 9.90558,8.81548 13.20558,11.09789 10.76568,7.44593 20.08806,18.84332 31.16138,38.09739 l 3.6662,6.3747 5.58621,-7.02954 c 3.07242,-3.86624 10.00575,-11.43968 15.4074,-16.82986 7.94562,-7.92872 10.6968,-11.82084 14.4062,-20.38056 6.31273,-14.56712 8.03993,-24.9387 5.36991,-32.24544 -1.12496,-3.07854 -3.0414,-9.79736 -4.25876,-14.93069 -3.44702,-14.53527 -9.77257,-31.19604 -17.87122,-47.07071 -1.58315,-3.10322 -3.44948,-8.48181 -4.1474,-11.95242 -0.69793,-3.47061 -2.09783,-10.21021 -3.11089,-14.97687 -1.28425,-6.042674 -1.50713,-11.088819 -0.73616,-16.666669 0.60817,-4.4 1.49274,-11.900001 1.96571,-16.666667 0.47297,-4.766667 1.66216,-10.6166674 2.64265,-13.0000004 L 121.19726,-4.3519099e-7 h 17.40137 c 9.57076,0 17.39264,0.44999999519099 17.38197,0.99999999519099 -0.0107,0.55000004 -0.91867,3.58175804 -2.01776,6.73723904 -2.46917,7.0890034 -0.76129,20.4816114 3.16255,24.7994994 1.39776,1.538128 3.31433,4.296596 4.25905,6.129929 0.94472,1.833334 4.07955,6.467118 6.96628,10.297299 l 5.24859,6.963964 2.86701,-3.48436 c 6.23621,-7.579038 18.77108,-17.562308 23.33721,-18.586677 4.94511,-1.109394 20.07268,-11.366966 20.98023,-14.226105 0.41363,-1.303065 3.06093,-5.03692 5.88291,-8.297454 2.82197,-3.2605344 5.51685,-7.1443894 5.98861,-8.6307894 0.68521,-2.15891404 2.00356,-2.70254503519099 6.55388,-2.70254503519099 7.21891,0 8.79636,2.94676203519099 8.77707,16.39607143519099 -0.0107,7.410524 -0.69579,10.853662 -3,15.075938 -6.90656,12.655689 -10.56266,16.193003 -23.55382,22.788571 -11.71073,5.9455 -12.94772,6.97228 -18.14294,15.05997 -3.06644,4.7737 -5.91966,10.17945 -6.34047,12.01279 -0.42081,1.83333 -1.44737,6.03333 -2.28124,9.33333 -1.72076,6.80983 -1.21436,10.66952 2.48001,18.90186 8.74131,19.47867 9.66791,23.57384 8.99744,39.76481 -0.79534,19.20669 -2.27926,28.18692 -6.05893,36.66666 -1.63433,3.66667 -3.85141,8.76667 -4.92683,11.33334 -1.07541,2.56666 -2.61126,5.84469 -3.41301,7.28449 -0.80173,1.4398 -3.15424,5.88773 -5.22777,9.88429 -2.07355,3.99655 -5.2196,8.81854 -6.99123,10.71551 -1.77163,1.89697 -5.49931,7.94904 -8.28375,13.44904 -2.78444,5.5 -7.24989,13.3 -9.92322,17.33333 -5.16294,7.78945 -8.11347,16.94923 -10.81118,33.56281 -1.44102,8.87438 -1.37017,11.25882 0.53482,18 1.20773,4.2738 3.63242,13.62053 5.38821,20.77053 l 3.19235,13 H 124.59794 89.57122 Z"
     id="path173"
     inkscape:connector-curvature="0" />
</svg>
