<?xml version="1.0" encoding="UTF-8" standalone="no"?>
<!-- Created with Inkscape (http://www.inkscape.org/) -->

<svg
   xmlns:dc="http://purl.org/dc/elements/1.1/"
   xmlns:cc="http://creativecommons.org/ns#"
   xmlns:rdf="http://www.w3.org/1999/02/22-rdf-syntax-ns#"
   xmlns:svg="http://www.w3.org/2000/svg"
   xmlns="http://www.w3.org/2000/svg"
   xmlns:sodipodi="http://sodipodi.sourceforge.net/DTD/sodipodi-0.dtd"
   xmlns:inkscape="http://www.inkscape.org/namespaces/inkscape"
   version="1.1"
   id="svg175"
   width="258.66666"
   height="341.33334"
   viewBox="0 0 258.66666 341.33334"
   sodipodi:docname="fractal14.svg"
   inkscape:version="0.92.4 (5da689c313, 2019-01-14)">
  <metadata
     id="metadata181">
    <rdf:RDF>
      <cc:Work
         rdf:about="">
        <dc:format>image/svg+xml</dc:format>
        <dc:type
           rdf:resource="http://purl.org/dc/dcmitype/StillImage" />
        <dc:title></dc:title>
      </cc:Work>
    </rdf:RDF>
  </metadata>
  <defs
     id="defs179" />
  <sodipodi:namedview
     pagecolor="#ffffff"
     bordercolor="#666666"
     borderopacity="1"
     objecttolerance="10"
     gridtolerance="10"
     guidetolerance="10"
     inkscape:pageopacity="0"
     inkscape:pageshadow="2"
     inkscape:window-width="1920"
     inkscape:window-height="1017"
     id="namedview177"
     showgrid="false"
     inkscape:zoom="1.9555921"
     inkscape:cx="-44.949163"
     inkscape:cy="170.66667"
     inkscape:window-x="-8"
     inkscape:window-y="-8"
     inkscape:window-maximized="1"
     inkscape:current-layer="svg175" />
  <path
     style="fill:#a0f3fd;stroke-width:1.33333337"
     d="M 118.73934,304.56389 V 267.89723 H 64.802088 c -38.97812,0 -54.90688,-0.44179 -57.43333,-1.59292 -7.43377451,-3.38706 -7.29607651,-1.59147 -7.29607651,-95.14087 V 84.963878 L 4.606018,80.430548 c 6.15122,-6.15122 11.44877,-6.15122 17.6,0 l 4.53333,4.53333 v 78.133342 78.13334 h 46 45.999992 V 120.56389 -0.10278744 h 20 20 V 65.897218 131.89722 h 36.66667 36.66666 V 74.430548 16.96388 l 4.53334,-4.533333 c 6.15122,-6.1512224 11.44877,-6.1512224 17.6,0 l 4.53333,4.533333 v 65.532878 c 0,71.088282 -0.007,71.152782 -7.29608,74.474212 -2.48793,1.13359 -16.35807,1.59292 -48.09999,1.59292 h -44.60393 v 91.33333 91.33334 h -20 -20 z"
     id="path185"
     inkscape:connector-curvature="0" />
</svg>
