<?xml version="1.0" encoding="UTF-8" standalone="no"?>
<!-- Created with Inkscape (http://www.inkscape.org/) -->

<svg
   xmlns:dc="http://purl.org/dc/elements/1.1/"
   xmlns:cc="http://creativecommons.org/ns#"
   xmlns:rdf="http://www.w3.org/1999/02/22-rdf-syntax-ns#"
   xmlns:svg="http://www.w3.org/2000/svg"
   xmlns="http://www.w3.org/2000/svg"
   xmlns:sodipodi="http://sodipodi.sourceforge.net/DTD/sodipodi-0.dtd"
   xmlns:inkscape="http://www.inkscape.org/namespaces/inkscape"
   version="1.1"
   id="svg103"
   width="340"
   height="341.33334"
   viewBox="0 0 340 341.33334"
   sodipodi:docname="fractal08.svg"
   inkscape:version="0.92.4 (5da689c313, 2019-01-14)">
  <metadata
     id="metadata109">
    <rdf:RDF>
      <cc:Work
         rdf:about="">
        <dc:format>image/svg+xml</dc:format>
        <dc:type
           rdf:resource="http://purl.org/dc/dcmitype/StillImage" />
        <dc:title></dc:title>
      </cc:Work>
    </rdf:RDF>
  </metadata>
  <defs
     id="defs107" />
  <sodipodi:namedview
     pagecolor="#ffffff"
     bordercolor="#666666"
     borderopacity="1"
     objecttolerance="10"
     gridtolerance="10"
     guidetolerance="10"
     inkscape:pageopacity="0"
     inkscape:pageshadow="2"
     inkscape:window-width="1920"
     inkscape:window-height="1017"
     id="namedview105"
     showgrid="false"
     inkscape:zoom="0.69140623"
     inkscape:cx="-4.2824911"
     inkscape:cy="170.66667"
     inkscape:window-x="-8"
     inkscape:window-y="-8"
     inkscape:window-maximized="1"
     inkscape:current-layer="svg103" />
  <path
     style="fill:#a0f3fd;stroke-width:1.33333337"
     d="m 95.779666,340.34135 c 6.049994,-0.24705 15.949994,-0.24705 21.999994,0 6.05,0.24707 1.1,0.4492 -11,0.4492 -12.099994,0 -17.049994,-0.20213 -10.999994,-0.4492 z m 47.821784,-1.08457 c -0.43827,-1.14212 -0.75311,-38.79212 -0.69964,-83.66667 0.0831,-69.77181 -0.19293,-82.26607 -1.90587,-86.25677 -1.10169,-2.56667 -8.09884,-10.66667 -15.54924,-18 C 117.99631,144 109.202,133.91095 105.9038,128.91322 c -3.29821,-4.99773 -10.221274,-13.69773 -15.384594,-19.33334 -5.16332,-5.6356 -10.73276,-12.346546 -12.37653,-14.913216 -3.53213,-5.51522 -37.80115,-40.41893 -45.07625,-45.91109 -6.0472,-4.56518 -20.95982,-22.22133 -24.2873405,-28.75557 -1.30706,-2.56667 -3.49164,-6.097585 -4.85462,-7.846482 -1.36297,-1.748896 -2.47814,-5.1988969 -2.47814,-7.6666669 V 1.2353514e-7 h 31.6759005 31.6759 L 68.788896,4.4711451 c 2.19492,2.45913 6.39077,7.2990499 9.3241,10.7553789 2.93333,3.45633 6.77274,7.59431 8.53202,9.19552 1.75929,1.60121 5.05929,5.00538 7.33334,7.56482 2.27405,2.55945 10.434644,11.33918 18.134644,19.51051 15.147,16.0742 23.96032,26.93979 29.5666,36.45148 4.70961,7.9904 14.63146,19.558806 24.03504,28.023696 l 7.60162,6.84283 2.79258,-5.07436 c 3.01552,-5.47949 10.45506,-15.78541 20.00416,-27.711546 3.3,-4.12147 15.81988,-17.51416 27.82197,-29.76153 12.00208,-12.24737 23.48788,-25.17846 25.52399,-28.73577 2.03612,-3.5573 8.90833,-12.1073 15.2716,-18.999995 L 276.30013,1.2353513e-7 h 32.57311 C 349.73461,1.2353513e-7 348.79373,-1.4480909 325.113,24.994164 c -5.68334,6.3461 -10.33479,12.16854 -10.33655,12.93876 -0.002,0.77023 -6.86573,8.60041 -15.25325,17.40041 -8.38752,8.8 -19.63608,21.27937 -24.99679,27.73193 -5.36071,6.45257 -13.34675,15.89379 -17.74675,20.980506 -4.4,5.08672 -11,12.8805 -14.66666,17.31952 -7.6099,9.21287 -26.73575,29.96655 -30.56094,33.16203 -4.96134,4.14459 -9.06218,8.84722 -11.03449,12.65375 -1.71384,3.30769 -1.96943,15.79921 -1.82103,89 l 0.17264,85.15227 h -27.23544 c -23.4256,0 -27.3469,-0.29048 -28.03229,-2.07656 z m 98.11077,1.08479 c 6.37958,-0.24388 17.17958,-0.24503 24,-0.003 6.82043,0.24248 1.60078,0.44201 -11.59922,0.44341 -13.2,0.001 -18.78035,-0.19698 -12.40078,-0.44086 z"
     id="path113"
     inkscape:connector-curvature="0" />
</svg>
