<?xml version="1.0" encoding="UTF-8" standalone="no"?>
<!-- Created with Inkscape (http://www.inkscape.org/) -->

<svg
   xmlns:dc="http://purl.org/dc/elements/1.1/"
   xmlns:cc="http://creativecommons.org/ns#"
   xmlns:rdf="http://www.w3.org/1999/02/22-rdf-syntax-ns#"
   xmlns:svg="http://www.w3.org/2000/svg"
   xmlns="http://www.w3.org/2000/svg"
   xmlns:sodipodi="http://sodipodi.sourceforge.net/DTD/sodipodi-0.dtd"
   xmlns:inkscape="http://www.inkscape.org/namespaces/inkscape"
   version="1.1"
   id="svg21"
   width="294.66666"
   height="341.33334"
   viewBox="0 0 294.66666 341.33334"
   sodipodi:docname="fractal02.svg"
   inkscape:version="0.92.4 (5da689c313, 2019-01-14)">
  <metadata
     id="metadata27">
    <rdf:RDF>
      <cc:Work
         rdf:about="">
        <dc:format>image/svg+xml</dc:format>
        <dc:type
           rdf:resource="http://purl.org/dc/dcmitype/StillImage" />
        <dc:title></dc:title>
      </cc:Work>
    </rdf:RDF>
  </metadata>
  <defs
     id="defs25" />
  <sodipodi:namedview
     pagecolor="#ffffff"
     bordercolor="#666666"
     borderopacity="1"
     objecttolerance="10"
     gridtolerance="10"
     guidetolerance="10"
     inkscape:pageopacity="0"
     inkscape:pageshadow="2"
     inkscape:window-width="1920"
     inkscape:window-height="1017"
     id="namedview23"
     showgrid="false"
     inkscape:zoom="5.5312498"
     inkscape:cx="134.12492"
     inkscape:cy="131.92307"
     inkscape:window-x="-8"
     inkscape:window-y="-8"
     inkscape:window-maximized="1"
     inkscape:current-layer="svg21" />
  <path
     style="fill:#a0f3fd;stroke-width:1.33333337"
     d="m 144.55715,339.53922 c -0.27264,-0.91666 -1.11332,-12.76667 -1.86822,-26.33333 -1.15874,-20.82375 -1.25577,-22.95727 -0.54717,-27.80067 -0.14895,-4.55354 -0.51288,-6.77794 -0.19869,-13.36722 -0.13182,-4.496 -0.56871,-9.2654 -0.14598,-47.31078 0.28405,-25.56325 1.23695,-52.20267 2.11752,-59.1987 0.91085,-7.23632 1.26908,-18.58305 0.83095,-26.31992 -0.69672,-12.30312 -1.24258,-14.51562 -5.72464,-23.20379 -6.17672,-11.9731 -11.6824,-16.685406 -21.82627,-18.681096 -7.62725,-1.500567 -7.76125,-1.472128 -14.8774,3.157156 -12.165038,7.91377 -12.84065,8.5019 -17.27699,15.03999 -3.941242,5.80845 -5.810204,7.44553 -6.387973,19.14118 0,0 -0.251862,7.70422 1.176122,11.16237 0.722352,1.74932 3.562346,4.4212 3.562346,4.4212 2.158162,1.53675 7.54292,3.63017 11.966143,4.65202 12.517882,2.89192 20.370492,10.20131 30.412062,28.30825 3.33504,6.01372 3.76343,8.29903 4.37396,23.33334 1.33766,32.93998 -6.49802,45.97202 -33.241829,55.28672 -9.955639,3.4675 -23.446852,1.98106 -36.632848,-4.0361 -2.310745,-1.05452 -4.792161,-1.91729 -5.514174,-1.9173 -2.858352,0 -9.13045,-4.21409 -17.725349,-11.9093 -8.917921,-7.98441 -13.152582,-13.7701 -18.60728,-25.42254 -1.544409,-3.29919 -4.187562,-7.80722 -5.87369,-10.01785 -4.1144488,-5.39432 -8.0799988,-15.55809 -9.9091185,-25.39724 -3.40415805,-18.3116 -0.7937381,-63.48577 4.5107913,-78.06049 1.1728706,-3.22258 3.2257802,-8.8881 4.5620202,-12.590043 5.580559,-15.460495 12.279439,-23.638194 27.162462,-33.158748 10.132665,-6.481791 10.929256,-7.809375 10.92926,-18.214507 -10e-7,-11.290803 3.071574,-16.345678 10.310029,-16.967144 4.041949,-0.347028 5.288895,0.295612 8.771306,4.520381 3.386697,4.108654 4.210157,6.532243 4.96829,14.622763 0.841663,8.981658 0.634892,10.201058 -2.799793,16.511718 -3.958068,7.272256 -15.210314,18.749674 -18.381836,18.749675 -1.052108,-2e-6 -4.935387,2.717461 -8.629526,6.038804 -4.978952,4.476511 -7.305143,7.839734 -8.991503,13.000005 -1.2512,3.828646 -3.186879,8.761186 -4.30152,10.961186 -2.94537,5.81337 -5.549949,28.08552 -5.58321,47.74291 -0.0373,22.06137 2.393668,32.53416 9.96372,42.92376 1.602959,2.2 4.24725,6.7 5.876177,10 5.572419,11.28893 6.791443,13.00685 12.616748,17.78024 5.642693,4.62377 10.264174,6.75002 24.04741,11.0637 10.805036,3.38164 22.076688,-0.40757 26.538803,-8.92156 1.99017,-3.79738 2.32928,-7.11923 1.96569,-19.25572 -0.3993,-13.32903 -0.78675,-15.252 -4.24819,-21.08486 -4.491916,-7.56934 -7.169448,-9.51398 -16.122602,-11.70952 -6.909448,-1.69437 -19.26725,-9.23882 -24.117546,-14.72375 -5.366914,-6.06917 -6.312242,-10.89022 -5.533264,-28.21897 0.402081,-8.9446 1.429762,-18.06289 2.283731,-20.26289 4.352802,-11.21377 16.324614,-24.706657 26.549871,-29.923198 2.916621,-1.487951 5.686115,-3.325351 6.154442,-4.083106 1.5716,-2.542898 13.864688,-7.99369 18.028028,-7.993696 8.68818,3e-6 20.28467,4.164495 30.63475,11.001441 l 3.33334,2.201902 -1.02283,-14.935007 c -0.56256,-8.214251 -1.69005,-18.747129 -2.50549,-23.406401 -1.58211,-9.039635 -0.77368,-26.14561 1.85237,-39.1952684 l 1.54281,-7.66666972 10.96003,1e-6 10.96001,-1.2e-6 -0.85924,15.00000032 c -1.14186,19.933815 -0.0868,39.61599 3.72818,69.545335 1.72597,13.540942 1.69892,74.634968 -0.0384,86.654058 -0.73135,5.05969 -1.12718,9.40196 -0.87961,9.64955 0.24755,0.24757 2.91874,-1.36532 5.93595,-3.58421 5.43488,-3.99687 19.02368,-7.87497 27.65955,-7.89382 6.95224,-0.0152 17.09389,3.85665 21.7959,8.32104 2.49553,2.36944 6.66047,7.58258 9.2554,11.58481 4.04986,6.24619 4.80836,8.68383 5.35567,17.21214 0.63453,9.88733 0.15383,11.82903 -5.49034,22.17777 -5.04825,9.25608 -6.07542,12.29426 -6.88142,20.35387 -1.07191,10.71896 0.48802,15.72011 5.60468,17.96871 2.0314,0.89273 4.12216,2.23536 4.64613,2.98362 1.35845,1.93991 13.0888,1.39286 17.05996,-0.7956 13.99131,-7.71049 19.08424,-16.29969 19.22611,-32.42473 0.0989,-11.25152 -2.21534,-25.14541 -5.37812,-32.28739 -1.02335,-2.31081 -1.86063,-5.07989 -1.86064,-6.15352 2e-5,-1.0736 -1.0658,-3.38292 -2.36847,-5.13181 -1.30266,-1.7489 -3.05212,-4.67983 -3.88768,-6.51316 -0.83557,-1.83332 -4.59673,-9.74449 -8.35814,-17.58035 -3.76139,-7.83586 -7.11193,-15.48586 -7.44563,-16.99999 -0.33376,-1.51414 -0.83264,-3.80299 -1.10876,-5.08633 -0.85847,-3.99004 -2.6525,-23.59496 -2.28772,-24.99999 0.19038,-0.73334 0.63546,-4.03334 0.98905,-7.33333 0.68829,-6.42373 1.04446,-7.65751 6.34932,-21.994219 1.89825,-5.130169 3.45137,-10.407435 3.45136,-11.727285 10e-6,-3.432532 5.98212,-8.945165 9.70699,-8.945162 1.73884,-5e-6 4.46611,1.388675 6.06061,3.085929 2.47688,2.636543 2.89908,4.636467 2.89908,13.733335 0,5.85607 -0.54842,11.217406 -1.21867,11.914072 -0.67029,0.69665 -1.84864,6.66665 -2.61856,13.26667 -2.21441,18.98232 -0.47234,28.01234 9.17782,47.57346 4.45708,9.0346 8.9471,17.92653 9.97781,19.75986 4.4776,7.9642 7.66147,16.5143 8.80877,23.65538 4.11434,25.60878 4.30431,28.25647 2.91116,40.57467 -2.00605,17.7374 -4.55904,23.72007 -14.21318,33.30714 -8.18406,8.1272 -15.69681,12.37034 -27.85727,15.73354 -7.6258,2.10907 -20.44463,1.22718 -26.23071,-1.80457 -2.23877,-1.17305 -5.91451,-3.09873 -8.1683,-4.27927 -13.6978,-7.17495 -19.54407,-19.61798 -18.09216,-38.50679 0.98848,-12.85974 3.88449,-23.26825 8.35256,-30.01999 4.84067,-7.31473 5.36996,-13.0401 1.76964,-19.1422 -1.64381,-2.78597 -4.44005,-5.61725 -6.21393,-6.29165 -5.52208,-2.0995 -14.09511,-1.40431 -18.38498,1.49084 -2.2,1.48476 -5.86324,3.608 -8.14054,4.7183 -3.38192,1.64891 -4.52294,3.41235 -6.22783,9.625 -4.52013,16.47156 -5.56542,26.80659 -5.89377,58.27291 -0.18363,17.60002 -0.47553,34.4 -0.64863,37.33335 -0.1731,2.93334 0.18819,12.08334 0.80288,20.33333 l 1.11763,15 h -10.88005 c -7.55081,0 -11.03173,-0.51001 -11.37572,-1.66667 z"
     id="path31"
     inkscape:connector-curvature="0"
     sodipodi:nodetypes="ccccscscscccacccscccscsssssssscccccscsccccccscscsccscscscccsccsscccsccscccccccccccsccccsccscsssccsscccccccsscscc" />
</svg>
