<?xml version="1.0" encoding="UTF-8" standalone="no"?>
<!-- Created with Inkscape (http://www.inkscape.org/) -->

<svg
   xmlns:dc="http://purl.org/dc/elements/1.1/"
   xmlns:cc="http://creativecommons.org/ns#"
   xmlns:rdf="http://www.w3.org/1999/02/22-rdf-syntax-ns#"
   xmlns:svg="http://www.w3.org/2000/svg"
   xmlns="http://www.w3.org/2000/svg"
   xmlns:sodipodi="http://sodipodi.sourceforge.net/DTD/sodipodi-0.dtd"
   xmlns:inkscape="http://www.inkscape.org/namespaces/inkscape"
   version="1.1"
   id="svg199"
   width="285.33334"
   height="341.33334"
   viewBox="0 0 285.33334 341.33334"
   sodipodi:docname="fractal16.svg"
   inkscape:version="0.92.4 (5da689c313, 2019-01-14)">
  <metadata
     id="metadata205">
    <rdf:RDF>
      <cc:Work
         rdf:about="">
        <dc:format>image/svg+xml</dc:format>
        <dc:type
           rdf:resource="http://purl.org/dc/dcmitype/StillImage" />
        <dc:title></dc:title>
      </cc:Work>
    </rdf:RDF>
  </metadata>
  <defs
     id="defs203" />
  <sodipodi:namedview
     pagecolor="#ffffff"
     bordercolor="#666666"
     borderopacity="1"
     objecttolerance="10"
     gridtolerance="10"
     guidetolerance="10"
     inkscape:pageopacity="0"
     inkscape:pageshadow="2"
     inkscape:window-width="1920"
     inkscape:window-height="1017"
     id="namedview201"
     showgrid="false"
     inkscape:zoom="1.9555921"
     inkscape:cx="-31.615819"
     inkscape:cy="170.66667"
     inkscape:window-x="-8"
     inkscape:window-y="-8"
     inkscape:window-maximized="1"
     inkscape:current-layer="svg199" />
  <path
     style="fill:#a0f3fd;stroke-width:1.33333337"
     d="m 70.287185,332.7549 c -4.04413,-4.90288 -9.00732,-11.35082 -11.02933,-14.32874 -2.022,-2.97792 -5.62637,-8.01244 -8.0097,-11.1878 -2.38334,-3.17536 -4.33334,-6.41665 -4.33334,-7.20286 0,-1.34956 -4.59497,-11.37384 -11.55739,-25.21338 -1.7101,-3.39924 -3.10927,-7.17034 -3.10927,-8.38024 0,-1.20989 -0.84467,-3.52869 -1.87703,-5.15289 -1.03236,-1.6242 -3.49952,-8.9531 -5.48257,-16.28643 -6.118873,-22.62769 -5.141713,-47.88927 2.99139,-77.33333 1.82307,-6.6 4.0568,-13.2 4.96385,-14.66667 0.90705,-1.46667 2.08122,-4.46667 2.60926,-6.66667 1.68468,-7.01898 12.82887,-22.32288 24.4948,-33.6378 11.15679,-10.82111 11.28245,-11.01545 9.18855,-14.21114 -3.87008,-5.906482 -14.78894,-10.043922 -28.76357,-10.899252 -15.0114,-0.91878 -21.77687,-3.6857 -30.198637,-12.3505 -4.1599786,-4.28003 -6.5066704,-8.21396 -8.0371194,-13.4732 -2.01021998,-6.90792 -1.99980998,-8.19975 0.148651,-18.44685 2.259983,-10.77901 2.477301,-11.16346 9.9887014,-17.6707 5.81359,-5.036395 7.897497,-7.819548 8.580344,-11.459433 2.33495,-12.4463782 17.95079,-16.4219162 27.3977,-6.9750082 4.27593,4.2759272 4.75281,7.2277982 3.10723,19.2336412 -0.7793,5.6856 -1.92847,7.52197 -9.35368,14.94718 -4.65587,4.65587 -8.16642,8.94868 -7.80122,9.53959 0.36519,0.5909 5.98828,1.03997 12.49574,0.99793 12.16923,-0.0786 14.49596,0.5037 29.09634,7.28188 7.81834,3.62964 17.92993,12.54833 23.014652,20.29954 l 2.169303,3.30691 9.61455,-7.09206 c 5.28801,-3.90063 11.27316,-7.50475 13.30033,-8.00914 2.02717,-0.5044 6.66286,-2.74426 10.30153,-4.97746 6.06545,-3.72263 11.94109,-6.13604 26.85014,-11.02868 3.00624,-0.98655 8.5363,-3.34961 12.289,-5.25126 3.75271,-1.90164 7.81366,-3.45752 9.02432,-3.45752 2.52079,0 19.50126,-12.50927 24.69872,-18.1952 3.57214,-3.907837 5.41136,-7.138885 10.32489,-18.1381392 l 2.82918,-6.33333396 h 32.78994 32.78993 l -0.86332,4.33333396 c -0.47483,2.383333 -2.37636,7.3333332 -4.22563,11.0000002 -4.15788,8.244089 -6.59806,15.515689 -7.83018,23.333329 -0.9811,6.22497 -4.90467,15.19075 -7.2939,16.66738 -0.75492,0.46657 -2.18844,2.80092 -3.1856,5.18744 -2.4332,5.82348 -9.16852,13.30949 -17.9787,19.98255 -3.99087,3.02278 -11.33992,8.56937 -16.33124,12.32574 -5.32415,4.00685 -11.63742,7.474972 -15.27431,8.390752 -3.40954,0.85853 -9.64147,3.29864 -13.84874,5.42246 -4.20726,2.12382 -11.40213,5.12564 -15.9886,6.6707 -4.58646,1.54507 -11.66033,4.58157 -15.7197,6.74777 -4.05938,2.1662 -8.1142,3.93855 -9.01075,3.93855 -0.89653,0 -5.69408,3 -10.66121,6.66667 -4.96714,3.66667 -9.69915,6.66857 -10.51558,6.67091 -2.08613,0.005 -14.69309,8.64828 -25.27881,17.32909 -11.12277,9.12123 -16.883915,17.71475 -20.721385,30.90869 -4.703,16.16983 -5.20006,31.93095 -1.44738,45.89508 l 3.09518,11.51754 2.52439,-3.46543 c 1.388412,-1.90597 4.034112,-6.30483 5.879335,-9.77521 4.70827,-8.85504 18.09512,-23.5536 25.29399,-27.77242 8.80131,-5.1579 29.5361,-8.61792 47.97074,-8.00486 7.99306,0.26581 15.5241,0.87294 16.73565,1.34918 1.21153,0.47623 7.61676,1.60642 14.23383,2.51151 19.22219,2.62924 22.25805,1.16336 37.89435,-18.29743 6.9762,-8.68253 17.47093,-10.87408 24.19066,-5.0516 3.24852,2.81478 7.41143,11.88552 7.44908,16.23116 0.0711,8.20588 -5.36317,19.15379 -13.73249,27.66555 -11.14745,11.33717 -15.76941,14.22796 -28.02947,17.53096 -8.76701,2.36192 -12.75528,2.69451 -24.66667,2.05692 -7.81481,-0.41829 -16.93594,-1.63927 -20.26918,-2.71327 -8.41179,-2.71036 -22.12242,-2.7513 -28.23008,-0.0843 -2.72646,1.19053 -5.90035,2.16461 -7.05312,2.16461 -2.94583,0 -11.56282,4.5694 -14.19027,7.52479 -2.20336,2.47836 -7.45185,14.29437 -10.32008,23.23376 -0.83974,2.6172 -1.77776,9.17525 -2.0845,14.57345 l -0.55772,9.8149 6.61105,8.09322 c 13.13518,16.08006 14.24081,17.57547 16.85293,22.79467 1.45851,2.9142 4.28872,8.14855 6.28936,11.63188 l 3.63751,6.33333 H 118.39147 77.640135 l -7.35295,-8.91433 z"
     id="path209"
     inkscape:connector-curvature="0" />
</svg>
