<?xml version="1.0" encoding="UTF-8" standalone="no"?>
<!-- Created with Inkscape (http://www.inkscape.org/) -->

<svg
   xmlns:dc="http://purl.org/dc/elements/1.1/"
   xmlns:cc="http://creativecommons.org/ns#"
   xmlns:rdf="http://www.w3.org/1999/02/22-rdf-syntax-ns#"
   xmlns:svg="http://www.w3.org/2000/svg"
   xmlns="http://www.w3.org/2000/svg"
   xmlns:sodipodi="http://sodipodi.sourceforge.net/DTD/sodipodi-0.dtd"
   xmlns:inkscape="http://www.inkscape.org/namespaces/inkscape"
   version="1.1"
   id="svg139"
   width="268"
   height="341.33334"
   viewBox="0 0 268 341.33334"
   sodipodi:docname="fractal11.svg"
   inkscape:version="0.92.4 (5da689c313, 2019-01-14)">
  <metadata
     id="metadata145">
    <rdf:RDF>
      <cc:Work
         rdf:about="">
        <dc:format>image/svg+xml</dc:format>
        <dc:type
           rdf:resource="http://purl.org/dc/dcmitype/StillImage" />
        <dc:title></dc:title>
      </cc:Work>
    </rdf:RDF>
  </metadata>
  <defs
     id="defs143" />
  <sodipodi:namedview
     pagecolor="#ffffff"
     bordercolor="#666666"
     borderopacity="1"
     objecttolerance="10"
     gridtolerance="10"
     guidetolerance="10"
     inkscape:pageopacity="0"
     inkscape:pageshadow="2"
     inkscape:window-width="1920"
     inkscape:window-height="1017"
     id="namedview141"
     showgrid="false"
     inkscape:zoom="0.97779607"
     inkscape:cx="-40.282491"
     inkscape:cy="170.66667"
     inkscape:window-x="-8"
     inkscape:window-y="-8"
     inkscape:window-maximized="1"
     inkscape:current-layer="svg139" />
  <path
     style="fill:#a0f3fd;stroke-width:1.33333337"
     d="m 131.887,311.29834 v -30.035 l -7.24452,-7.63167 c -10.57829,-11.1436 -19.53849,-23.65116 -25.066213,-34.99 -2.67459,-5.48629 -6.89255,-12.37507 -9.37324,-15.30837 -2.48069,-2.93331 -7.03431,-9.93919 -10.11914,-15.56862 -3.08483,-5.62942 -6.07177,-10.42942 -6.63763,-10.66666 -1.28312,-0.53795 -13.55925,-17.76452 -13.55925,-19.02711 0,-0.50807 -1.82324,-3.57376 -4.05165,-6.81264 -8.10085,-11.77419 -17.66677,-32.37604 -24.41949,-52.5916 C 27.618997,107.3 22.313807,94.39079 19.626577,89.97952 16.196877,84.34946 14.291187,79.18344 13.232487,72.64619 12.402977,67.52412 10.622277,59.43333 9.2753669,54.66667 4.8831469,39.12272 2.2163069,27.48209 1.1805669,19.33333 0.62131688,14.933334 -0.27817312,8.7648126 -0.81828312,5.6255096 l -0.98202998,-5.70782502 17.1769901,0.374491 17.177,0.374491 2.20201,12.66666742 C 35.966797,20.3 37.902267,30.2 39.056737,35.33333 c 1.15446,5.13334 3.39404,15.2975 4.97683,22.58703 2.05219,9.45134 4.18309,15.2942 7.4276,20.36617 4.29429,6.71306 9.7962,21.08977 11.75776,30.72352 0.48641,2.38886 3.23571,7.47272 6.10956,11.29745 2.87385,3.82474 5.22519,7.80386 5.22519,8.84249 0,1.03863 1.78451,4.78863 3.96558,8.33332 2.18107,3.54469 4.36166,8.11105 4.84574,10.14747 0.48409,2.0364 1.64925,4.60256 2.58924,5.70256 0.93999,1.1 2.77479,4.7 4.07732,8 3.1826,8.0632 8.30756,16.64769 17.517793,29.34294 10.76137,14.83332 17.05897,24.92328 20.29249,32.51244 1.52837,3.58712 3.048,6.2529 3.37696,5.92394 0.74698,-0.74698 1.8384,-84.47748 2.17396,-166.77932 L 133.64692,-4.2302531e-7 h 18.52882 18.5288 L 170.4965,22.33333 C 170.3821,34.61667 170.35036,56.06667 170.4261,70 c 0.1373,25.28085 0.14274,25.32505 2.62189,21.33334 1.36637,-2.2 4.06412,-5.45459 5.99501,-7.23242 1.93084,-1.77783 3.51067,-3.78445 3.51067,-4.45915 0,-0.6747 3.49365,-6.12011 7.76368,-12.10091 4.27001,-5.98081 9.72865,-14.71229 12.13032,-19.40331 2.40165,-4.69101 4.92708,-9.19101 5.61207,-10 4.17209,-4.92734 13.05288,-19.79523 14.47254,-24.229408 0.92298,-2.882811 2.8543,-7.1914754 4.29184,-9.5748084 L 229.43783,-4.2302531e-7 h 18.55792 18.55792 V 3.9730186 c 0,4.484249 -3.30761,13.6954014 -6.71265,18.6936514 -1.24895,1.83333 -2.66552,4.60628 -3.14794,6.16211 -1.34989,4.35363 -8.4157,16.50054 -13.47861,23.17122 -2.50463,3.3 -9.01827,12.6 -14.47475,20.66667 -5.45648,8.06667 -13.13054,19.23541 -17.05346,24.81943 -7.73839,11.01508 -31.20503,38.13746 -36.81515,42.5504 l -3.47363,2.73234 0.3294,99.28226 0.3294,99.28224 H 151.97164 131.887 Z"
     id="path149"
     inkscape:connector-curvature="0" />
</svg>
