<?xml version="1.0" encoding="UTF-8" standalone="no"?>
<!-- Created with Inkscape (http://www.inkscape.org/) -->

<svg
   xmlns:dc="http://purl.org/dc/elements/1.1/"
   xmlns:cc="http://creativecommons.org/ns#"
   xmlns:rdf="http://www.w3.org/1999/02/22-rdf-syntax-ns#"
   xmlns:svg="http://www.w3.org/2000/svg"
   xmlns="http://www.w3.org/2000/svg"
   xmlns:sodipodi="http://sodipodi.sourceforge.net/DTD/sodipodi-0.dtd"
   xmlns:inkscape="http://www.inkscape.org/namespaces/inkscape"
   version="1.1"
   id="svg33"
   width="269.33334"
   height="341.33334"
   viewBox="0 0 269.33334 341.33334"
   sodipodi:docname="fractal03.svg"
   inkscape:version="0.92.4 (5da689c313, 2019-01-14)">
  <metadata
     id="metadata39">
    <rdf:RDF>
      <cc:Work
         rdf:about="">
        <dc:format>image/svg+xml</dc:format>
        <dc:type
           rdf:resource="http://purl.org/dc/dcmitype/StillImage" />
        <dc:title></dc:title>
      </cc:Work>
    </rdf:RDF>
  </metadata>
  <defs
     id="defs37" />
  <sodipodi:namedview
     pagecolor="#ffffff"
     bordercolor="#666666"
     borderopacity="1"
     objecttolerance="10"
     gridtolerance="10"
     guidetolerance="10"
     inkscape:pageopacity="0"
     inkscape:pageshadow="2"
     inkscape:window-width="1920"
     inkscape:window-height="1017"
     id="namedview35"
     showgrid="false"
     inkscape:zoom="1.9555921"
     inkscape:cx="110.16104"
     inkscape:cy="171.30602"
     inkscape:window-x="-8"
     inkscape:window-y="-8"
     inkscape:window-maximized="1"
     inkscape:current-layer="svg33" />
  <path
     style="fill:#a0f3fd;stroke-width:1.33333337"
     d="m 119.38914,340.33334 c -0.0121,-17.28596 -1.49972,-33.22759 -3.85554,-41.31646 -1.54574,-5.30738 -2.81817,-11.00738 -2.82763,-12.66666 -0.009,-1.65928 -1.22798,-6.87984 -2.70783,-11.60124 -1.47984,-4.7214 -2.92897,-13.29287 -3.22029,-19.04772 -0.64795,-12.79998 -3.74561,-19.79212 -12.553735,-28.33666 -7.35639,-7.13625 -10.70095,-9.06225 -20.43282,-11.76645 -8.46262,-2.35152 -23.74195,-1.86963 -29.61489,0.934 -5.8783,2.80619 -13.38608,11.10011 -16.65117,18.39471 -1.54114,3.44309 -2.80207,6.70365 -2.80207,7.24569 0,0.54204 -1.20808,3.48108 -2.68463,6.53123 -1.54769,3.1971 -2.86823,9.07353 -3.11816,13.87596 -0.43834,8.4227 -1.79794,10.69086 -6.43377,10.73318 -2.6876099,0.0245 -7.7634401,-6.07546 -7.7634401,-9.32989 0,-1.27821 -0.96945,-4.64424 -2.15432,-7.48004 -2.68203,-6.419 -1.69789996,-20.39669 2.30696,-32.76609 2.17789,-6.72666 4.36309,-10.08019 10.9507601,-16.80567 8.15245,-8.32302 10.53416,-10.05771 19.54741,-14.23719 7.0782,-3.28219 13.02994,-4.23997 24.20361,-3.89495 16.93873,0.52303 30.8594,5.22514 43.075705,14.55006 3.48255,2.65829 6.47344,4.64221 6.64642,4.40872 0.51369,-0.69343 4.85088,-16.14724 5.54515,-19.75787 0.35251,-1.83333 1.19016,-5.13333 1.86143,-7.33333 0.67127,-2.2 1.9023,-7.9 2.73563,-12.66667 0.83332,-4.76667 2.18164,-9.47169 2.99627,-10.45563 0.9697,-1.17121 1.47882,-10.37937 1.47441,-26.66666 -0.007,-24.2145 -1.65363,-38.333004 -7.102,-60.877709 -4.35628,-18.025778 -5.21781,-41.78219 -2.171,-59.864735 l 1.5954,-9.46859913 h 17.91075 17.91075 l -0.41292,8.66666643 c -1.41556,29.7106247 -0.60705,53.0527747 2.4246,70.0000017 2.92714,16.362881 7.76158,31.289705 8.97131,27.699805 0.30276,-0.89844 4.39025,-4.31773 9.08331,-7.598408 11.9927,-8.383496 30.65706,-13.334571 47.05864,-12.483187 9.85426,0.511522 12.76244,1.247787 19.89093,5.035811 4.84995,2.57722 10.85215,7.281616 14.32121,11.224664 3.28462,3.73339 7.17747,8.15915 8.6508,9.83501 1.47334,1.67587 2.67879,3.62587 2.67879,4.33334 0,0.70746 0.53323,1.2863 1.18495,1.2863 3.12433,0 4.27875,29.29645 1.29604,32.8904 -1.01859,1.2273 -3.51104,1.76578 -6.98459,1.50894 -4.76665,-0.35245 -5.51361,-0.86904 -6.36124,-4.39934 -4.24177,-17.66657 -5.49649,-20.67249 -9.71812,-23.2816 -2.34253,-1.44777 -5.38779,-3.87942 -6.76721,-5.40367 -4.40996,-4.87297 -14.97326,-9.31473 -22.15203,-9.31473 -8.43516,0 -23.44831,3.67949 -28.03696,6.87143 -1.94653,1.35405 -3.89441,2.4619 -4.32861,2.4619 -1.22766,0 -12.44814,12.11254 -16.23223,17.52273 -2.39376,3.42242 -3.38936,6.57152 -3.37229,10.66667 0.0292,7.00705 -2.22912,18.14311 -4.42307,21.8106 -0.87737,1.46667 -2.69416,5.66667 -4.03731,9.33333 -1.34314,3.66667 -2.3846,5.1586 -3.92137,8.53827 -0.45203,3.01807 -1.51376,6.72937 -1.55587,12.66667 -0.0421,5.93728 -0.848,13.46669 -1.79084,16.73203 -1.05189,3.64297 -1.75758,14.20429 -1.82636,27.33333 -0.1008,19.24011 0.18046,22.05171 2.79084,27.8992 1.59662,3.57655 2.90294,7.55112 2.90294,8.83236 0,1.28125 0.87956,4.82247 1.95456,7.86937 2.8428,8.05734 6.67234,43.27288 5.34256,49.12878 -0.668,2.94164 -1.0569,3 -19.98919,3 -10.61937,0 -19.30825,-0.45 -19.30863,-1 z"
     id="path43"
     inkscape:connector-curvature="0"
     sodipodi:nodetypes="ccccsssssssscssccsssccscccsscccsccssscssscsscsscscccccccscscssc" />
</svg>
