<?xml version="1.0" encoding="UTF-8" standalone="no"?>
<!-- Created with Inkscape (http://www.inkscape.org/) -->

<svg
   xmlns:dc="http://purl.org/dc/elements/1.1/"
   xmlns:cc="http://creativecommons.org/ns#"
   xmlns:rdf="http://www.w3.org/1999/02/22-rdf-syntax-ns#"
   xmlns:svg="http://www.w3.org/2000/svg"
   xmlns="http://www.w3.org/2000/svg"
   xmlns:sodipodi="http://sodipodi.sourceforge.net/DTD/sodipodi-0.dtd"
   xmlns:inkscape="http://www.inkscape.org/namespaces/inkscape"
   version="1.1"
   id="svg199"
   width="285.33334"
   height="341.33334"
   viewBox="0 0 285.33334 341.33334"
   sodipodi:docname="fractal17.svg"
   inkscape:version="0.92.4 (5da689c313, 2019-01-14)">
  <metadata
     id="metadata205">
    <rdf:RDF>
      <cc:Work
         rdf:about="">
        <dc:format>image/svg+xml</dc:format>
        <dc:type
           rdf:resource="http://purl.org/dc/dcmitype/StillImage" />
        <dc:title></dc:title>
      </cc:Work>
    </rdf:RDF>
  </metadata>
  <defs
     id="defs203" />
  <sodipodi:namedview
     pagecolor="#ffffff"
     bordercolor="#666666"
     borderopacity="1"
     objecttolerance="10"
     gridtolerance="10"
     guidetolerance="10"
     inkscape:pageopacity="0"
     inkscape:pageshadow="2"
     inkscape:window-width="1920"
     inkscape:window-height="1017"
     id="namedview201"
     showgrid="false"
     inkscape:zoom="1.9555921"
     inkscape:cx="140.31447"
     inkscape:cy="166.76803"
     inkscape:window-x="-8"
     inkscape:window-y="-8"
     inkscape:window-maximized="1"
     inkscape:current-layer="svg199" />
  <path
     style="fill:#a0f3fd;stroke-width:1.33333337"
     d="m 59.257855,318.42616 c -2.022,-2.97792 -5.62637,-8.01244 -8.0097,-11.1878 -2.38334,-3.17536 -4.33334,-6.41665 -4.33334,-7.20286 0,-1.34956 -4.59497,-11.37384 -11.55739,-25.21338 -1.7101,-3.39924 -3.10927,-7.17034 -3.10927,-8.38024 0,-1.20989 -0.84467,-3.52869 -1.87703,-5.15289 -1.03236,-1.6242 -3.49952,-8.9531 -5.48257,-16.28643 -6.118873,-22.62769 -5.141713,-47.88927 2.99139,-77.33333 1.82307,-6.6 4.0568,-13.2 4.96385,-14.66667 0.90705,-1.46667 2.08122,-4.46667 2.60926,-6.66667 1.68468,-7.01898 12.82887,-22.32288 24.4948,-33.6378 11.15679,-10.82111 11.28245,-11.01545 9.18855,-14.21114 -3.87008,-5.906482 -14.78894,-10.043922 -28.76357,-10.899252 -15.0114,-0.91878 -21.77687,-3.6857 -30.198637,-12.3505 -4.1599786,-4.28003 -6.5066704,-8.21396 -8.0371194,-13.4732 -2.01021998,-6.90792 -1.99980998,-8.19975 0.148651,-18.44685 2.259983,-10.77901 2.477301,-11.16346 9.9887014,-17.6707 5.81359,-5.036395 11.913047,-9.551041 14.716593,-11.970787 C 39.041701,3.274699 53.123479,-8.3711502 73.820179,-23.980592 58.1533,-5.8981047 49.425806,3.701369 43.689394,11.61638 c -3.367707,4.646709 -9.598781,16.701593 -11.910451,24.151553 -1.951311,6.288612 2.060662,14.573575 2.425862,15.164485 0.36519,0.5909 5.98828,1.03997 12.49574,0.99793 12.16923,-0.0786 14.49596,0.5037 29.09634,7.28188 7.81834,3.62964 17.92993,12.54833 23.014652,20.29954 l 2.169303,3.30691 9.61455,-7.09206 c 5.28801,-3.90063 11.27316,-7.50475 13.30033,-8.00914 2.02717,-0.5044 6.66286,-2.74426 10.30153,-4.97746 6.06545,-3.72263 11.94109,-6.13604 26.85014,-11.02868 3.00624,-0.98655 7.25791,-2.326902 11.01061,-4.228552 3.75271,-1.90164 9.34811,-2.915802 13.37083,-3.968874 9.86199,-2.581678 13.10934,-3.816251 26.23279,-9.502181 12.26516,-4.419191 22.09563,-14.682439 30.01202,-23.763034 0,0 5.46699,-5.6897727 7.75032,-8.890104 3.76971,-5.2836609 9.71573,-16.874685 9.71573,-16.874685 l 7.15896,-13.550883 -8.72605,33.4805169 c -0.47483,2.383332 -3.14339,13.2139051 -5.24833,19.6930191 -2.85294,8.781444 -5.57536,12.958919 -7.83018,19.498174 -2.51727,4.441799 -6.90162,11.188477 -10.22383,15.462894 -3.96726,5.312126 -7.89013,9.218657 -13.88786,13.334947 -6.03629,3.02278 -12.36263,6.77963 -17.35395,8.490584 -6.30339,2.160714 -15.2169,6.196587 -18.85379,7.112367 -3.40954,0.85853 -14.49933,7.133795 -18.7066,9.257615 -4.20726,2.12382 -12.42484,6.915378 -17.77834,10.250178 -4.58646,1.54507 -13.19439,8.6724 -22.11163,15.18511 -6.92997,6.98644 -14.09041,13.33284 -23.50672,23.35543 -4.475164,10.6553 -10.747664,30.49861 -12.539717,39.85739 -3.167023,16.53939 -3.665998,31.93095 0.08668,45.89508 l 3.09518,11.51754 2.52439,-3.46543 c 1.388412,-1.90597 4.034112,-6.30483 5.879337,-9.77521 4.70827,-8.85504 18.09512,-23.5536 25.29399,-27.77242 8.80131,-5.1579 29.5361,-8.61792 47.97074,-8.00486 7.99306,0.26581 15.5241,0.87294 16.73565,1.34918 1.21153,0.47623 7.61676,1.60642 14.23383,2.51151 19.22219,2.62924 37.08732,5.25419 52.72362,-14.2066 6.9762,-8.68253 28.28149,-46.47128 28.28149,-46.47128 0,0 -5.54375,24.87615 -9.93696,40.2648 -5.46054,19.12736 -6.89723,32.449 -15.26655,40.96076 -11.14745,11.33717 -15.76941,14.22796 -28.02947,17.53096 -8.76701,2.36192 -12.75528,2.69451 -24.66667,2.05692 -7.81481,-0.41829 -16.93594,-1.63927 -20.26918,-2.71327 -8.41179,-2.71036 -22.12242,-2.7513 -28.23008,-0.0843 -2.72646,1.19053 -5.90035,2.16461 -7.05312,2.16461 -2.94583,0 -11.56282,4.5694 -14.19027,7.52479 -2.20336,2.47836 -7.45185,14.29437 -10.32008,23.23376 -0.83974,2.6172 -1.77776,9.17525 -2.0845,14.57345 l -0.55772,9.8149 6.61105,8.09322 c 8.19879,10.03693 11.68404,18.08682 14.29616,23.30602 3.57932,6.36069 2.47742,11.26543 5.32469,17.96522 l -33.59239,-0.51136 -52.512479,-1.0227 c -0.565658,-9.42187 -1.393004,-14.59929 -6.621136,-22.22038 z"
     id="path209"
     inkscape:connector-curvature="0"
     sodipodi:nodetypes="ccscsssssssssssssscssccssccccccscsscccscccssscccssccscscsccssccscsccccsccccc" />
</svg>
