<?xml version="1.0" encoding="UTF-8" standalone="no"?>
<!-- Created with Inkscape (http://www.inkscape.org/) -->

<svg
   xmlns:dc="http://purl.org/dc/elements/1.1/"
   xmlns:cc="http://creativecommons.org/ns#"
   xmlns:rdf="http://www.w3.org/1999/02/22-rdf-syntax-ns#"
   xmlns:svg="http://www.w3.org/2000/svg"
   xmlns="http://www.w3.org/2000/svg"
   xmlns:sodipodi="http://sodipodi.sourceforge.net/DTD/sodipodi-0.dtd"
   xmlns:inkscape="http://www.inkscape.org/namespaces/inkscape"
   version="1.1"
   id="svg45"
   width="225.33333"
   height="341.33334"
   viewBox="0 0 225.33333 341.33334"
   sodipodi:docname="fractal04.svg"
   inkscape:version="0.92.4 (5da689c313, 2019-01-14)">
  <metadata
     id="metadata51">
    <rdf:RDF>
      <cc:Work
         rdf:about="">
        <dc:format>image/svg+xml</dc:format>
        <dc:type
           rdf:resource="http://purl.org/dc/dcmitype/StillImage" />
        <dc:title></dc:title>
      </cc:Work>
    </rdf:RDF>
  </metadata>
  <defs
     id="defs49" />
  <sodipodi:namedview
     pagecolor="#ffffff"
     bordercolor="#666666"
     borderopacity="1"
     objecttolerance="10"
     gridtolerance="10"
     guidetolerance="10"
     inkscape:pageopacity="0"
     inkscape:pageshadow="2"
     inkscape:window-width="1920"
     inkscape:window-height="1017"
     id="namedview47"
     showgrid="false"
     inkscape:zoom="3.9111843"
     inkscape:cx="112.42954"
     inkscape:cy="48.868245"
     inkscape:window-x="-8"
     inkscape:window-y="-8"
     inkscape:window-maximized="1"
     inkscape:current-layer="svg45" />
  <path
     style="fill:#a0f3fd;stroke-width:1.33333337"
     d="m 79.230236,314.41354 c -0.0908,-14.85 -0.25119,-32.4 -0.35643,-39 -0.10522,-6.6 0.14597,-14.80121 0.55822,-18.22492 0.41226,-3.42371 -0.0535,-10.32371 -1.0351,-15.33334 -1.16512,-5.94649 -1.72576,-18.15193 -1.615,-35.15968 0.14128,-21.69357 -0.19831,-26.82669 -2.0301,-30.68692 -4.59729,-9.68806 -20.98845,-12.06692 -29.28363,-4.24993 -7.59381,7.15605 -10.0305,12.56028 -10.74593,23.83293 -1.21079,19.0778 -3.65475,37.11591 -5.39543,39.82186 -0.94347,1.46666 -2.00529,7.20994 -2.3596,12.76285 -0.96528,15.1284 -5.91794,21.65875 -14.74179,19.43782 -4.3900697,-1.10496 -7.8514098,-10.2233 -9.1866598,-24.20067 -0.63049,-6.6 -1.41622,-14.4 -1.74607,-17.33334 -0.32984997,-2.93333 -0.66523997,-8.03333 -0.74529997,-11.33333 -0.13569005,-5.59213 0.14116,-9.76173 1.97199997,-29.70104 1.01613,-11.06645 8.4027698,-25.08805 18.0688198,-34.29896 15.36052,-14.63723 21.66594,-17.49436 39.30387,-17.80945 9.21055,-0.16454 11.65798,0.30999 17.92846,3.47612 3.99399,2.01666 7.74399,3.66666 8.33333,3.66666 0.58935,0 1.07155,-2.13292 1.07155,-4.73981 0,-4.63032 1.3523,-8.2256 9.751953,-25.92685 4.786941,-10.087898 28.399791,-36.301074 34.914711,-38.759629 2.2,-0.83022 5.2,-1.995925 6.66667,-2.590457 6.352,-2.574867 19.421,-4.598286 28.79189,-4.457731 10.33366,0.154995 16.26347,2.028277 24.54144,7.752875 2.2,1.5214 6.90116,4.256154 10.44703,6.077231 5.63309,2.893021 7.07903,4.573564 11.45279,13.311043 5.35124,10.690168 6.63102,17.621758 9.47773,51.333328 1.74356,20.64774 1.49951,27.01083 -1.53424,40 -1.37021,5.86667 -2.51543,12.76667 -2.54493,15.33334 -0.0327,2.84673 -1.48766,6.7466 -3.73072,10 -3.12076,4.5264 -4.48632,5.39341 -9.02552,5.73045 -9.45998,0.7024 -15.18372,-7.82357 -15.20136,-22.64365 -0.004,-3.4356 -0.67934,-7.9356 -1.50054,-10 -0.82118,-2.06442 -1.67692,-7.95347 -1.9016,-13.0868 -0.22469,-5.13334 -0.98173,-15.93334 -1.6823,-24 -0.70059,-8.06667 -1.3136,-16.09669 -1.36226,-17.84449 -0.0487,-1.74779 -1.67882,-6.42839 -3.6226,-10.40132 -4.25592,-8.69878 -11.41305,-14.03098 -18.88994,-14.07338 -11.27023,-0.0639 -12.00338,0.23639 -21.1244,8.65252 -6.9713,6.43253 -10.11209,10.61429 -13.76959,18.33333 -2.60606,5.5 -4.84672,10.9 -4.97926,12 -0.83801,6.95539 -3.48595,22.98467 -4.68642,28.36916 -1.44998,6.50367 -1.82194,45.47335 -0.45513,47.68488 0.96696,1.56458 1.98143,121.02255 1.0484,123.45398 -0.54773,1.42736 -4.86589,1.82532 -19.806181,1.82532 H 79.395326 Z M 86.968576,0.41692711 c 9.025393,-0.231013 23.425394,-0.2303 32.000004,0.0016 8.57461,0.231885 1.1902,0.420895 -16.4098,0.420023 -17.600004,-8.72e-4 -24.615594,-0.190595 -15.590204,-0.421608 z"
     id="path55"
     inkscape:connector-curvature="0" />
</svg>
