<?xml version="1.0" encoding="UTF-8" standalone="no"?>
<!-- Created with Inkscape (http://www.inkscape.org/) -->

<svg
   xmlns:dc="http://purl.org/dc/elements/1.1/"
   xmlns:cc="http://creativecommons.org/ns#"
   xmlns:rdf="http://www.w3.org/1999/02/22-rdf-syntax-ns#"
   xmlns:svg="http://www.w3.org/2000/svg"
   xmlns="http://www.w3.org/2000/svg"
   xmlns:sodipodi="http://sodipodi.sourceforge.net/DTD/sodipodi-0.dtd"
   xmlns:inkscape="http://www.inkscape.org/namespaces/inkscape"
   version="1.1"
   id="svg115"
   width="306.66666"
   height="341.33334"
   viewBox="0 0 306.66666 341.33334"
   sodipodi:docname="fractal09.svg"
   inkscape:version="0.92.4 (5da689c313, 2019-01-14)">
  <metadata
     id="metadata121">
    <rdf:RDF>
      <cc:Work
         rdf:about="">
        <dc:format>image/svg+xml</dc:format>
        <dc:type
           rdf:resource="http://purl.org/dc/dcmitype/StillImage" />
        <dc:title></dc:title>
      </cc:Work>
    </rdf:RDF>
  </metadata>
  <defs
     id="defs119" />
  <sodipodi:namedview
     pagecolor="#ffffff"
     bordercolor="#666666"
     borderopacity="1"
     objecttolerance="10"
     gridtolerance="10"
     guidetolerance="10"
     inkscape:pageopacity="0"
     inkscape:pageshadow="2"
     inkscape:window-width="1920"
     inkscape:window-height="1017"
     id="namedview117"
     showgrid="false"
     inkscape:zoom="0.69140623"
     inkscape:cx="-20.949163"
     inkscape:cy="170.66667"
     inkscape:window-x="-8"
     inkscape:window-y="-8"
     inkscape:window-maximized="1"
     inkscape:current-layer="svg115" />
  <path
     style="fill:#a0f3fd;stroke-width:1.33333337"
     d="m 132.11299,339.55688 c 0,-3.95666 -3.34791,-12.03329 -12.20502,-29.44388 -11.4377,-22.48326 -12.68479,-30.49976 -7.49102,-48.15334 2.71605,-9.23183 3.71946,-10.80354 11.70878,-18.34026 9.63397,-9.0882 13.99828,-10.94181 28.65393,-12.16996 30.84395,-2.58473 48.84581,-10.20036 54.85503,-23.20624 4.12178,-8.92087 4.84801,-13.84467 3.00181,-20.35196 -0.90165,-3.17803 -1.80204,-6.64295 -2.00087,-7.69981 -2.21746,-11.78683 -8.16881,-19.39603 -18.98026,-24.26754 -9.62526,-4.33701 -15.98843,-4.74973 -25.95851,-1.68368 -11.988,3.6866 -30.2572,12.50659 -35.58387,17.17911 -9.29503,8.15357 -27.69892,15.36035 -39.225642,15.36035 -8.32607,0 -19.85704,-2.18326 -24.77436,-4.69074 -1.83333,-0.93486 -6.09398,-4.31189 -9.46811,-7.5045 -5.7538,-5.44427 -6.24387,-6.45956 -7.89129,-16.34864 -3.18683,-19.12974 1.31081,-34.84579 14.87103,-51.96363 7.06507,-8.918641 7.10203,-14.914521 0.14832,-24.058721 -5.16975,-6.79829 -6.29063,-7.37388 -19.65994,-10.09559 C 27.777118,69.199369 15.531694,65.178439 11.249485,61.983456 5.0786382,57.379349 0.98236521,48.077278 1.7245162,40.353566 c 0.901943,-9.386695 5.523232,-15.406624 16.1234928,-21.00329 8.708149,-4.597681 9.542179,-4.772853 20.997639,-4.410209 7.52209,0.238127 12.48138,-0.174437 13.42366,-1.116716 0.82189,-0.821898 1.46056,-3.9429599 1.41926,-6.9356919 l -0.0751,-5.441331 h 10.49325 c 12.09322,0 12.93472,0.871165 11.39663,11.7983499 -1.6368,11.628374 -5.03628,16.484243 -14.72369,21.031516 -4.29163,2.014495 -7.93758,2.441753 -18.66666,2.1875 -11.06466,-0.262205 -13.85486,0.08741 -16.39838,2.054795 -1.839402,1.422753 -2.751742,3.18719 -2.281557,4.412472 1.064456,2.773929 14.551307,6.640957 23.432587,6.718724 15.97656,0.139895 30.3774,9.160329 37.10328,23.240844 2.27923,4.77154 4.14406,10.07533 4.14406,11.78619 v 3.11065 l 9,-1.82356 c 27.995722,-5.67246 34.122422,-7.58025 37.530372,-11.68658 1.37205,-1.65322 1.05782,-2.91175 -1.76377,-7.0641 -2.57397,-3.78793 -3.42777,-6.727021 -3.41133,-11.74298 0.0335,-10.204549 4.01934,-15.981091 17.26675,-25.02382 l 11.2315,-7.666667 h 16.40658 c 17.54708,0 18.39262,-0.387871 13.7399,-6.302839 -2.73714,-3.479714 -3.23641,-6.7686179 -1.82628,-12.0304949 0.76498,-2.854521 1.443,-3 13.98179,-3 12.56084,0 13.17783,0.133092 13.17783,2.842621 0,1.563442 1.14733,4.713442 2.54961,6.9999999 1.40229,2.286559 2.96668,6.982391 3.4764,10.435183 1.05648,7.156341 -1.09577,11.749711 -9.15397,19.536611 -5.87204,5.674353 -15.73738,8.136491 -32.71467,8.164758 -10.34848,0.01723 -13.29019,0.503451 -17.03005,2.814817 l -4.52076,2.793988 2.58476,4.206012 c 6.762,11.003291 4.76632,21.443601 -6.2496,32.694631 -10.92452,11.157681 -15.10246,12.965381 -42.27506,18.291481 -14.266422,2.79636 -20.395202,5.3311 -26.648092,11.0211 -7.40936,6.74236 -10.46544,13.99747 -10.58348,25.12503 -0.057,5.37453 0.54762,10.2454 1.37498,11.07673 0.8122,0.81612 4.89011,1.83614 9.06203,2.26672 10.95663,1.13082 20.341962,-2.30749 33.518722,-12.27958 4.94285,-3.74071 18.10922,-10.72256 27.94251,-14.81734 13.14987,-5.47586 17.70271,-6.42528 30.66667,-6.39502 13.17933,0.0308 13.47776,0.10313 25.83808,6.2661 11.78305,5.87515 14.82858,6.5906 14.82858,3.48354 0,-0.72339 1.44136,-2.75661 3.20303,-4.51828 8.22581,-8.22581 30.31294,-9.77203 40.76696,-2.85389 3.4584,2.28866 7.12045,3.51146 10.51617,3.51146 4.61473,0 5.45585,-0.51812 7.36192,-4.53484 4.00397,-8.43775 2.09443,-21.44887 -3.70564,-25.24922 -1.64524,-1.07801 -7.75035,-2.632821 -13.56689,-3.455151 -17.23484,-2.4366 -22.17034,-4.09347 -27.65951,-9.28543 -8.25593,-7.80892 -10.67616,-12.66824 -9.90833,-19.89397 0.92405,-8.695896 7.49544,-22.425124 11.65896,-24.358433 1.83333,-0.851299 5.00826,-2.423377 7.05541,-3.493506 2.04715,-1.070129 10.10905,-2.835817 17.91536,-3.923752 19.29016,-2.688399 19.02485,-2.490828 19.04947,-14.185948 0.0111,-5.290866 0.82602,-12.319755 1.81086,-15.6197559 l 1.79063,-6 12.83237,-0.381333 c 11.8347,-0.351686 12.76627,-0.196192 11.98216,2 -0.46762,1.309733 -1.42073,3.119497 -2.11801,4.021696 -0.69728,0.9022 -1.72336,8.4022009 -2.28017,16.6666669 -1.15038,17.074406 -2.72079,21.11656 -10.69296,27.523182 -5.56595,4.472918 -12.30815,6.267631 -28.67846,7.633958 -7.90518,0.659796 -13.06152,3.118565 -15.86692,7.566045 -2.3394,3.70872 0.57866,5.0237 16.02766,7.22263 15.56104,2.21488 20.43552,4.28574 28.92314,12.28758 12.02514,11.33689 15.17635,31.509931 7.43083,47.569771 -7.64035,15.84178 -16.14724,20.32325 -35.89609,18.91022 -7.34551,-0.52557 -9.94788,-1.3409 -13.3103,-4.17018 -7.1816,-6.04292 -17.15888,-4.22372 -19.54914,3.56445 -1.635,5.32732 -1.38095,8.76088 1.66446,22.49569 3.48934,15.73686 3.80668,22.99982 1.38247,31.63967 -2.48456,8.85488 -7.69002,19.3306 -11.81489,23.77679 -5.10925,5.50725 -16.34107,12.36525 -27.04917,16.51585 -11.58687,4.49123 -17.17614,5.67535 -37.27538,7.89703 -12.02536,1.32922 -13.74496,1.86833 -17.52936,5.49552 -5.90561,5.66028 -7.99268,13.83873 -5.90833,23.15257 0.89032,3.97836 2.06117,7.50682 2.60189,7.841 0.54072,0.33419 3.47764,5.59442 6.52648,11.6894 6.32976,12.65391 9.64266,24.11596 9.64266,33.36194 v 6.38653 h -10.66667 c -10.39132,0 -10.66667,-0.0832 -10.66667,-3.22279 z"
     id="path125"
     inkscape:connector-curvature="0" />
</svg>
