<?xml version="1.0" encoding="UTF-8" standalone="no"?>
<!-- Created with Inkscape (http://www.inkscape.org/) -->

<svg
   xmlns:dc="http://purl.org/dc/elements/1.1/"
   xmlns:cc="http://creativecommons.org/ns#"
   xmlns:rdf="http://www.w3.org/1999/02/22-rdf-syntax-ns#"
   xmlns:svg="http://www.w3.org/2000/svg"
   xmlns="http://www.w3.org/2000/svg"
   xmlns:sodipodi="http://sodipodi.sourceforge.net/DTD/sodipodi-0.dtd"
   xmlns:inkscape="http://www.inkscape.org/namespaces/inkscape"
   version="1.1"
   id="svg127"
   width="257.33334"
   height="341.33334"
   viewBox="0 0 257.33334 341.33334"
   sodipodi:docname="fractal10.svg"
   inkscape:version="0.92.4 (5da689c313, 2019-01-14)">
  <metadata
     id="metadata133">
    <rdf:RDF>
      <cc:Work
         rdf:about="">
        <dc:format>image/svg+xml</dc:format>
        <dc:type
           rdf:resource="http://purl.org/dc/dcmitype/StillImage" />
        <dc:title></dc:title>
      </cc:Work>
    </rdf:RDF>
  </metadata>
  <defs
     id="defs131" />
  <sodipodi:namedview
     pagecolor="#ffffff"
     bordercolor="#666666"
     borderopacity="1"
     objecttolerance="10"
     gridtolerance="10"
     guidetolerance="10"
     inkscape:pageopacity="0"
     inkscape:pageshadow="2"
     inkscape:window-width="1920"
     inkscape:window-height="1017"
     id="namedview129"
     showgrid="false"
     inkscape:zoom="1.3828125"
     inkscape:cx="-45.615819"
     inkscape:cy="170.66667"
     inkscape:window-x="-8"
     inkscape:window-y="-8"
     inkscape:window-maximized="1"
     inkscape:current-layer="svg127" />
  <path
     style="fill:#a0f3fd;stroke-width:1.33333337"
     d="m 116.81014,329.55368 c 0.25429,-5.68334 0.73615,-14.83334 1.07081,-20.33334 l 0.60846,-10 -7.5363,-7.66666 c -4.14496,-4.21667 -8.15508,-7.67424 -8.91137,-7.6835 -0.75629,-0.009 -4.222904,-3.26422 -7.703604,-7.23328 -3.48069,-3.96905 -8.28069,-8.23966 -10.66666,-9.49025 -2.38598,-1.2506 -6.73814,-3.47943 -9.67147,-4.95295 -11.31239,-5.68266 -33.57575,-26.07968 -42,-38.47912 -1.83334,-2.69843 -6.26686,-9.25956 -9.85228,-14.58029 -9.10672,-13.51428 -14.9136504,-30.7248 -18.8316804,-55.81312 -3.71185005,-23.76816 -4.17635005,-49.64921 -1.23421,-68.767492 3.98918,-25.92203 4.29169,-42.173804 1.16647,-62.666672 C 2.0181156,13.820339 0.71834555,5.2703392 0.35992555,2.8870052 l -0.65167,-4.333333 H 19.044806 c 15.97888,0 19.47015,0.348132 20.10589,2.004855 0.42314,1.102671 1.99279,9.6526708 3.48811,18.9999998 2.06706,12.921291 2.54487,20.510848 1.99328,31.661813 -0.39902,8.066668 -0.70888,15.866668 -0.68858,17.333338 0.0203,1.46666 -0.91702,8.66666 -2.08293,16 -4.10743,25.835042 -1.27095,68.629582 5.89791,88.982902 2.86256,8.12719 10.89471,22.23949 14.2362,25.01268 1.10292,0.91535 2.00532,2.47697 2.00532,3.47027 0,0.9933 1.4483,2.75497 3.21846,3.91482 1.77015,1.15986 4.1802,4.13552 5.35565,6.61262 2.45584,5.17528 11.52432,13.4999 17.51519,16.07846 8.15438,3.50978 17.580754,10.78691 25.813904,19.92824 4.62333,5.13334 9.14702,9.51011 10.05264,9.72615 2.48581,0.59303 5.25231,-17.80648 4.10095,-27.27464 -1.89966,-15.62175 -6.09805,-33.40952 -10.80646,-45.78484 -2.65058,-6.96667 -5.29003,-13.26667 -5.86543,-14 -1.71689,-2.18813 -14.329344,-43.01897 -17.485464,-56.60644 -3.46426,-14.914082 -4.89431,-51.077952 -2.45408,-62.060227 0.81473,-3.666667 1.99622,-9.066667 2.62554,-12 2.86985,-13.376619 7.087564,-31.1421508 8.546754,-36.0000008 l 1.60202,-5.333333 22.91116,-0.364909 22.91115,-0.364909 1.42937,3.698242 c 2.46508,6.377963 2.92747,12.1589598 1.44203,18.0289188 -0.78907,3.118128 -2.69349,11.069324 -4.23207,17.669324 -1.53857,6.6 -3.44477,14.4 -4.23601,17.333334 -2.11791,7.851698 -1.66339,36.237178 0.74001,46.21526 1.11963,4.64827 2.22338,9.95141 2.45279,11.78474 l 0.41712,3.33333 2.21373,-4 c 1.21756,-2.2 3.07958,-5.8 4.13783,-8 1.05825,-2.2 4.54464,-6.099992 7.74753,-8.666662 3.2029,-2.56667 10.32846,-9.43442 15.83456,-15.26167 5.50612,-5.82725 13.5771,-14.22725 17.93551,-18.66666 10.483,-10.677852 12.23227,-13.574432 18.563,-30.738339 2.37448,-6.437701 3.48866,-12.228965 3.59124,-18.666667 0.23927,-15.0139278 -1.1116,-13.9999998 18.6525,-13.9999998 20.25784,0 18.97798,-1.318056 18.12565,18.6666668 -0.37483,8.788547 -1.41032,14.838094 -3.38209,19.758954 -1.56302,3.900757 -4.08843,10.800757 -5.61203,15.333333 -3.5196,10.470542 -8.42913,18.625092 -15.19599,25.239972 -30.56501,29.878572 -38.08988,36.898652 -42.79155,39.921002 -6.36993,4.09476 -18.71466,23.0123 -22.20828,34.03283 l -2.20409,6.95276 5.14039,14.38058 c 4.66452,13.04929 8.45644,29.97534 12.0394,53.74054 2.1648,14.35868 0.0221,26.90575 -12.4044,72.64003 -4.38355,16.13299 -7.24916,32.87114 -6.56278,38.33334 0.26967,2.14606 -1.61781,2.33333 -23.51718,2.33333 H 116.3478 Z"
     id="path137"
     inkscape:connector-curvature="0" />
</svg>
