<?xml version="1.0" encoding="UTF-8" standalone="no"?>
<!-- Created with Inkscape (http://www.inkscape.org/) -->

<svg
   xmlns:dc="http://purl.org/dc/elements/1.1/"
   xmlns:cc="http://creativecommons.org/ns#"
   xmlns:rdf="http://www.w3.org/1999/02/22-rdf-syntax-ns#"
   xmlns:svg="http://www.w3.org/2000/svg"
   xmlns="http://www.w3.org/2000/svg"
   xmlns:sodipodi="http://sodipodi.sourceforge.net/DTD/sodipodi-0.dtd"
   xmlns:inkscape="http://www.inkscape.org/namespaces/inkscape"
   version="1.1"
   id="svg106"
   width="657.59998"
   height="401.60001"
   viewBox="0 0 657.59998 401.60001"
   sodipodi:docname="TreeCanopy.svg"
   inkscape:version="0.92.4 (5da689c313, 2019-01-14)">
  <metadata
     id="metadata112">
    <rdf:RDF>
      <cc:Work
         rdf:about="">
        <dc:format>image/svg+xml</dc:format>
        <dc:type
           rdf:resource="http://purl.org/dc/dcmitype/StillImage" />
        <dc:title></dc:title>
      </cc:Work>
    </rdf:RDF>
  </metadata>
  <defs
     id="defs110" />
  <sodipodi:namedview
     pagecolor="#ffffff"
     bordercolor="#666666"
     borderopacity="1"
     objecttolerance="10"
     gridtolerance="10"
     guidetolerance="10"
     inkscape:pageopacity="0"
     inkscape:pageshadow="2"
     inkscape:window-width="1920"
     inkscape:window-height="1017"
     id="namedview108"
     showgrid="false"
     inkscape:zoom="0.87287108"
     inkscape:cx="52.69965"
     inkscape:cy="200.8"
     inkscape:window-x="-8"
     inkscape:window-y="-8"
     inkscape:window-maximized="1"
     inkscape:current-layer="svg106" />
  <path
     style="fill:#90ad91;stroke-width:0.31999999"
     d="m 450.32973,401.40209 c -0.16883,-0.16883 -4.63158,-0.26502 -18.00816,-0.38813 -1.41869,-0.0131 -2.99523,-0.18182 -3.50342,-0.37504 -0.53146,-0.20205 -4.1935,-0.41443 -8.62058,-0.49993 -4.23312,-0.0818 -9.42457,-0.22535 -11.53657,-0.31908 -7.18355,-0.31881 -10.87667,-0.44528 -12.76893,-0.43724 -1.66416,0.007 -2.00688,-0.10503 -2.88,-0.94205 l -0.99107,-0.95008 -6.24,-0.12675 c -5.2769,-0.1072 -6.56103,-0.23207 -8.32,-0.809 -3.46135,-1.13529 -7.07159,-1.95404 -9.52103,-2.15926 -1.27654,-0.10698 -3.50854,-0.52986 -4.96,-0.93978 -1.45142,-0.40992 -4.00697,-0.82988 -5.67897,-0.93321 -5.6679,-0.35034 -10.67155,-2.36317 -14.80176,-5.95431 -0.41622,-0.36192 -1.79834,-1.15718 -3.0713,-1.76723 -1.27299,-0.61008 -2.94121,-1.54038 -3.7072,-2.06739 -2.06409,-1.42013 -5.30723,-4.83626 -6.56665,-6.91686 -0.6088,-1.00576 -2.0488,-2.77997 -3.2,-3.94269 -1.1512,-1.16272 -2.47056,-2.54605 -2.93194,-3.07405 -0.46134,-0.528 -1.97334,-2.05699 -3.35999,-3.39776 -1.38664,-1.34077 -3.02516,-3.28314 -3.64116,-4.31642 -0.616,-1.03328 -1.99998,-2.74429 -3.07551,-3.80224 -1.07554,-1.05798 -2.52757,-2.85958 -3.22675,-4.00358 -1.32039,-2.16045 -2.97774,-5.97575 -2.97774,-6.85491 0,-0.27815 -0.92827,-1.38368 -2.06282,-2.45674 -3.20759,-3.03373 -5.0904,-6.29258 -6.26765,-10.84835 -0.53632,-2.07552 -0.72667,-2.22631 -2.31857,-1.83683 -0.74303,0.18179 -1.52304,0.46451 -1.73335,0.62825 -0.23781,0.18515 -1.30852,0.15735 -2.83178,-0.0736 -1.34715,-0.20422 -2.83108,-0.26643 -3.2976,-0.13827 -0.78021,0.21431 -3.5236,0.30704 -15.88823,0.53709 -2.52469,0.0469 -4.75933,0.23862 -5.12,0.43914 -0.44977,0.25001 -5.01513,0.33155 -15.36,0.27427 -9.43602,-0.0523 -15.22442,0.0387 -16.12522,0.25357 -11.68324,6.27444 -17.15162,1.04153 -27.23478,1.26928 -4.75803,0.111 -6.57254,0.27161 -7.64023,0.67632 -0.77013,0.2919 -2.13813,0.53324 -3.04,0.53632 -0.90187,0.003 -2.61047,0.21126 -3.79688,0.46265 -1.6186,0.34301 -2.63715,0.37984 -4.07996,0.14749 -1.05757,-0.17034 -3.03886,-0.27341 -4.40288,-0.22909 -1.36403,0.0444 -3.49892,-0.10371 -4.7442,-0.32899 -1.65257,-0.29894 -2.79871,-0.32352 -4.2431,-0.0909 -1.26795,0.20419 -2.63891,0.21059 -3.81585,0.0179 -1.01029,-0.16547 -2.49801,-0.3017 -3.30604,-0.30272 -0.80803,0 -2.17603,-0.22653 -3.04,-0.50112 -0.86397,-0.27456 -2.91583,-0.56445 -4.55969,-0.64416 -1.64386,-0.0797 -3.29986,-0.31878 -3.68,-0.5313 -0.40566,-0.22678 -2.27737,-0.41942 -4.53116,-0.4664 -2.112,-0.044 -4.82566,-0.24358 -6.03034,-0.44348 -1.21553,-0.2017 -3.07205,-0.26903 -4.17148,-0.1513 -1.24617,0.13347 -2.33302,0.0747 -2.92966,-0.1584 -0.52169,-0.20378 -2.24452,-0.41626 -3.82852,-0.47213 -1.584,-0.0559 -3.816,-0.2544 -4.96,-0.44115 -1.144,-0.18675 -2.75897,-0.34243 -3.58882,-0.34598 -0.82985,-0.004 -2.18299,-0.23533 -3.00697,-0.51508 -0.83635,-0.28393 -2.88282,-0.55328 -4.63272,-0.60969 -1.72401,-0.0556 -3.31655,-0.21354 -3.53896,-0.35101 -0.37089,-0.22922 -3.40903,-0.4984 -10.99253,-0.97402 -1.584,-0.0993 -3.024,-0.2934 -3.2,-0.43126 -0.53356,-0.41789 -3.605479,-0.96538 -5.416682,-0.96538 -0.93784,0 -2.19075,-0.20012 -2.78425,-0.44473 -0.59349,-0.24464 -2.15907,-0.54615 -3.47907,-0.67008 -1.32,-0.12394 -3.21544,-0.48784 -4.21209,-0.80874 -0.99665,-0.32089 -2.65265,-0.68355 -3.68,-0.80595 -1.02735,-0.1224 -2.29991,-0.41728 -2.82791,-0.6553 -1.36771,-0.61651 -3.6043,-1.07795 -5.28,-1.08934 -0.792,-0.005 -1.80392,-0.19971 -2.2487,-0.43187 -1.31097,-0.68419 -2.19914,-0.86218 -5.9113,-1.18461 -4.40981,-0.38301 -8.22393,-1.0319 -10.04023,-1.70808 -0.77013,-0.28681 -1.66517,-0.52139 -1.98899,-0.52139 -0.32381,0 -1.4937,-0.48748 -2.59977,-1.08328 -1.10605,-0.59581 -2.44301,-1.182 -2.97101,-1.30266 -0.528,-0.12065 -1.608,-0.63026 -2.4,-1.13246 -0.792,-0.5022 -2.088,-1.16833 -2.88,-1.48031 -0.792,-0.31197 -2.088,-1.01923 -2.88,-1.5717 -0.792,-0.55246 -1.908,-1.18959 -2.48,-1.41585 -0.572,-0.22626 -1.04,-0.50833 -1.04,-0.62681 0,-0.25626 -2.74082,-2.37811 -3.85666,-2.9857 -0.89821,-0.48908 -3.51582,-2.82661 -4.74774,-4.23974 -0.66292,-0.76043 -2.76094,-2.86065 -4.90096,-4.90609 -0.12395,-0.11847 -1.27595,-1.26447 -2.56,-2.54668 -1.28405,-1.2822 -3.34015,-3.2982 -4.56911,-4.48 -1.22895,-1.18179 -2.61217,-2.72472 -3.0738,-3.42872 -0.46164,-0.704 -1.20895,-1.67136 -1.6607,-2.14969 -0.45174,-0.47833 -0.92455,-1.19833 -1.05069,-1.6 -0.30138,-0.95978 -2.0785301,-3.70497 -3.0993301,-4.78758 -1.3038698,-1.38284 -2.7748298,-4.39117 -3.0076098,-6.15104 -0.1187,-0.89743 -0.47657,-2.09658 -0.79526,-2.66477 -1.26204,-2.25012 -2.23465,-5.96044 -2.41344,-9.20692 -0.11704,-2.12501 -0.44023,-4.00625 -0.96207701,-5.6 -0.971794,-2.96794 -1.315242,-7.92135 -0.743278,-10.72 0.215816,-1.056 0.437187,-4.152 0.491936,-6.88 0.05475,-2.728 0.105077,-5.176 0.11184,-5.44 0.0068,-0.264 -0.06755,-2.208 -0.165137,-4.32 -0.154752,-3.34912 -0.08568,-4.16726 0.54036201,-6.4 0.547144,-1.95138 0.734614,-3.54903 0.788544,-6.72 0.0716,-4.21093 0.64622,-7.74518 1.62572,-9.99949 0.28689,-0.66028 0.63934,-2.50428 0.78323,-4.09777 0.26847,-2.97318 1.10317,-5.92296 2.3947,-8.46275 0.40275,-0.792 0.8974798,-2.34558 1.0994098,-3.45241 0.56406,-3.09178 1.89021,-5.97116 4.5316101,-9.83919 1.32642,-1.94238 2.64771,-4.22436 2.93622,-5.07106 0.68031,-1.99661 3.69576,-6.51944 5.27375,-7.91 0.67863,-0.59804 1.58366,-1.39262 2.01117,-1.76575 0.42752,-0.37312 1.2813,-1.50575 1.8973,-2.51695 1.54381,-2.53424 5.47182,-6.13344 8.3529,-7.65366 1.3019,-0.68696 3.0151,-1.9164 3.8071,-2.73208 2.56686,-2.64362 6.34188,-5.15432 8.93244,-5.9408 0.42485,-0.12898 1.45005,-0.72132 2.27822,-1.3163 0.82818,-0.59499 1.6777,-1.0818 1.88782,-1.0818 0.21012,0 1.48893,-1.0489 2.84178,-2.33089 1.35286,-1.28198 2.89174,-2.6334 3.41974,-3.00314 2.43495,-1.7051 6.28708,-3.3977 8.61831,-3.78681 0.69206,-0.11552 2.13206,-0.8182 3.2,-1.56151 2.04377,-1.42252 4.61359,-2.72297 6.72116,-3.40122 0.69272,-0.22292 2.13271,-1.05406 3.2,-1.84696 2.23855,-1.66306 4.83389,-2.91525 8.02053,-3.86972 1.232,-0.36901 2.888,-1.11181 3.68,-1.65067 3.32314,-2.26101 6.47435,-3.38431 12.000002,-4.27761 1.584,-0.25608 4.14179,-0.91323 5.68399,-1.46034 1.91018,-0.67766 3.79726,-1.08 5.92,-1.26221 2.33512,-0.20044 3.91794,-0.56457 6.31601,-1.45302 2.84228,-1.05302 3.68291,-1.21439 7.52,-1.44355 2.376,-0.14191 5.976,-0.57277 8,-0.95749 2.72959,-0.51883 4.56852,-0.67306 7.12039,-0.59717 l 3.44039,0.10231 -3.2e-4,-0.8 c -9.6e-4,-2.35266 2.40656,-7.94435 4.61565,-10.719999 0.56031,-0.704 1.19844,-1.928 1.41808,-2.72 0.63227,-2.27998 1.69719,-4.86372 2.50358,-6.07428 0.40943,-0.61468 0.74223,-1.59831 0.74223,-2.19381 0,-0.59374 0.22842,-1.96432 0.5076,-3.04572 1.02712,-3.97844 2.52676,-6.72387 5.23558,-9.58483 0.83798,-0.88505 1.84753,-2.44826 2.37661,-3.68 0.50589,-1.17775 1.35899,-2.78936 1.89578,-3.58136 1.0384,-1.53211 5.20386,-5.76 5.67495,-5.76 0.15439,0 1.16328,-1.15938 2.24197,-2.57642 1.98969,-2.61376 4.58518,-4.93788 6.81683,-6.10409 0.67613,-0.35333 2.29616,-1.70235 3.60007,-2.99783 1.30391,-1.29547 3.27071,-2.89744 4.37067,-3.55992 1.09997,-0.66248 2.64793,-1.7395 3.43993,-2.39337 1.44862,-1.19599 7.47488,-5.08837 7.87791,-5.08837 0.1189,0 0.80701,-0.4732 1.52914,-1.05156 1.93795,-1.55213 2.52863,-1.88322 6.91295,-3.87484 2.2,-0.99937 4.288,-1.98465 4.64,-2.18951 1.63132,-0.94939 4.20646,-2.145 4.64,-2.1543 0.264,-0.006 1.344,-0.41346 2.4,-0.90622 1.056,-0.49276 2.856,-1.16291 4,-1.48922 3.50377,-0.99941 5.82028,-1.78904 8.14659,-2.77695 1.22463,-0.52005 3.51062,-1.23157 5.07999,-1.58114 1.56937,-0.34957 3.5914,-0.90304 4.49341,-1.22993 5.21056,-1.88835 6.53016,-2.29376 8.4637,-2.60025 1.17497,-0.18625 2.92831,-0.70563 3.89631,-1.15417 2.68275,-1.2431 5.33592,-2.06888 8.16,-2.53975 4.68861,-0.78174 7.65179,-1.4483 10.67802,-2.40197 1.64891,-0.51963 4.09691,-1.02707 5.44,-1.12764 2.19201,-0.16415 3.25561,-0.44977 5.32198,-1.42918 1.47654,-0.69983 5.28438,-1.5854505 7.67367,-1.7847105 1.52336,-0.12704 3.21457,-0.50036 4.16547,-0.9195 2.56182,-1.12918 6.13383,-1.81705 9.92086,-1.91046 2.71686,-0.067 3.95808,-0.25152 5.44,-0.80864 1.62456,-0.61074 2.66786,-0.73638 6.7801,-0.81649 3.66217,-0.0713 5.23964,-0.23379 6.4,-0.65909 1.23107,-0.45121 2.69507,-0.57563 7.2999,-0.62036 3.52317,-0.0342 6.3192,-0.21411 7.2,-0.46323 1.72733,-0.48853 8.01971,-0.54266 9.62102,-0.0828 0.8322,0.23901 1.69834,0.21098 3.2,-0.10355 2.48762,-0.52103 7.49396,-0.57168 10.03716,-0.10154 1.39459,0.25781 2.26403,0.24402 3.49878,-0.0555 0.90368,-0.21919 3.22704,-0.42223 5.16304,-0.4512 2.91248,-0.0436 3.96185,-0.20424 6.08,-0.93083 2.95469,-1.01352997 7.85369,-1.42184997 10.70784,-0.89244997 1.3432,0.24915 2.26915,0.21298 4,-0.15622 2.60045,-0.55471 6.68121,-0.39508 9.45216,0.36974 1.06713,0.29454997 3.14576,0.48924997 5.28,0.49458997 2.11417,0.005 4.28681,0.20711 5.44,0.50536 1.056,0.27311 4.008,0.61304 6.56,0.75539 4.37033,0.24379 6.8264,0.73267 8.48,1.68794 0.352,0.20335 2.08749,0.46444 3.85664,0.5802 3.60467,0.23587 6.10646,0.90534 8.95104,2.39529 2.44307,1.27964 3.80774,1.52427 8.95232,1.60482 4.97715,0.0779 7.96124,0.69447 11.52,2.3801505 1.78,0.84314 3.22496,1.28159 4.74243,1.439 3.52374,0.36553 9.1287,2.49379 11.13872,4.2295 0.28662,0.24752 1.69341,0.73001 3.12614,1.07221 1.43271,0.3422 3.17245,0.9117 3.86608,1.26556 0.69363,0.35386 1.43635,0.64338 1.6505,0.64338 0.85549,0 5.98096,2.74087 7.61622,4.07281 0.95706,0.77953 2.46906,1.78191 3.36,2.22752 2.34269,1.17171 4.8631,3.09852 7.0599,5.39715 1.26132,1.31976 2.6336,2.35944 4,3.03051 1.81207,0.88993 4.19543,2.48556 6.17837,4.13634 1.24503,1.03647 4.44864,5.28666 5.38903,7.14953 1.52428,3.01963 2.51756,4.35881 3.97846,5.36393 2.15949,1.48576 5.38291,4.95332 6.56352,7.06063 0.59984,1.07066 1.50349,2.32802 2.00806,2.79412 3.71309,3.42984 5.18068,5.23014 6.66992,8.18201 0.53981,1.07 1.28548,2.14568 1.65706,2.39042 0.37158,0.24473 1.61158,1.4005 2.75558,2.56836 2.29607,2.34395 4.24512,5.35959 5.15018,7.96854 0.40883,1.17849 1.22163,2.38366 2.64291,3.91879 3.79123,4.09486 6.03027,9.06996 6.47146,14.379339 0.11376,1.36908 0.57958,3.43093 1.08448,4.8 0.48678,1.32 1.1496,3.69191 1.47289,5.27091 0.46541,2.27292 0.79565,3.10609 1.58535,4 2.92518,3.31117 4.96764,7.13893 5.63955,10.56909 0.15513,0.792 0.69469,2.016 1.19904,2.72 2.764,3.85827 4.09289,7.57268 4.68301,13.08966 0.12998,1.21532 0.59526,3.08732 1.03395,4.16 1.11843,2.73472 1.69533,5.61012 1.83587,9.15034 0.0785,1.97606 0.36285,3.76797 0.81254,5.12 0.48519,1.45871 0.74429,3.22678 0.86749,5.91923 0.19543,4.27144 0.36461,4.60928 2.32128,4.63533 2.44195,0.0325 7.01763,1.4154 10.4809,3.16761 2.16752,1.09666 6.33056,4.35407 7.36867,5.76574 0.40128,0.54565 0.86486,0.99209 1.03021,0.99209 0.73065,0 5.804,3.30915 7.53523,4.91495 1.38682,1.28632 2.24832,1.82617 3.1672,1.98465 4.88378,0.84227 11.1687,4.61395 14.48394,8.69205 0.66761,0.82125 1.75008,2.07709 2.40547,2.79077 0.65539,0.71367 1.87939,2.46876 2.72,3.9002 1.27174,2.16562 1.8239,2.78079 3.28838,3.6637 2.69565,1.62515 6.36061,5.48712 8.26176,8.70588 0.91203,1.54409 1.65824,2.93842 1.65824,3.0985 0,0.16008 0.71184,1.2198 1.58186,2.35492 2.55276,3.3306 4.14944,6.17225 5.1558,9.17606 0.51828,1.547 0.94234,3.04095 0.94234,3.31989 0,0.27894 0.58394,1.46121 1.29766,2.62727 1.37018,2.23863 3.18234,7.14662 3.18234,8.61897 0,0.48038 0.56582,1.89913 1.25738,3.1528 1.88342,3.41427 2.76889,6.32116 3.20832,10.53217 0.15075,1.44497 0.42384,3.63523 0.60684,4.86723 0.91085,6.13223 1.11796,9.76091 0.72749,12.74549 -0.2976,2.27459 -0.30093,3.50984 -0.0144,5.34628 0.40352,2.58675 0.20199,7.05512 -0.38464,8.52827 -0.19712,0.49498 -0.47507,2.77196 -0.61766,5.05996 -0.2553,4.09635 -1.07107,7.54245 -2.38861,10.09028 -0.26109,0.50486 -0.48096,1.53709 -0.48864,2.29383 -0.0147,1.46508 -0.22925,2.68706 -1.05568,6.01589 -0.284,1.144 -0.79219,3.304 -1.12931,4.8 -0.33709,1.496 -0.97309,3.512 -1.41331,4.48 -0.4402,0.968 -1.41111,3.704 -2.1576,6.08 -0.74647,2.376 -1.64592,4.89405 -1.99879,5.59568 -0.35286,0.70163 -1.05478,2.41993 -1.55981,3.81849 -1.06921,2.96093 -3.24611,6.58778 -4.91324,8.18583 -0.9194,0.88125 -3.99831,6.41699 -3.99831,7.18873 0,0.0831 -0.6056,1.03364 -1.34573,2.1122 -1.7822,2.59696 -4.2104,4.98784 -6.94841,6.84156 -1.2297,0.83255 -2.50608,1.96906 -2.83642,2.52561 -2.01094,3.388 -7.61462,7.73062 -11.6103,8.99744 -1.22813,0.38937 -2.62586,1.07072 -3.10605,1.51411 -0.48019,0.44336 -1.52109,1.26221 -2.31309,1.81961 -0.792,0.55744 -2.088,1.51114 -2.88,2.11936 -0.792,0.60823 -2.1558,1.34749 -3.03068,1.64282 -0.87488,0.29533 -2.12346,0.92288 -2.7746,1.39459 -0.65116,0.47168 -1.87936,1.1168 -2.72934,1.43354 -0.84995,0.31677 -1.97738,0.8959 -2.50538,1.28701 -1.36256,1.00924 -3.33417,1.96515 -4.63152,2.2455 -0.61132,0.1321 -1.62633,0.56518 -2.25555,0.9624 -0.62921,0.39718 -2.00105,0.98314 -3.04848,1.30205 -1.04745,0.31894 -2.26445,0.81558 -2.70445,1.10365 -1.2472,0.81657 -3.20272,1.49241 -5.03964,1.74179 -0.92381,0.12537 -1.75136,0.34403 -1.83901,0.48585 -0.0877,0.14183 -0.91581,0.42781 -1.84035,0.63556 -0.92455,0.20771 -2.57501,0.80425 -3.66768,1.32563 -1.09268,0.52141 -2.74868,1.02752 -3.68,1.12473 -0.93133,0.0972 -2.12532,0.36746 -2.65332,0.60052 -1.13788,0.50224 -4.95385,1.22854 -5.19388,0.98854 -0.0921,-0.0921 -0.68912,0.0689 -1.32675,0.35776 -0.9658,0.43747 -2.52183,0.53437 -9.31936,0.58038 -8.27152,0.056 -11.60628,0.25184 -13.92,0.81754 -0.704,0.17213 -2.216,0.44739 -3.36,0.61171 -1.144,0.16432 -3.16,0.51357 -4.48,0.7761 -1.32,0.26256 -2.85863,0.39702 -3.41914,0.29885 -0.56054,-0.0982 -1.52918,-0.0102 -2.15258,0.19552 -0.62336,0.20572 -2.54076,0.44115 -4.26083,0.52316 -1.72009,0.082 -4.78345,0.233 -6.80745,0.33546 -3.89642,0.19731 -5.00272,0.2145 -11.52,0.17894 -8.28448,-0.0452 -18.94112,-0.0672 -19.68,-0.0405 -0.528,0.0189 -2.688,-0.0278 -4.8,-0.10441 -2.112,-0.0765 -4.5209,-0.0227 -5.35312,0.11923 -0.85959,0.14675 -2.24167,0.12377 -3.2,-0.0532 -2.91219,-0.53764 -7.29664,-0.59428 -9.51971,-0.12298 -2.37488,0.50349 -2.7025,0.53162 -2.97844,0.25568 z"
     id="path116"
     inkscape:connector-curvature="0"
     sodipodi:nodetypes="ccccsccccccccccccsccsccsccccccccccccccccccccccccscccsccccccscccscccccsccsccssccccsccccccccsscscccccccccccccccsccccccccccscccccccccsccscscscccscsccsccsccscsccccccccccccccccccccccccccccccssccccccscccccccccccccccccccccscccccccsscscsccccccccccccccscscccccccscccccccccccccccccscccccsccccccc" />
</svg>
