<?xml version="1.0" encoding="UTF-8" standalone="no"?>
<!-- Created with Inkscape (http://www.inkscape.org/) -->

<svg
   xmlns:dc="http://purl.org/dc/elements/1.1/"
   xmlns:cc="http://creativecommons.org/ns#"
   xmlns:rdf="http://www.w3.org/1999/02/22-rdf-syntax-ns#"
   xmlns:svg="http://www.w3.org/2000/svg"
   xmlns="http://www.w3.org/2000/svg"
   xmlns:sodipodi="http://sodipodi.sourceforge.net/DTD/sodipodi-0.dtd"
   xmlns:inkscape="http://www.inkscape.org/namespaces/inkscape"
   version="1.1"
   id="svg58"
   width="675.20001"
   height="517.44"
   viewBox="0 0 675.20001 517.44"
   sodipodi:docname="TreeCanopy2.svg"
   inkscape:version="0.92.4 (5da689c313, 2019-01-14)">
  <metadata
     id="metadata64">
    <rdf:RDF>
      <cc:Work
         rdf:about="">
        <dc:format>image/svg+xml</dc:format>
        <dc:type
           rdf:resource="http://purl.org/dc/dcmitype/StillImage" />
        <dc:title></dc:title>
      </cc:Work>
    </rdf:RDF>
  </metadata>
  <defs
     id="defs62" />
  <sodipodi:namedview
     pagecolor="#ffffff"
     bordercolor="#666666"
     borderopacity="1"
     objecttolerance="10"
     gridtolerance="10"
     guidetolerance="10"
     inkscape:pageopacity="0"
     inkscape:pageshadow="2"
     inkscape:window-width="1920"
     inkscape:window-height="1017"
     id="namedview60"
     showgrid="false"
     inkscape:zoom="0.60112453"
     inkscape:cx="201.73659"
     inkscape:cy="-10.400456"
     inkscape:window-x="-8"
     inkscape:window-y="-8"
     inkscape:window-maximized="1"
     inkscape:current-layer="svg58" />
  <path
     style="fill:#90ad91;stroke-width:0.31999999"
     d="m 458.99613,519.59469 c -0.16883,-0.16883 -4.63158,-0.26502 -18.00816,-0.38813 -1.41869,-0.0131 -2.99523,-0.18182 -3.50342,-0.37504 -0.53146,-0.20205 -4.19351,-0.41443 -8.62058,-0.49993 -4.23312,-0.0818 -9.42457,-0.22535 -11.53657,-0.31908 -7.18356,-0.31881 -10.87668,-0.44528 -12.76893,-0.43724 -1.66416,0.007 -2.00688,-0.10503 -2.88,-0.94205 l -0.99107,-0.95008 -6.24,-0.12675 c -5.2769,-0.1072 -6.56103,-0.23207 -8.32,-0.809 -3.46135,-1.13529 -7.07159,-1.95404 -9.52103,-2.15926 -1.27654,-0.10698 -3.50854,-0.52986 -4.96,-0.93978 -1.45142,-0.40992 -4.00697,-0.82988 -5.67897,-0.93321 -5.66791,-0.35034 -10.67156,-2.36317 -14.80176,-5.95431 -0.41623,-0.36192 -1.79834,-1.15718 -3.0713,-1.76723 -1.27299,-0.61008 -2.94122,-1.54038 -3.7072,-2.06739 -2.0641,-1.42013 -5.30723,-4.83626 -6.56666,-6.91686 -0.6088,-1.00576 -2.0488,-2.77997 -3.2,-3.94269 -1.1512,-1.16272 -2.47056,-2.54605 -2.93193,-3.07405 -0.46135,-0.528 -1.97335,-2.05699 -3.36,-3.39776 -1.38663,-1.34077 -3.02516,-3.28314 -3.64116,-4.31642 -0.616,-1.03328 -1.99996,-2.74428 -3.07552,-3.80224 -1.07552,-1.05798 -2.52755,-2.85958 -3.22675,-4.00358 -1.32037,-2.16045 -2.97773,-5.97574 -2.97773,-6.85491 0,-0.27815 -0.92826,-1.38368 -2.06282,-2.45674 -3.20759,-3.03373 -5.0904,-6.29257 -6.26764,-10.84835 -0.53633,-2.07552 -0.72668,-2.2263 -2.31858,-1.83683 -0.74302,0.18179 -1.52303,0.46451 -1.73335,0.62825 -0.2378,0.18516 -1.30852,0.15735 -2.83177,-0.0736 -1.34716,-0.20423 -2.83108,-0.26644 -3.29761,-0.13828 -0.78021,0.21431 -3.5236,0.30704 -15.88823,0.53709 -2.52469,0.047 -4.75933,0.23863 -5.12,0.43914 -0.44977,0.25001 -5.01513,0.33155 -15.36,0.27427 -9.43602,-0.0523 -15.22442,0.0387 -16.12522,0.25357 -11.68324,6.27443 -17.15162,1.04154 -27.23478,1.26928 -4.75804,0.11101 -6.57254,0.27161 -7.64023,0.67632 -0.77013,0.2919 -2.13813,0.53325 -3.04,0.53632 -0.90187,0.003 -2.61047,0.21126 -3.79688,0.46265 -1.6186,0.34301 -2.63715,0.37984 -4.07996,0.14749 -1.05757,-0.17033 -3.03886,-0.27341 -4.40289,-0.22909 -1.36402,0.0444 -3.49891,-0.10371 -4.74419,-0.32899 -1.65257,-0.29894 -2.79871,-0.32352 -4.2431,-0.0909 -1.26795,0.20419 -2.63892,0.21059 -3.81585,0.0179 -1.01029,-0.16547 -2.49801,-0.30169 -3.30604,-0.30272 -0.80803,0 -2.17603,-0.22653 -3.04,-0.50112 -0.86397,-0.27456 -2.91583,-0.56445 -4.55969,-0.64416 -1.64386,-0.0797 -3.29986,-0.31878 -3.68,-0.53129 -0.40566,-0.22679 -2.27737,-0.41943 -4.53117,-0.4664 -2.112,-0.044 -4.82565,-0.24359 -6.03034,-0.44349 -1.21552,-0.2017 -3.07205,-0.26903 -4.17148,-0.1513 -1.24617,0.13347 -2.33302,0.0747 -2.92966,-0.1584 -0.52168,-0.20377 -2.24452,-0.41625 -3.82852,-0.47213 -1.584,-0.0559 -3.816,-0.2544 -4.96,-0.44115 -1.144,-0.18675 -2.75896,-0.34243 -3.58881,-0.34598 -0.82985,-0.004 -2.18299,-0.23533 -3.00697,-0.51507 -0.83635,-0.28394 -2.88283,-0.55328 -4.63272,-0.6097 -1.72402,-0.0556 -3.31655,-0.21354 -3.53896,-0.35101 -0.37089,-0.22921 -3.40903,-0.4984 -10.99254,-0.97401 -1.584,-0.0993 -3.024,-0.29341 -3.2,-0.43127 -0.53355,-0.41789 -3.60547,-0.96537 -5.41667,-0.96537 -0.93784,0 -2.19076,-0.20013 -2.78425,-0.44474 -0.59349,-0.24464 -2.15908,-0.54614 -3.479085,-0.67008 -1.32,-0.12394 -3.21543,-0.48784 -4.21208,-0.80874 -0.99665,-0.32089 -2.65265,-0.68355 -3.68,-0.80595 -1.02735,-0.1224 -2.29992,-0.41728 -2.82792,-0.65529 -1.3677,-0.61652 -3.60429,-1.07796 -5.28,-1.08935 -0.792,-0.005 -1.80391,-0.19971 -2.2487,-0.43187 -1.31097,-0.68419 -2.19913,-0.86218 -5.9113,-1.18461 -4.4098,-0.38301 -8.22393,-1.0319 -10.04023,-1.70809 -0.77013,-0.28669 -1.66517,-0.52128 -1.98898,-0.52128 -0.32382,0 -1.49371,-0.48749 -2.59977,-1.0833 -1.10606,-0.59578 -2.44302,-1.18198 -2.97102,-1.30262 -0.528,-0.12068 -1.608,-0.63028 -2.4,-1.13248 -0.792,-0.50221 -2.088,-1.16832 -2.88,-1.48032 -0.792,-0.31197 -2.088,-1.01924 -2.88,-1.57168 -0.792,-0.55248 -1.908,-1.1896 -2.48,-1.41588 -0.572,-0.22624 -1.04,-0.50832 -1.04,-0.62678 0,-0.25629 -2.74082,-2.37811 -3.85665,-2.9857 -0.89822,-0.48908 -3.51582,-2.82662 -4.74775,-4.23977 -0.66291,-0.76042 -2.76094,-2.86064 -4.90096,-4.90608 -0.12395,-0.11847 -1.27595,-1.26448 -2.56,-2.54666 -1.28405,-1.28221 -3.34015,-3.29821 -4.56911,-4.48 -1.22895,-1.18182 -2.61216,-2.72473 -3.0738,-3.42873 -0.46163,-0.704 -1.20895,-1.67136 -1.66069,-2.1497 -0.45175,-0.4783 -0.92456,-1.1983 -1.05069,-1.6 -0.30292,-0.96464 -2.08031,-3.70678 -3.1122,-4.80144 -1.02118,-1.08333 -2.67318,-4.22227 -2.94997,-5.60518 -0.11408,-0.56999 -0.34801,-1.12324 -0.51984,-1.22944 -0.42497,-0.26263 -1.66386,-3.13738 -2.19541,-5.09424 -0.23903,-0.88 -0.6182,-1.888 -0.84259,-2.24 -0.2244,-0.352 -0.5031496,-1.288 -0.6194496,-2.08 -0.1163,-0.792 -0.55923,-2.88 -0.9843,-4.64 -0.42506,-1.76 -0.83791,-3.56 -0.91745,-4 -0.39288,-2.17344 -0.57732,-2.50602 -1.91148,-3.4464 -2.2506,-1.58637 -2.518138,-2.21524 -2.599288,-6.10954 -0.06224,-2.98698 -0.286872,-6.07802 -0.631081,-8.68406 -2.546829,-19.28228 -3.062518,-23.96596 -3.15442,-28.6496 -0.06299,-3.21021 0.03364,-5.53272 0.258239,-6.20692 0.332517,-0.99814 0.285761,-1.15434 -0.636247,-2.12561 -1.100372,-1.15926 -1.555901,-2.96808 -1.128087,-4.4795 0.146101,-0.51616 0.231515,-1.37047 0.189808,-1.89847 -0.04171,-0.528 0.115734,-1.968 0.349869,-3.2 0.263125,-1.38454 0.431845,-4.74527 0.44179,-8.8 0.01518,-6.1902 0.265792,-26.48252 0.339871,-27.52 0.01885,-0.264 0.177571,-1.632 0.352712,-3.04 0.517264,-4.15839 0.642954,-6.11012 0.752182,-11.68 0.128712,-6.56346 0.38219,-10.90438 0.826019,-14.14592 0.188542,-1.37703 0.260927,-2.63617 0.160856,-2.79809 -0.522628,-0.84563 2.091168,-16.40291 3.201617,-19.05599 0.221,-0.528 0.5477,-1.68 0.72602,-2.56 0.62778,-3.0981 2.25693,-8.88244 2.59771,-9.22322 0.18962,-0.18963 0.34724,-0.71198 0.35026,-1.16078 0.009,-1.29359 1.14815,-5.14653 2.0393896,-6.896 0.44831,-0.88 0.81961,-1.91281 0.82511,-2.29512 0.005,-0.38232 0.50402,-1.31832 1.1078,-2.08 1.01394,-1.2791 1.75622,-2.63188 2.9134,-5.30955 0.24831,-0.57457 0.68459,-1.58257 0.96953,-2.24 0.91293,-2.10639 2.12749,-4.36571 2.92487,-5.44085 1.24865,-1.68362 2.97441,-4.88672 2.97441,-5.52067 0,-0.32159 0.33144,-0.99176 0.73653,-1.48926 0.40509,-0.4975 1.30509,-1.74933 2,-2.78185 0.69491,-1.03251 1.58799,-2.32851 1.98463,-2.88 0.39663,-0.55148 1.0611,-1.5067 1.47658,-2.1227 0.94896,-1.40694 3.87744,-4.15927 4.42855,-4.16219 0.22754,-0.001 0.76219,-0.51384 1.18811,-1.13919 1.34482,-1.97451 5.28888,-5.37122 7.74209,-6.66764 1.29993,-0.68696 3.01151,-1.9164 3.80351,-2.73209 2.56686,-2.64362 6.34188,-5.15431 8.93245,-5.9408 0.42484,-0.12898 1.45004,-0.72131 2.27821,-1.3163 0.82818,-0.59498 1.6777,-1.08179 1.88782,-1.08179 0.21013,0 1.48893,-1.0489 2.84178,-2.33089 1.35286,-1.28199 2.89174,-2.6334 3.41974,-3.00314 2.43495,-1.70511 6.28708,-3.3977 8.61831,-3.78682 0.69207,-0.11551 2.13207,-0.81819 3.2,-1.5615 2.04378,-1.42252 4.6136,-2.72297 6.72117,-3.40122 0.69271,-0.22293 2.13271,-1.05406 3.2,-1.84696 2.23855,-1.66306 4.83389,-2.91525 8.02052,-3.86972 1.232,-0.36901 2.888,-1.11182 3.68,-1.65068 3.323155,-2.261 6.474355,-3.3843 12.000005,-4.2776 1.584,-0.25608 4.1418,-0.91323 5.68399,-1.46034 1.91018,-0.67766 3.79727,-1.08 5.92,-1.26221 2.33513,-0.20044 3.91795,-0.56457 6.31601,-1.45302 2.84229,-1.05302 3.68292,-1.21439 7.52,-1.44355 2.376,-0.14191 5.976,-0.57278 8,-0.95749 2.7296,-0.51883 4.56852,-0.67306 7.1204,-0.59717 l 3.44039,0.10231 -3.2e-4,-0.8 c -9.6e-4,-2.35266 2.40655,-7.94436 4.61565,-10.72 0.5603,-0.704 1.19844,-1.927998 1.41807,-2.719998 0.63228,-2.27998 1.69719,-4.86371 2.50359,-6.07428 0.40942,-0.61468 0.74222,-1.5983 0.74222,-2.19381 0,-0.59374 0.22843,-1.96431 0.50761,-3.04572 1.02711,-3.97844 2.52676,-6.72387 5.23558,-9.58483 0.83798,-0.88505 1.84753,-2.44826 2.37661,-3.68 0.50589,-1.17775 1.35899,-2.78936 1.89578,-3.58136 1.0384,-1.53211 5.20386,-5.76 5.67495,-5.76 0.15439,0 1.16328,-1.15938 2.24197,-2.57641 1.98969,-2.61376 4.58518,-4.93789 6.81683,-6.1041 0.67613,-0.35333 2.29616,-1.70235 3.60007,-2.99783 1.30391,-1.29547 3.27071,-2.89744 4.37067,-3.55992 1.09996,-0.66248 2.64793,-1.7395 3.43993,-2.39337 1.44862,-1.19598 7.47488,-5.08837 7.87791,-5.08837 0.1189,0 0.80701,-0.4732 1.52914,-1.05156 1.93795,-1.55213 2.52863,-1.88322 6.91295,-3.87484 2.2,-0.99937 4.288,-1.98465 4.64,-2.18951 1.63132,-0.94939 4.20646,-2.145 4.64,-2.1543 0.264,-0.006 1.344,-0.41346 2.4,-0.90622 1.056,-0.49276 2.856,-1.1629 4,-1.48922 3.50377,-0.9994 5.82028,-1.78904 8.14659,-2.77695 1.22463,-0.52005 3.51062,-1.23157 5.07999,-1.58114 1.56937,-0.34957 3.5914,-0.90304 4.49341,-1.22993 5.21056,-1.88834 6.53016,-2.29376 8.4637,-2.60025 1.17497,-0.18625 2.92831,-0.70563 3.89631,-1.15417 2.68275,-1.2431 5.33592,-2.06888 8.16,-2.53975 4.68861,-0.78174 7.65179,-1.44829 10.67803,-2.40197 1.64891,-0.51963 4.09691,-1.02707 5.44,-1.12764 2.19201,-0.16415 3.2556,-0.44977 5.32197,-1.42918 1.47654,-0.69983 5.28439,-1.58545 7.67368,-1.78471 1.52335,-0.12704 3.21456,-0.50036 4.16546,-0.9195 2.56182,-1.1291797 6.13384,-1.8170397 9.92086,-1.9104597 2.71686,-0.067 3.95808,-0.25152 5.44,-0.80864 1.62455,-0.61074 2.66788,-0.73638 6.7801,-0.81649 3.66218,-0.0713 5.23965,-0.23379 6.4,-0.65909 1.23107,-0.45121 2.69507,-0.57563 7.29991,-0.62036 3.52316,-0.0342 6.3192,-0.21411 7.2,-0.46323 1.72732,-0.48853 8.01971,-0.54265 9.62102,-0.0827 0.83219,0.23901 1.69834,0.21098 3.2,-0.10355 2.48762,-0.52103 7.49395,-0.57168 10.03715,-0.10154 1.39459,0.25781 2.26403,0.24402 3.49879,-0.0555 0.90368,-0.21919 3.22704,-0.42223 5.16304,-0.45121 2.91248,-0.0436 3.96185,-0.20424 6.08,-0.93082 2.95468,-1.01354 7.85369,-1.42185 10.70784,-0.89246 1.3432,0.24915 2.26915,0.21299 4,-0.15622 2.60044,-0.55471 6.68121,-0.39508 9.45216,0.36975 1.06713,0.29454 3.14576,0.48925 5.28,0.49458 2.11417,0.005 4.28681,0.20712 5.44,0.50536 1.056,0.27311 4.008,0.61304 6.56,0.7554 4.37033,0.24378 6.8264,0.73266 8.48,1.68793 0.352,0.20335 2.08748,0.46444 3.85664,0.5802 3.60467,0.23587 6.10646,0.90534 8.95104,2.3953 2.44307,1.2796297 3.80774,1.5242697 8.95232,1.6048097 4.97715,0.0779 7.96124,0.69447 11.52,2.38016 1.78,0.84314 3.22496,1.28158 4.74243,1.43899 3.52374,0.36553 9.1287,2.4938 11.13872,4.2295 0.28662,0.24752 1.69341,0.73001 3.12614,1.07221 1.43271,0.3422 3.17245,0.9117 3.86608,1.26556 0.69364,0.35386 1.43636,0.64338 1.6505,0.64338 0.85549,0 5.98096,2.74088 7.61622,4.07282 0.95706,0.77952 2.46906,1.78191 3.36,2.22752 2.34269,1.1717 4.86311,3.09851 7.05991,5.39714 1.26131,1.31977 2.6336,2.35945 4,3.03051 1.81206,0.88993 4.19542,2.48556 6.17837,4.13634 1.24502,1.03648 4.44864,5.28666 5.38902,7.14953 1.52429,3.01963 2.51757,4.35881 3.97846,5.36393 2.15949,1.48576 5.38292,4.95333 6.56352,7.06063 0.59984,1.07067 1.50349,2.32803 2.00807,2.79413 3.71309,3.42983 5.18067,5.23013 6.66992,8.182 0.53981,1.07 1.28547,2.14569 1.65705,2.39042 0.37159,0.24474 1.61159,1.4005 2.75559,2.56836 2.29606,2.34395 4.24512,5.35959 5.15017,7.96855 0.40884,1.17849 1.22164,2.38365 2.64292,3.91878 3.79123,4.09486 6.03027,9.06996 6.47145,14.379338 0.11376,1.36908 0.57959,3.43092 1.08448,4.8 0.48679,1.32 1.1496,3.69191 1.4729,5.27091 0.46541,2.27291 0.79565,3.10609 1.58534,4 2.92519,3.31117 4.96765,7.13892 5.63955,10.56909 0.15514,0.792 0.69469,2.016 1.19904,2.72 2.764,3.85827 4.0929,7.57268 4.68301,13.08966 0.12999,1.21532 0.59527,3.08732 1.03395,4.16 1.11844,2.73472 1.69533,5.61012 1.83588,9.15034 0.0785,1.97605 0.36284,3.76796 0.81254,5.12 0.48518,1.45871 0.74429,3.22677 0.86749,5.91923 0.19542,4.27143 0.36461,4.60928 2.32128,4.63532 2.44195,0.0325 7.01763,1.4154 10.48089,3.16762 2.16752,1.09666 6.33056,4.35407 7.36868,5.76574 0.40128,0.54565 0.86486,0.99209 1.0302,0.99209 0.73066,0 5.80401,3.30915 7.53524,4.91494 1.38681,1.28632 2.24832,1.82618 3.1672,1.98465 4.88377,0.84227 11.1687,4.61396 14.48393,8.69205 0.66762,0.82125 1.75008,2.0771 2.40548,2.79077 0.65539,0.71368 1.87939,2.46877 2.72,3.90021 1.27174,2.16562 1.8239,2.78078 3.28838,3.66369 2.69565,1.62516 6.36061,5.48713 8.26176,8.70589 0.91203,1.54409 1.65824,2.93841 1.65824,3.09849 0,0.16008 0.71184,1.2198 1.58186,2.35493 2.55276,3.33059 4.14944,6.17225 5.1558,9.17605 0.51828,1.54701 0.94234,3.04096 0.94234,3.31989 0,0.27895 0.58394,1.46121 1.29766,2.62728 1.37018,2.23862 3.18234,7.14662 3.18234,8.61897 0,0.48037 0.57638,1.91752 1.28083,3.19367 1.33843,2.42465 2.43162,5.4477 2.76938,7.65828 0.10928,0.71513 0.61081,1.91968 1.11456,2.67678 1.74253,2.61892 1.89037,3.13798 2.22125,7.79854 0.26108,3.67732 0.43715,4.66599 0.94624,5.3132 0.34403,0.43734 0.9326,1.8204 1.30796,3.07344 0.62768,2.09536 0.66314,2.68935 0.44144,7.39828 -0.1326,2.816 -0.256,5.696 -0.27424,6.4 -0.0182,0.704 0.30647,4.47029 0.7216,8.36954 0.58288,5.47456 0.6753,7.31763 0.4058,8.09079 -0.34404,0.9869 -0.31066,1.34462 0.58412,6.25967 0.39184,2.15239 0.73159,9.48227 0.8009,17.28 0.0314,3.52 0.16784,8.704 0.30346,11.52 0.17945,3.72656 0.13984,5.5119 -0.14557,6.56 -0.24765,0.9095 -0.4304,4.52723 -0.49603,9.81984 -0.0572,4.60893 -0.24564,8.92893 -0.41885,9.6 -0.17322,0.6711 -0.47594,1.8337 -0.67274,2.58355 -0.1968,0.74989 -0.27565,1.82989 -0.17517,2.4 0.18832,1.06877 0.004,2.55661 -1.10118,8.87661 -0.35386,2.024 -0.85306,5.21526 -1.10934,7.09174 -0.75421,5.52176 -1.14592,7.39328 -1.82458,8.71684 -0.51955,1.01328 -0.65846,2.00832 -0.73699,5.28 -0.0548,2.28246 -0.27111,4.4479 -0.49853,4.99142 -0.22096,0.528 -0.51843,2.832 -0.66102,5.12 -0.2553,4.09635 -1.07108,7.54246 -2.38861,10.09027 -0.26109,0.50487 -0.48096,1.53709 -0.48864,2.29383 -0.0147,1.46508 -0.22925,2.68707 -1.05568,6.0159 -0.284,1.144 -0.79219,3.304 -1.12931,4.8 -0.33709,1.496 -0.97309,3.512 -1.41332,4.48 -0.44019,0.968 -1.4111,3.704 -2.1576,6.08 -0.74646,2.376 -1.64592,4.89405 -1.99878,5.59568 -0.35286,0.70163 -1.05478,2.41994 -1.55981,3.8185 -1.06921,2.96092 -3.24611,6.58777 -4.91325,8.18582 -0.91939,0.88125 -3.9983,6.41699 -3.9983,7.18874 0,0.0831 -0.6056,1.03363 -1.34573,2.11219 -1.78221,2.59696 -4.2104,4.98784 -6.94841,6.84157 -1.2297,0.83254 -2.50608,1.96905 -2.83642,2.5256 -2.01094,3.388 -7.61462,7.73062 -11.6103,8.99744 -1.22813,0.38937 -2.62586,1.07072 -3.10605,1.51411 -0.48019,0.44336 -1.52109,1.26221 -2.31309,1.81961 -0.792,0.55744 -2.088,1.51114 -2.88,2.11936 -0.792,0.60823 -2.15581,1.34749 -3.03069,1.64282 -0.87488,0.29533 -2.12345,0.92288 -2.77459,1.39459 -0.65117,0.47168 -1.87936,1.1168 -2.72935,1.43354 -0.84995,0.31677 -1.97737,0.8959 -2.50537,1.28701 -1.36256,1.00924 -3.33418,1.96515 -4.63152,2.2455 -0.61133,0.1321 -1.62634,0.56518 -2.25555,0.9624 -0.62922,0.39718 -2.00106,0.98314 -3.04848,1.30205 -1.04746,0.31894 -2.26445,0.81558 -2.70445,1.10365 -1.2472,0.81657 -3.20272,1.49241 -5.03965,1.74179 -0.92381,0.12537 -1.75136,0.34403 -1.83901,0.48585 -0.0877,0.14183 -0.91581,0.42781 -1.84035,0.63556 -0.92454,0.20771 -2.57501,0.80425 -3.66768,1.32563 -1.09267,0.52141 -2.74867,1.02752 -3.68,1.12473 -0.93133,0.0972 -2.12531,0.36746 -2.65331,0.60052 -1.13789,0.50224 -4.95386,1.22854 -5.19389,0.98854 -0.0921,-0.0921 -0.68912,0.0689 -1.32675,0.35776 -0.96579,0.43747 -2.52183,0.53437 -9.31936,0.58038 -8.27152,0.056 -11.60627,0.25184 -13.92,0.81754 -0.704,0.17213 -2.216,0.44739 -3.36,0.61171 -1.144,0.16432 -3.16,0.51357 -4.48,0.7761 -1.32,0.26256 -2.85863,0.39702 -3.41914,0.29885 -0.56054,-0.0982 -1.52918,-0.0102 -2.15257,0.19552 -0.62336,0.20572 -2.54077,0.44115 -4.26084,0.52316 -1.72009,0.082 -4.78345,0.233 -6.80745,0.33546 -3.89642,0.19731 -5.00272,0.2145 -11.52,0.17894 -8.28448,-0.0452 -18.94112,-0.0672 -19.68,-0.0405 -0.528,0.0189 -2.688,-0.0278 -4.8,-0.10441 -2.112,-0.0765 -4.5209,-0.0227 -5.35312,0.11923 -0.85959,0.14675 -2.24167,0.12377 -3.2,-0.0531 -2.9122,-0.53764 -7.29664,-0.59428 -9.51972,-0.12298 -2.37488,0.50349 -2.70249,0.53162 -2.97843,0.25568 z"
     id="path68"
     inkscape:connector-curvature="0"
     sodipodi:nodetypes="scccsccccccccccccsccsccsccccccccccccccccccccccccccccscsccccscscscccccsccccccscccccccccccccsccccssccscsscssscccccccccccssccccsscscscscccccscsscccscccccsccscscscscscsccsccsccscccccccsccccccccccccccccccccsccccscccscccccccscccscccccccscsccscccccscsccscsccccccccccscccccccccccccccccccsscscccccccscccccccccccccccccscccccscccccs" />
</svg>
