<?xml version="1.0" encoding="UTF-8" standalone="no"?>
<!-- Created with Inkscape (http://www.inkscape.org/) -->

<svg
   xmlns:dc="http://purl.org/dc/elements/1.1/"
   xmlns:cc="http://creativecommons.org/ns#"
   xmlns:rdf="http://www.w3.org/1999/02/22-rdf-syntax-ns#"
   xmlns:svg="http://www.w3.org/2000/svg"
   xmlns="http://www.w3.org/2000/svg"
   xmlns:sodipodi="http://sodipodi.sourceforge.net/DTD/sodipodi-0.dtd"
   xmlns:inkscape="http://www.inkscape.org/namespaces/inkscape"
   version="1.1"
   id="svg58"
   width="121.6"
   height="124.48"
   viewBox="0 0 121.6 124.48"
   sodipodi:docname="TreeFractal-Main.svg"
   inkscape:version="0.92.4 (5da689c313, 2019-01-14)">
  <metadata
     id="metadata64">
    <rdf:RDF>
      <cc:Work
         rdf:about="">
        <dc:format>image/svg+xml</dc:format>
        <dc:type
           rdf:resource="http://purl.org/dc/dcmitype/StillImage" />
        <dc:title></dc:title>
      </cc:Work>
    </rdf:RDF>
  </metadata>
  <defs
     id="defs62" />
  <sodipodi:namedview
     pagecolor="#ffffff"
     bordercolor="#666666"
     borderopacity="1"
     objecttolerance="10"
     gridtolerance="10"
     guidetolerance="10"
     inkscape:pageopacity="0"
     inkscape:pageshadow="2"
     inkscape:window-width="1920"
     inkscape:window-height="1017"
     id="namedview60"
     showgrid="false"
     inkscape:zoom="3.7917737"
     inkscape:cx="54.995777"
     inkscape:cy="99.753956"
     inkscape:window-x="-8"
     inkscape:window-y="-8"
     inkscape:window-maximized="1"
     inkscape:current-layer="layer4" />
  <g
     inkscape:groupmode="layer"
     id="layer4"
     inkscape:label="Main"
     style="display:inline">
    <path
       style="fill:#feb276;stroke-width:0.31999999"
       d="m 54.059808,124.17317 c -3.152528,-0.26068 -4.047286,-0.58021 -5.320237,-1.8999 -0.717142,-0.74347 -0.739625,-0.94242 -0.741357,-6.56 -9.6e-4,-3.1863 -0.134278,-6.29727 -0.296217,-6.91327 -0.161936,-0.616 -0.374115,-1.696 -0.471504,-2.4 -0.348567,-2.51968 -1.124397,-4.71439 -2.566023,-7.2589 C 43.859011,97.719442 43.2,96.463138 43.2,96.349311 c 0,-0.358787 -1.969542,-4.0212 -2.258934,-4.200544 -0.380701,-0.23593 -2.668,-3.805187 -3.322884,-5.185251 C 37.323254,86.342002 36.585565,85.276956 35.97887,84.596748 35.372176,83.916536 34.784189,83.072002 34.67223,82.720002 34.466074,82.071848 34.141024,81.670328 31.84,79.2215 c -0.704,-0.74922 -1.856,-2.194045 -2.56,-3.21072 -0.704,-1.016672 -1.784,-2.387767 -2.4,-3.046874 -1.374409,-1.470589 -2.171011,-2.485472 -3.896269,-4.963904 -0.73509,-1.056 -1.596399,-2.208 -1.914018,-2.56 -1.00113,-1.109498 -4.001076,-5.322915 -5.110661,-7.177917 C 15.37277,57.281938 14.20614,55.50748 13.366542,54.318844 12.526944,53.130207 11.84,52.058914 11.84,51.938191 11.84,51.716703 6.1196455,43.177026 5.7723165,42.880002 5.3935338,42.556082 4.3180465,40.758757 3.6416026,39.319215 3.2588989,38.50478 2.786978,37.74028 2.5928893,37.620328 2.096259,36.858023 1.9037616,35.867261 1.5740429,35.104543 0.6737949,33.286981 0.4162251,29.521781 0.1668479,14.533926 L -0.0359116,2.34785 3.6249879,1.939813 C 6.6311841,1.604749 7.5071185,1.607041 8.5229441,1.952633 10.65325,2.67738 10.561404,2.319974 10.560044,9.87972 c -6.86e-4,3.806156 0.151033,7.856282 0.337153,9.000282 0.18612,1.144 0.465465,3.204299 0.620768,4.578443 0.234818,2.077708 0.639417,3.263235 2.402623,7.04 1.16614,2.497858 2.37576,4.829557 2.688045,5.181557 0.312285,0.352 0.754995,1.113866 0.9838,1.693034 0.228805,0.579168 0.816063,1.605289 1.305017,2.280272 0.488955,0.674982 1.189237,1.815737 1.556183,2.535011 0.366946,0.719273 1.314993,2.103117 2.106771,3.075206 C 23.352182,46.235615 24,47.182767 24,47.368309 c 0,0.185539 1.425764,1.807575 3.168365,3.604519 1.742601,1.796947 3.662337,3.863756 4.266081,4.592915 2.156248,2.604157 4.587205,4.969283 5.927215,5.76671 0.748912,0.445671 1.468912,0.995594 1.6,1.222055 0.347744,0.600748 4.681414,4.160572 6.679878,5.487075 0.945152,0.62736 1.718461,1.249926 1.718461,1.383488 0,0.133558 1.476,0.932966 3.28,1.776464 2.327805,1.088413 4.202461,1.705117 6.457571,2.124339 2.9476,0.547958 3.410794,0.556074 6.4,0.112122 6.502205,-0.965696 10.792887,-3.13466 15.46985,-7.82009 5.12247,-5.131744 8.921193,-9.342346 11.419712,-12.657904 0.663145,-0.88 1.691213,-2.176 2.284595,-2.88 0.593382,-0.704 1.640189,-2 2.326237,-2.88 1.300883,-1.668653 5.256725,-8.525056 6.831155,-11.84 0.50155,-1.056 1.2034,-2.424 1.55968,-3.04 0.35628,-0.616 1.12825,-2.128 1.71548,-3.36 3.91139,-8.206021 4.38655,-10.334384 4.63862,-20.777492 l 0.1771,-7.337493 0.82706,-0.220674 c 1.44451,-0.385422 7.58344,-0.693955 9.24922,-0.464852 L 121.6,0.380059 v 9.476348 c 0,9.856485 -0.52933,16.502551 -1.4681,18.43276 -0.24854,0.51104 -0.4519,1.241388 -0.4519,1.622996 0,0.761087 -0.90277,3.65664 -1.30023,4.170362 -0.13725,0.177388 -0.45096,0.907171 -0.69715,1.62174 -0.24619,0.71457 -1.62549,3.269856 -3.06512,5.678416 -1.43962,2.40856 -2.6175,4.561351 -2.6175,4.783978 0,0.222627 -0.33575,0.906205 -0.74611,1.519062 -0.41036,0.612855 -0.9687,1.546282 -1.24075,2.074282 -1.32993,2.581107 -3.42878,6.270381 -3.96866,6.975939 -0.33246,0.434496 -0.78146,1.058656 -0.99778,1.387027 -0.21631,0.328368 -1.18545,1.749034 -2.15364,3.157034 -0.9682,1.408 -2.58139,3.784 -3.584871,5.28 -2.293571,3.419264 -6.55241,9.234522 -7.382144,10.08 -0.345447,0.352 -1.595389,2.08 -2.777651,3.84 -1.192919,1.775869 -3.316301,4.339306 -4.7712,5.76 -2.024203,2.755111 -5.552664,5.758253 -6.6129,8.8 C 77.066284,96.065667 75.2,100.42413 75.2,101.7658 c 0,0.36629 -0.19976,1.05483 -0.443907,1.53009 -0.338653,0.65922 -0.471437,3.01002 -0.56,9.91427 -0.09958,7.76238 -0.0049,8.47966 -0.116292,9.48654 -0.206078,0.99781 -0.145304,0.91043 -1.119801,1.12473 -1.751149,0.4741 -14.541696,0.71214 -18.900192,0.35174 z"
       id="path72"
       inkscape:connector-curvature="0"
       sodipodi:nodetypes="sccccsscscsscssssssccccscsssssssscsssscsccsssssssscssccsscscscscsccccccccccsccccs" />
  </g>
  <g
     id="g68" />
  <g
     inkscape:groupmode="layer"
     id="layer3"
     inkscape:label="Shadow"
     style="display:none">
    <path
       style="fill:#cf7f7e;stroke-width:0.31999999"
       d="m 54.059808,124.17317 c -3.148643,-0.24014 -4.043158,-0.55628 -5.320237,-1.88025 -0.717142,-0.74347 -0.739625,-0.94242 -0.741357,-6.56 -9.6e-4,-3.1863 -0.134278,-6.29727 -0.296217,-6.91327 -0.161936,-0.616 -0.374115,-1.696 -0.471504,-2.4 -0.348567,-2.51968 -1.124397,-4.71439 -2.566023,-7.258897 C 43.859011,97.739095 43.2,96.482791 43.2,96.368964 c 0,-0.358787 -1.969542,-4.0212 -2.258934,-4.200544 -0.380701,-0.23593 -2.668,-3.805187 -3.322884,-5.185251 -0.294928,-0.621514 -1.032617,-1.68656 -1.639312,-2.366768 -0.606694,-0.680212 -1.194681,-1.524746 -1.30664,-1.876746 -0.206156,-0.648154 -0.531206,-1.049674 -2.83223,-3.498502 -0.704,-0.74922 -1.856,-2.194045 -2.56,-3.21072 -0.704,-1.016672 -1.784,-2.387767 -2.4,-3.046874 -1.374409,-1.470589 -2.171011,-2.485472 -3.896269,-4.963904 -0.73509,-1.056 -1.596399,-2.208 -1.914018,-2.56 C 20.068583,64.350157 17.068637,60.13674 15.959052,58.281738 15.37277,57.301591 14.20614,55.527133 13.366542,54.338497 12.526944,53.14986 11.84,52.078567 11.84,51.957844 11.84,51.736356 6.1196453,43.196679 5.7723163,42.899655 5.3935336,42.575735 4.3180463,40.77841 3.6416024,39.338868 3.2508055,38.481061 2.5900498,37.710066 2.2400005,36.945313 c 0,-0.262116 -0.299681,-1.081616 -0.6659578,-1.821117 C 0.6732109,33.305453 0.4162633,29.542202 0.1658388,14.499655 l -0.2037683,-12.24 h 0.93896499 c 0.51643071,0 1.38896501,-0.09 1.93896501,-0.2 l 1,-0.2 V 9.41361 c 0,12.298593 0.5462515,16.537636 2.9542954,22.926045 0.9324179,2.473654 3.4046861,7.262147 4.2967551,8.322314 0.411922,0.489539 0.748949,1.041331 0.748949,1.226204 0,0.184871 1.33305,2.108084 2.962332,4.273805 2.876678,3.823821 3.902118,5.232256 6.472352,8.889738 1.580168,2.248605 4.010146,5.148646 7.514342,8.967939 5.457134,5.947843 6.957636,7.790202 13.108689,16.095226 1.131741,1.528054 2.301843,2.855766 2.600227,2.95047 0.575354,0.182608 6.126026,8.351709 6.673536,9.821658 0.177687,0.477043 0.905056,1.894403 1.616384,3.149689 0.711325,1.255287 1.528029,3.240979 1.8149,4.412642 0.28687,1.17167 0.846579,2.85031 1.243795,3.73031 1.368294,3.03133 1.835174,6.23392 1.97096,13.52 0.100925,5.41536 0.04281,6.79052 -0.285392,6.75345 -0.226669,-0.0256 -1.78921,-0.15157 -3.472317,-0.27993 z M 66.279315,74.406449 c -2.178377,-0.242826 -4.016864,-0.497674 -4.085526,-0.566336 -0.06866,-0.06866 0.921648,-0.293485 2.200688,-0.499607 2.977789,-0.479878 6.542221,-1.76112 9.292944,-3.340371 3.180553,-1.826022 12.100573,-10.917379 16.699712,-17.02048 0.663145,-0.88 1.691213,-2.176 2.284595,-2.88 0.593382,-0.704 1.640189,-2 2.326237,-2.88 1.300883,-1.668653 5.256725,-8.525056 6.831155,-11.84 0.50155,-1.056 1.2034,-2.424 1.55968,-3.04 0.35628,-0.616 1.12825,-2.128 1.71548,-3.36 3.91352,-8.210497 4.38672,-10.33226 4.63862,-20.79907 l 0.1771,-7.359069 1.34112,-0.282414 c 2.55673,-0.538397 2.44627,-0.978434 2.22054,8.846219 -0.20924,9.107044 -0.35719,10.183558 -2.27523,16.554334 -0.29143,0.968 -0.74855,2.552 -1.01581,3.52 -0.38672,1.400656 -5.60279,12.326704 -6.87453,14.4 -0.16193,0.264 -0.5423,0.89608 -0.84526,1.404621 -0.30295,0.508544 -1.37883,1.982361 -2.39083,3.275155 -1.012,1.29279 -1.84,2.433715 -1.84,2.535382 0,0.198666 -4.068554,4.888231 -5.42105,6.248503 -0.450422,0.453011 -1.61095,1.865881 -2.57895,3.139712 -0.968,1.27383 -2.508605,3.223837 -3.423565,4.333347 -1.95103,2.365882 -6.752896,6.90328 -7.305645,6.90328 -0.210534,0 -0.942588,0.446026 -1.62679,0.991165 -0.684198,0.545142 -1.604,1.175232 -2.044,1.400198 -1.287386,0.658231 -5.298266,0.79056 -9.560685,0.315431 z"
       id="path70"
       inkscape:connector-curvature="0"
       sodipodi:nodetypes="cccccsscscsscssssssccccscsscsscssssscccccscccscsssscssccsscccccsssssccc" />
  </g>
</svg>
