<?xml version="1.0" encoding="UTF-8" standalone="no"?>
<!-- Created with Inkscape (http://www.inkscape.org/) -->

<svg
   xmlns:dc="http://purl.org/dc/elements/1.1/"
   xmlns:cc="http://creativecommons.org/ns#"
   xmlns:rdf="http://www.w3.org/1999/02/22-rdf-syntax-ns#"
   xmlns:svg="http://www.w3.org/2000/svg"
   xmlns="http://www.w3.org/2000/svg"
   xmlns:sodipodi="http://sodipodi.sourceforge.net/DTD/sodipodi-0.dtd"
   xmlns:inkscape="http://www.inkscape.org/namespaces/inkscape"
   version="1.1"
   id="svg10"
   width="453.44"
   height="602.23999"
   viewBox="0 0 453.44 602.23999"
   sodipodi:docname="TreeTrunk-Shadow.svg"
   inkscape:version="0.92.4 (5da689c313, 2019-01-14)">
  <metadata
     id="metadata16">
    <rdf:RDF>
      <cc:Work
         rdf:about="">
        <dc:format>image/svg+xml</dc:format>
        <dc:type
           rdf:resource="http://purl.org/dc/dcmitype/StillImage" />
        <dc:title></dc:title>
      </cc:Work>
    </rdf:RDF>
  </metadata>
  <defs
     id="defs14" />
  <sodipodi:namedview
     pagecolor="#ffffff"
     bordercolor="#666666"
     borderopacity="1"
     objecttolerance="10"
     gridtolerance="10"
     guidetolerance="10"
     inkscape:pageopacity="0"
     inkscape:pageshadow="2"
     inkscape:window-width="1920"
     inkscape:window-height="1017"
     id="namedview12"
     showgrid="false"
     inkscape:zoom="1.4113975"
     inkscape:cx="226.72"
     inkscape:cy="301.12"
     inkscape:window-x="-8"
     inkscape:window-y="-8"
     inkscape:window-maximized="1"
     inkscape:current-layer="layer2" />
  <g
     id="g20"
     transform="translate(12.753317)" />
  <g
     inkscape:groupmode="layer"
     id="layer1"
     inkscape:label="Main"
     style="display:none">
    <path
       style="fill:#feb276;stroke-width:0.31999999"
       d="m 238.92346,601.8886 c -1.672,-0.13789 -4.768,-0.37757 -6.88,-0.53261 -3.63807,-0.26704 -8.10781,-1.29286 -10.92836,-2.5081 -0.5546,-0.23897 -1.18169,-0.43446 -1.39353,-0.43446 -0.34744,0 -1.99042,-0.77517 -4.15833,-1.96195 -0.44012,-0.24093 -2.35102,-1.94906 -4.24644,-3.79584 -3.89432,-3.7944 -4.10762,-4.22883 -3.90426,-7.95184 0.0736,-1.34771 0.20795,-4.44131 0.29853,-6.87469 0.0906,-2.43338 0.2326,-4.53424 0.31561,-4.66854 0.083,-0.13431 0.22838,-1.74336 0.32304,-3.57565 0.0947,-1.83232 0.25418,-4.48349 0.35447,-5.89149 0.10029,-1.408 0.18076,-3.496 0.17883,-4.64 -0.002,-1.144 0.14644,-3.016 0.32972,-4.16 0.18328,-1.144 0.38265,-3.952 0.44305,-6.24 0.0604,-2.288 0.19287,-6.248 0.29438,-8.8 0.10151,-2.552 0.19175,-4.856 0.20054,-5.12 0.009,-0.264 0.2351,-2.28 0.50289,-4.48 0.30692,-2.52141 0.47582,-6.48403 0.45694,-10.72 -0.0165,-3.696 -0.0292,-6.936 -0.0284,-7.2 9.6e-4,-0.264 0.0799,-1.704 0.17564,-3.2 0.0957,-1.496 0.24127,-5.60256 0.32347,-9.12569 0.0822,-3.52314 0.23067,-7.05114 0.32996,-7.84 0.0993,-0.78887 0.23999,-2.58631 0.31269,-3.99431 0.0727,-1.408 0.20817,-3.136 0.30105,-3.84 0.0929,-0.704 0.23681,-2.432 0.31984,-3.84 0.083,-1.408 0.21352,-3.064 0.28996,-3.68 0.40659,-3.27632 0.54227,-5.58067 0.69711,-11.84 0.0936,-3.784 0.2235,-8.176 0.28867,-9.76 0.37003,-8.99421 0.48941,-15.56787 0.46201,-25.44 -0.0169,-6.072 -0.0318,-11.976 -0.0332,-13.12 -0.001,-1.144 0.0727,-8.344 0.16475,-16 0.092,-7.656 0.18587,-15.936 0.20858,-18.4 0.0227,-2.464 0.19097,-5.75996 0.37394,-7.32441 0.33738,-2.88455 0.40538,-26.27184 0.0927,-31.87559 -0.0933,-1.672 -0.15536,-3.328 -0.13791,-3.68 0.0463,-0.93392 0.0336,-1.1486 -0.15136,-2.56 -0.0923,-0.704 -0.1608,-1.568 -0.15233,-1.92 0.008,-0.352 0.005,-0.856 -0.009,-1.12 -0.0132,-0.264 -0.0132,-0.768 0,-1.12 0.0132,-0.352 0.0132,-0.856 0,-1.12 -0.0132,-0.264 -0.0132,-0.768 0,-1.12 0.0132,-0.352 0.0132,-0.856 0,-1.12 -0.0132,-0.264 -0.0132,-0.768 0,-1.12 0.0132,-0.352 0.0132,-0.856 0,-1.12 -0.0132,-0.264 -0.0132,-0.768 0,-1.12 0.0132,-0.352 0.0132,-0.856 0,-1.12 -0.0132,-0.264 -0.0132,-0.768 0,-1.12 0.0132,-0.352 0.0132,-0.856 0,-1.12 -0.0132,-0.264 -0.0132,-0.768 0,-1.12 0.0132,-0.352 0.0132,-0.856 0,-1.12 -0.0132,-0.264 -0.0132,-0.768 0,-1.12 0.0132,-0.352 0.0151,-0.82 0.004,-1.04 -0.0109,-0.22 -0.0264,-0.58 -0.0345,-0.8 -0.008,-0.22 0.0672,-0.976 0.1673,-1.68 0.10005,-0.704 0.23639,-1.856 0.30297,-2.56 0.0666,-0.704 0.25737,-1.63345 0.42398,-2.06545 0.16661,-0.432 0.19679,-1.296 0.0671,-1.92 -0.12972,-0.624 -0.25612,-7.83055 -0.28088,-16.01454 -0.0456,-15.0788 -0.43061,-28.2678 -0.95276,-32.64 -0.3244,-2.71629 -0.89063,-5.65544 -1.17963,-6.12304 -0.10657,-0.17244 -0.24657,-0.6293 -0.31111,-1.01525 -0.34914,-2.08806 -3.19043,-8.53232 -3.97597,-9.01781 -0.1804,-0.11149 -0.62063,-0.80598 -0.97829,-1.54331 -0.35765,-0.73733 -0.92275,-1.77259 -1.25577,-2.30059 -0.33302,-0.528 -0.61601,-1.1479 -0.62887,-1.37756 -0.0882,-1.5749 -3.33002,-6.14244 -4.35959,-6.14244 -0.22808,0 -0.84253,-0.36 -1.36544,-0.8 -0.52291,-0.44 -1.02949,-0.8 -1.12573,-0.8 -0.0962,0 -0.81137,-0.62738 -1.58917,-1.39417 -0.7778,-0.76678 -1.75827,-1.48017 -2.17882,-1.5853 -5.29994,-1.32487 -14.29842,-4.73874 -15.00464,-5.69251 -0.088,-0.11885 -1.168,-0.76351 -2.4,-1.4326 -1.232,-0.66909 -2.816,-1.6723 -3.52,-2.22936 -0.704,-0.55707 -2.216,-1.47566 -3.36,-2.04132 -3.29473,-1.62912 -6.45441,-3.36667 -7.80466,-4.29188 -0.68456,-0.46907 -1.36602,-0.85286 -1.51436,-0.85286 -0.14834,0 -1.21759,-0.58017 -2.37611,-1.28927 -1.15853,-0.70909 -2.78107,-1.62821 -3.60564,-2.04249 -5.1517,-2.58827 -9.66797,-5.33535 -12.45678,-7.57703 -2.55129,-2.05076 -3.12298,-2.44144 -3.92245,-2.68051 -0.44,-0.13157 -1.448,-0.63444 -2.24,-1.11748 -0.792,-0.48305 -1.944,-1.07416 -2.56,-1.31358 -0.94939,-0.369 -2.84369,-1.38833 -4.8,-2.58293 -0.264,-0.1612 -1.2,-0.66758 -2.08,-1.12527 -0.88,-0.45769 -2.464,-1.31766 -3.52,-1.91104 -1.056,-0.59338 -2.64,-1.44781 -3.52,-1.89873 -0.88,-0.45093 -2.032,-1.09713 -2.56,-1.43602 -0.528,-0.33888 -1.248,-0.74536 -1.6,-0.90329 -0.352,-0.15792 -1.04215,-0.68984 -1.53367,-1.18205 -0.83797,-0.83915 -1.65785,-1.41027 -2.78633,-1.94093 -0.264,-0.12414 -1.04897,-0.66979 -1.74438,-1.21255 -1.26927,-0.99065 -2.16284,-1.57078 -3.05562,-1.98378 -0.264,-0.12212 -1.07066,-0.69593 -1.79258,-1.27511 -0.72191,-0.57918 -1.87391,-1.30896 -2.56,-1.62172 -0.68608,-0.31275 -1.77215,-0.9686 -2.41347,-1.45744 -0.64076,-0.48883 -1.300763,-0.88878 -1.466103,-0.88878 -0.16534,0 -0.79262,-0.47623 -1.39395,-1.05828 -0.60133,-0.58205 -1.66933,-1.50208 -2.37333,-2.04451 -0.704,-0.54243 -2.00779,-1.6862 -2.89732,-2.54172 -1.86781,-1.79641 -7.53077,-6.43615 -8.94268,-7.32686 -0.528,-0.33309 -1.62695,-1.1868 -2.4421,-1.89713 -0.81515,-0.71033 -2.83115,-1.99299 -4.48,-2.85036 -1.64885,-0.85738 -3.21459,-1.74774 -3.47944,-1.97859 -0.26484,-0.23084 -1.72423,-1.04867 -3.2431,-1.81739 -1.51886,-0.76872 -3.28463,-1.82236 -3.92393,-2.34142 -3.12108,-2.53409 -6.63483,-5.71245 -8.51302,-7.70045 -1.14488,-1.21181 -2.58488,-2.65012 -3.2,-3.19624 -0.61513,-0.54612 -1.76641,-1.765 -2.55841,-2.70861 -2.0857,-2.48497 -5.00681,-5.36459 -7.11956,-7.01844 -1.01176,-0.792 -2.73976,-2.283 -3.84,-3.31334 -1.10024,-1.03033 -2.72044,-2.41834 -3.60044,-3.08445 -1.80224,-1.36421 -4.32,-3.93861 -4.32,-4.41718 0,-0.17352 -0.684,-1.02303 -1.52,-1.8878 -0.836,-0.86477 -1.78084,-1.90038 -2.09964,-2.30136 -1.14796,-1.44388 -2.78036,-3.79674 -2.78036,-4.00747 0,-0.11834 -0.30645,-0.53314 -0.68099,-0.92178 -1.81624,-1.8846 -5.07901,-7.66848 -5.07901,-9.00352 0,-0.43899 -0.27401,-1.055784 -0.6089,-1.370638 -0.3349,-0.314858 -0.78254,-1.220468 -0.99477,-2.012468 -0.36705,-1.369776 -0.49361,-2.082665 -1.26192,-7.107948 -0.18062,-1.18137 -0.37946,-4.169946 -0.44187,-6.641274 l -0.11347,-4.493328 0.99046,-0.543142 c 0.86473,-0.474189 2.3514,-0.555648 11.71047,-0.641632 l 10.72,-0.09849 1.05992,0.922842 c 1.03754,0.90336 1.06546,0.996301 1.32265,4.402905 0.38655,5.120087 1.30058,6.667328 6.90698,11.691872 0.52275,0.468493 1.40689,1.404493 1.96475,2.08 0.55787,0.675507 1.52484,1.847795 2.14882,2.605082 1.51234,1.835449 2.72583,3.161889 3.81435,4.169379 0.49362,0.45687 1.12261,1.30511 1.39778,1.88498 0.27516,0.57986 0.8579,1.37705 1.29496,1.77153 0.43706,0.39448 1.05134,0.95251 1.36506,1.24007 0.31373,0.28757 1.45114,1.12093 2.52757,1.85193 1.07644,0.73099 1.95716,1.43704 1.95716,1.56899 0,0.13196 0.96202,0.79323 2.13783,1.4695 1.17582,0.67626 2.42697,1.49894 2.78034,1.82816 0.35338,0.32921 0.74907,0.59858 0.87931,0.59858 0.13024,0 0.45433,0.21752 0.72019,0.48339 0.26587,0.26586 1.89449,1.29809 3.61916,2.29385 1.72468,0.99575 3.39864,2.14463 3.71992,2.55307 0.32127,0.40844 1.34068,1.24479 2.26535,1.85855 0.92467,0.61376 2.1348,1.61437 2.68917,2.22359 0.55438,0.60922 1.52229,1.35173 2.15093,1.65004 0.62864,0.29831 1.82131,1.1379 2.65039,1.86576 0.82907,0.72786 1.93941,1.53403 2.46741,1.7915 0.528,0.25748 1.536,0.90286 2.24,1.43419 2.08261,1.57182 5.366193,3.35728 6.214233,3.37903 0.27817,0.007 1.29777,0.64677 2.26577,1.42142 0.968,0.77465 2.696,1.94628 3.84,2.60362 1.144,0.65733 2.224,1.36554 2.4,1.57379 0.60648,0.7176 5.70488,3.98309 7.2,4.61154 1.00699,0.42328 1.09013,0.47504 3.9459,2.45689 1.29994,0.90214 2.87638,1.8095 3.50321,2.01637 0.62684,0.20688 1.31285,0.58477 1.52447,0.83977 0.21163,0.25499 0.53326,0.46363 0.71472,0.46363 0.53809,0 3.8347,1.61601 4.8717,2.38812 0.528,0.39313 1.48848,0.888 2.1344,1.0997 0.64592,0.2117 1.33988,0.58429 1.54212,0.82798 0.20224,0.24368 0.7798,0.53357 1.28348,0.6442 0.50368,0.11062 1.08736,0.40788 1.29707,0.66057 0.20971,0.25268 0.52977,0.45943 0.71123,0.45943 0.59635,0 3.82288,1.64541 5.39925,2.75342 0.85024,0.59762 1.66976,1.08658 1.82116,1.08658 0.1514,0 0.87162,0.432 1.60051,0.96 0.72888,0.528 1.45106,0.96 1.60485,0.96 0.15379,0 0.64265,0.28556 1.08636,0.63458 1.00009,0.78667 3.88032,1.61234 6.67974,1.91486 1.21255,0.13104 2.58243,0.51021 3.2,0.88575 1.54266,0.93806 5.79388,2.6268 8.11983,3.2255 2.18857,0.56333 4.40835,1.27136 6.24,1.99031 0.968,0.37996 2.336,0.8275 3.04,0.99454 0.704,0.16705 1.856,0.45201 2.56,0.63326 1.34288,0.34574 4.56672,0.86207 10.72,1.71693 2.024,0.28118 4.616,0.72734 5.76,0.99146 1.55489,0.35899 3.60356,0.45625 8.11493,0.38526 l 6.03493,-0.095 1.40214,-1.59875 c 1.70552,-1.94468 2.70753,-4.42468 2.90854,-7.19874 0.0829,-1.144 0.36851,-2.656 0.6347,-3.36 0.56363,-1.49059 0.85377,-3.05111 2.32042,-12.48 0.3559,-2.288 0.79646,-4.664 0.97903,-5.28 0.32565,-1.09873 0.69549,-3.05685 1.29946,-6.88 0.66274,-4.19514 0.99827,-11.70622 0.59349,-13.28559 -0.3057,-1.19281 -0.3045,-1.9508 0.006,-3.55522 0.21681,-1.12156 0.51564,-4.22836 0.66407,-6.90401 0.14844,-2.67565 0.35844,-5.14383 0.46667,-5.48485 0.10824,-0.34102 0.33992,-2.11185 0.51486,-3.93518 0.17493,-1.82333 0.52991,-5.47515 0.78883,-8.115156 0.3753,-3.826563 0.50764,-13.268902 0.6526,-46.559999 0.10001,-22.967999 0.25858,-41.975999 0.35237,-42.24 0.0938,-0.264 0.24255,-1.919999 0.33057,-3.680002 0.11082,-2.21575 0.29308,-3.27599 0.5926,-3.44706 0.2379,-0.13588 0.62109,-0.43559 0.85152,-0.66602 1.052,-1.05201 7.2209,-1.83716 14.17263,-1.80383 10.83656,0.0519 18.95024,1.36606 19.92244,3.2267 0.31941,0.61129 0.36611,8.231382 0.22634,36.930212 -0.0969,19.888 -0.24988,40.84 -0.34004,46.56 -0.10165,6.44927 -0.0244,12.223414 0.20344,15.200005 0.44825,5.85681 0.40506,0.5207 0.34447,42.56 -0.0282,19.536 0.0881,39.624 0.25827,44.64 0.1702,5.016 0.38265,16.896 0.47211,26.4 0.25012,26.57265 1.00713,45.83489 2.10649,53.6 0.5759,4.06773 0.94441,7.23702 1.15345,9.92 0.29497,3.78585 0.65146,4.50653 2.73211,5.52309 3.57671,1.74752 5.44912,1.69055 9.35026,-0.2845 1.61186,-0.81604 3.82982,-1.74216 4.92879,-2.05803 1.09897,-0.31588 2.4172,-0.87273 2.9294,-1.23744 0.5122,-0.36472 1.12503,-0.66633 1.36187,-0.67024 0.23683,-0.004 0.7906,-0.28871 1.2306,-0.63288 0.44,-0.34418 1.0435,-0.62897 1.34111,-0.63289 0.29761,-0.004 0.61281,-0.12311 0.70043,-0.26488 0.0876,-0.14178 0.99611,-0.6586 2.01888,-1.14849 1.02277,-0.48989 2.14758,-1.04743 2.49958,-1.23898 0.352,-0.19155 0.928,-0.50523 1.28,-0.69706 0.352,-0.19183 1,-0.57886 1.44,-0.86006 0.44,-0.2812 1.52,-0.69913 2.4,-0.92874 0.88,-0.2296 1.94342,-0.68103 2.36315,-1.00318 0.41974,-0.32215 0.97302,-0.58572 1.22953,-0.58572 0.2565,0 0.8325,-0.288 1.28,-0.64 0.44749,-0.352 1.02349,-0.64 1.28,-0.64 0.2565,0 0.8325,-0.288 1.28,-0.64 0.44749,-0.352 1.04621,-0.64541 1.33047,-0.652 0.28427,-0.007 1.52485,-0.58182 2.75685,-1.27826 1.232,-0.69644 2.6,-1.44411 3.04,-1.66148 0.44,-0.21738 0.872,-0.48087 0.96,-0.58552 0.088,-0.10466 2.032,-1.10162 4.32,-2.21548 2.288,-1.11386 5.07471,-2.57917 6.1927,-3.25623 1.11799,-0.67707 2.14981,-1.23103 2.29294,-1.23103 0.34522,0 7.13701,-4.49595 10.84981,-7.18224 1.62397,-1.17497 3.19383,-2.22723 3.48861,-2.33834 0.29475,-0.11112 1.03994,-0.69165 1.65594,-1.29008 0.616,-0.59842 1.912,-1.44685 2.88,-1.88539 0.968,-0.43854 2.048,-1.05018 2.4,-1.3592 0.352,-0.30902 1.864,-1.2551 3.36,-2.10239 1.496,-0.84729 3.08,-1.81279 3.52,-2.14555 0.44,-0.33277 1.664,-1.17012 2.72,-1.86078 1.056,-0.69066 2.568,-1.84093 3.36,-2.55616 0.792,-0.71522 1.584,-1.43066 1.76,-1.58986 0.176,-0.15919 1.0224,-1.01857 1.88086,-1.90973 0.8585,-0.89116 1.7585,-1.62028 2,-1.62028 0.24154,0 0.43914,-0.144 0.43914,-0.32 0,-0.176 0.21309,-0.32 0.47353,-0.32 0.26042,0 0.90404,-0.756 1.43021,-1.68 0.52618,-0.924 1.14109,-1.93583 1.36647,-2.24851 0.44627,-0.61913 1.51929,-2.62026 2.35472,-4.39149 0.29056,-0.616 0.77955,-1.48 1.08665,-1.92 0.71648,-1.02652 2.20659,-4.95727 2.85072,-7.52 1.05072,-4.18021 1.34352,-5.97969 1.5264,-9.38108 l 0.20378,-3.78992 0.99376,-0.66635 c 1.30576,-0.87555 5.89965,-1.36419 12.7663,-1.35791 7.81923,0.007 14.19354,0.50959 15.39696,1.21363 0.97955,0.57305 0.99021,0.60756 0.96576,3.12054 -0.0591,6.07233 -0.38883,10.69786 -0.91104,12.78109 -0.30886,1.232 -0.68512,2.888 -0.83616,3.68 -0.79449,4.16615 -1.23257,5.77022 -1.70489,6.24253 -0.2872,0.28722 -0.60272,0.90815 -0.70116,1.37984 -0.62636,3.0018 -0.9888,3.99325 -2.57788,7.05195 -0.97316,1.87312 -2.17792,3.76568 -2.67725,4.20568 -0.4993,0.44 -1.00512,1.13118 -1.124,1.53596 -0.11888,0.40478 -0.69536,1.21518 -1.28106,1.80089 -0.58573,0.58571 -1.28038,1.48152 -1.54368,1.99069 -0.26329,0.50917 -0.83005,1.28277 -1.25945,1.71911 -0.42941,0.43634 -1.32509,1.51335 -1.99044,2.39335 -0.66531,0.88 -1.78732,2.104 -2.49337,2.72 -0.70605,0.616 -1.65975,1.53271 -2.1193,2.03714 -0.45958,0.50443 -1.55558,1.38119 -2.43558,1.94836 -0.88,0.56716 -3.04,2.49874 -4.8,4.29238 -3.05239,3.11073 -4.48871,4.20212 -5.53027,4.20212 -0.46583,0 -1.37108,0.68897 -4.64029,3.53161 -0.91818,0.7984 -2.31744,1.87101 -3.10944,2.38358 -0.792,0.51258 -2.25664,1.62335 -3.25472,2.46838 -0.99811,0.84504 -1.9192,1.53643 -2.04682,1.53643 -0.12765,0 -0.90233,0.612 -1.72153,1.36 -3.57383,3.26325 -6.80253,5.68 -7.58836,5.68 -1.07926,0 -2.57075,0.87518 -3.7664,2.21004 -0.53699,0.59953 -1.7839,1.47196 -2.77091,1.93874 -0.98701,0.46677 -2.19571,1.16425 -2.68605,1.54995 -0.49033,0.38569 -1.07046,0.70127 -1.28918,0.70127 -0.21872,0 -0.57302,0.21127 -0.78733,0.46949 -0.2143,0.25822 -1.34793,0.99831 -2.51917,1.64464 -1.17123,0.64633 -2.34553,1.354 -2.60953,1.5726 -0.264,0.2186 -1.416,0.87035 -2.56,1.44834 -1.144,0.57799 -2.296,1.22165 -2.56,1.43037 -0.264,0.20871 -1.12499,0.72487 -1.9133,1.14701 -0.78831,0.42215 -1.77907,1.17062 -2.20168,1.66328 -0.42262,0.49265 -1.50563,1.26767 -2.40671,1.72226 -0.90107,0.45459 -2.11132,1.23951 -2.68945,1.74427 -0.57812,0.50475 -1.20533,0.91774 -1.3938,0.91774 -0.18847,0 -0.77051,0.36 -1.29342,0.8 -0.52291,0.44 -1.14753,0.79999 -1.38805,0.79999 -0.24052,0 -0.63736,0.28562 -0.88186,0.63471 -0.24452,0.34908 -1.51268,1.15005 -2.81815,1.77993 -1.30547,0.62987 -2.64805,1.29551 -2.9835,1.47918 -0.33545,0.18368 -1.63145,0.82953 -2.88,1.43524 -1.24855,0.60571 -2.55808,1.26574 -2.91008,1.46674 -0.352,0.20101 -1.144,0.6349 -1.76,0.96421 -1.76935,0.94588 -2.21637,1.23171 -5.44022,3.47855 -1.67188,1.1652 -3.52201,2.36425 -4.11139,2.66456 -0.58938,0.3003 -2.49025,1.93896 -4.22416,3.64145 -1.7339,1.70247 -3.97,3.74343 -4.96912,4.53543 -2.37309,1.88116 -4.58147,4.31888 -6.45914,7.12996 -0.83379,1.24825 -1.76587,2.63865 -2.0713,3.08979 -1.09408,1.616 -2.11898,4.08729 -3.42318,8.25417 -1.21707,3.88845 -1.32856,4.54119 -1.36652,8 -0.0799,7.28541 0.13586,15.60983 0.41356,15.95239 0.1544,0.19049 0.35767,4.51049 0.45171,9.6 0.22453,12.15197 0.75692,21.65497 1.32798,23.70403 0.25296,0.90768 0.6086,4.00368 0.79029,6.88 0.1817,2.87632 0.47642,7.24566 0.65495,9.70966 0.17852,2.464 0.36359,6.28823 0.41126,8.49824 0.0477,2.21005 0.24028,4.30528 0.42804,4.65613 0.32818,0.61322 0.71475,8.79434 0.74684,15.80563 0.0135,2.95898 0.95938,12.22899 1.86106,18.24 0.4435,2.95658 0.97411,9.19165 1.32076,15.52 0.3182,5.80883 0.39069,6.99418 0.92963,15.2 0.19073,2.904 0.39874,6.18695 0.46226,7.29546 0.0756,1.32013 0.30408,2.22387 0.66218,2.61955 0.39715,0.43885 0.62133,1.53642 0.8195,4.01235 0.15003,1.87453 0.40641,3.57575 0.56972,3.78045 0.16331,0.2047 0.39614,2.82019 0.51741,5.81219 0.12127,2.992 0.2983,6.736 0.3934,8.32 0.0951,1.584 0.16387,3.888 0.15283,5.12 -0.011,1.232 0.18379,3.104 0.43296,4.16 0.24917,1.056 0.62127,4.656 0.82689,8 0.59261,9.63789 0.60899,9.76608 1.40717,11.01392 0.65365,1.02189 0.75414,1.67635 0.92722,6.03904 0.10677,2.69114 0.40966,6.57914 0.67309,8.64 0.52134,4.0785 0.72582,5.7569 1.12171,9.20691 0.14262,1.24291 0.41675,2.82691 0.60918,3.52 0.52419,1.88803 0.42463,3.69943 -0.26554,4.8313 -1.22714,2.01251 -3.3202,3.86998 -4.80977,4.26838 -0.78581,0.21018 -1.77722,0.65626 -2.20315,0.9913 -0.42593,0.33504 -0.98023,0.60915 -1.23177,0.60915 -0.25155,0 -1.24439,0.36 -2.20633,0.8 -0.96194,0.44 -1.85271,0.8032 -1.9795,0.8071 -0.12678,0.004 -0.59051,0.28874 -1.03051,0.6329 -0.44,0.34416 -0.97755,0.62896 -1.19455,0.6329 -0.217,0.004 -1.657,0.60246 -3.2,1.33014 -1.543,0.72768 -3.30945,1.54086 -3.92545,1.8071 -0.616,0.26621 -1.37371,0.60912 -1.68381,0.76202 -1.3843,0.68259 -3.49113,1.21843 -6.15619,1.56579 -1.584,0.20647 -3.10864,0.49543 -3.38807,0.64218 -0.61793,0.32451 -11.24836,1.28246 -13.34794,1.20285 -0.8272,-0.0314 -2.87199,-0.16989 -4.54399,-0.30781 z m 1.28,-57.69629 c 0,-0.0776 -0.144,-0.23011 -0.32,-0.33888 -0.176,-0.10877 -0.32,-0.0453 -0.32,0.14112 0,0.18637 0.144,0.33888 0.32,0.33888 0.176,0 0.32,-0.0635 0.32,-0.14112 z"
       id="path24"
       inkscape:connector-curvature="0" />
  </g>
  <g
     inkscape:groupmode="layer"
     id="layer2"
     inkscape:label="Shadow">
    <path
       style="fill:#cf7f7e;stroke-width:0.31999999"
       d="m 238.67295,601.87512 c -1.672,-0.13789 -4.768,-0.37757 -6.88,-0.53261 -3.63807,-0.26704 -8.10781,-1.29286 -10.92836,-2.5081 -0.5546,-0.23897 -1.18169,-0.43446 -1.39353,-0.43446 -0.34744,0 -1.99042,-0.77517 -4.15833,-1.96195 -0.44012,-0.24093 -2.35102,-1.94906 -4.24644,-3.79584 -3.89432,-3.7944 -4.10762,-4.22883 -3.90426,-7.95184 0.0736,-1.34771 0.20795,-4.44131 0.29853,-6.87469 0.0906,-2.43338 0.2326,-4.53424 0.31561,-4.66854 0.083,-0.13431 0.22838,-1.74336 0.32304,-3.57565 0.0947,-1.83232 0.25418,-4.48349 0.35447,-5.89149 0.10029,-1.408 0.18076,-3.496 0.17883,-4.64 -0.002,-1.144 0.14644,-3.016 0.32972,-4.16 0.18328,-1.144 0.38265,-3.952 0.44305,-6.24 0.0604,-2.288 0.19287,-6.248 0.29438,-8.8 0.10151,-2.552 0.19175,-4.856 0.20054,-5.12 0.009,-0.264 0.2351,-2.28 0.50289,-4.48 0.30692,-2.52141 0.47582,-6.48403 0.45694,-10.72 -0.0165,-3.696 -0.0292,-6.936 -0.0284,-7.2 9.6e-4,-0.264 0.0799,-1.704 0.17564,-3.2 0.0957,-1.496 0.24127,-5.60256 0.32347,-9.12569 0.0822,-3.52314 0.23067,-7.05114 0.32996,-7.84 0.0993,-0.78887 0.23999,-2.58631 0.31269,-3.99431 0.0727,-1.408 0.20817,-3.136 0.30105,-3.84 0.0929,-0.704 0.23681,-2.432 0.31984,-3.84 0.083,-1.408 0.21352,-3.064 0.28996,-3.68 0.40659,-3.27632 0.54227,-5.58067 0.69711,-11.84 0.0936,-3.784 0.2235,-8.176 0.28867,-9.76 0.37003,-8.99421 0.48941,-15.56787 0.46201,-25.44 -0.0169,-6.072 -0.0318,-11.976 -0.0332,-13.12 -0.001,-1.144 0.0727,-8.344 0.16475,-16 0.092,-7.656 0.18587,-15.936 0.20858,-18.4 0.0227,-2.464 0.19097,-5.75996 0.37394,-7.32441 0.33738,-2.88455 0.40538,-26.27184 0.0927,-31.87559 -0.0933,-1.672 -0.15536,-3.328 -0.13791,-3.68 0.0463,-0.93392 0.0336,-1.1486 -0.15136,-2.56 -0.0923,-0.704 -0.1608,-1.568 -0.15233,-1.92 0.008,-0.352 0.005,-0.856 -0.009,-1.12 -0.0132,-0.264 -0.0132,-0.768 0,-1.12 0.0132,-0.352 0.0132,-0.856 0,-1.12 -0.0132,-0.264 -0.0132,-0.768 0,-1.12 0.0132,-0.352 0.0132,-0.856 0,-1.12 -0.0132,-0.264 -0.0132,-0.768 0,-1.12 0.0132,-0.352 0.0132,-0.856 0,-1.12 -0.0132,-0.264 -0.0132,-0.768 0,-1.12 0.0132,-0.352 0.0132,-0.856 0,-1.12 -0.0132,-0.264 -0.0132,-0.768 0,-1.12 0.0132,-0.352 0.0132,-0.856 0,-1.12 -0.0132,-0.264 -0.0132,-0.768 0,-1.12 0.0132,-0.352 0.0132,-0.856 0,-1.12 -0.0132,-0.264 -0.0132,-0.768 0,-1.12 0.0132,-0.352 0.0151,-0.82 0.004,-1.04 -0.0109,-0.22 -0.0264,-0.58 -0.0345,-0.8 -0.008,-0.22 0.0672,-0.976 0.1673,-1.68 0.10005,-0.704 0.23639,-1.856 0.30297,-2.56 0.0666,-0.704 0.25737,-1.63345 0.42398,-2.06545 0.16661,-0.432 0.19679,-1.296 0.0671,-1.92 -0.12972,-0.624 -0.25612,-7.83055 -0.28088,-16.01454 -0.0456,-15.0788 -0.43061,-28.2678 -0.95276,-32.64 -0.3244,-2.71629 -0.89063,-5.65544 -1.17963,-6.12304 -0.10657,-0.17244 -0.24657,-0.6293 -0.31111,-1.01525 -0.34914,-2.08806 -3.19043,-8.53232 -3.97597,-9.01781 -0.1804,-0.11149 -0.62063,-0.80598 -0.97829,-1.54331 -0.35765,-0.73733 -0.92275,-1.77259 -1.25577,-2.30059 -0.33302,-0.528 -0.61601,-1.1479 -0.62887,-1.37756 -0.0882,-1.5749 -3.33002,-6.14244 -4.35959,-6.14244 -0.22808,0 -0.84253,-0.36 -1.36544,-0.8 -0.52291,-0.44 -1.02949,-0.8 -1.12573,-0.8 -0.0962,0 -0.81137,-0.62738 -1.58917,-1.39417 -0.7778,-0.76678 -1.75827,-1.48017 -2.17882,-1.5853 -5.29994,-1.32487 -14.29842,-4.73874 -15.00464,-5.69251 -0.088,-0.11885 -1.168,-0.76351 -2.4,-1.4326 -1.232,-0.66909 -2.816,-1.6723 -3.52,-2.22936 -0.704,-0.55707 -2.216,-1.47566 -3.36,-2.04132 -3.29473,-1.62912 -6.45441,-3.36667 -7.80466,-4.29188 -0.68456,-0.46907 -1.36602,-0.85286 -1.51436,-0.85286 -0.14834,0 -1.21759,-0.58017 -2.37611,-1.28927 -1.15853,-0.70909 -2.78107,-1.62821 -3.60564,-2.04249 -5.1517,-2.58827 -9.66797,-5.33535 -12.45678,-7.57703 -2.55129,-2.05076 -3.12298,-2.44144 -3.92245,-2.68051 -0.44,-0.13157 -1.448,-0.63444 -2.24,-1.11748 -0.792,-0.48305 -1.944,-1.07416 -2.56,-1.31358 -0.94939,-0.369 -2.84369,-1.38833 -4.8,-2.58293 -0.264,-0.1612 -1.2,-0.66758 -2.08,-1.12527 -0.88,-0.45769 -2.464,-1.31766 -3.52,-1.91104 -1.056,-0.59338 -2.64,-1.44781 -3.52,-1.89873 -0.88,-0.45093 -2.032,-1.09713 -2.56,-1.43602 -0.528,-0.33888 -1.24801,-0.74536 -1.60001,-0.90329 -0.352,-0.15792 -1.04215,-0.68984 -1.53367,-1.18205 -0.83797,-0.83915 -1.65785,-1.41027 -2.78633,-1.94093 -0.264,-0.12414 -1.04897,-0.66979 -1.74437,-1.21255 -1.26927,-0.99065 -2.16284,-1.57078 -3.05563,-1.98378 -0.264,-0.12212 -1.07065,-0.69593 -1.79257,-1.27511 -0.72191,-0.57918 -1.87391,-1.30896 -2.56,-1.62172 -0.68608,-0.31275 -1.77215,-0.9686 -2.41347,-1.45744 -0.64076,-0.48883 -1.30076,-0.88878 -1.4661,-0.88878 -0.16534,0 -0.79262,-0.47623 -1.39395,-1.05828 -0.60134,-0.58205 -1.66934,-1.50208 -2.37334,-2.04451 -0.704,-0.54243 -2.00779,-1.6862 -2.89731,-2.54172 -1.86782,-1.79641 -7.53078,-6.43615 -8.94269,-7.32686 -0.528,-0.33309 -1.62694,-1.1868 -2.44209,-1.89713 -0.81515,-0.71033 -2.83115,-1.99299 -4.48,-2.85036 -1.648851,-0.85738 -3.214595,-1.74774 -3.47944,-1.97859 -0.264841,-0.23084 -1.724237,-1.04867 -3.243104,-1.81739 -1.518864,-0.76872 -3.28463,-1.82236 -3.923926,-2.34142 -3.121082,-2.53409 -6.634832,-5.71245 -8.513027,-7.70045 -1.144874,-1.21181 -2.584874,-2.65012 -3.2,-3.19624 -0.615127,-0.54612 -1.76641,-1.765 -2.55841,-2.70861 -2.085699,-2.48497 -5.006806,-5.36459 -7.11956,-7.01844 -1.011758,-0.792 -2.739758,-2.283 -3.84,-3.31334 -1.100242,-1.03033 -2.72044,-2.41834 -3.60044,-3.08445 -1.802233,-1.36421 -4.32,-3.93861 -4.32,-4.41718 0,-0.17352 -0.684,-1.02303 -1.52,-1.8878 -0.836,-0.86477 -1.780836,-1.90038 -2.099636,-2.30136 -1.147958,-1.44388 -2.780364,-3.79674 -2.780364,-4.00747 0,-0.11834 -0.306445,-0.53314 -0.680989,-0.92178 -1.816242,-1.8846 -5.079011,-7.66848 -5.079011,-9.00352 0,-0.43899 -0.274005,-1.055779 -0.6089,-1.370633 -0.334895,-0.314858 -0.782539,-1.220468 -0.994766,-2.012468 -0.367048,-1.369776 -0.493612,-2.082665 -1.26192,-7.107948 -0.180619,-1.18137 -0.379459,-4.169946 -0.441869,-6.641274 l -0.113472,-4.493328 0.990464,-0.502355 c 0.63504,-0.32209 2.282309,-0.568358 4.590463,-0.686281 l 3.6,-0.18392 0.002,7.327555 c 0.0015,5.472991 0.109724,7.534022 0.427711,8.143343 0.234156,0.448682 0.512134,1.34818 0.617727,1.998877 0.216186,1.332192 2.01093,4.410058 3.404778,5.838962 0.507732,0.5205 1.789062,1.66637 2.8474,2.54637 1.058338,0.88 2.093544,1.98438 2.300458,2.45418 0.375407,0.85236 2.03173,2.54291 3.410954,3.48144 0.400588,0.27259 2.525482,2.25259 4.721988,4.4 2.196491,2.14741 4.086011,3.90438 4.198917,3.90438 0.112909,0 1.77767,1.62 3.699472,3.6 1.921805,1.98 4.650208,4.788 6.063123,6.24 1.412912,1.452 2.779658,2.64 3.03721,2.64 0.257552,0 0.468278,0.1091 0.468278,0.24245 0,0.3309 4.951437,4.52176 6.548861,5.54289 0.710125,0.45394 1.496173,1.07487 1.746771,1.37983 0.39863,0.4851 2.900678,2.30418 4.449338,3.23483 0.292876,0.176 1.037072,0.68 1.653766,1.12 0.616695,0.44 1.625265,1.07973 2.241265,1.42162 0.616,0.34189 2.2,1.50695 3.52,2.58902 1.32,1.08208 3.4497,2.58615 4.73267,3.34238 1.28297,0.75624 2.53061,1.65756 2.77252,2.00295 0.43661,0.62334 2.24638,1.9711 4.93601,3.67589 0.77066,0.48848 1.96121,1.34689 2.64567,1.90758 0.68446,0.5607 2.06993,1.39417 3.0788,1.85216 1.00888,0.45799 2.05033,0.97305 2.31433,1.14459 0.264,0.17153 1.128,0.6047 1.92,0.96258 2.39113,1.0805 3.60923,1.72015 5.12,2.68861 1.57179,1.00757 4.28766,2.51233 7.04,3.90059 0.96801,0.48824 2.69601,1.47866 3.84001,2.20091 1.144,0.72225 2.8,1.76656 3.68,2.32068 0.88,0.55412 2.53778,1.48632 3.68395,2.07155 2.34012,1.19486 7.58169,4.28438 8.31605,4.9017 0.264,0.22193 1.128,0.6591 1.92,0.97149 0.792,0.31239 2.10584,1.03275 2.91964,1.60078 0.8138,0.56803 2.6138,1.5023 4,2.07615 1.3862,0.57385 2.88036,1.27535 3.32036,1.55889 2.11166,1.36077 3.95576,2.26111 7.2,3.51525 3.50553,1.35515 5.10553,2.00011 6.56,2.64435 1.8855,0.83515 3.52525,1.53531 4.32,1.8446 2.54208,0.98928 3.58268,1.45692 4,1.79758 0.48854,0.3988 5.2644,2.42329 6.72,2.84862 0.44,0.12857 1.251,0.57141 1.80223,0.9841 0.55124,0.41269 1.63124,1.00088 2.4,1.3071 1.24253,0.49493 3.42252,1.72842 5.97985,3.38352 0.47186,0.30539 1.14592,0.70105 1.49792,0.87924 0.352,0.1782 0.856,0.4662 1.12,0.64002 0.97953,0.64493 4.86017,2.25579 6.11172,2.537 0.71175,0.15991 1.53578,0.49741 1.83118,0.74999 0.29541,0.25257 1.16908,0.70439 1.9415,1.00404 0.77242,0.29965 1.99642,0.9446 2.72,1.43323 0.72358,0.48864 2.1796,1.22895 3.2356,1.64514 4.38648,1.72882 7.31471,4.28595 8.60684,7.5161 1.66485,4.16189 2.70124,6.10177 4.47886,8.38343 0.63486,0.81488 1.1543,1.71716 1.1543,2.00508 0,0.28792 0.12259,0.66029 0.27242,0.82749 0.14983,0.1672 0.51337,1.24 0.80786,2.384 0.2945,1.144 0.80419,2.656 1.13265,3.36 0.32846,0.704 1.03572,3.224 1.57169,5.6 0.53597,2.376 1.21936,5.4 1.51865,6.72 0.29929,1.32 0.64863,2.544 0.77632,2.72 0.12769,0.176 0.33338,0.752 0.45709,1.28 0.1237,0.528 0.57884,1.71401 1.0114,2.63558 0.50687,1.07986 0.95282,2.9367 1.25433,5.22266 0.25731,1.95089 0.54227,3.66752 0.63324,3.81471 0.26643,0.43109 0.26659,8.32248 3e-4,14.72705 -0.28768,6.91898 -0.30303,14.68984 -0.0458,23.19999 0.22516,7.45031 0.2264,11.10838 0.005,14.24 -0.18486,2.61263 -0.26947,15.68215 -0.1261,19.47786 0.049,1.29683 0.27222,3.05216 0.49606,3.90074 0.22385,0.84854 0.34236,1.60748 0.26335,1.68649 -0.079,0.079 -0.15735,0.98768 -0.17411,2.01927 -0.0168,1.03161 -0.17458,2.06064 -0.35072,2.28678 -0.41069,0.52723 -0.52302,2.57952 -0.67807,12.38886 -0.0767,4.84948 0.0121,8.94516 0.22526,10.4 0.19345,1.32 0.38439,6 0.42431,10.4 0.10125,11.15812 0.3321,16.02199 0.8615,18.15082 0.25041,1.00694 0.3893,1.8968 0.30865,1.97744 -0.0806,0.0806 0.0961,1.2008 0.3928,2.48918 0.29669,1.28842 0.57854,3.58397 0.62635,5.10122 0.0478,1.51728 0.19313,2.93053 0.32296,3.14061 0.12982,0.21005 0.29497,1.63264 0.367,3.16131 0.239,5.07274 0.42154,7.88182 0.61729,9.49942 0.10649,0.88 0.25213,8.44 0.32364,16.8 0.0715,8.36 0.20242,16.136 0.29092,17.28 0.0885,1.144 0.22745,2.99027 0.30878,4.10282 0.14608,1.99853 0.46224,4.76333 0.66519,5.81718 0.157,0.81527 0.49432,3.55591 0.65463,5.31882 0.39742,4.37024 0.53659,6.09942 0.5377,6.68118 6.4e-4,0.352 0.19552,1.864 0.43297,3.36 0.49303,3.10618 0.65452,10.28611 0.30589,13.6 -0.43103,4.09712 -0.24274,13.66199 0.31811,16.16 0.55042,2.45152 1.42675,8.00986 1.42858,9.06103 0.001,0.67158 0.14911,1.49571 0.32877,1.83139 0.57963,1.08307 0.99862,3.90461 1.09812,7.39497 0.0534,1.87405 0.19447,3.56487 0.31342,3.75735 0.25768,0.41689 0.39383,2.31094 0.65812,9.15526 0.10874,2.816 0.33077,6.06243 0.4934,7.21427 0.16264,1.15187 0.21285,2.80787 0.1116,3.68 -0.28793,2.47994 0.44929,18.61811 0.88795,19.43776 0.24759,0.46266 0.41365,3.08832 0.47987,7.58771 0.0557,3.78413 0.24742,9.28669 0.42607,12.22791 0.17864,2.94118 0.3248,6.07318 0.3248,6.96 0,1.47565 -0.0611,1.60752 -0.72,1.55533 -0.396,-0.0314 -2.088,-0.16989 -3.76,-0.30781 z m 1.28,-57.69629 c 0,-0.0776 -0.144,-0.23011 -0.32,-0.33888 -0.176,-0.10877 -0.32,-0.0453 -0.32,0.14112 0,0.18637 0.144,0.33888 0.32,0.33888 0.176,0 0.32,-0.0635 0.32,-0.14112 z m 30.24,-249.04446 c -1.40621,-0.74651 -3.02722,-2.57602 -3.75527,-4.23829 -0.61532,-1.4049 -0.94471,-5.82281 -0.46956,-6.29796 0.10514,-0.10514 0.66674,0.098 1.248,0.4515 1.164,0.70784 3.33452,1.1678 5.03623,1.06725 0.60466,-0.0357 2.40466,-0.7258 4,-1.5335 1.59533,-0.80769 3.79976,-1.72698 4.89873,-2.04285 1.09897,-0.31588 2.4172,-0.87273 2.9294,-1.23744 0.5122,-0.36472 1.12504,-0.66633 1.36187,-0.67024 0.23683,-0.004 0.7906,-0.28871 1.2306,-0.63288 0.44,-0.34418 1.0435,-0.62897 1.34111,-0.63289 0.29762,-0.004 0.61281,-0.12311 0.70043,-0.26488 0.0876,-0.14178 0.99612,-0.6586 2.01889,-1.14849 1.02276,-0.48989 2.14757,-1.04743 2.49957,-1.23898 0.352,-0.19155 0.928,-0.50523 1.28,-0.69706 0.352,-0.19183 1,-0.57886 1.44,-0.86006 0.44,-0.2812 1.52,-0.69913 2.4,-0.92874 0.88,-0.2296 1.94342,-0.68103 2.36316,-1.00318 0.41973,-0.32215 0.97302,-0.58572 1.22952,-0.58572 0.25651,0 0.83251,-0.288 1.28,-0.64 0.4475,-0.352 1.0235,-0.64 1.28,-0.64 0.25651,0 0.83251,-0.288 1.28,-0.64 0.4475,-0.352 1.04621,-0.64541 1.33048,-0.652 0.28426,-0.007 1.52484,-0.58182 2.75684,-1.27826 1.232,-0.69644 2.6,-1.44411 3.04,-1.66148 0.44,-0.21738 0.872,-0.48087 0.96,-0.58552 0.088,-0.10466 2.032,-1.10162 4.32,-2.21548 2.288,-1.11386 5.07472,-2.57917 6.1927,-3.25623 1.11799,-0.67707 2.14981,-1.23103 2.29294,-1.23103 0.34523,0 7.13702,-4.49595 10.84982,-7.18224 1.62396,-1.17497 3.19382,-2.22723 3.4886,-2.33834 0.29476,-0.11112 1.03994,-0.69165 1.65594,-1.29008 0.616,-0.59842 1.912,-1.44685 2.88,-1.88539 0.968,-0.43854 2.048,-1.05018 2.4,-1.3592 0.352,-0.30902 1.864,-1.2551 3.36,-2.10239 1.496,-0.84729 3.08,-1.81279 3.52,-2.14555 0.44,-0.33277 1.664,-1.17012 2.72,-1.86078 1.056,-0.69066 2.568,-1.84093 3.36,-2.55616 0.792,-0.71522 1.584,-1.43066 1.76,-1.58986 0.176,-0.15919 1.0224,-1.01857 1.88086,-1.90973 0.8585,-0.89116 1.7585,-1.62028 2,-1.62028 0.24154,0 0.43914,-0.144 0.43914,-0.32 0,-0.176 0.21309,-0.32 0.47354,-0.32 0.26041,0 0.90403,-0.756 1.4302,-1.68 0.52618,-0.924 1.14109,-1.93583 1.36647,-2.24851 0.44627,-0.61913 1.51929,-2.62026 2.35472,-4.39149 0.29056,-0.616 0.77955,-1.48 1.08665,-1.92 0.71648,-1.02652 2.2066,-4.95727 2.85072,-7.52 1.05072,-4.18021 1.34352,-5.97969 1.5264,-9.38108 l 0.20378,-3.78992 0.99376,-0.66635 c 0.7169,-0.48071 1.91104,-0.76334 4.2863,-1.0145 4.49485,-0.47528 4.22746,-0.52507 4.22746,0.78713 0,0.79992 0.23632,1.35429 0.8,1.87669 0.66541,0.61669 0.8,1.0358 0.8,2.49135 0,0.96247 -0.14083,2.52995 -0.31296,3.48331 -0.1721,0.95335 -0.61398,3.67737 -0.98195,6.05337 -0.36797,2.376 -0.96746,5.256 -1.33223,6.4 -1.08848,3.4138 -4.15132,9.11042 -5.13286,9.54666 -0.132,0.0587 -0.24,0.25388 -0.24,0.43381 0,0.17993 -0.36218,0.77993 -0.80483,1.33333 -1.19331,1.49189 -1.21978,1.5275 -2.29479,3.0862 -1.09308,1.5849 -5.29241,5.73964 -7.29596,7.21848 -0.70157,0.51783 -1.75037,1.40952 -2.33066,1.98152 -0.58032,0.572 -1.19555,1.04 -1.3672,1.04 -0.70349,0 -2.99891,2.00282 -4.64608,4.05386 -0.96563,1.20237 -2.18426,2.71645 -2.70806,3.36461 -0.52384,0.64817 -0.95242,1.38876 -0.95242,1.64577 0,0.257 -0.18832,0.53954 -0.41846,0.62786 -0.23018,0.0883 -1.70618,1.07995 -3.28,2.20361 -1.57386,1.12366 -4.12154,2.67166 -5.66154,3.44 -1.54,0.76833 -2.8,1.5159 -2.8,1.66125 0,0.14535 -0.77328,0.61798 -1.7184,1.05029 -0.94512,0.4323 -2.00586,1.15147 -2.35722,1.59815 -0.37424,0.47577 -1.17632,0.93292 -1.93651,1.10372 -0.71376,0.16037 -1.72723,0.59742 -2.25219,0.97122 -0.52496,0.37381 -1.07626,0.68054 -1.22509,0.68163 -0.14883,9.6e-4 -0.70259,0.23294 -1.23059,0.51524 -0.528,0.28231 -2.256,0.97109 -3.84,1.53064 -1.584,0.55954 -3.79018,1.62368 -4.90263,2.36475 -1.11245,0.74107 -2.13881,1.3474 -2.28082,1.3474 -0.142,0 -0.45378,0.23567 -0.69283,0.52372 -0.23906,0.28804 -1.03446,0.78083 -1.76756,1.09507 -0.73309,0.31424 -2.26269,1.15856 -3.39911,1.87627 -1.13641,0.71772 -2.21898,1.30494 -2.4057,1.30494 -0.18672,0 -0.74715,0.21407 -1.24542,0.47571 -1.48376,0.77915 -4.03864,1.84349 -5.06593,2.11043 -3.30758,0.85945 -4.59459,1.32889 -5.9453,2.16853 -0.83591,0.51963 -1.84804,1.04895 -2.24919,1.17627 -0.40115,0.12732 -1.40092,0.70352 -2.22172,1.28045 -2.52343,1.77368 -6.01495,3.33053 -7.50379,3.3459 -0.352,0.004 -1.576,0.65285 -2.72,1.44271 -1.144,0.78985 -2.27377,1.43697 -2.5106,1.43805 -0.23683,9.6e-4 -0.81283,0.26464 -1.28,0.58571 -1.36961,0.94129 -3.54378,1.97624 -4.15159,1.97624 -0.30937,0 -1.12738,0.288 -1.81781,0.64 -0.69043,0.352 -1.55607,0.64 -1.92366,0.64 -0.36759,0 -0.80514,0.12553 -0.97234,0.27897 -0.1672,0.15344 -1.6,0.36135 -3.184,0.46203 -2.28236,0.14506 -3.07922,0.0773 -3.84,-0.32659 z m -59.68,-118.32352 c 0,-0.11773 0.64525,-1.00617 1.43388,-1.9743 1.61873,-1.98716 2.72612,-5.02208 2.72612,-7.47122 0,-0.83997 0.22713,-2.07082 0.50474,-2.73523 0.57928,-1.38641 0.85133,-2.82946 2.35092,-12.47014 0.3559,-2.288 0.79646,-4.664 0.97903,-5.28 0.32565,-1.09873 0.69549,-3.05685 1.29946,-6.88 0.66274,-4.19514 0.99827,-11.70622 0.59349,-13.28559 -0.3057,-1.19281 -0.3045,-1.9508 0.006,-3.55522 0.21681,-1.12156 0.51564,-4.22836 0.66407,-6.90401 0.14844,-2.67565 0.35844,-5.14383 0.46667,-5.48485 0.10824,-0.34102 0.33992,-2.11185 0.51486,-3.93518 0.17493,-1.82333 0.52991,-5.47515 0.78883,-8.115151 0.3753,-3.826563 0.50764,-13.268902 0.6526,-46.559999 0.10001,-22.967999 0.25858,-41.976 0.35237,-42.24 0.0938,-0.264 0.24255,-1.9199999 0.33057,-3.6799999 0.11082,-2.2157574 0.29308,-3.2759899 0.5926,-3.4470607 0.2379,-0.1358833 0.62109,-0.435595 0.85152,-0.666026 0.5218,-0.5218006 1.55712,-0.7857344 5.21263,-1.32884982 2.71247,-0.40300534 4.78029,-0.57976385 5.95536,-0.50906893 0.76778,0.0461903 1.01207,6.40222595 0.43783,11.39100635 -0.2431,2.112 -0.59916,6.36 -0.79123,9.44 -0.8119,13.019043 -0.99006,15.23223 -1.27507,15.839999 -0.72522,1.546448 -1.58865,28.196022 -0.97389,30.058765 0.49423,1.49752 0.59363,9.548396 0.30309,24.546812 -0.19853,10.248103 -0.37098,13.757663 -0.74672,15.196533 -0.26872,1.02903 -0.63725,1.92052 -0.81897,1.98109 -0.20824,0.0694 -0.33039,1.94425 -0.33039,5.07125 0,2.72862 -0.21267,6.71262 -0.4726,8.85334 -0.25993,2.14071 -0.53861,4.6538 -0.61928,5.58463 -0.12919,1.49056 -0.4756,2.98447 -1.0545,4.54758 -0.0978,0.264 -0.22702,0.85217 -0.2872,1.30706 -0.0602,0.45488 -0.32838,1.24688 -0.59596,1.76 -0.26758,0.51311 -0.4874,1.31795 -0.48849,1.78852 -9.6e-4,0.47058 -0.1536,1.62258 -0.33892,2.56 -0.18532,0.93743 -0.53643,2.71242 -0.78025,3.94442 -0.24381,1.232 -0.5285,3.104 -0.63264,4.16 -0.10414,1.056 -0.39768,2.856 -0.65231,4 -0.25463,1.144 -0.68541,3.808 -0.95729,5.92 -0.63595,4.94007 -0.91524,6.23336 -2.34266,10.84799 -0.84918,2.74528 -1.41804,4.03475 -2.03841,4.62056 -0.47328,0.44692 -0.9453,1.15042 -1.04894,1.56333 -0.23803,0.94839 -1.21117,1.32048 -3.40339,1.30132 -0.94994,-0.008 -2.77116,0.0899 -4.04716,0.21833 -1.276,0.12838 -2.32,0.13709 -2.32,0.0194 z"
       id="path22"
       inkscape:connector-curvature="0" />
  </g>
</svg>
