<?xml version="1.0" encoding="UTF-8" standalone="no"?>
<!-- Created with Inkscape (http://www.inkscape.org/) -->

<svg
   xmlns:dc="http://purl.org/dc/elements/1.1/"
   xmlns:cc="http://creativecommons.org/ns#"
   xmlns:rdf="http://www.w3.org/1999/02/22-rdf-syntax-ns#"
   xmlns:svg="http://www.w3.org/2000/svg"
   xmlns="http://www.w3.org/2000/svg"
   xmlns:sodipodi="http://sodipodi.sourceforge.net/DTD/sodipodi-0.dtd"
   xmlns:inkscape="http://www.inkscape.org/namespaces/inkscape"
   version="1.1"
   id="svg10"
   width="334.07999"
   height="602.23999"
   viewBox="0 0 334.07999 602.23999"
   sodipodi:docname="TreeTrunk-Shadow.svg"
   inkscape:version="0.92.4 (5da689c313, 2019-01-14)">
  <metadata
     id="metadata16">
    <rdf:RDF>
      <cc:Work
         rdf:about="">
        <dc:format>image/svg+xml</dc:format>
        <dc:type
           rdf:resource="http://purl.org/dc/dcmitype/StillImage" />
        <dc:title></dc:title>
      </cc:Work>
    </rdf:RDF>
  </metadata>
  <defs
     id="defs14" />
  <sodipodi:namedview
     pagecolor="#ffffff"
     bordercolor="#666666"
     borderopacity="1"
     objecttolerance="10"
     gridtolerance="10"
     guidetolerance="10"
     inkscape:pageopacity="0"
     inkscape:pageshadow="2"
     inkscape:window-width="1920"
     inkscape:window-height="1017"
     id="namedview12"
     showgrid="false"
     inkscape:zoom="0.99800872"
     inkscape:cx="167.03999"
     inkscape:cy="189.11005"
     inkscape:window-x="-8"
     inkscape:window-y="-8"
     inkscape:window-maximized="1"
     inkscape:current-layer="layer1" />
  <g
     id="g20"
     transform="translate(-2.6838235e-7,0.70851802)" />
  <g
     inkscape:groupmode="layer"
     id="layer1"
     inkscape:label="Main"
     style="display:none">
    <path
       style="fill:#feb276;stroke-width:0.31999999"
       d="m 166.4,602.58369 c -1.672,-0.13789 -4.768,-0.37757 -6.88,-0.53261 -3.63808,-0.26704 -8.10781,-1.29286 -10.92837,-2.5081 -0.55459,-0.23897 -1.18168,-0.43446 -1.39352,-0.43446 -0.34745,0 -1.99043,-0.77517 -4.15834,-1.96195 -0.44012,-0.24093 -2.35101,-1.94906 -4.24643,-3.79584 -3.89433,-3.7944 -4.10763,-4.22883 -3.90427,-7.95184 0.0736,-1.34771 0.20795,-4.44131 0.29854,-6.87469 0.0906,-2.43338 0.2326,-4.53424 0.31561,-4.66854 0.083,-0.13431 0.22837,-1.74336 0.32304,-3.57565 0.0947,-1.83232 0.25417,-4.48349 0.35447,-5.89149 0.10029,-1.408 0.18076,-3.496 0.17883,-4.64 -0.002,-1.144 0.14644,-3.016 0.32972,-4.16 0.18328,-1.144 0.38265,-3.952 0.44305,-6.24 0.0604,-2.288 0.19287,-6.248 0.29438,-8.8 0.1015,-2.552 0.19175,-4.856 0.20054,-5.12 0.009,-0.264 0.23509,-2.28 0.50289,-4.48 0.30692,-2.52141 0.47582,-6.48403 0.45693,-10.72 -0.0165,-3.696 -0.0293,-6.936 -0.0284,-7.2 9.6e-4,-0.264 0.0799,-1.704 0.17563,-3.2 0.0957,-1.496 0.24128,-5.60256 0.32347,-9.12569 0.0822,-3.52314 0.23068,-7.05114 0.32996,-7.84 0.0993,-0.78887 0.24,-2.58631 0.3127,-3.99431 0.0727,-1.408 0.20816,-3.136 0.30104,-3.84 0.0929,-0.704 0.23681,-2.432 0.31985,-3.84 0.083,-1.408 0.21351,-3.064 0.28996,-3.68 0.40659,-3.27632 0.54227,-5.58067 0.6971,-11.84 0.0936,-3.784 0.22351,-8.176 0.28868,-9.76 0.37003,-8.99421 0.48941,-15.56787 0.46201,-25.44 -0.0169,-6.072 -0.0318,-11.976 -0.0332,-13.12 -0.001,-1.144 0.0727,-8.344 0.16474,-16 0.092,-7.656 0.18588,-15.936 0.20858,-18.4 0.0227,-2.464 0.19098,-5.75996 0.37395,-7.32441 0.33737,-2.88455 0.40537,-26.27184 0.0927,-31.87559 -0.0933,-1.672 -0.15536,-3.328 -0.13792,-3.68 0.0463,-0.93392 0.0336,-1.1486 -0.15136,-2.56 -0.0923,-0.704 -0.1608,-1.568 -0.15233,-1.92 0.008,-0.352 0.005,-0.856 -0.009,-1.12 -0.0132,-0.264 -0.0132,-0.768 0,-1.12 0.0132,-0.352 0.0132,-0.856 0,-1.12 -0.0132,-0.264 -0.0132,-0.768 0,-1.12 0.0132,-0.352 0.0132,-0.856 0,-1.12 -0.0132,-0.264 -0.0132,-0.768 0,-1.12 0.0132,-0.352 0.0132,-0.856 0,-1.12 -0.0132,-0.264 -0.0132,-0.768 0,-1.12 0.0132,-0.352 0.0132,-0.856 0,-1.12 -0.0132,-0.264 -0.0132,-0.768 0,-1.12 0.0132,-0.352 0.0132,-0.856 0,-1.12 -0.0132,-0.264 -0.0132,-0.768 0,-1.12 0.0132,-0.352 0.0132,-0.856 0,-1.12 -0.0132,-0.264 -0.0132,-0.768 0,-1.12 0.0132,-0.352 0.0151,-0.82 0.004,-1.04 -0.0109,-0.22 -0.0264,-0.58 -0.0345,-0.8 -0.008,-0.22 0.0672,-0.976 0.16729,-1.68 0.10006,-0.704 0.2364,-1.856 0.30297,-2.56 0.0666,-0.704 0.25737,-1.63345 0.42399,-2.06545 0.16661,-0.432 0.19443,-1.296 0.0618,-1.92 -0.13261,-0.624 -0.25938,-13.59054 -0.28171,-28.81454 -0.0223,-15.224 -0.0565,-29.048 -0.076,-30.72 -0.0195,-1.672 0.0737,-5.272 0.20707,-8 0.24879,-5.08964 0.22533,-30.55019 -0.0355,-38.56 -0.30507,-9.36703 -0.44667,-11.30362 -1.0861,-14.85511 -0.66494,-3.69317 -0.95456,-4.44185 -2.73062,-7.05877 -0.5398,-0.79537 -1.31627,-2.11999 -1.72548,-2.9436 -0.40921,-0.82362 -1.3366,-2.19162 -2.06086,-3.04 -0.72426,-0.84839 -1.8198,-2.30523 -2.43452,-3.23744 -0.75244,-1.14104 -1.66668,-2.01143 -2.79768,-2.66348 -0.924,-0.53272 -1.68,-1.08315 -1.68,-1.22318 0,-0.14004 -0.864,-0.79633 -1.92,-1.45842 -1.056,-0.6621 -1.92,-1.29621 -1.92,-1.40914 0,-0.11293 -0.4863,-0.46721 -1.08066,-0.7873 -0.59436,-0.32008 -1.51171,-0.96483 -2.03856,-1.43277 -0.52682,-0.46794 -2.29835,-2.00279 -3.9367,-3.41079 -3.57803,-3.07496 -7.03951,-6.22186 -8.78406,-7.98579 -1.38172,-1.39706 -1.94964,-1.80735 -3.68341,-2.66105 -1.19038,-0.58614 -5.805873,-3.57459 -6.076593,-3.93448 -0.088,-0.11699 -0.756976,-0.51532 -1.486614,-0.88517 -0.729639,-0.36985 -1.521639,-0.86511 -1.76,-1.10058 -0.238362,-0.23547 -1.369386,-1.05698 -2.513386,-1.82558 -1.144,-0.7686 -2.872,-1.99139 -3.84,-2.71731 -1.660542,-1.24572 -6.155044,-4.01004 -6.519303,-4.01004 -0.09241,0 -0.787232,-0.41231 -1.544055,-0.91624 -0.756822,-0.50393 -2.637251,-1.52763 -4.178726,-2.2749 -1.541478,-0.74727 -2.876739,-1.47849 -2.967248,-1.62494 -0.09051,-0.14644 -0.845302,-0.59271 -1.677315,-0.99169 -0.832013,-0.39898 -1.765744,-0.93467 -2.074957,-1.19042 -0.649459,-0.53716 -1.195037,-0.85825 -3.330576,-1.96014 -0.850969,-0.43909 -2.108825,-1.19509 -2.795232,-1.68 -0.686406,-0.48492 -1.424774,-0.88167 -1.640816,-0.88167 -0.216044,0 -0.590438,-0.23984 -0.83199,-0.53297 -0.468966,-0.56912 -0.864637,-0.84306 -10.061299,-6.96572 -1.039853,-0.69228 -2.171085,-1.51997 -2.513856,-1.83931 -0.342768,-0.31934 -1.424397,-0.88003 -2.403619,-1.24599 -0.979222,-0.36596 -2.932406,-1.42717 -4.340406,-2.35826 -1.408,-0.93109 -3.994794,-2.43753 -5.748432,-3.34765 -1.753638,-0.91012 -3.420976,-1.86522 -3.705197,-2.12243 -0.284221,-0.25722 -0.667795,-0.46767 -0.852387,-0.46767 -0.184589,0 -0.520517,-0.22279 -0.746502,-0.49509 -0.225986,-0.27229 -1.164878,-0.85178 -2.086426,-1.28774 -0.921548,-0.43596 -1.851915,-1.00517 -2.067481,-1.26491 -0.215567,-0.25975 -0.565206,-0.47226 -0.776977,-0.47226 -0.21177,0 -0.723239,-0.36 -1.136598,-0.8 -0.413358,-0.44 -0.864065,-0.8 -1.001569,-0.8 -0.137505,0 -0.796404,-0.37442 -1.46422,-0.83204 -0.667816,-0.45761 -1.502211,-0.96902 -1.854211,-1.13646 -0.352,-0.16744 -1.216,-0.65599 -1.92,-1.08567 -0.704,-0.42969 -1.712,-0.98776 -2.24,-1.24016 -1.306896,-0.62475 -5.818217,-5.34963 -7.357391,-7.70567 -0.68987,-1.056 -1.817881,-2.568 -2.506689,-3.36 -0.688808,-0.792 -1.410971,-1.8 -1.604806,-2.24 C 5.133695,80.814 3.209132,78.02587 2.727078,77.75246 2.304952,77.51303 1.621615,74.88899 0.996904,71.10853 0.404935,67.5262 0.295521,66.26951 0.195797,61.90731 l -0.09696,-4.24122 0.99058,-0.5432 C 1.954283,56.64863 3.44047,56.56719 12.799998,56.4812 l 10.719999,-0.0985 1.05992,0.92284 c 1.038179,0.90392 1.06523,0.99422 1.318836,4.40291 0.225563,3.03176 0.391616,3.7274 1.289025,5.40007 1.160566,2.16315 2.625467,3.81726 4.972219,5.6144 0.88,0.67391 2.392,1.96596 3.36,2.87122 0.968,0.90526 2.170291,1.86142 2.671753,2.12479 0.882532,0.46351 3.217828,2.72783 4.528247,4.39062 0.551149,0.69935 8.524415,5.95897 9.033439,5.95897 0.100448,0 1.305047,0.72 2.676887,1.6 1.371843,0.88 2.587353,1.59999 2.701136,1.59999 0.113782,0 1.66975,0.91198 3.457705,2.02662 1.787959,1.11464 3.473162,2.10673 3.744896,2.20466 0.413498,0.149 3.33841,2.02351 6.998547,4.4852 0.455062,0.30606 1.043389,0.65672 1.307389,0.77924 0.264,0.12253 1.344,0.74767 2.4,1.38922 2.490822,1.51324 7.547987,4.15507 7.953913,4.15507 0.173632,0 0.54303,0.19041 0.82089,0.42314 0.277859,0.23273 1.153196,0.62539 1.945196,0.87257 0.792,0.24719 2.16,0.82818 3.04,1.29109 0.88,0.46291 2.176,1.02743 2.88,1.2545 0.704,0.22706 1.781376,0.6794 2.394167,1.00518 0.612793,0.32579 1.57966,0.67967 2.148598,0.7864 0.568938,0.10674 1.201197,0.395 1.405017,0.64059 0.203821,0.24559 0.623319,0.44653 0.932218,0.44653 0.308899,0 0.740899,0.216 0.96,0.48 0.219101,0.264 0.658455,0.48 0.976325,0.48 0.31788,0 0.79396,0.216 1.05796,0.48 0.264,0.264 0.63481,0.48 0.82402,0.48 0.18921,0 0.88136,0.288 1.53812,0.64 0.65675,0.352 1.37824,0.64 1.60331,0.64 0.22506,0 2.67519,1.09843 5.44474,2.44095 2.76954,1.34253 5.46753,2.62418 5.99553,2.84811 2.08885,0.88592 3.54246,1.53717 4,1.79212 0.264,0.14711 1.272,0.64584 2.24,1.10831 0.968,0.46246 1.976,0.97191 2.24,1.1321 0.264,0.1602 0.984,0.52056 1.6,0.8008 0.616,0.28025 1.192,0.61128 1.28,0.73564 0.088,0.12436 0.88,0.54722 1.76,0.93969 0.88,0.39248 2.00767,0.92255 2.50593,1.17794 0.49826,0.25538 1.09998,0.46434 1.33714,0.46434 0.23717,0 0.6215,0.18746 0.85407,0.41659 0.4918,0.48452 3.19022,1.82341 3.67492,1.82341 0.18151,0 0.66208,0.288 1.06794,0.64 0.40586,0.352 0.90985,0.64 1.12,0.64 0.21014,0 0.71414,0.288 1.12,0.64 0.50007,0.43371 1.19723,0.64 2.1629,0.64 2.29515,0 2.94302,-1.14445 3.62304,-6.4 0.1708,-1.32 0.46151,-3.264 0.64604,-4.32 0.18452,-1.056 0.45694,-4.10917 0.60537,-6.78482 0.14843,-2.67565 0.35843,-5.14383 0.46667,-5.48485 0.10823,-0.34102 0.33992,-2.11185 0.51486,-3.93518 0.17493,-1.82333 0.52991,-5.47515 0.78883,-8.11516 0.37529,-3.82656 0.50764,-13.2689 0.6526,-46.55999 0.10001,-22.968003 0.25858,-41.976004 0.35237,-42.240004 0.0938,-0.264 0.24255,-1.92 0.33057,-3.68 0.11082,-2.215757 0.29308,-3.27599 0.5926,-3.447061 0.2379,-0.135883 0.62109,-0.435595 0.85152,-0.666026 1.052,-1.052002 7.2209,-1.837151 14.17262,-1.803826 10.83657,0.05195 18.95024,1.366063 19.92245,3.2267 0.31941,0.611289 0.36611,8.231383 0.22634,36.930217 -0.0969,19.888 -0.24988,40.84 -0.34004,46.56 -0.10165,6.44927 -0.0244,12.22341 0.20344,15.2 0.4448,5.81176 0.40595,0.29474 0.29978,42.57017 -0.0662,26.34989 0.006,35.70814 0.2794,36.21896 0.25923,0.48437 0.37032,4.28016 0.37432,12.78983 0.003,6.65557 0.15153,13.39704 0.32979,14.98104 0.17826,1.584 0.51128,4.68 0.74004,6.88 0.22876,2.2 0.5787,4.30397 0.77765,4.67549 0.40834,0.76257 3.17562,2.21403 4.86683,2.55269 2.18719,0.43798 3.52733,0.16013 6.50935,-1.34959 1.61186,-0.81604 3.82981,-1.74216 4.92879,-2.05803 1.09896,-0.31588 2.41719,-0.87273 2.92939,-1.23744 0.5122,-0.36472 1.12504,-0.66633 1.36187,-0.67024 0.23683,-0.004 0.7906,-0.28871 1.2306,-0.63288 0.44,-0.34418 1.0435,-0.62897 1.34112,-0.63289 0.29761,-0.004 0.6128,-0.12311 0.70042,-0.26488 0.0876,-0.14178 0.99612,-0.6586 2.01889,-1.14849 1.02276,-0.48989 2.14757,-1.04743 2.49957,-1.23898 0.352,-0.19155 0.928,-0.50522 1.28,-0.69706 0.352,-0.19183 1,-0.57886 1.44,-0.86006 0.44,-0.2812 1.52,-0.69913 2.4,-0.92873 0.88,-0.22961 1.94342,-0.68104 2.36316,-1.00319 0.41973,-0.32215 0.97302,-0.58572 1.22952,-0.58572 0.25651,0 0.83251,-0.288 1.28,-0.64 0.4475,-0.352 1.0235,-0.64 1.28,-0.64 0.25651,0 0.83251,-0.288 1.28,-0.64 0.4475,-0.352 1.04621,-0.64541 1.33048,-0.652 0.28426,-0.007 1.52484,-0.58182 2.75684,-1.27826 1.232,-0.69643 2.6,-1.4441 3.04,-1.66148 0.44,-0.21738 0.872,-0.48086 0.96,-0.58552 0.088,-0.10466 2.032,-1.10162 4.32,-2.21548 2.288,-1.11386 5.07472,-2.57916 6.19271,-3.25623 1.11799,-0.67707 2.1498,-1.23103 2.29293,-1.23103 0.34523,0 7.137,-4.49595 10.84981,-7.18224 1.62397,-1.17497 3.19384,-2.22723 3.48861,-2.33834 0.29477,-0.11112 1.03994,-0.69165 1.65594,-1.29008 0.616,-0.59842 1.912,-1.44685 2.88,-1.88539 0.968,-0.43854 2.048,-1.05018 2.4,-1.3592 0.352,-0.30902 1.864,-1.2551 3.36,-2.10238 1.496,-0.84729 3.08,-1.8128 3.52,-2.14556 0.44,-0.33276 1.664,-1.17012 2.72,-1.86077 1.056,-0.69067 2.568,-1.84094 3.36,-2.55617 0.792,-0.71522 1.584,-1.43066 1.76,-1.58986 0.176,-0.15919 1.02239,-1.01857 1.88087,-1.90973 0.85848,-0.89116 1.75848,-1.62028 2,-1.62028 0.24152,0 0.43913,-0.144 0.43913,-0.32 0,-0.176 0.21309,-0.32 0.47353,-0.32 0.26044,0 0.90404,-0.756 1.43022,-1.68 0.52618,-0.924 1.14109,-1.93583 1.36647,-2.24851 0.44627,-0.61913 1.51927,-2.62026 2.35472,-4.39149 0.29055,-0.616 0.77954,-1.48 1.08665,-1.92 0.71648,-1.02652 2.20658,-4.95727 2.85073,-7.52 1.0507,-4.18021 1.3435,-5.97969 1.52639,-9.38107 l 0.20378,-3.78993 0.99376,-0.66635 c 1.30574,-0.87555 5.89964,-1.36419 12.7663,-1.35791 7.81923,0.007 14.19353,0.50959 15.39695,1.21363 0.97956,0.57305 0.99021,0.60756 0.96576,3.12054 -0.0591,6.07233 -0.38883,10.69786 -0.91104,12.78109 -0.30886,1.232 -0.68512,2.888 -0.83616,3.68 -0.79449,4.16615 -1.23257,5.77022 -1.70489,6.24253 -0.2872,0.28722 -0.60272,0.90815 -0.70115,1.37984 -0.62637,3.0018 -0.9888,3.99326 -2.57789,7.05195 -0.97315,1.87312 -2.17792,3.76568 -2.67725,4.20568 -0.4993,0.44 -1.00512,1.13118 -1.124,1.53596 -0.11888,0.40478 -0.69536,1.21518 -1.28106,1.80089 -0.58572,0.58571 -1.28038,1.48152 -1.54368,1.99069 -0.26329,0.50917 -0.83005,1.28277 -1.25945,1.71911 -0.42941,0.43634 -1.3251,1.51335 -1.99042,2.39335 -0.66532,0.88 -1.78735,2.104 -2.49339,2.72 -0.70605,0.616 -1.65973,1.53271 -2.1193,2.03714 -0.45957,0.50443 -1.55558,1.3812 -2.43558,1.94836 -0.88,0.56716 -3.04,2.49874 -4.8,4.29238 -3.05237,3.11073 -4.48871,4.20212 -5.53026,4.20212 -0.46583,0 -1.37109,0.68897 -4.6403,3.53162 -0.91819,0.79839 -2.31744,1.871 -3.10944,2.38357 -0.792,0.51258 -2.25663,1.62335 -3.25473,2.46838 -0.99811,0.84504 -1.91917,1.53643 -2.04682,1.53643 -0.12764,0 -0.90232,0.612 -1.72151,1.36 -3.57383,3.26325 -6.80255,5.68 -7.58835,5.68 -1.07926,0 -2.57077,0.87518 -3.76641,2.21004 -0.537,0.59953 -1.78391,1.47196 -2.77091,1.93874 -0.987,0.46677 -2.19573,1.16425 -2.68606,1.54995 -0.49033,0.3857 -1.07047,0.70127 -1.28918,0.70127 -0.21872,0 -0.573,0.21127 -0.78731,0.46949 -0.21431,0.25822 -1.34794,0.99831 -2.51918,1.64464 -1.17125,0.64633 -2.34554,1.354 -2.60954,1.5726 -0.264,0.2186 -1.416,0.87035 -2.56,1.44834 -1.144,0.57799 -2.296,1.22165 -2.56,1.43037 -0.264,0.20871 -1.12498,0.72487 -1.91329,1.14701 -0.78832,0.42215 -1.77908,1.17062 -2.20169,1.66328 -0.42261,0.49265 -1.50563,1.26767 -2.4067,1.72226 -0.90108,0.45459 -2.11133,1.23951 -2.68945,1.74427 -0.57812,0.50475 -1.20534,0.91774 -1.39381,0.91774 -0.18847,0 -0.7705,0.36 -1.29342,0.8 -0.5229,0.44 -1.14753,0.8 -1.38804,0.8 -0.24052,0 -0.63736,0.28561 -0.88187,0.6347 -0.24451,0.34908 -1.51267,1.15005 -2.81815,1.77993 -1.30547,0.62987 -2.64804,1.29551 -2.98349,1.47918 -0.33546,0.18368 -1.63146,0.82953 -2.88,1.43524 -1.24855,0.60571 -2.55809,1.26574 -2.91009,1.46674 -0.352,0.20101 -1.144,0.6349 -1.76,0.96421 -1.76934,0.94588 -2.21637,1.23171 -5.44022,3.47855 -1.67188,1.1652 -3.522,2.36425 -4.11138,2.66456 -0.58939,0.3003 -2.49026,1.93896 -4.22416,3.64145 -1.7339,1.70249 -3.97001,3.74344 -4.96912,4.53544 -2.37309,1.88115 -4.58147,4.31889 -6.45915,7.12995 -0.83378,1.24825 -1.76587,2.63866 -2.0713,3.0898 -1.09414,1.61609 -2.119,4.08738 -3.42353,8.25529 -1.31668,4.20673 -1.32682,4.27732 -1.51614,10.56 -0.23119,7.67177 0.47713,29.44163 1.65823,50.96495 0.2656,4.84 0.61218,11.176 0.77019,14.08 0.158,2.904 0.21059,6.53952 0.11686,8.07892 -0.11086,1.82083 -0.0465,2.94828 0.18428,3.22633 0.23227,0.27987 0.41372,3.62141 0.52568,9.68106 0.22454,12.15197 0.75693,21.65497 1.32799,23.70403 0.25296,0.90768 0.60859,4.00368 0.79029,6.88 0.18169,2.87632 0.47642,7.24566 0.65494,9.70966 0.17853,2.464 0.3636,6.28823 0.41126,8.49824 0.0477,2.21005 0.24029,4.30528 0.42804,4.65613 0.32818,0.61322 0.71476,8.79434 0.74685,15.80563 0.0135,2.95898 0.95938,12.22899 1.86105,18.24 0.4435,2.95658 0.97412,9.19165 1.32077,15.52 0.31819,5.80883 0.39069,6.99418 0.92963,15.2 0.19073,2.904 0.57587,5.3013 0.63938,6.40981 0.0779,2.79265 1.13502,5.4559 1.30455,7.51755 0.48017,3.31422 0.97043,6.82148 1.08714,9.59264 0.12127,2.992 0.2983,6.736 0.39339,8.32 0.0951,1.584 0.16388,3.888 0.15283,5.12 -0.011,1.232 0.18379,3.104 0.43297,4.16 0.24917,1.056 0.62127,4.656 0.82688,8 -0.23661,6.47776 1.72363,12.46198 1.89158,16.61014 0.10677,2.69114 0.85248,7.02196 1.11591,9.08282 0.52133,4.0785 0.72582,5.7569 1.12171,9.20691 0.14262,1.24291 0.41675,2.82691 0.60917,3.52 0.5242,1.88803 0.42464,3.69943 -0.26553,4.8313 -1.22715,2.01251 -3.32021,3.86998 -4.80977,4.26838 -0.78581,0.21018 -1.77723,0.65626 -2.20316,0.9913 -0.42593,0.33504 -0.98022,0.60915 -1.23177,0.60915 -0.25154,0 -1.24439,0.36 -2.20632,0.8 -0.96194,0.44 -1.85271,0.8032 -1.9795,0.8071 -0.12678,0.004 -0.59052,0.28874 -1.03052,0.6329 -0.44,0.34416 -0.97754,0.62896 -1.19455,0.6329 -0.217,0.004 -1.657,0.60246 -3.2,1.33014 -1.54299,0.72768 -3.30945,1.54086 -3.92545,1.8071 -0.616,0.26621 -1.37371,0.60912 -1.6838,0.76202 -1.38431,0.68259 -3.49113,1.21843 -6.1562,1.56579 -1.584,0.20647 -3.10863,0.49543 -3.38807,0.64218 -0.61793,0.32451 -11.24835,1.28246 -13.34793,1.20285 -0.8272,-0.0314 -2.872,-0.16989 -4.54399,-0.30781 z"
       id="path24"
       inkscape:connector-curvature="0"
       sodipodi:nodetypes="cccscsccccccssccccccccscccsccccsccccccssssssssssssscccccccsccscccccscsccscccscscssscscccscscssscscscscsccscssscssccsccsscscssssscsccsccsccccssssscsccccccsccscssscsccsccssccccsccscsccsscsccccccccscsccscscccssssscccsscscccsssssscccscccccccccccscccscsscsccssssccssscsscccccscscccccsccscccscscccccccccccsscccccccccccscssccscccccscc" />
  </g>
  <g
     inkscape:groupmode="layer"
     id="layer2"
     inkscape:label="Shadow"
     style="display:inline">
    <path
       style="fill:#cf7f7e;stroke-width:0.31999999"
       d="m 166.4,602.58368 c -1.672,-0.13789 -4.768,-0.37757 -6.88,-0.53261 -3.63808,-0.26704 -8.10781,-1.29286 -10.92837,-2.5081 -0.55459,-0.23897 -1.18168,-0.43446 -1.39352,-0.43446 -0.34745,0 -1.99043,-0.77517 -4.15834,-1.96195 -0.44012,-0.24093 -2.35101,-1.94906 -4.24643,-3.79584 -3.89433,-3.7944 -4.10763,-4.22883 -3.90427,-7.95184 0.0736,-1.34771 0.20795,-4.44131 0.29854,-6.87469 0.0906,-2.43338 0.2326,-4.53424 0.31561,-4.66854 0.083,-0.13431 0.22837,-1.74336 0.32304,-3.57565 0.0947,-1.83232 0.25417,-4.48349 0.35447,-5.89149 0.10029,-1.408 0.18076,-3.496 0.17883,-4.64 -0.002,-1.144 0.14644,-3.016 0.32972,-4.16 0.18328,-1.144 0.38265,-3.952 0.44305,-6.24 0.0604,-2.288 0.19287,-6.248 0.29438,-8.8 0.1015,-2.552 0.19175,-4.856 0.20054,-5.12 0.009,-0.264 0.23509,-2.28 0.50289,-4.48 0.30692,-2.52141 0.47582,-6.48403 0.45693,-10.72 -0.0165,-3.696 -0.0293,-6.936 -0.0284,-7.2 9.6e-4,-0.264 0.0799,-1.704 0.17563,-3.2 0.0957,-1.496 0.24128,-5.60256 0.32347,-9.12569 0.0822,-3.52314 0.23068,-7.05114 0.32996,-7.84 0.0993,-0.78887 0.24,-2.58631 0.3127,-3.99431 0.0727,-1.408 0.20816,-3.136 0.30104,-3.84 0.0929,-0.704 0.23681,-2.432 0.31985,-3.84 0.083,-1.408 0.21351,-3.064 0.28996,-3.68 0.40659,-3.27632 0.54227,-5.58067 0.6971,-11.84 0.0936,-3.784 0.22351,-8.176 0.28868,-9.76 0.37003,-8.99421 0.48941,-15.56787 0.46201,-25.44 -0.0169,-6.072 -0.0318,-11.976 -0.0332,-13.12 -0.001,-1.144 0.0727,-8.344 0.16474,-16 0.092,-7.656 0.18588,-15.936 0.20858,-18.4 0.0227,-2.464 0.19098,-5.75996 0.37395,-7.32441 0.33737,-2.88455 0.40537,-26.27184 0.0927,-31.87559 -0.0933,-1.672 -0.15536,-3.328 -0.13792,-3.68 0.0463,-0.93392 0.0336,-1.1486 -0.15136,-2.56 -0.0923,-0.704 -0.1608,-1.568 -0.15233,-1.92 0.008,-0.352 0.005,-0.856 -0.009,-1.12 -0.0132,-0.264 -0.0132,-0.768 0,-1.12 0.0132,-0.352 0.0132,-0.856 0,-1.12 -0.0132,-0.264 -0.0132,-0.768 0,-1.12 0.0132,-0.352 0.0132,-0.856 0,-1.12 -0.0132,-0.264 -0.0132,-0.768 0,-1.12 0.0132,-0.352 0.0132,-0.856 0,-1.12 -0.0132,-0.264 -0.0132,-0.768 0,-1.12 0.0132,-0.352 0.0132,-0.856 0,-1.12 -0.0132,-0.264 -0.0132,-0.768 0,-1.12 0.0132,-0.352 0.0132,-0.856 0,-1.12 -0.0132,-0.264 -0.0132,-0.768 0,-1.12 0.0132,-0.352 0.0132,-0.856 0,-1.12 -0.0132,-0.264 -0.0132,-0.768 0,-1.12 0.0132,-0.352 0.0151,-0.82 0.004,-1.04 -0.0109,-0.22 -0.0264,-0.58 -0.0345,-0.8 -0.008,-0.22 0.0672,-0.976 0.16729,-1.68 0.10006,-0.704 0.2364,-1.856 0.30297,-2.56 0.0666,-0.704 0.25737,-1.63345 0.42399,-2.06545 0.16661,-0.432 0.19443,-1.296 0.0618,-1.92 -0.13261,-0.624 -0.25938,-13.59054 -0.28171,-28.81454 -0.0223,-15.224 -0.0565,-29.048 -0.076,-30.72 -0.0195,-1.672 0.0737,-5.272 0.20707,-8 0.24879,-5.08964 0.22533,-30.55019 -0.0355,-38.56 -0.30507,-9.36703 -0.44667,-11.30362 -1.0861,-14.85511 -0.66494,-3.69317 -0.95456,-4.44185 -2.73062,-7.05877 -0.5398,-0.79537 -1.31627,-2.11999 -1.72548,-2.9436 -0.40921,-0.82362 -1.3366,-2.19162 -2.06086,-3.04 -0.72426,-0.84839 -1.8198,-2.30523 -2.43452,-3.23744 -0.75244,-1.14104 -1.66668,-2.01143 -2.79768,-2.66348 -0.924,-0.53272 -1.68,-1.08315 -1.68,-1.22318 0,-0.14004 -0.864,-0.79633 -1.92,-1.45842 -1.056,-0.6621 -1.92,-1.29621 -1.92,-1.40914 0,-0.11293 -0.4863,-0.46721 -1.08066,-0.7873 -0.59436,-0.32008 -1.51171,-0.96483 -2.03856,-1.43277 -0.52682,-0.46794 -2.29835,-2.00279 -3.9367,-3.41079 -3.57803,-3.07496 -7.03951,-6.22186 -8.78406,-7.98579 -1.38172,-1.39706 -1.94964,-1.80735 -3.68341,-2.66105 -1.19038,-0.58614 -5.80587,-3.57459 -6.07659,-3.93448 -0.088,-0.11699 -0.75698,-0.51532 -1.48662,-0.88517 -0.72963,-0.36985 -1.52163,-0.86511 -1.76,-1.10058 -0.23836,-0.23547 -1.36938,-1.05698 -2.51338,-1.82558 -1.144,-0.7686 -2.872,-1.99139 -3.84,-2.71731 -1.66054,-1.24572 -6.15505,-4.01004 -6.5193,-4.01004 -0.0924,0 -0.78724,-0.41231 -1.54406,-0.91624 -0.75682,-0.50393 -2.63725,-1.52763 -4.17873,-2.2749 -1.54147,-0.74727 -2.87673,-1.47849 -2.96724,-1.62494 -0.0905,-0.14644 -0.84531,-0.59271 -1.67732,-0.99169 -0.83201,-0.39898 -1.76574,-0.93467 -2.07496,-1.19042 -0.64945,-0.53716 -1.19503,-0.85825 -3.33057,-1.96014 -0.85097,-0.43909 -2.10883,-1.19509 -2.79523,-1.68 -0.68641,-0.48492 -1.42478,-0.88167 -1.64082,-0.88167 -0.21604,0 -0.59044,-0.23984 -0.83199,-0.53297 -0.46897,-0.56912 -0.86464,-0.84306 -10.061299,-6.96572 -1.039853,-0.69228 -2.171085,-1.51997 -2.513856,-1.83931 -0.342768,-0.31934 -1.424397,-0.88003 -2.403619,-1.24599 -0.979222,-0.36596 -2.932406,-1.42717 -4.340406,-2.35826 -1.408,-0.93109 -3.994794,-2.43753 -5.748432,-3.34765 -1.753638,-0.91012 -3.420976,-1.86522 -3.705197,-2.12243 -0.284221,-0.25722 -0.667795,-0.46767 -0.852387,-0.46767 -0.184589,0 -0.520517,-0.22279 -0.746502,-0.49509 -0.225986,-0.27229 -1.164878,-0.85178 -2.086426,-1.28774 -0.921548,-0.43596 -1.851915,-1.00517 -2.067481,-1.26491 -0.215567,-0.25975 -0.565206,-0.47226 -0.776977,-0.47226 -0.21177,0 -0.723239,-0.36 -1.136598,-0.8 -0.413358,-0.440002 -0.864065,-0.800002 -1.001569,-0.800002 -0.137505,0 -0.796404,-0.37442 -1.46422,-0.83204 -0.667816,-0.45761 -1.502211,-0.96902 -1.854211,-1.13646 -0.352,-0.16744 -1.216,-0.65599 -1.92,-1.08567 -0.704,-0.42969 -1.712,-0.98776 -2.24,-1.24016 -1.306896,-0.62475 -5.818217,-5.34962 -7.3573913,-7.70567 -0.68987,-1.056 -1.817881,-2.568 -2.506689,-3.36 -0.688808,-0.792 -1.410971,-1.8 -1.604806,-2.24 -0.517418,-1.17453 -2.441981,-3.96266 -2.924035,-4.23607 -0.422126,-0.23943 -1.105462,-2.86347 -1.73017397,-6.64393 -0.591969,-3.58233 -0.701383,-4.83902 -0.801107,-9.20122 l -0.09696,-4.24121 0.99057997,-0.50242 c 0.635172,-0.32216 2.28222,-0.56841 4.59058,-0.68634 l 3.6,-0.18392 0.002,7.32756 c 0.0015,5.47299 0.109724,7.53402 0.427711,8.14334 0.234157,0.44868 0.5142333,1.36111 0.6223923,2.02762 0.323224,1.99179 2.837955,5.66469 4.969967,7.2589 0.647877,0.48445 2.275537,1.93761 3.617021,3.22925 1.341484,1.29164 3.040445,2.70844 3.77547,3.14844 0.735024,0.44 2.277504,1.52 3.427733,2.4 3.707983,2.83684 6.896902,4.96283 7.757987,5.17207 0.461859,0.11223 2.063747,0.98216 3.559747,1.93317 1.496,0.95102 3.615923,2.26139 4.710944,2.91194 1.095018,0.650552 3.039018,1.939342 4.32,2.863982 3.850602,2.77944 4.677997,3.27071 10.009058,5.94294 2.816,1.41154 5.49785,2.86557 5.95967,3.23117 0.46182,0.3656 1.25382,0.90331 1.76,1.19491 0.50618,0.2916 1.78433,1.06817 2.84033,1.72571 3.39799,2.11583 7.91008,4.67446 11.48444,6.5124 4.16534,2.14182 4.50117,2.3347 5.25855,3.02012 0.32307,0.29237 0.69116,0.53159 0.81797,0.53159 0.18837,0 3.09238,2.23977 6.06599,4.67852 0.32283,0.26475 1.4987,1.03942 2.61305,1.72148 1.817,1.11212 2.63038,1.69512 3.79571,2.72056 0.20036,0.17631 1.01229,0.73799 1.80429,1.24818 0.792,0.5102 2.088002,1.45639 2.880002,2.10267 1.70504,1.39132 6.25124,4.16859 6.82369,4.16859 0.3928,0 1.07417,0.32945 4.13442,1.99906 0.83497,0.45554 2.27497,1.07494 3.2,1.37644 0.92504,0.30151 2.04189,0.73423 2.48189,0.9616 0.44,0.22738 1.448,0.68828 2.24,1.02423 0.792,0.33595 1.98489,0.85109 2.65086,1.14474 0.66597,0.29366 1.44536,0.53393 1.73198,0.53393 0.28662,0 1.2391,0.46072 2.11662,1.02382 0.87753,0.56311 1.99407,1.24711 2.48122,1.52 1.77372,0.99363 4.6805,3.39715 7.34815,6.07595 3.26565,3.2793 4.55683,4.84306 6.14533,7.44266 0.65679,1.07485 1.39093,2.18451 1.63143,2.46592 0.2405,0.2814 0.6565,1.15965 0.92445,1.95165 1.13531,3.35577 2.11128,5.68487 2.91378,6.95364 0.47089,0.7445 0.85618,1.44389 0.85618,1.55419 0,0.1103 0.576,0.92397 1.28,1.80816 0.704,0.88418 1.28,1.80675 1.28,2.05015 0,0.2434 0.1259,0.69259 0.27977,0.9982 0.15387,0.30561 0.58673,1.15279 0.9619,1.88261 1.384,2.6923 2.35646,5.82043 3.09951,9.97022 0.41925,2.34144 0.83497,4.37479 0.92382,4.51856 0.81734,1.32248 1.2491,4.62776 1.46619,11.22427 0.13032,3.96 0.39406,8.856 0.58607,10.88 0.81139,8.55245 1.01841,12.15868 1.19408,20.8 0.119,5.8531 0.34888,9.9544 0.64175,11.44935 0.36562,1.86625 0.45348,6.19243 0.44193,21.76 -0.0164,22.19645 0.24888,26.02361 2.63393,37.99064 0.7112,3.56851 1.40088,8.1697 1.55887,10.4 0.47723,6.73709 0.80352,9.07284 1.43051,10.24 0.57194,1.06471 0.60214,2.21031 0.61166,23.2 0.008,18.73226 -0.072,22.78352 -0.53081,26.72 -0.29746,2.552 -0.7704,7.232 -1.05099,10.4 -0.28059,3.168 -0.7183,7.056 -0.9727,8.64 -0.99486,6.1945 -1.15324,10.21716 -0.99535,25.28 0.17024,16.24183 0.19992,16.92941 0.77613,17.97898 0.25043,0.45613 0.38559,2.4015 0.38908,5.6 0.003,2.69555 0.21575,11.74102 0.4729,20.10102 0.71117,23.12026 1.39941,47.2024 1.61869,56.64 0.10836,4.664 0.24114,8.984 0.29505,9.6 0.0539,0.616 0.19343,3.496 0.31002,6.4 0.1166,2.904 0.34507,6.22243 0.5077,7.37427 0.16264,1.15187 0.21285,2.80787 0.11159,3.68 -0.28792,2.47994 0.4493,18.61811 0.88796,19.43776 0.24759,0.46266 0.41365,3.08832 0.47987,7.58771 0.0557,3.78413 0.24742,9.28669 0.42606,12.22791 0.17865,2.94118 0.32481,6.07318 0.32481,6.96 0,1.47565 -0.0611,1.60752 -0.72,1.55533 -0.396,-0.0314 -2.088,-0.16989 -3.76,-0.30781 z m 29.27999,-369.78075 c -1.4062,-0.74651 -3.02721,-2.57602 -3.75526,-4.23829 -0.61533,-1.40489 -0.94472,-5.82281 -0.46957,-6.29796 0.10514,-0.10514 0.66674,0.098 1.248,0.4515 1.16401,0.70784 3.33452,1.1678 5.03623,1.06725 0.60467,-0.0357 2.40467,-0.7258 4,-1.5335 1.59533,-0.80769 3.79976,-1.72698 4.89874,-2.04285 1.09896,-0.31588 2.41719,-0.87273 2.92939,-1.23744 0.5122,-0.36472 1.12504,-0.66633 1.36187,-0.67024 0.23683,-0.004 0.7906,-0.28871 1.2306,-0.63288 0.44,-0.34418 1.0435,-0.62897 1.34112,-0.63289 0.29761,-0.004 0.6128,-0.12311 0.70042,-0.26488 0.0876,-0.14178 0.99612,-0.6586 2.01889,-1.14849 1.02276,-0.48989 2.14757,-1.04743 2.49957,-1.23898 0.352,-0.19155 0.928,-0.50522 1.28,-0.69706 0.352,-0.19183 1,-0.57886 1.44,-0.86006 0.44,-0.2812 1.52,-0.69913 2.4,-0.92873 0.88,-0.22961 1.94342,-0.68104 2.36316,-1.00319 0.41973,-0.32215 0.97302,-0.58572 1.22952,-0.58572 0.25651,0 0.83251,-0.288 1.28,-0.64 0.4475,-0.352 1.0235,-0.64 1.28,-0.64 0.25651,0 0.83251,-0.288 1.28,-0.64 0.4475,-0.352 1.04621,-0.64541 1.33048,-0.652 0.28426,-0.007 1.52484,-0.58182 2.75684,-1.27826 1.232,-0.69643 2.6,-1.4441 3.04,-1.66148 0.44,-0.21738 0.872,-0.48086 0.96,-0.58552 0.088,-0.10466 2.032,-1.10162 4.32,-2.21548 2.288,-1.11386 5.07472,-2.57916 6.19271,-3.25623 1.11799,-0.67707 2.1498,-1.23103 2.29293,-1.23103 0.34523,0 7.137,-4.49595 10.84981,-7.18224 1.62397,-1.17497 3.19384,-2.22723 3.48861,-2.33834 0.29477,-0.11112 1.03994,-0.69165 1.65594,-1.29008 0.616,-0.59842 1.912,-1.44685 2.88,-1.88539 0.968,-0.43854 2.048,-1.05018 2.4,-1.3592 0.352,-0.30902 1.864,-1.2551 3.36,-2.10238 1.496,-0.84729 3.08,-1.8128 3.52,-2.14556 0.44,-0.33276 1.664,-1.17012 2.72,-1.86077 1.056,-0.69067 2.568,-1.84094 3.36,-2.55617 0.792,-0.71522 1.584,-1.43066 1.76,-1.58986 0.176,-0.15919 1.02239,-1.01857 1.88087,-1.90973 0.85848,-0.89116 1.75848,-1.62028 2,-1.62028 0.24152,0 0.43913,-0.144 0.43913,-0.32 0,-0.176 0.21309,-0.32 0.47353,-0.32 0.26044,0 0.90404,-0.756 1.43022,-1.68 0.52618,-0.924 1.14109,-1.93583 1.36647,-2.24851 0.44627,-0.61913 1.51927,-2.62026 2.35472,-4.39149 0.29055,-0.616 0.77954,-1.48 1.08665,-1.92 0.71648,-1.02652 2.20658,-4.95727 2.85073,-7.52 1.0507,-4.18021 1.3435,-5.97969 1.52639,-9.38107 l 0.20378,-3.78993 0.99376,-0.66635 c 0.7169,-0.48071 1.91102,-0.76334 4.2863,-1.0145 4.49483,-0.47528 4.22745,-0.52506 4.22745,0.78713 0,0.79992 0.23632,1.35429 0.8,1.87669 0.66542,0.61669 0.8,1.0358 0.8,2.49135 0,0.96247 -0.14083,2.52995 -0.31295,3.48331 -0.17212,0.95335 -0.614,3.67737 -0.98196,6.05337 -0.36796,2.376 -0.96746,5.256 -1.33222,6.4 -1.08848,3.41381 -4.15133,9.11042 -5.13287,9.54666 -0.132,0.0587 -0.24,0.25388 -0.24,0.43381 0,0.17993 -0.36217,0.77993 -0.80482,1.33333 -1.19332,1.49189 -1.2198,1.5275 -2.2948,3.0862 -1.09307,1.5849 -5.29241,5.73964 -7.29597,7.21848 -0.70157,0.51783 -1.75037,1.40952 -2.33066,1.98152 -0.5803,0.572 -1.19553,1.04 -1.36719,1.04 -0.7035,0 -2.99891,2.00283 -4.64608,4.05386 -0.96562,1.20237 -2.16059,2.69014 -2.65548,3.30614 -0.4949,0.616 -0.99596,1.50695 -1.11346,1.97989 -0.21737,0.87492 -3.92931,4.73804 -4.5539,4.73937 -0.1883,3.2e-4 -0.8363,0.44409 -1.44,0.98597 -2.17496,1.95223 -8.76929,5.12769 -11.57802,5.57533 -0.74779,0.11917 -1.89653,0.5638 -2.55276,0.98806 -0.65622,0.42426 -1.30422,0.77226 -1.44,0.77335 -0.13577,9.6e-4 -0.67886,0.23295 -1.20686,0.51525 -0.528,0.2823 -2.256,0.97108 -3.84,1.53063 -1.584,0.55954 -3.79018,1.62368 -4.90262,2.36475 -1.11245,0.74107 -2.13882,1.3474 -2.28082,1.3474 -0.14201,0 -0.45379,0.23567 -0.69284,0.52372 -0.23906,0.28804 -1.03446,0.78083 -1.76755,1.09507 -0.7331,0.31424 -2.2627,1.15856 -3.39911,1.87628 -1.13642,0.71771 -2.21899,1.30493 -2.4057,1.30493 -0.18672,0 -0.74716,0.21407 -1.24542,0.47571 -1.48377,0.77915 -4.03864,1.84349 -5.06594,2.11043 -3.30758,0.85945 -4.59459,1.32889 -5.94529,2.16853 -0.83591,0.51963 -1.84805,1.04896 -2.2492,1.17627 -0.40114,0.12732 -1.40091,0.70352 -2.22171,1.28045 -2.52344,1.77368 -6.01496,3.33053 -7.5038,3.3459 -0.352,0.004 -1.576,0.65285 -2.72,1.44271 -1.144,0.78985 -2.27377,1.43698 -2.5106,1.43805 -0.23683,9.6e-4 -0.81283,0.26464 -1.28,0.58571 -1.36961,0.94129 -3.54378,1.97624 -4.15159,1.97624 -0.30936,0 -1.12738,0.288 -1.81781,0.64 -0.69042,0.352 -1.55607,0.64 -1.92366,0.64 -0.36758,0 -0.80514,0.12554 -0.97234,0.27898 -0.1672,0.15343 -1.6,0.36134 -3.184,0.46202 -2.28235,0.14506 -3.07921,0.0773 -3.84,-0.32659 z M 150.4,138.35058 c -1.22854,-0.31055 -2.78086,-1.24212 -2.9936,-1.79652 -0.10513,-0.27397 -0.691,-0.79305 -1.30193,-1.1535 l -1.11079,-0.65539 0.86316,-0.96451 c 0.9284,-1.03742 1.20547,-1.97442 1.6891,-5.71214 0.1708,-1.32 0.46151,-3.264 0.64604,-4.32 0.18452,-1.056 0.45694,-4.10917 0.60537,-6.78482 0.14843,-2.67565 0.35843,-5.14383 0.46667,-5.48485 0.10823,-0.34102 0.33992,-2.11185 0.51486,-3.93518 0.17493,-1.82333 0.52991,-5.47515 0.78883,-8.115152 0.37529,-3.82657 0.50764,-13.26891 0.6526,-46.56 0.10001,-22.968 0.25858,-41.976 0.35237,-42.24 0.0938,-0.264 0.24255,-1.92 0.33057,-3.68 0.11082,-2.21576 0.29308,-3.27599 0.5926,-3.44706 0.2379,-0.13589 0.62109,-0.4356 0.85152,-0.66603 0.5218,-0.5218 1.55712,-0.78573 5.21263,-1.32885 2.71247,-0.403 4.78029,-0.57975998 5.95536,-0.50906998 0.76776,0.0462 1.01206,6.40222998 0.43782,11.39100998 -0.2431,2.112 -0.59916,6.36 -0.79124,9.44 -0.8119,13.01904 -0.99005,15.23223 -1.27507,15.84 -0.72521,1.54645 -1.58864,28.19602 -0.97388,30.05876 0.49116,1.48823 0.59301,9.512 0.309,24.34124 -0.24659,12.874722 -0.53449,16.346782 -1.42969,17.241982 -0.27028,0.27028 -0.43106,2.38847 -0.52684,6.94081 -0.0758,3.60351 -0.27128,6.76454 -0.43437,7.02452 -0.66854,1.06571 -1.41086,3.76706 -1.42065,5.16983 -0.006,0.82343 -0.20258,1.68928 -0.43741,1.92411 -0.23483,0.23483 -1.19383,1.93712 -2.13111,3.78286 -0.93727,1.84574 -1.91945,3.60789 -2.18263,3.91589 -0.48351,0.56588 -1.71489,0.67244 -3.25929,0.28206 z"
       id="path22"
       inkscape:connector-curvature="0"
       sodipodi:nodetypes="cccscsccccccssccccccccscccsccccsccccccssssssssssssscccccccsccscccccscsccscccscscssscscccscscssscscscscsccscssscssccscccsscssccccsccsscscccccscccscsccsccccscsssscscccccccccscsccsccccccccscccccsccccccccccscsccscscccssssscccsscscccsssssscccsccsssscsscscsccsccscccccsccscccsccsccccccscsccccccccccsccssccccsscccscscscsccc" />
  </g>
</svg>
