<?xml version="1.0" encoding="UTF-8" standalone="no"?>
<!-- Created with Inkscape (http://www.inkscape.org/) -->

<svg
   xmlns:dc="http://purl.org/dc/elements/1.1/"
   xmlns:cc="http://creativecommons.org/ns#"
   xmlns:rdf="http://www.w3.org/1999/02/22-rdf-syntax-ns#"
   xmlns:svg="http://www.w3.org/2000/svg"
   xmlns="http://www.w3.org/2000/svg"
   xmlns:sodipodi="http://sodipodi.sourceforge.net/DTD/sodipodi-0.dtd"
   xmlns:inkscape="http://www.inkscape.org/namespaces/inkscape"
   version="1.1"
   id="svg70"
   width="718.08002"
   height="517.44"
   viewBox="0 0 718.08002 517.44"
   sodipodi:docname="TreeCanopy2.svg"
   inkscape:version="0.92.4 (5da689c313, 2019-01-14)">
  <metadata
     id="metadata76">
    <rdf:RDF>
      <cc:Work
         rdf:about="">
        <dc:format>image/svg+xml</dc:format>
        <dc:type
           rdf:resource="http://purl.org/dc/dcmitype/StillImage" />
        <dc:title></dc:title>
      </cc:Work>
    </rdf:RDF>
  </metadata>
  <defs
     id="defs74" />
  <sodipodi:namedview
     pagecolor="#ffffff"
     bordercolor="#666666"
     borderopacity="1"
     objecttolerance="10"
     gridtolerance="10"
     guidetolerance="10"
     inkscape:pageopacity="0"
     inkscape:pageshadow="2"
     inkscape:window-width="1920"
     inkscape:window-height="1017"
     id="namedview72"
     showgrid="false"
     inkscape:zoom="0.79935381"
     inkscape:cx="323.91484"
     inkscape:cy="46.416482"
     inkscape:window-x="-8"
     inkscape:window-y="-8"
     inkscape:window-maximized="1"
     inkscape:current-layer="svg70" />
  <path
     style="fill:#90ad91;stroke-width:0.31999999"
     d="m 482.23653,517.37951 c -0.16883,-0.16882 -4.63158,-0.26502 -18.00816,-0.38813 -1.41869,-0.0131 -2.99524,-0.18181 -3.50344,-0.37503 -0.53145,-0.20206 -4.1935,-0.41443 -8.62057,-0.49993 -4.23312,-0.0818 -9.42458,-0.22536 -11.53658,-0.31908 -7.18355,-0.31881 -10.87667,-0.44528 -12.76893,-0.43724 -1.66416,0.007 -2.00687,-0.10503 -2.88,-0.94205 l -0.99107,-0.95009 -6.24,-0.12674 c -5.27689,-0.1072 -6.56101,-0.23208 -8.32,-0.809 -3.46134,-1.13529 -7.07158,-1.95404 -9.52102,-2.15926 -1.27654,-0.10698 -3.50855,-0.52986 -4.96,-0.93978 -1.45143,-0.40992 -4.00698,-0.82988 -5.67898,-0.93321 -5.6679,-0.35034 -10.67155,-2.36317 -14.80175,-5.95431 -0.41623,-0.36192 -1.79835,-1.15718 -3.07131,-1.76724 -1.27298,-0.61007 -2.94121,-1.54037 -3.7072,-2.06738 -2.06409,-1.42013 -5.30723,-4.83627 -6.56665,-6.91686 -0.6088,-1.00576 -2.0488,-2.77998 -3.2,-3.94269 -1.1512,-1.16272 -2.47056,-2.54605 -2.93193,-3.07406 -0.46135,-0.52799 -1.97335,-2.05698 -3.36001,-3.39775 -1.38661,-1.34077 -3.02515,-3.28314 -3.64115,-4.31642 -0.616,-1.03328 -1.99997,-2.74428 -3.07552,-3.80224 -1.07552,-1.05798 -2.52755,-2.85958 -3.22675,-4.00358 -1.32039,-2.16045 -2.97773,-5.97574 -2.97772,-6.85491 1e-5,-0.27815 -0.92826,-1.38368 -2.06282,-2.45675 -3.20759,-3.03372 -5.09041,-6.29256 -6.26765,-10.84834 -0.53635,-2.07551 -0.72669,-2.2263 -2.31856,-1.83683 -0.74303,0.18181 -1.52304,0.46452 -1.73338,0.62825 -0.23779,0.18516 -1.30851,0.15735 -2.83178,-0.0736 -1.34713,-0.20424 -2.83106,-0.26644 -3.29759,-0.13828 -0.78023,0.21424 -3.5236,0.30703 -15.88823,0.53709 -2.52469,0.047 -4.75933,0.23863 -5.12,0.43914 -0.44978,0.25001 -5.01513,0.33155 -15.35999,0.27427 -9.43603,-0.0523 -15.22444,0.0387 -16.12523,0.25357 -9.05982,3.93958 -18.13628,1.17821 -27.23478,1.26928 -4.75804,0.11101 -6.57254,0.27161 -7.64024,0.67632 -0.77014,0.29187 -2.13813,0.53325 -3.03999,0.53632 -0.90188,0.003 -2.61046,0.21125 -3.79689,0.46265 -1.6186,0.34301 -2.63715,0.37984 -4.07995,0.14749 -1.05756,-0.17033 -3.03887,-0.27342 -4.40289,-0.22909 -1.36402,0.0444 -3.49891,-0.10371 -4.74419,-0.32899 -1.65257,-0.29894 -2.79871,-0.32352 -4.24311,-0.0909 -1.26795,0.20418 -2.6389,0.21059 -3.81585,0.0179 -1.01028,-0.16548 -2.49801,-0.30169 -3.30604,-0.30272 -0.80802,0 -2.17603,-0.22653 -3.04,-0.50112 -0.86397,-0.27456 -2.91583,-0.56445 -4.55968,-0.64416 -1.64387,-0.0797 -3.29987,-0.31878 -3.68,-0.53129 -0.40567,-0.22679 -2.27738,-0.41943 -4.53116,-0.4664 -2.11201,-0.044 -4.82567,-0.24359 -6.03035,-0.44349 -1.21553,-0.2017 -3.07205,-0.26903 -4.17148,-0.1513 -1.24617,0.13347 -2.33302,0.0747 -2.92966,-0.15841 -0.52169,-0.20377 -2.24452,-0.41624 -3.82853,-0.47212 -1.584,-0.0559 -3.816,-0.2544 -4.96,-0.44116 -1.144,-0.18674 -2.75896,-0.34242 -3.58881,-0.34597 -0.82985,-0.004 -2.18299,-0.23533 -3.00697,-0.51507 -0.83634,-0.28394 -2.88282,-0.55329 -4.63271,-0.6097 -1.72402,-0.0556 -3.31656,-0.21354 -3.53897,-0.35101 -0.37089,-0.22921 -3.40903,-0.4984 -10.99254,-0.97401 -1.584,-0.0993 -3.024,-0.29341 -3.2,-0.43127 -0.53355,-0.41789 -3.60547,-0.96537 -5.41667,-0.96537 -0.93784,0 -2.19075,-0.20013 -2.78425,-0.44474 -0.59349,-0.24464 -2.15908,-0.54614 -3.47908,-0.67008 -1.32,-0.12394 -3.21543,-0.48784 -4.21208,-0.80874 -0.99665,-0.32089 -2.65265,-0.68355 -3.68,-0.80595 -1.02735,-0.1224 -2.29992,-0.41728 -2.82792,-0.65529 -1.3677,-0.61652 -3.60429,-1.07796 -5.28,-1.08935 -0.792,-0.005 -1.80391,-0.19971 -2.2487,-0.43187 -1.31097,-0.68419 -2.19913,-0.86218 -5.911298,-1.18461 -4.409801,-0.38301 -8.223931,-1.0319 -10.04023,-1.70809 -0.770132,-0.28669 -1.665172,-0.52128 -1.988982,-0.52128 -0.323817,10e-6 -1.49371,-0.48749 -2.599771,-1.08331 -1.106057,-0.59577 -2.443019,-1.18197 -2.97102,-1.30261 -0.527998,-0.12068 -1.607998,-0.63028 -2.399997,-1.13248 -0.792003,-0.50221 -2.088002,-1.16832 -2.880001,-1.48032 -0.792001,-0.31197 -2.088001,-1.02545 -2.880002,-1.58552 -0.791999,-0.56002 -1.74689,-1.11197 -2.121988,-1.22652 -0.37509,-0.11452 -1.023091,-0.50451 -1.440002,-0.8666 -0.416899,-0.36207 -1.730007,-1.30485 -2.918008,-2.09506 -1.188001,-0.79022 -2.160001,-1.56291 -2.159999,-1.71712 -4e-6,-0.15421 -0.478181,-0.41242 -1.062622,-0.57379 -1.761501,-0.48638 -4.91089,-2.84323 -10.11678,-7.57095 -2.716669,-2.46716 -5.164669,-4.75936 -5.440001,-5.09382 -1.09952,-1.33563 -5.028228,-4.96502 -6.713768,-6.20227 -1.029282,-0.75552 -2.092401,-1.68682 -6.638811,-5.81565 -0.732581,-0.66528 -1.65126,-1.84061 -2.041499,-2.61181 -0.390251,-0.7712 -1.236612,-1.97817 -1.880801,-2.68217 -0.6442,-0.704 -1.515041,-1.99019 -1.935199,-2.85818 -0.420172,-0.86801 -1.23603,-2.29501 -1.813041,-3.17117 -0.576999,-0.87613 -1.140509,-2.00915 -1.252231,-2.51782 -0.111728,-0.50867 -0.69357,-1.66957 -1.29299,-2.57972 -0.599418,-0.91017 -1.182929,-2.16297 -1.296698,-2.78399 -0.113761,-0.62104 -0.618301,-1.90538 -1.121201,-2.85418 -0.502901,-0.94886 -0.914359,-1.93987 -0.91436,-2.2023 -1e-6,-0.26247 -0.271579,-0.92618 -0.603509,-1.47498 -0.33193,-0.54877 -0.702961,-1.32595 -0.82451,-1.72704 -0.12155,-0.40112 -0.703732,-1.46228 -1.293721,-2.35814 -0.589991,-0.89585 -1.242719,-2.33748 -1.450501,-3.20362 -0.207778,-0.86611 -0.791419,-2.32496 -1.296968,-3.24186 -0.505561,-0.91689 -0.9218,-1.90147 -0.924992,-2.18793 -0.003,-0.28643 -0.23303,-0.70938 -0.51076,-0.93988 -0.724049,-0.60092 -1.928579,-3.12406 -2.198119,-4.60441 -0.126689,-0.69581 -0.50633,-1.80608 -0.84363,-2.46723 -0.33731,-0.66119 -0.613289,-1.428 -0.613291,-1.70404 10e-7,-0.27603 -0.4319977,-1.35766 -0.9599986,-2.40361 -0.5280008,-1.04595 -0.9600009,-2.12595 -0.9600004,-2.4 5e-7,-0.27405 -0.4097805,-1.32214 -0.9106191,-2.32912 -0.5008406,-1.0069 -1.0873193,-2.7668 -1.3032716,-3.91081 -0.215959,-1.14399 -0.5997578,-3.08799 -0.8528983,-4.31999 -0.2531405,-1.232 -0.4519193,-2.6 -0.4417293,-3.04 0.020297,-0.87444 -0.6471013,-3.77344 -1.6258206,-7.06269 -0.3441112,-1.15651 -0.6256616,-2.72784 -0.6256602,-3.4919 -9e-7,-0.76403 -0.2074493,-2.12182 -0.4610109,-3.01729 -0.5694507,-2.01108 -1.37139912,-12.80709 -1.1668402,-15.70812 0.0372,-0.528 -0.0167,-2.04 -0.11977012,-3.36 -0.3502403,-4.48405 -0.4280497,-21.26229 -0.1172399,-25.28001 0.1701913,-2.19999 0.27507152,-4.50399 0.23305012,-5.11999 -0.17521832,-2.56866 0.2401305,-9.57196 0.6451309,-10.87789 0.1906699,-0.61484 0.3466793,-1.54388 0.3466783,-2.06454 9e-7,-0.92675 0.7355008,-4.34688 1.9650326,-9.13757 0.3387794,-1.32 0.9061579,-3.55184 1.2608482,-4.95965 0.3546806,-1.40779 0.8624799,-2.89173 1.1284316,-3.29762 0.4521781,-0.69012 1.0561987,-2.66238 2.2242594,-7.26273 0.2681208,-1.056 0.81927,-2.424 1.2247693,-3.04 0.4054998,-0.616 0.8412408,-1.696 0.9683088,-2.4 0.127062,-0.704 0.647551,-2.216 1.15664,-3.36 0.509092,-1.144 1.08684,-2.728 1.283892,-3.52 0.19706,-0.792 0.778928,-2.19383 1.293048,-3.11515 0.514131,-0.92134 0.934772,-1.88287 0.934772,-2.13675 1e-6,-0.25388 0.492,-1.4055 1.093328,-2.55916 0.601332,-1.15366 1.185822,-2.5187 1.298872,-3.03342 0.113049,-0.51472 0.668259,-1.70528 1.233788,-2.64569 0.565542,-0.94041 1.292451,-2.40298 1.615362,-3.25017 0.322919,-0.84718 1.06625,-2.16802 1.651849,-2.93521 1.26752,-1.66054 1.83432,-2.71908 2.71194,-5.06473 0.36061,-0.96382 1.05677,-2.30755 1.547009,-2.98606 0.490242,-0.67851 1.256122,-2.03223 1.701962,-3.00826 0.445828,-0.97603 1.237069,-2.27203 1.758299,-2.88 0.52123,-0.60797 1.324001,-1.76083 1.78392,-2.56191 0.45993,-0.80108 1.494731,-2.02508 2.299551,-2.72 0.80482,-0.69492 2.379929,-2.05549 3.50024,-3.02349 1.120309,-0.968 2.647239,-2.12 3.39318,-2.56 0.745929,-0.44 1.805279,-1.376 2.354099,-2.08 1.16556,-1.49512 6.611351,-6.90434 9.50384,-9.44 1.10421,-0.968 2.885011,-2.67477 3.95731,-3.79283 1.07231,-1.11806 2.454961,-2.29287 3.072551,-2.61069 0.617599,-0.31783 1.5549,-1.03624 2.0829,-1.59648 0.528001,-0.56024 1.463995,-1.28024 2.080004,-1.6 0.616,-0.31976 1.551995,-1.04466 2.079998,-1.61088 1.096551,-1.17593 4.405608,-2.86849 5.608797,-2.86887 0.444844,-1.3e-4 1.092838,-0.19365 1.440003,-0.43004 0.34716,-0.23638 1.60613,-0.67073 2.797716,-0.96521 1.322627,-0.32687 2.770923,-0.96965 3.71822,-1.65021 0.853427,-0.61314 1.723621,-1.11479 1.933741,-1.11479 0.210131,0 1.488929,-1.0489 2.841793,-2.33089 1.352844,-1.28199 2.891729,-2.6334 3.419725,-3.00314 2.434954,-1.70511 6.287088,-3.3977 8.61831,-3.78682 0.692077,-0.11551 2.132076,-0.81819 3.200002,-1.5615 2.04378,-1.42252 4.6136,-2.72297 6.72117,-3.40122 0.69271,-0.22294 2.13271,-1.05406 3.2,-1.84696 2.23855,-1.66306 4.8339,-2.91525 8.02052,-3.86972 1.23201,-0.36901 2.888,-1.11182 3.68,-1.65068 3.32315,-2.261 6.47437,-3.3843 12.00001,-4.2776 1.58399,-0.25608 4.14179,-0.91323 5.68398,-1.46035 1.91019,-0.67766 3.79727,-1.07999 5.92,-1.26221 2.33513,-0.20044 3.91795,-0.56457 6.31602,-1.45302 2.84228,-1.05302 3.68291,-1.21439 7.52,-1.44355 2.37599,-0.14191 5.97599,-0.57278 7.99999,-0.95749 2.7296,-0.51883 4.56853,-0.67306 7.1204,-0.59717 l 3.44039,0.10231 -3.2e-4,-0.8 c -9.6e-4,-2.35266 2.40656,-7.94435 4.61565,-10.719991 0.56032,-0.704 1.19845,-1.928 1.41808,-2.72 0.63227,-2.279978 1.69719,-4.863719 2.50358,-6.074289 0.40943,-0.61468 0.74223,-1.5983 0.74223,-2.193811 0,-0.593738 0.22842,-1.96431 0.5076,-3.045718 1.02712,-3.97844 2.52676,-6.723861 5.23558,-9.584821 0.83798,-0.885061 1.84753,-2.44826 2.37661,-3.679999 0.5059,-1.177752 1.359,-2.789362 1.89578,-3.581361 1.0384,-1.532111 5.20387,-5.76 5.67495,-5.760001 0.15439,10e-7 1.16328,-1.159389 2.24197,-2.576419 1.9897,-2.613762 4.5852,-4.937891 6.81683,-6.104091 0.67613,-0.353329 2.29616,-1.702358 3.60008,-2.99783 1.3039,-1.295479 3.2707,-2.897439 4.37067,-3.559919 1.09997,-0.662482 2.64793,-1.739499 3.43993,-2.393379 1.44861,-1.19598 7.47488,-5.088362 7.8779,-5.08836 0.1189,-4e-6 0.80701,-0.473211 1.52915,-1.051572 1.93794,-1.552119 2.52862,-1.883219 6.91296,-3.87484 2.19999,-0.99937 4.28799,-1.98464 4.64,-2.1895 1.63131,-0.949399 4.20644,-2.145008 4.63999,-2.154298 0.264,-0.006 1.344,-0.41347 2.4,-0.90622 1.056,-0.492762 2.856,-1.162911 4.00001,-1.489222 3.50375,-0.999408 5.82026,-1.789048 8.14658,-2.776948 1.22462,-0.520062 3.51062,-1.231572 5.07999,-1.581142 1.56937,-0.349578 3.5914,-0.903049 4.4934,-1.229939 5.21056,-1.888339 6.53016,-2.29375 8.4637,-2.600249 1.17498,-0.186251 2.92832,-0.705621 3.89633,-1.154162 2.68273,-1.243098 5.3359,-2.068889 8.16,-2.53975 4.68859,-0.781749 7.65178,-1.4483 10.67801,-2.401969 1.64891,-0.519629 4.09691,-1.027069 5.44,-1.12765 2.19202,-0.164151 3.25561,-0.449761 5.32199,-1.429169 1.47653,-0.699839 5.28437,-1.5854488 7.67365,-1.7847089 1.52336,-0.1270391 3.21456,-0.5003696 4.16548,-0.9195002 2.56182,-1.129189 6.13382,-1.8170495 9.92087,-1.9104605 2.71685,-0.066998 3.95808,-0.2515201 5.43999,-0.8086379 1.62454,-0.610741 2.66787,-0.7363818 6.7801,-0.8164913 3.66217,-0.0713 5.23965,-0.2338003 6.4,-0.6590897 1.23107,-0.4512202 2.69507,-0.5756292 7.2999,-0.6203587 3.52318,-0.034203 6.3192,-0.2141211 7.2,-0.4632306 1.72733,-0.4885434 8.01971,-0.5426615 9.62102,-0.082701 0.8322,0.239002 1.69835,0.2109692 3.2,-0.1035495 2.48762,-0.5210391 7.49396,-0.5716788 10.03716,-0.1015394 1.39459,0.2578001 2.26404,0.2440079 3.49878,-0.055501 0.90368,-0.2191888 3.22704,-0.4222289 5.16304,-0.4511987 2.91248,-0.043601 3.96186,-0.2042416 6.08,-0.9308312 2.95469,-1.01353925 7.8537,-1.42184955 10.70784,-0.89244975 1.3432,0.2491403 2.26915,0.2129792 4,-0.1562203 2.60045,-0.55470990105 6.68122,-0.3950782 9.45216,0.3697395 1.06714,0.29454135 3.14576,0.48925105 5.28001,0.49458985 2.11417,0.005 4.28681,0.2071111 5.44,0.50536 1.05599,0.2731106 4.00799,0.6130413 6.55999,0.7553905 4.37035,0.2437899 6.8264,0.73267 8.48,1.6879406 0.352,0.2033388 2.08749,0.4644292 3.85664,0.5802003 3.60467,0.2358689 6.10647,0.9053394 8.95105,2.3952884 2.44308,1.2796301 3.80774,1.524271 8.95231,1.6048223 4.97716,0.077898 7.96125,0.6944594 11.52,2.3801492 1.78,0.843139 3.22496,1.281591 4.74245,1.438999 3.52373,0.365531 9.12869,2.493791 11.13871,4.2295 0.28662,0.247511 1.69341,0.73001 3.12614,1.072211 1.4327,0.342201 3.17246,0.911699 3.86609,1.265558 0.69362,0.353851 1.43635,0.643371 1.65049,0.643372 0.85548,-1e-6 5.98096,2.74088 7.61622,4.072819 0.95706,0.779531 2.46907,1.78191 3.36001,2.22752 2.34268,1.171702 4.8631,3.098509 7.05989,5.397141 1.26132,1.319771 2.6336,2.359451 4,3.03052 1.81207,0.88993 4.19543,2.485561 6.17838,4.136329 1.24502,1.036481 4.44863,5.286671 5.38902,7.14954 1.5243,3.019634 2.51758,4.358806 3.97846,5.36392 2.15949,1.485758 5.38291,4.95333 6.56352,7.060631 0.59984,1.070672 1.50349,2.328034 2.00808,2.794129 3.71308,3.429844 5.18066,5.230128 6.66991,8.182015 0.53981,1.069987 1.28547,2.145677 1.65705,2.390416 0.37159,0.244733 1.61159,1.400488 2.75559,2.568364 2.29606,2.343945 4.24513,5.359585 5.15017,7.96854 0.40885,1.178479 1.22163,2.38365 2.64291,3.918784 3.79124,4.094853 6.03028,9.069961 6.47146,14.379339 0.11376,1.36908 0.57958,3.43091 1.08448,4.8 0.48678,1.32 1.1496,3.69191 1.4729,5.2709 0.4654,2.27292 0.79563,3.1061 1.58534,4.00001 2.92518,3.31117 4.96765,7.13891 5.63955,10.56908 0.15517,0.792 0.69469,2.01601 1.19905,2.72 2.76399,3.85827 4.09289,7.57268 4.683,13.08967 0.12999,1.21532 0.59526,3.08731 1.03392,4.16 1.11844,2.73472 1.69533,5.61013 1.83588,9.15034 0.0785,1.97606 0.36284,3.76796 0.81255,5.12 0.48517,1.45871 0.74429,3.22677 0.86748,5.91923 0.19542,4.27144 0.3646,4.60928 2.32128,4.63532 2.44195,0.0325 7.01763,1.4154 10.48089,3.16762 2.16752,1.09666 6.33056,4.35407 7.36868,5.76574 0.40128,0.54565 0.86486,0.99209 1.0302,0.99209 0.73066,0 5.804,3.30915 7.53525,4.91495 1.3868,1.28631 2.24832,1.82617 3.16719,1.98464 3.17344,0.5473 7.70668,2.63113 10.21737,4.6967 0.90225,0.74225 2.70247,2.3165 4.00051,3.49832 1.36865,1.24609 3.3186,2.62236 4.64173,3.27615 2.17838,1.07635 4.03981,2.53299 5.02327,3.93087 0.2502,0.35564 1.2952,1.18356 2.3222,1.83979 1.02701,0.65624 2.39754,1.72089 3.04564,2.36587 0.64809,0.64499 1.76297,1.63315 2.47753,2.19592 0.71456,0.56275 1.72003,1.64276 2.23437,2.4 0.51435,0.75724 1.60198,2.03469 2.41697,2.8388 0.81498,0.80411 1.728,1.93811 2.02892,2.52002 0.30089,0.58191 1.14608,1.81973 1.87817,2.75074 1.43899,1.8299 3.49614,5.27986 3.88234,6.51085 0.13179,0.41999 0.69947,1.36606 1.26151,2.10238 0.56204,0.73633 1.2248,1.8327 1.4728,2.4364 0.24799,0.60367 0.896,1.68368 1.44,2.4 0.54401,0.71631 1.1858,1.7963 1.42625,2.39999 0.71711,1.8006 2.48699,4.01923 4.17195,5.22975 2.03428,1.46147 3.68439,3.72471 4.33656,5.94786 0.28391,0.96802 0.77605,2.192 1.09349,2.72 0.31745,0.528 0.67579,1.42635 0.79633,1.99633 0.12052,0.56998 0.34326,1.11301 0.49487,1.20676 0.51344,0.31732 2.23502,3.59046 2.23501,4.24929 -3e-5,0.35996 0.48593,1.57046 1.07987,2.68999 0.59393,1.11954 1.18426,2.67951 1.31182,3.46658 0.12756,0.78709 0.49386,2.03477 0.81405,2.77266 0.32012,0.73789 0.82165,2.75387 1.11448,4.47999 0.29283,1.72611 0.80074,3.57469 1.12867,4.10793 0.32797,0.53326 0.7576,1.61326 0.95475,2.4 0.52941,2.11257 1.554,6.85299 2.07284,9.59046 0.7847,4.14023 1.42807,6.83984 1.90656,8 0.25409,0.616 0.61386,1.8832 0.79957,2.81598 0.18565,0.93279 0.53833,2.08479 0.78379,2.55999 0.24538,0.47521 0.61534,2.01601 0.82211,3.42401 0.20676,1.408 0.58196,3.5166 0.8338,4.68579 0.25179,1.16918 0.45782,2.6358 0.45782,3.25916 0,0.62336 0.14659,1.51895 0.32576,1.9902 0.17917,0.47125 0.45238,1.88461 0.6071,3.14083 0.32215,2.61544 0.85668,5.72376 1.3833,8.04401 0.40864,1.80019 0.62874,5.88974 0.62874,11.68001 0,0.88 0,2.14 0.003,2.8 0.003,1.28122 -0.92288,13.67334 -1.20091,16.08 -0.0915,0.792 -0.31567,2.59251 -0.49823,4.00115 -0.18256,1.40864 -0.37683,3.64064 -0.43171,4.96 -0.0549,1.31936 -0.27053,3.91085 -0.47924,5.75885 -0.2087,1.848 -0.41606,4.224 -0.46079,5.28 -0.12346,2.91414 -0.77661,8.18083 -1.17072,9.44 -0.37959,1.21283 -1.29607,5.13379 -2.09424,8.96 -0.27783,1.33171 -0.91069,3.06837 -1.4218,3.90157 -0.5066,0.82585 -1.15299,2.2992 -1.43638,3.27407 -0.28342,0.97489 -0.64986,1.85569 -0.81431,1.95732 -0.16445,0.10162 -0.29901,0.51066 -0.29901,0.90893 10e-6,1.07955 -0.96022,3.72653 -1.81103,4.99238 -0.41194,0.61287 -0.74896,1.34796 -0.74896,1.63353 2e-5,0.2856 -0.57539,1.65617 -1.27863,3.04574 -0.70323,1.38956 -1.2824,2.81446 -1.287,3.16645 -0.004,0.35202 -0.2858,1.25102 -0.62477,1.99783 -0.33901,0.74679 -0.76259,2.1489 -0.94136,3.11575 -0.17871,0.96688 -0.83419,2.71753 -1.45659,3.89039 -0.6224,1.17287 -1.13166,2.3801 -1.13165,2.68273 3e-5,0.30264 -0.72,1.53785 -1.6,2.74493 -0.88,1.20707 -1.6,2.34432 -1.6,2.52726 4e-5,0.1829 -0.39338,0.90598 -0.87418,1.60685 -0.4808,0.70083 -1.20813,1.98838 -1.61629,2.86118 -0.40812,0.8728 -1.21449,2.1688 -1.7919,2.88 -0.57741,0.7112 -1.67072,2.37309 -2.42963,3.69308 -0.75888,1.32001 -1.76531,2.97601 -2.23651,3.68001 -0.4712,0.704 -1.18263,1.928 -1.58096,2.71999 -0.39834,0.79201 -1.25499,2.01601 -1.90365,2.72001 -0.64869,0.704 -1.44864,1.784 -1.77773,2.39999 -0.32909,0.61601 -0.99594,1.55201 -1.48189,2.08001 -0.48595,0.52799 -1.1575,1.41946 -1.49235,1.98099 -1.11384,1.86787 -9.15136,10.0445 -10.81491,11.00208 -0.88,0.50653 -2.752,2.01027 -4.16,3.34163 -1.408,1.33133 -3.52525,3.07559 -4.70496,3.87607 -1.17975,0.80048 -2.41527,1.91078 -2.7456,2.46733 -2.01096,3.388 -7.61463,7.73062 -11.61032,8.99744 -1.22813,0.38933 -2.62584,1.07072 -3.10604,1.51411 -0.48019,0.44336 -1.52108,1.2622 -2.31308,1.81961 -0.792,0.55744 -2.088,1.51114 -2.88,2.11936 -0.792,0.60822 -2.15581,1.34749 -3.03069,1.64281 -0.87489,0.2953 -2.12346,0.92289 -2.77459,1.3946 -0.65117,0.47168 -1.87936,1.1168 -2.72936,1.43354 -0.84994,0.31677 -1.97736,0.8959 -2.50536,1.28701 -1.36256,1.00924 -3.33418,1.96515 -4.63152,2.24549 -0.61132,0.13213 -1.62634,0.56519 -2.25556,0.96241 -0.62921,0.39717 -2.00105,0.98314 -3.04848,1.30205 -1.04744,0.31897 -2.26444,0.81558 -2.70444,1.10365 -1.2472,0.81657 -3.20273,1.49241 -5.03966,1.74179 -0.92381,0.12537 -1.75135,0.34403 -1.83909,0.48553 -0.0877,0.14183 -0.91581,0.42781 -1.84035,0.63556 -0.92453,0.20776 -2.575,0.80425 -3.66767,1.32563 -1.09268,0.52141 -2.74869,1.02753 -3.68001,1.12473 -0.93132,0.0972 -2.12532,0.36746 -2.65332,0.60052 -1.13787,0.50224 -4.95385,1.22852 -5.19387,0.98854 -0.0921,-0.0921 -0.68912,0.0689 -1.32681,0.35759 -0.9658,0.43747 -2.52183,0.53437 -9.31936,0.58037 -8.27152,0.056 -11.60627,0.25185 -13.92001,0.81755 -0.70398,0.17217 -2.21599,0.44739 -3.35999,0.61171 -1.14401,0.16431 -3.16001,0.51356 -4.48001,0.7761 -1.31998,0.26258 -2.85862,0.39701 -3.41912,0.29885 -0.56055,-0.0982 -1.52919,-0.0102 -2.15258,0.19552 -0.62335,0.20575 -2.54077,0.44115 -4.26084,0.52316 -1.72009,0.082 -4.78345,0.233 -6.80745,0.33546 -3.89641,0.19731 -5.00273,0.2145 -11.52,0.17893 -8.28449,-0.0452 -18.94112,-0.0672 -19.68001,-0.0405 -0.528,0.0189 -2.68799,-0.0278 -4.79999,-0.1044 -2.11201,-0.0765 -4.5209,-0.0227 -5.35313,0.11923 -0.85957,0.14677 -2.24166,0.12377 -3.19999,-0.0531 -2.91219,-0.53764 -7.29665,-0.59428 -9.51971,-0.12298 -2.37488,0.50349 -2.70251,0.53161 -2.97844,0.25568 z"
     id="path80"
     inkscape:connector-curvature="0"
     sodipodi:nodetypes="ccscccccccccccscccccscccccccccccccccccccccccccccsccccccccccscscsccccccccccccccccccccccccccccsccccccscccssccsccccccscccscccscccscccccccccscsscccccsccccccscccccccsccccccccccccscccccccccscccccccccscccsccccccccccccccccccccscccccsccccccccccccscccccccccccccccccsccssscccccccccccccccccccccccccsccccccccssccsccscccccccccccccccccccccscsscccccccccccsccccccccccccsccccccccccccccccccc" />
</svg>
