<?xml version="1.0" encoding="UTF-8" standalone="no"?>
<!-- Created with Inkscape (http://www.inkscape.org/) -->

<svg
   xmlns:dc="http://purl.org/dc/elements/1.1/"
   xmlns:cc="http://creativecommons.org/ns#"
   xmlns:rdf="http://www.w3.org/1999/02/22-rdf-syntax-ns#"
   xmlns:svg="http://www.w3.org/2000/svg"
   xmlns="http://www.w3.org/2000/svg"
   xmlns:sodipodi="http://sodipodi.sourceforge.net/DTD/sodipodi-0.dtd"
   xmlns:inkscape="http://www.inkscape.org/namespaces/inkscape"
   width="210mm"
   height="297mm"
   viewBox="0 0 210 297"
   version="1.1"
   id="svg3158"
   inkscape:version="0.92.4 (5da689c313, 2019-01-14)"
   sodipodi:docname="CogLarge.svg">
  <defs
     id="defs3152" />
  <sodipodi:namedview
     id="base"
     pagecolor="#ffffff"
     bordercolor="#666666"
     borderopacity="1.0"
     inkscape:pageopacity="0.0"
     inkscape:pageshadow="2"
     inkscape:zoom="1.979899"
     inkscape:cx="185.4968"
     inkscape:cy="560"
     inkscape:document-units="mm"
     inkscape:current-layer="layer1"
     showgrid="false"
     inkscape:window-width="2560"
     inkscape:window-height="1346"
     inkscape:window-x="-11"
     inkscape:window-y="-11"
     inkscape:window-maximized="1" />
  <metadata
     id="metadata3155">
    <rdf:RDF>
      <cc:Work
         rdf:about="">
        <dc:format>image/svg+xml</dc:format>
        <dc:type
           rdf:resource="http://purl.org/dc/dcmitype/StillImage" />
        <dc:title></dc:title>
      </cc:Work>
    </rdf:RDF>
  </metadata>
  <g
     inkscape:label="Layer 1"
     inkscape:groupmode="layer"
     id="layer1">
    <g
       transform="rotate(90,184.12163,181.94758)"
       style="display:inline"
       id="g5410-6-7">
      <path
         inkscape:transform-center-y="-0.76895536"
         inkscape:transform-center-x="1.8418911e-06"
         d="m 137.01096,257.22121 c -0.78073,1.35226 0.7458,1.21093 -0.60647,1.99166 -1.35226,0.78073 -0.4666,-0.47061 -2.02806,-0.47061 -1.56146,0 -0.67579,1.25134 -2.02806,0.47061 -1.35226,-0.78073 0.17427,-0.6394 -0.60646,-1.99166 -0.78073,-1.35226 -1.4216,0.0404 -1.4216,-1.52105 0,-1.56146 0.64087,-0.16878 1.4216,-1.52104 0.78073,-1.35226 -0.7458,-1.21093 0.60646,-1.99166 1.35227,-0.78073 0.4666,0.47061 2.02806,0.47061 1.56146,0 0.6758,-1.25134 2.02806,-0.47061 1.35227,0.78073 -0.17426,0.6394 0.60647,1.99166 0.78073,1.35226 1.42159,-0.0404 1.42159,1.52104 0,1.56147 -0.64086,0.16879 -1.42159,1.52105 z"
         inkscape:randomized="0"
         inkscape:rounded="0.75"
         inkscape:flatsided="false"
         sodipodi:arg2="1.0471976"
         sodipodi:arg1="0.52359878"
         sodipodi:r2="4.0561204"
         sodipodi:r1="3.0420904"
         sodipodi:cy="255.70016"
         sodipodi:cx="134.37643"
         sodipodi:sides="6"
         id="path5102-4-0"
         style="fill:#7195da;fill-opacity:1;stroke:none;stroke-width:1.984375;stroke-linecap:square;stroke-linejoin:bevel;stroke-miterlimit:4;stroke-dasharray:none;stroke-dashoffset:0;stroke-opacity:1;paint-order:normal"
         sodipodi:type="star" />
      <path
         inkscape:transform-center-y="-0.38447964"
         d="m 135.6937,256.46069 c -0.39037,0.67613 0.3729,0.60546 -0.30324,0.99583 -0.67613,0.39036 -0.2333,-0.23531 -1.01403,-0.23531 -0.78073,0 -0.33789,0.62567 -1.01403,0.23531 -0.67613,-0.39037 0.0871,-0.3197 -0.30323,-0.99583 -0.39036,-0.67613 -0.7108,0.0202 -0.7108,-0.76053 0,-0.78073 0.32044,-0.0844 0.7108,-0.76052 0.39037,-0.67613 -0.3729,-0.60546 0.30323,-0.99583 0.67614,-0.39036 0.2333,0.23531 1.01403,0.23531 0.78073,0 0.3379,-0.62567 1.01403,-0.23531 0.67614,0.39037 -0.0871,0.3197 0.30324,0.99583 0.39036,0.67613 0.71079,-0.0202 0.71079,0.76052 0,0.78074 -0.32043,0.0844 -0.71079,0.76053 z"
         inkscape:randomized="0"
         inkscape:rounded="0.75"
         inkscape:flatsided="false"
         sodipodi:arg2="1.0471976"
         sodipodi:arg1="0.52359878"
         sodipodi:r2="2.0280602"
         sodipodi:r1="1.5210452"
         sodipodi:cy="255.70016"
         sodipodi:cx="134.37643"
         sodipodi:sides="6"
         id="path5102-7-9-3"
         style="display:inline;fill:#b6e8e9;fill-opacity:1;stroke:none;stroke-width:0.9921875;stroke-linecap:square;stroke-linejoin:bevel;stroke-miterlimit:4;stroke-dasharray:none;stroke-dashoffset:0;stroke-opacity:1;paint-order:normal"
         sodipodi:type="star" />
    </g>
  </g>
</svg>
