<?xml version="1.0" encoding="UTF-8" standalone="no"?>
<!-- Created with Inkscape (http://www.inkscape.org/) -->

<svg
   xmlns:osb="http://www.openswatchbook.org/uri/2009/osb"
   xmlns:dc="http://purl.org/dc/elements/1.1/"
   xmlns:cc="http://creativecommons.org/ns#"
   xmlns:rdf="http://www.w3.org/1999/02/22-rdf-syntax-ns#"
   xmlns:svg="http://www.w3.org/2000/svg"
   xmlns="http://www.w3.org/2000/svg"
   xmlns:sodipodi="http://sodipodi.sourceforge.net/DTD/sodipodi-0.dtd"
   xmlns:inkscape="http://www.inkscape.org/namespaces/inkscape"
   width="793.70081"
   height="1122.5197"
   viewBox="0 0 210 297"
   version="1.1"
   id="svg8"
   inkscape:version="0.92.4 (5da689c313, 2019-01-14)"
   sodipodi:docname="PodMid.svg">
  <defs
     id="defs2">
    <linearGradient
       id="linearGradient1940">
      <stop
         style="stop-color:#000000;stop-opacity:1;"
         offset="0"
         id="stop1938" />
    </linearGradient>
    <linearGradient
       id="linearGradient1654">
      <stop
         style="stop-color:#000000;stop-opacity:1;"
         offset="0"
         id="stop1652" />
    </linearGradient>
    <linearGradient
       id="linearGradient1644"
       osb:paint="solid"
       gradientTransform="matrix(0.31867234,0,0,0.31867234,259.12048,115.43641)">
      <stop
         style="stop-color:#f1efe8;stop-opacity:1;"
         offset="0"
         id="stop1642" />
    </linearGradient>
    <linearGradient
       id="linearGradient1638">
      <stop
         style="stop-color:#000000;stop-opacity:1;"
         offset="0"
         id="stop1636" />
    </linearGradient>
    <linearGradient
       id="linearGradient1632">
      <stop
         style="stop-color:#000000;stop-opacity:1;"
         offset="0"
         id="stop1630" />
    </linearGradient>
    <linearGradient
       id="linearGradient1228">
      <stop
         style="stop-color:#000000;stop-opacity:1;"
         offset="0"
         id="stop1226" />
    </linearGradient>
    <linearGradient
       id="linearGradient1195">
      <stop
         style="stop-color:#000000;stop-opacity:1;"
         offset="0"
         id="stop1193" />
    </linearGradient>
    <linearGradient
       id="linearGradient1128"
       osb:paint="solid"
       gradientTransform="matrix(0,0,0,0,231.60801,238.86803)">
      <stop
         style="stop-color:#7195da;stop-opacity:1;"
         offset="0"
         id="stop1126" />
    </linearGradient>
    <linearGradient
       id="linearGradient1116"
       osb:paint="solid"
       gradientTransform="matrix(0,0,0,0,761.0224,390.98556)">
      <stop
         style="stop-color:#b8eaeb;stop-opacity:1;"
         offset="0"
         id="stop1114" />
    </linearGradient>
    <linearGradient
       id="linearGradient948">
      <stop
         style="stop-color:#c87137;stop-opacity:1;"
         offset="0"
         id="stop946" />
    </linearGradient>
    <linearGradient
       id="linearGradient942">
      <stop
         style="stop-color:#c87137;stop-opacity:1;"
         offset="0"
         id="stop940" />
    </linearGradient>
    <linearGradient
       id="linearGradient936">
      <stop
         style="stop-color:#c87137;stop-opacity:1;"
         offset="0"
         id="stop934" />
    </linearGradient>
    <linearGradient
       id="linearGradient930">
      <stop
         style="stop-color:#aa4400;stop-opacity:1;"
         offset="0"
         id="stop928" />
    </linearGradient>
    <linearGradient
       id="linearGradient924">
      <stop
         style="stop-color:#aa4400;stop-opacity:1;"
         offset="0"
         id="stop922" />
    </linearGradient>
    <linearGradient
       id="linearGradient918">
      <stop
         style="stop-color:#aa4400;stop-opacity:1;"
         offset="0"
         id="stop916" />
    </linearGradient>
    <linearGradient
       id="linearGradient912">
      <stop
         style="stop-color:#aa4400;stop-opacity:1;"
         offset="0"
         id="stop910" />
    </linearGradient>
    <linearGradient
       id="linearGradient906">
      <stop
         style="stop-color:#ffb380;stop-opacity:1;"
         offset="0"
         id="stop904" />
    </linearGradient>
    <linearGradient
       id="linearGradient900">
      <stop
         style="stop-color:#ffb380;stop-opacity:1;"
         offset="0"
         id="stop898" />
    </linearGradient>
    <linearGradient
       id="linearGradient894">
      <stop
         style="stop-color:#ffb380;stop-opacity:1;"
         offset="0"
         id="stop892" />
    </linearGradient>
    <linearGradient
       id="linearGradient888">
      <stop
         style="stop-color:#ffb380;stop-opacity:1;"
         offset="0"
         id="stop886" />
    </linearGradient>
    <linearGradient
       id="linearGradient882">
      <stop
         style="stop-color:#ffb380;stop-opacity:1;"
         offset="0"
         id="stop880" />
    </linearGradient>
    <linearGradient
       id="linearGradient876"
       gradientTransform="matrix(0.00129662,0,0,0.00129662,0.17499186,-0.08959145)">
      <stop
         style="stop-color:#ffb380;stop-opacity:1;"
         offset="0"
         id="stop874" />
    </linearGradient>
    <linearGradient
       id="linearGradient870"
       gradientTransform="matrix(0.04287586,0,0,0.0368666,183.91531,395.94544)">
      <stop
         style="stop-color:#80acff;stop-opacity:1;"
         offset="0"
         id="stop868" />
    </linearGradient>
    <linearGradient
       id="linearGradient864"
       gradientTransform="matrix(5.8079354e-6,0,0,1.0287801e-5,9778.1848,-9340.7832)">
      <stop
         style="stop-color:#93ecf2;stop-opacity:1;"
         offset="0"
         id="stop862" />
    </linearGradient>
    <linearGradient
       id="linearGradient858">
      <stop
         style="stop-color:#ffb380;stop-opacity:1;"
         offset="0"
         id="stop856" />
    </linearGradient>
    <linearGradient
       id="linearGradient852">
      <stop
         style="stop-color:#c87137;stop-opacity:1;"
         offset="0"
         id="stop850" />
    </linearGradient>
    <linearGradient
       id="linearGradient846">
      <stop
         style="stop-color:#c87137;stop-opacity:1;"
         offset="0"
         id="stop844" />
    </linearGradient>
  </defs>
  <sodipodi:namedview
     id="base"
     pagecolor="#ffffff"
     bordercolor="#666666"
     borderopacity="1.0"
     inkscape:pageopacity="0.0"
     inkscape:pageshadow="2"
     inkscape:zoom="6.8313675"
     inkscape:cx="474.49138"
     inkscape:cy="156.17025"
     inkscape:document-units="px"
     inkscape:current-layer="layer1"
     showgrid="false"
     showborder="false"
     inkscape:snap-others="false"
     inkscape:object-nodes="true"
     inkscape:snap-nodes="true"
     inkscape:snap-grids="true"
     inkscape:snap-page="false"
     inkscape:window-width="2560"
     inkscape:window-height="1346"
     inkscape:window-x="-11"
     inkscape:window-y="-11"
     inkscape:window-maximized="1"
     inkscape:snap-bbox="true"
     inkscape:bbox-nodes="true"
     inkscape:snap-smooth-nodes="false"
     inkscape:snap-intersection-paths="false"
     inkscape:object-paths="false"
     units="px"
     inkscape:snap-midpoints="false"
     inkscape:snap-to-guides="false"
     inkscape:snap-global="true"
     inkscape:snap-bbox-edge-midpoints="false">
    <inkscape:grid
       type="xygrid"
       id="grid4551" />
  </sodipodi:namedview>
  <metadata
     id="metadata5">
    <rdf:RDF>
      <cc:Work
         rdf:about="">
        <dc:format>image/svg+xml</dc:format>
        <dc:type
           rdf:resource="http://purl.org/dc/dcmitype/StillImage" />
        <dc:title></dc:title>
      </cc:Work>
    </rdf:RDF>
  </metadata>
  <g
     inkscape:groupmode="layer"
     id="layer2"
     inkscape:label="Light"
     style="display:none">
    <path
       transform="translate(21.717327,1.4014209)"
       style="display:inline;fill:#f0eee7;stroke-width:0.02708081"
       d="m 96.079706,261.61708 c -1.41213,-0.19184 -2.66502,-0.81776 -3.66208,-1.8295 -0.97559,-0.98994 -1.53773,-2.13919 -1.75995,-3.5981 -0.0382,-0.25093 -0.0447,-0.86605 -0.0546,-5.18633 -0.0114,-4.96952 -0.006,-5.35898 0.088,-5.90625 0.34653,-2.02719 1.64789,-3.75613 3.49303,-4.64072 0.55618,-0.26664 1.12862,-0.44294 1.77379,-0.54628 0.67602,-0.10828 1.64094,-0.0769 2.30095,0.0749 1.22682,0.28214 2.291944,0.8807 3.156084,1.7736 0.99628,1.02944 1.59973,2.32435 1.74629,3.74732 0.0221,0.21421 0.0281,1.73567 0.0214,5.41616 -0.0104,5.6944 0.004,5.24737 -0.19575,6.03741 -0.49925,1.97353 -1.98465,3.616 -3.914846,4.32885 -0.35002,0.12926 -0.97472,0.28079 -1.36199,0.33037 -0.39458,0.0505 -1.25333,0.0498 -1.63023,-0.001 z"
       id="path903"
       inkscape:connector-curvature="0" />
  </g>
  <g
     inkscape:groupmode="layer"
     id="layer3"
     inkscape:label="Mid"
     style="display:inline">
    <g
       style="display:inline"
       id="g897"
       transform="translate(37.797609,1.6754598)">
      <path
         style="fill:#b6e8e9;stroke-width:0.02708081"
         d="m 80.077258,260.60111 c -1.47017,-0.19088 -2.77114,-0.84049 -3.77854,-1.88672 -0.93348,-0.96948 -1.49295,-2.12356 -1.70502,-3.51715 -0.0384,-0.25241 -0.0432,-0.81738 -0.0427,-5.02953 3.6e-4,-3.18654 0.01,-4.8277 0.0294,-4.99641 0.1378,-1.197 0.58501,-2.29227 1.31658,-3.22443 0.22758,-0.28998 0.85386,-0.90086 1.14722,-1.119 1.12608,-0.83737 2.38177,-1.25579 3.76962,-1.25614 0.60165,-1.3e-4 1.0015,0.046 1.52886,0.1766 0.59414,0.14709 1.09043,0.34497 1.60156,0.63856 1.69179,0.97174 2.80309,2.60524 3.11167,4.5738 0.0457,0.29155 0.0488,0.62254 0.0488,5.18598 0,5.44131 0.0145,5.00008 -0.19093,5.80225 -0.4427,1.72854 -1.64947,3.21828 -3.26367,4.02898 -0.54547,0.27396 -1.14102,0.46718 -1.79908,0.58372 -0.41834,0.0741 -1.3479,0.0948 -1.77379,0.0395 z m 5.76307,-13.33924 c 0.16601,-0.10122 0.21389,-0.3627 0.096,-0.52437 -0.20288,-0.27826 -0.65913,-0.13422 -0.65947,0.20821 -2.8e-4,0.29324 0.31286,0.46894 0.56346,0.31616 z m 0,-1.11032 c 0.15313,-0.0934 0.1773,-0.19572 0.15814,-0.66983 -0.0395,-0.97755 -0.24703,-1.81911 -0.65273,-2.64687 -0.19726,-0.40248 -0.4537,-0.8371 -0.56327,-0.95464 -0.13096,-0.1405 -0.37691,-0.13029 -0.52252,0.0217 -0.0695,0.0725 -0.0799,0.10359 -0.0797,0.23738 2.7e-4,0.13843 0.0137,0.17441 0.13309,0.35705 0.59042,0.90295 0.89378,1.88254 0.95187,3.07367 0.0117,0.23976 0.0326,0.40695 0.0569,0.4548 0.0867,0.17055 0.34332,0.23333 0.51814,0.12674 z"
         id="path901"
         inkscape:connector-curvature="0" />
    </g>
  </g>
  <g
     inkscape:label="Shade"
     inkscape:groupmode="layer"
     id="layer1"
     style="display:none">
    <g
       id="g3724"
       transform="translate(-21.616031,2.7344269)" />
    <path
       style="display:inline;fill:#7094d9;stroke-width:0.02708081"
       d="m 120.4254,260.64426 c -0.0852,-0.0215 -0.22677,-0.0753 -0.31468,-0.11971 -0.22543,-0.1138 -0.55459,-0.3825 -0.60899,-0.49712 -0.0574,-0.12106 -0.0595,-0.47023 -0.005,-0.84559 0.0623,-0.42846 0.0796,-0.84507 0.0436,-1.05154 -0.0175,-0.10068 -0.094,-0.3257 -0.16991,-0.50005 -0.0759,-0.17434 -0.22792,-0.54615 -0.33779,-0.82622 -0.2395,-0.61051 -0.30515,-0.74429 -0.4371,-0.89064 -0.15827,-0.17555 -0.26315,-0.21015 -0.63907,-0.21084 -0.17767,-3.3e-4 -0.37147,0.0143 -0.43265,0.0326 -0.22744,0.0682 -0.41575,0.35891 -0.62475,0.96464 -0.12118,0.3512 -0.12463,0.51886 -0.0248,1.2036 0.0441,0.3026 0.0727,0.61865 0.0739,0.81807 0.003,0.41074 -0.0306,0.48361 -0.32327,0.71186 -0.56547,0.44092 -1.19561,0.56824 -1.41867,0.28664 -0.0691,-0.0872 -0.0675,-0.18106 0.01,-0.59229 0.0524,-0.27855 0.0523,-0.44794 -6e-4,-1.02099 -0.0588,-0.63679 -0.0405,-1.48137 0.0415,-1.91727 0.12521,-0.66548 0.26664,-1.11604 0.68254,-2.17432 0.47122,-1.19905 0.48403,-1.2869 0.21827,-1.49612 -0.36458,-0.28702 -0.71101,-0.29785 -0.94654,-0.0296 -0.1908,0.2173 -0.28748,0.51596 -0.33025,1.02012 -0.0654,0.77086 -0.16441,1.08214 -0.34427,1.08214 -0.0344,0 -0.11503,-0.014 -0.17913,-0.0312 -0.16554,-0.0443 -0.27693,-0.0144 -0.52101,0.13973 -0.11773,0.0743 -0.24072,0.13517 -0.2733,0.13517 -0.12707,0 -0.29301,-0.28596 -0.3675,-0.63332 -0.04,-0.18639 -0.0114,-0.60736 0.0577,-0.85045 0.0722,-0.25377 0.3204,-0.82751 0.45792,-1.0584 0.47956,-0.80516 1.18299,-1.17208 2.52216,-1.31562 0.47112,-0.0505 0.5267,-0.0611 0.65298,-0.12505 0.12074,-0.0611 0.18653,-0.19122 0.18653,-0.36892 v -0.13251 l -0.155,-0.0477 c -0.81579,-0.2512 -1.6696,-0.99252 -2.0788,-1.80491 -0.15219,-0.30214 -0.27081,-0.64288 -0.34233,-0.98335 -0.0749,-0.35637 -0.0821,-0.97187 -0.0157,-1.33574 0.16234,-0.88957 0.63295,-1.68526 1.33188,-2.25187 0.39593,-0.32097 0.58446,-0.36845 1.46304,-0.36839 0.67913,5e-5 1.00478,0.0331 1.744,0.17684 0.7468,0.14524 1.46224,0.38231 1.78674,0.59205 0.34334,0.22191 0.7221,0.88097 0.89839,1.56326 0.2638,1.02099 0.0772,2.09683 -0.5204,2.99987 -0.31977,0.48323 -0.95837,1.02749 -1.48971,1.26963 -0.33969,0.1548 -0.49218,0.37393 -0.49218,0.70727 0,0.42186 0.19122,0.61539 1.02497,1.03735 1.21441,0.61462 1.49153,0.87517 1.98662,1.86781 0.17735,0.35559 0.32393,0.72532 0.41571,1.04864 0.0506,0.1783 0.0616,0.28375 0.0618,0.59577 2.5e-4,0.36761 -0.002,0.38404 -0.081,0.54041 -0.0447,0.0887 -0.1143,0.18519 -0.15471,0.21441 l -0.0735,0.0531 -0.21713,-0.1133 c -0.27938,-0.1458 -0.39713,-0.16211 -0.62211,-0.0862 -0.21425,0.0723 -0.28401,0.0574 -0.35153,-0.0749 -0.0884,-0.17321 -0.11644,-0.40203 -0.12695,-1.03455 -0.0126,-0.7603 -0.0186,-0.80838 -0.12395,-1.00612 -0.15638,-0.29339 -0.48341,-0.53347 -0.82366,-0.60466 -0.30811,-0.0645 -0.38736,0.0126 -0.3237,0.31477 0.0441,0.20934 0.0991,0.35587 0.41813,1.11482 0.49621,1.1803 0.69414,1.7989 0.80314,2.51014 0.0525,0.34245 0.0507,1.08429 -0.004,1.67806 -0.046,0.49886 -0.0387,0.76094 0.0301,1.08801 0.0508,0.24152 0.0504,0.38454 -0.001,0.48451 -0.0815,0.15756 -0.33502,0.21865 -0.61478,0.14812 z"
       id="path899"
       inkscape:connector-curvature="0" />
  </g>
</svg>
