<?xml version="1.0" encoding="UTF-8" standalone="no"?>
<!-- Created with Inkscape (http://www.inkscape.org/) -->

<svg
   xmlns:dc="http://purl.org/dc/elements/1.1/"
   xmlns:cc="http://creativecommons.org/ns#"
   xmlns:rdf="http://www.w3.org/1999/02/22-rdf-syntax-ns#"
   xmlns:svg="http://www.w3.org/2000/svg"
   xmlns="http://www.w3.org/2000/svg"
   xmlns:sodipodi="http://sodipodi.sourceforge.net/DTD/sodipodi-0.dtd"
   xmlns:inkscape="http://www.inkscape.org/namespaces/inkscape"
   width="210mm"
   height="297mm"
   viewBox="0 0 210 297"
   version="1.1"
   id="svg2512"
   inkscape:version="0.92.4 (5da689c313, 2019-01-14)"
   sodipodi:docname="RobotAsleep.svg">
  <defs
     id="defs2506" />
  <sodipodi:namedview
     id="base"
     pagecolor="#ffffff"
     bordercolor="#666666"
     borderopacity="1.0"
     inkscape:pageopacity="0.0"
     inkscape:pageshadow="2"
     inkscape:zoom="0.35"
     inkscape:cx="-77.142857"
     inkscape:cy="560"
     inkscape:document-units="mm"
     inkscape:current-layer="layer1"
     showgrid="false"
     inkscape:window-width="2560"
     inkscape:window-height="1346"
     inkscape:window-x="-11"
     inkscape:window-y="-11"
     inkscape:window-maximized="1" />
  <metadata
     id="metadata2509">
    <rdf:RDF>
      <cc:Work
         rdf:about="">
        <dc:format>image/svg+xml</dc:format>
        <dc:type
           rdf:resource="http://purl.org/dc/dcmitype/StillImage" />
        <dc:title></dc:title>
      </cc:Work>
    </rdf:RDF>
  </metadata>
  <g
     inkscape:label="Layer 1"
     inkscape:groupmode="layer"
     id="layer1">
    <rect
       style="display:inline;fill:#7195da;fill-opacity:1;stroke:#7195da;stroke-width:1.00927103;stroke-linecap:round;stroke-linejoin:round;stroke-miterlimit:4;stroke-dasharray:none;stroke-opacity:1;paint-order:normal"
       id="rect1546-2"
       width="5.3407288"
       height="5.3407235"
       x="158.45229"
       y="177.89299" />
    <path
       style="display:inline;fill:#000000;fill-opacity:0;stroke:#7195da;stroke-width:0.92604166;stroke-linecap:round;stroke-linejoin:round;stroke-miterlimit:4;stroke-dasharray:none;stroke-opacity:1"
       d="m 157.67852,176.05447 c 0.96677,3e-5 1.93357,0.96682 1.93357,1.93357"
       id="path1660-3-9-3"
       inkscape:connector-curvature="0"
       sodipodi:nodetypes="cc" />
    <path
       style="display:inline;fill:#000000;fill-opacity:0;stroke:#7195da;stroke-width:0.92604166;stroke-linecap:round;stroke-linejoin:round;stroke-miterlimit:4;stroke-dasharray:none;stroke-opacity:1"
       d="m 157.67852,185.07215 c 0.96677,-3e-5 1.93357,-0.96682 1.93357,-1.93357"
       id="path1660-3-9-5-4"
       inkscape:connector-curvature="0"
       sodipodi:nodetypes="cc" />
    <rect
       style="display:inline;fill:#ffcc00;fill-opacity:1;stroke:#ffcc00;stroke-width:0.8723436;stroke-linecap:round;stroke-linejoin:round;stroke-miterlimit:4;stroke-dasharray:none;stroke-opacity:1;paint-order:normal"
       id="rect1546-4-7"
       width="3.8901453"
       height="5.4776502"
       x="159.97133"
       y="177.82451" />
    <ellipse
       style="display:inline;fill:#7195da;fill-opacity:1;stroke:#7195da;stroke-width:0.28222206;stroke-linecap:round;stroke-linejoin:round;stroke-miterlimit:4;stroke-dasharray:none;stroke-opacity:1;paint-order:normal"
       id="path1658-4"
       cx="162.71014"
       cy="180.56334"
       rx="1.975557"
       ry="1.9755594" />
    <path
       style="display:inline;fill:#000000;fill-opacity:0;stroke:#f1efe8;stroke-width:0.34999999;stroke-linecap:round;stroke-linejoin:round;stroke-miterlimit:4;stroke-dasharray:none;stroke-opacity:1"
       d="m 158.8292,178.79908 c -0.26458,0.26459 -0.26458,0.79376 0,1.05833"
       id="path1660-43"
       inkscape:connector-curvature="0"
       sodipodi:nodetypes="cc" />
    <path
       style="display:inline;fill:#000000;fill-opacity:0;stroke:#f1efe8;stroke-width:0.34999999;stroke-linecap:round;stroke-linejoin:round;stroke-miterlimit:4;stroke-dasharray:none;stroke-opacity:1"
       d="m 158.8292,181.26928 c -0.26458,0.26459 -0.26458,0.79376 0,1.05833"
       id="path1660-3-3"
       inkscape:connector-curvature="0"
       sodipodi:nodetypes="cc" />
    <path
       style="display:inline;fill:#000000;fill-opacity:0;stroke:#ffcc00;stroke-width:0.85649931;stroke-linecap:round;stroke-linejoin:miter;stroke-miterlimit:4;stroke-dasharray:none;stroke-opacity:1"
       d="m 158.57162,184.47132 c -0.96654,0.0202 -0.96654,1.48846 0,1.48459"
       id="path2846-3"
       inkscape:connector-curvature="0"
       sodipodi:nodetypes="cc" />
    <path
       style="display:inline;fill:#000000;fill-opacity:0;stroke:#ffcc00;stroke-width:0.85649931;stroke-linecap:round;stroke-linejoin:miter;stroke-miterlimit:4;stroke-dasharray:none;stroke-opacity:1"
       d="m 158.57162,175.2109 c -0.96654,0.0202 -0.96654,1.48846 0,1.48459"
       id="path2846-6-8"
       inkscape:connector-curvature="0"
       sodipodi:nodetypes="cc" />
    <ellipse
       style="display:inline;fill:#f1efe8;fill-opacity:1;stroke:#f1efe8;stroke-width:0.28222251;stroke-linecap:round;stroke-linejoin:round;stroke-miterlimit:4;stroke-dasharray:none;stroke-opacity:1;paint-order:normal"
       id="path1658-8-4"
       cx="162.44557"
       cy="180.56334"
       rx="1.9755644"
       ry="1.9755591" />
    <ellipse
       style="display:inline;fill:#f1efe8;fill-opacity:1;stroke:#f1efe8;stroke-width:0.03527784;stroke-linecap:round;stroke-linejoin:round;stroke-miterlimit:4;stroke-dasharray:none;stroke-opacity:1;paint-order:normal"
       id="path1658-4-1"
       cx="158.74139"
       cy="180.56334"
       rx="0.24694514"
       ry="0.24694543" />
    <path
       sodipodi:type="star"
       style="display:inline;fill:#d7b3ff;fill-opacity:1;stroke:#7195da;stroke-width:0;stroke-linecap:round;stroke-linejoin:round;stroke-miterlimit:4;stroke-dasharray:none;stroke-opacity:1;paint-order:normal"
       id="path4567"
       sodipodi:sides="3"
       sodipodi:cx="172.49031"
       sodipodi:cy="342.49777"
       sodipodi:r1="0.64654309"
       sodipodi:r2="0.38792586"
       sodipodi:arg1="0.78539816"
       sodipodi:arg2="1.8325957"
       inkscape:flatsided="false"
       inkscape:rounded="0.25"
       inkscape:randomized="0.1"
       d="m 172.90655,343.01246 c -0.0898,0.11128 -0.36903,-0.0721 -0.51498,-0.0955 -0.14595,-0.0234 -0.46219,-0.0577 -0.48235,-0.19244 -0.0202,-0.13472 0.23452,-0.33402 0.32922,-0.44663 0.0947,-0.11261 0.27779,-0.43675 0.41308,-0.40662 0.13528,0.0301 0.14649,0.32408 0.17878,0.46815 0.0323,0.14407 0.166,0.56178 0.0763,0.67306 z"
       inkscape:transform-center-x="-0.081792184"
       inkscape:transform-center-y="-0.083782023"
       transform="matrix(1.0344313,-0.27717504,0.27717504,1.0344313,-111.74551,-126.71436)" />
    <path
       sodipodi:type="star"
       style="display:inline;fill:#d7b3ff;fill-opacity:1;stroke:#7195da;stroke-width:0;stroke-linecap:round;stroke-linejoin:round;stroke-miterlimit:4;stroke-dasharray:none;stroke-opacity:1;paint-order:normal"
       id="path4567-8"
       sodipodi:sides="3"
       sodipodi:cx="123.75878"
       sodipodi:cy="243.89929"
       sodipodi:r1="0.45991638"
       sodipodi:r2="0.27594984"
       sodipodi:arg1="0.78539816"
       sodipodi:arg2="1.8325957"
       inkscape:flatsided="false"
       inkscape:rounded="0.25"
       inkscape:randomized="0.1"
       d="m 124.11737,244.26453 c -0.0793,0.0639 -0.31165,-0.0424 -0.41424,-0.0657 -0.10258,-0.0233 -0.39525,-0.079 -0.42147,-0.17644 -0.0262,-0.0974 0.25875,-0.27928 0.32347,-0.35112 0.0647,-0.0718 0.13642,-0.28756 0.2343,-0.25636 0.0979,0.0312 0.19785,0.2794 0.21424,0.38158 0.0164,0.10218 0.14299,0.40417 0.0637,0.46804 z"
       inkscape:transform-center-x="-0.12379262"
       inkscape:transform-center-y="0.05874823"
       transform="matrix(0.58360863,-1.0108398,1.0108398,0.58360863,-155.93209,162.49378)" />
    <path
       sodipodi:type="star"
       style="display:inline;fill:#ffb380;fill-opacity:1;stroke:#7195da;stroke-width:0;stroke-linecap:round;stroke-linejoin:round;stroke-miterlimit:4;stroke-dasharray:none;stroke-opacity:1;paint-order:normal"
       id="path4567-84"
       sodipodi:sides="3"
       sodipodi:cx="124.43471"
       sodipodi:cy="245.07544"
       sodipodi:r1="0.45991638"
       sodipodi:r2="0.27594984"
       sodipodi:arg1="0.78539816"
       sodipodi:arg2="1.8325957"
       inkscape:flatsided="false"
       inkscape:rounded="0.25"
       inkscape:randomized="0.1"
       d="m 124.76314,245.38502 c -0.0702,0.0763 -0.30297,-0.052 -0.40431,-0.0728 -0.10135,-0.0208 -0.37903,-0.0212 -0.38998,-0.11969 -0.011,-0.0985 0.16809,-0.19102 0.23148,-0.26932 0.0634,-0.0783 0.2387,-0.33131 0.33125,-0.29571 0.0925,0.0356 0.15376,0.24631 0.17283,0.3421 0.0191,0.0958 0.1289,0.33915 0.0587,0.4154 z"
       inkscape:transform-center-x="0.072256777"
       inkscape:transform-center-y="0.062717595"
       transform="matrix(1.1864236,0.31790124,-0.31790124,1.1864236,92.854809,-150.27979)" />
    <path
       sodipodi:type="star"
       style="display:inline;fill:#ffb380;fill-opacity:1;stroke:#7195da;stroke-width:0;stroke-linecap:round;stroke-linejoin:round;stroke-miterlimit:4;stroke-dasharray:none;stroke-opacity:1;paint-order:normal"
       id="path4567-82"
       sodipodi:sides="3"
       sodipodi:cx="144.81879"
       sodipodi:cy="290.01831"
       sodipodi:r1="0.54451936"
       sodipodi:r2="0.32671165"
       sodipodi:arg1="0.78539816"
       sodipodi:arg2="1.8325957"
       inkscape:flatsided="false"
       inkscape:rounded="0.25"
       inkscape:randomized="0.1"
       d="m 145.15116,290.35731 c -0.0719,0.0889 -0.35785,0.0276 -0.46961,0.004 -0.11176,-0.0239 -0.3931,-0.11036 -0.41146,-0.22233 -0.0184,-0.11196 0.2123,-0.2848 0.30078,-0.3571 0.0885,-0.0723 0.27142,-0.38815 0.38633,-0.34046 0.11492,0.0477 0.12764,0.39341 0.16296,0.50894 0.0353,0.11553 0.10293,0.31844 0.031,0.4073 z"
       inkscape:transform-center-x="0.043310662"
       inkscape:transform-center-y="-0.046437412"
       transform="translate(16.85662,-109.03093)" />
    <path
       sodipodi:type="star"
       style="display:inline;fill:#d7b3ff;fill-opacity:1;stroke:#7195da;stroke-width:0;stroke-linecap:round;stroke-linejoin:round;stroke-miterlimit:4;stroke-dasharray:none;stroke-opacity:1;paint-order:normal"
       id="path4567-9"
       sodipodi:sides="3"
       sodipodi:cx="123.37638"
       sodipodi:cy="245.6046"
       sodipodi:r1="0.45991638"
       sodipodi:r2="0.27594984"
       sodipodi:arg1="0.78539816"
       sodipodi:arg2="1.8325957"
       inkscape:flatsided="false"
       inkscape:rounded="0.25"
       inkscape:randomized="0.1"
       d="m 123.6635,245.96443 c -0.0653,0.081 -0.30143,-0.0586 -0.40432,-0.0728 -0.10288,-0.0142 -0.28055,-0.11374 -0.29799,-0.21168 -0.0174,-0.0979 0.15045,-0.20879 0.23148,-0.26932 0.081,-0.0605 0.23619,-0.3253 0.33125,-0.29571 0.0951,0.0296 0.0609,0.27531 0.0858,0.37437 0.0249,0.0991 0.11906,0.39413 0.0538,0.47511 z"
       inkscape:transform-center-x="-0.05718537"
       inkscape:transform-center-y="0.19721707"
       transform="matrix(0.93349162,0.93349162,-0.93349162,0.93349162,276.39216,-162.75968)" />
    <path
       sodipodi:type="star"
       style="display:inline;fill:#ffb380;fill-opacity:1;stroke:#7195da;stroke-width:0;stroke-linecap:round;stroke-linejoin:round;stroke-miterlimit:4;stroke-dasharray:none;stroke-opacity:1;paint-order:normal"
       id="path4567-84-3"
       sodipodi:sides="3"
       sodipodi:cx="124.43471"
       sodipodi:cy="245.07544"
       sodipodi:r1="0.45991638"
       sodipodi:r2="0.27594984"
       sodipodi:arg1="0.78539816"
       sodipodi:arg2="1.8325957"
       inkscape:flatsided="false"
       inkscape:rounded="0.25"
       inkscape:randomized="0.1"
       d="m 124.76314,245.38502 c -0.0702,0.0763 -0.30297,-0.052 -0.40431,-0.0728 -0.10135,-0.0208 -0.37903,-0.0212 -0.38998,-0.11969 -0.011,-0.0985 0.16809,-0.19102 0.23148,-0.26932 0.0634,-0.0783 0.2387,-0.33131 0.33125,-0.29571 0.0925,0.0356 0.15376,0.24631 0.17283,0.3421 0.0191,0.0958 0.1289,0.33915 0.0587,0.4154 z"
       inkscape:transform-center-x="-0.023679905"
       inkscape:transform-center-y="0.13110344"
       transform="matrix(0.60292491,1.0442965,-1.0442965,0.60292491,344.55981,-96.462955)" />
    <path
       sodipodi:type="star"
       style="display:inline;fill:#d7b3ff;fill-opacity:1;stroke:#7195da;stroke-width:0;stroke-linecap:round;stroke-linejoin:round;stroke-miterlimit:4;stroke-dasharray:none;stroke-opacity:1;paint-order:normal"
       id="path4567-9-8"
       sodipodi:sides="3"
       sodipodi:cx="123.37638"
       sodipodi:cy="245.6046"
       sodipodi:r1="0.45991638"
       sodipodi:r2="0.27594984"
       sodipodi:arg1="0.78539816"
       sodipodi:arg2="1.8325957"
       inkscape:flatsided="false"
       inkscape:rounded="0.25"
       inkscape:randomized="0.1"
       d="m 123.6635,245.96443 c -0.0653,0.081 -0.30143,-0.0586 -0.40432,-0.0728 -0.10288,-0.0142 -0.28055,-0.11374 -0.29799,-0.21168 -0.0174,-0.0979 0.15045,-0.20879 0.23148,-0.26932 0.081,-0.0605 0.23619,-0.3253 0.33125,-0.29571 0.0951,0.0296 0.0609,0.27531 0.0858,0.37437 0.0249,0.0991 0.11906,0.39413 0.0538,0.47511 z"
       inkscape:transform-center-x="-0.054393543"
       inkscape:transform-center-y="-0.066332534"
       transform="matrix(1.0446709,-0.27942961,0.27942961,1.0446709,-34.4208,-41.357545)" />
    <rect
       style="display:inline;fill:#7094d9;fill-opacity:1;stroke:#f1efe8;stroke-width:0;stroke-linecap:round;stroke-linejoin:round;stroke-miterlimit:4;stroke-dasharray:none;stroke-opacity:1;paint-order:normal"
       id="rect4925-0"
       width="1.0583349"
       height="0.52916402"
       x="-162.71014"
       y="-178.18211"
       transform="scale(-1)" />
    <rect
       style="display:inline;fill:#b8eaeb;fill-opacity:1;stroke:#f1efe8;stroke-width:0;stroke-linecap:round;stroke-linejoin:round;stroke-miterlimit:4;stroke-dasharray:none;stroke-opacity:1;paint-order:normal"
       id="rect4927-1"
       width="0.52916825"
       height="0.42333299"
       x="-162.65724"
       y="-178.1292"
       transform="scale(-1)" />
    <rect
       style="display:inline;fill:#7094d9;fill-opacity:1;stroke:#f1efe8;stroke-width:0;stroke-linecap:round;stroke-linejoin:round;stroke-miterlimit:4;stroke-dasharray:none;stroke-opacity:1;paint-order:normal"
       id="rect4927-11-4"
       width="0.37041664"
       height="0.4598738"
       x="-162.18097"
       y="-178.15404"
       transform="scale(-1)" />
    <rect
       style="display:inline;fill:#b8eaeb;fill-opacity:1;stroke:#f1efe8;stroke-width:0;stroke-linecap:round;stroke-linejoin:round;stroke-miterlimit:4;stroke-dasharray:none;stroke-opacity:1;paint-order:normal"
       id="rect4927-8-8"
       width="0.15875016"
       height="0.42333308"
       x="-161.86346"
       y="-178.1292"
       transform="scale(-1)" />
    <circle
       style="display:inline;fill:#000000;fill-opacity:0;stroke:#f1efe8;stroke-width:0.05291677;stroke-linecap:round;stroke-linejoin:round;stroke-miterlimit:4;stroke-dasharray:none;stroke-opacity:1;paint-order:normal"
       id="path4991-9"
       cx="-162.01561"
       cy="-177.91756"
       transform="scale(-1)"
       r="0.10583353" />
    <path
       style="display:inline;fill:#7094d9;fill-opacity:1;stroke:#f1efe8;stroke-width:0.07477484;stroke-linecap:round;stroke-linejoin:miter;stroke-miterlimit:4;stroke-dasharray:none;stroke-opacity:1"
       d="m 162.47598,177.91749 h -0.0939"
       id="path4993-5"
       inkscape:connector-curvature="0" />
  </g>
</svg>
