<?xml version="1.0" encoding="UTF-8" standalone="no"?>
<!-- Created with Inkscape (http://www.inkscape.org/) -->

<svg
   xmlns:dc="http://purl.org/dc/elements/1.1/"
   xmlns:cc="http://creativecommons.org/ns#"
   xmlns:rdf="http://www.w3.org/1999/02/22-rdf-syntax-ns#"
   xmlns:svg="http://www.w3.org/2000/svg"
   xmlns="http://www.w3.org/2000/svg"
   xmlns:sodipodi="http://sodipodi.sourceforge.net/DTD/sodipodi-0.dtd"
   xmlns:inkscape="http://www.inkscape.org/namespaces/inkscape"
   version="1.1"
   id="svg142"
   width="208"
   height="122.24"
   viewBox="0 0 208 122.24"
   sodipodi:docname="Leaf03.svg"
   inkscape:version="0.92.4 (5da689c313, 2019-01-14)">
  <metadata
     id="metadata148">
    <rdf:RDF>
      <cc:Work
         rdf:about="">
        <dc:format>image/svg+xml</dc:format>
        <dc:type
           rdf:resource="http://purl.org/dc/dcmitype/StillImage" />
        <dc:title></dc:title>
      </cc:Work>
    </rdf:RDF>
  </metadata>
  <defs
     id="defs146" />
  <sodipodi:namedview
     pagecolor="#ffffff"
     bordercolor="#666666"
     borderopacity="1"
     objecttolerance="10"
     gridtolerance="10"
     guidetolerance="10"
     inkscape:pageopacity="0"
     inkscape:pageshadow="2"
     inkscape:window-width="1920"
     inkscape:window-height="1017"
     id="namedview144"
     showgrid="false"
     inkscape:zoom="1.3798077"
     inkscape:cx="16.66899"
     inkscape:cy="61.119999"
     inkscape:window-x="-8"
     inkscape:window-y="-8"
     inkscape:window-maximized="1"
     inkscape:current-layer="svg142" />
  <path
     style="fill:#90ad91;stroke-width:0.31999999"
     d="m 99.159088,122.55434 c -0.5565,-0.35799 -1.67602,-1.37935 -7.07332,-6.45312 -1.05543,-0.99216 -2.2405,-1.88463 -2.63347,-1.98327 -0.39298,-0.0986 -1.83344,-0.75585 -3.20103,-1.46049 -1.36759,-0.70464 -3.78253,-1.75674 -5.36653,-2.33798 -1.584,-0.58125 -3.312,-1.28496 -3.84,-1.56381 -0.528,-0.27885 -1.59129,-0.50788 -2.36287,-0.50897 -0.77158,-9.6e-4 -1.995583,-0.15683 -2.720003,-0.3461 -0.724419,-0.18928 -2.181126,-0.56873 -3.237126,-0.84324 -1.056,-0.27451 -3.052835,-0.84262 -4.437411,-1.26247 -1.384576,-0.41985 -3.400576,-0.89102 -4.48,-1.04706 -1.079424,-0.15603 -2.394589,-0.51218 -2.922589,-0.79143 -0.528,-0.27925 -1.491501,-0.50861 -2.141114,-0.5097 -0.649612,-9.6e-4 -1.270112,-0.14597 -1.378886,-0.32197 -0.108774,-0.176 -0.568566,-0.32 -1.02176,-0.32 -0.453194,0 -1.380694,-0.144 -2.061114,-0.32 -0.680419,-0.176 -1.849126,-0.47878 -2.597126,-0.67284 -0.748,-0.19407 -1.940995,-0.61554 -2.651101,-0.93662 -0.710105,-0.32106 -1.718105,-0.68586 -2.24,-0.81066 -0.521894,-0.124787 -2.446137,-0.927317 -4.276099,-1.783387 -1.829958,-0.85607 -3.517578,-1.55649 -3.750266,-1.55649 -0.612176,0 -2.796787,-1.27141 -3.104891,-1.807 -0.144296,-0.25084 -0.828296,-0.68251 -1.52,-0.95928 -0.691704,-0.27676 -1.257643,-0.62013 -1.257643,-0.76303 0,-0.14291 -0.432,-0.35472 -0.96,-0.47069 -0.528,-0.11596 -0.96,-0.34341 -0.96,-0.50542 0,-0.16202 -0.140942,-0.29457 -0.313205,-0.29457 -0.172263,0 -1.305467,-0.972 -2.518231,-2.16 -1.212764,-1.188 -3.267822,-3.096 -4.566795,-4.24 -3.938283,-3.46843 -5.835477,-5.51609 -6.820479,-7.36141 -2.094027,-3.92298 -3.3856157,-6.64193 -3.8756044,-8.15859 -0.284302,-0.88 -0.850854,-2.392 -1.259004,-3.36 -0.408151,-0.968 -0.985944,-2.58774 -1.283984,-3.59941 -0.29804,-1.01167 -0.64824,-1.90514 -0.778223,-1.98547 -0.129983,-0.0803 -0.418062,-1.1966 -0.640174,-2.48059 -0.611899,-3.53727 -1.260708,-6.49836 -1.645035,-7.50774 -0.189895,-0.49874 -0.493438,-1.62679 -0.674539,-2.50679 -0.181101,-0.88 -0.444228,-2.104 -0.584727,-2.72 -0.875294,-3.83762 -0.985266,-5.21512 -0.970786,-12.16 0.01506,-7.22383 0.21316,-10.82403 0.977232,-17.76 0.193883,-1.76 0.398024,-4.136 0.453647,-5.28 0.149247,-3.0695998 0.773128,-5.7639398 1.647061,-7.1131398 0.425066,-0.65623 0.772846,-1.32994 0.772846,-1.49715 0,-0.56829 1.002893,-1.30971006 1.771598,-1.30971006 0.914965,0 1.428402,0.83358006 1.428402,2.31907006 0,0.59463 0.36,1.82739 0.8,2.73947 0.4399997,0.91207 0.7999997,1.75267 0.7999997,1.86799 0,0.11532 0.3759897,1.01603 0.8355327,2.0015701 0.459545,0.9855397 1.070263,2.2958997 1.357152,2.9118997 0.649765,1.39515 2.192972,3.42494 4.505977,5.92673 0.979736,1.0597 2.501339,2.76791 3.381339,3.79603 3.340628,3.90292 7.409894,7.77361 11.095879,10.55442 9.904479,7.47221 11.963436,8.75823 16.264121,10.15854 1.144,0.37249 2.368,0.84494 2.72,1.0499 0.577603,0.33631 1.941706,0.8881 5.76,2.32997 0.704,0.26585 2.026208,0.82373 2.93824,1.23973 0.912032,0.41601 2.856032,0.98373 4.32,1.26159 1.463968,0.27787 4.02976,0.84696 5.70176,1.26464 1.672,0.41769 4.336,0.84809 5.919999,0.95646 3.42802,0.23451 7.66166,1.09536 10.56,2.14721 0.528,0.19163 1.608,0.57227 2.4,0.84588 0.792,0.2736 1.78342,0.76104 2.20316,1.08318 0.41973,0.32214 0.94261,0.58572 1.16194,0.58572 0.51439,0 5.15035,3.46366 6.37477,4.76279 1.09758,1.16454 1.47961,1.2319 2.02587,0.35721 0.219824,-0.352 0.668264,-0.64 0.996532,-0.64 0.32826,0 1.22705,-0.58559 1.99729,-1.30131 0.77024,-0.71572 2.19244,-1.72484 3.16044,-2.24249 1.98884,-1.06356 2.7006,-1.49371 3.79948,-2.2962 0.42176,-0.308 0.98995,-0.56 1.26264,-0.56 0.2727,0 1.13073,-0.30736 1.90673,-0.68302 2.53129,-1.22537 9.52944,-2.81223 13.9538,-3.16408 2.26746,-0.18032 4.24728,-0.40488 4.3996,-0.49902 0.15232,-0.0941 5.71171,-0.23853 12.35419,-0.32088 6.7018,-0.0831 12.64835,-0.29658 13.3604,-0.47969 2.52427,-0.64912 9.94104,-3.24361 10.88316,-3.80708 0.528,-0.31579 3.048,-1.64283 5.6,-2.94898 5.43969,-2.78412 11.29702,-6.60072 13.7265,-8.9441 0.48287,-0.46576 1.58795,-1.46054 2.45573,-2.21062 0.86777,-0.75009 1.82389,-1.73701 2.1247,-2.19316 0.30081,-0.45616 1.19178,-1.62137 1.97992,-2.58937 0.78815,-0.968 1.87526,-2.516 2.41581,-3.44 0.54055,-0.924 1.10997,-1.68 1.26538,-1.68 0.15542,0 0.36672,-0.33523 0.46955,-0.74494 0.10283,-0.40972 0.5557,-1.14282 1.00638,-1.62911 0.45068,-0.48629 1.0592,-1.26706 1.35228,-1.73506 0.29307,-0.46799 0.91504,-1.35489 1.38216,-1.97089 0.95399,-1.25806 2.22159,-4.43555 2.22159,-5.5688498 0,-0.94354 1.15163,-2.43115 1.88206,-2.43115 1.67486,0 1.9479,1.11881 2.57709,10.5599998 1.0048,15.07724 1.08526,20.19364 0.35675,22.68555 -0.17454,0.59706 -0.2469,1.19957 -0.16078,1.33891 0.0861,0.13934 -0.0497,0.80284 -0.3018,1.47444 -0.2521,0.6716 -0.53869,2.1571 -0.63687,3.3011 -0.33712,3.92837 -2.76738,12.37513 -4.84754,16.84836 -0.2579,0.5546 -0.46891,1.28619 -0.46891,1.62576 0,0.33958 -0.3594,1.32581 -0.79866,2.19164 -0.43926,0.86583 -0.79926,1.73961 -0.8,1.94174 -0.002,0.42167 -1.81427,3.9597 -2.26283,4.4165 -0.16418,0.1672 -0.29851,0.53728 -0.29851,0.8224 0,0.28512 -0.504,1.10721 -1.12,1.82687 -0.616,0.71965 -1.12,1.40326 -1.12,1.51912 0,0.56074 -2.28666,3.11514 -8.5802,9.58481 -3.00552,3.08963 -6.32362,5.94279 -6.91122,5.94279 -0.24742,0 -3.11732,1.89713 -3.38858,2.24 -0.26565,0.33578 -2.98412,2.07466 -3.84,2.45626 -0.44,0.19618 -1.73837,0.80378 -2.88527,1.35022 -1.14689,0.54644 -2.23086,0.99352 -2.40882,0.99352 -0.17795,0 -1.11159,0.404057 -2.07473,0.897887 -0.96315,0.49384 -2.25518,1.09162 -2.87118,1.32839 -0.616,0.23677 -2.03005,0.84072 -3.14233,1.34211 -1.11227,0.50138 -2.16082,0.91161 -2.33009,0.91161 -0.46236,0 -4.24002,1.30122 -4.60758,1.58708 -0.32175,0.25024 -8.57998,2.20894 -12.16,2.88413 -1.056,0.19916 -2.208,0.48971 -2.56,0.64566 -0.352,0.15596 -1.90076,0.45144 -3.44169,0.65663 -1.54093,0.2052 -2.88143,0.5021 -2.97889,0.65979 -0.0975,0.15769 -0.60532,0.28671 -1.12858,0.28671 -0.52327,0 -1.45505,0.21044 -2.07062,0.46764 -0.61557,0.2572 -2.01495,0.62984 -3.10972,0.82807 -1.09478,0.19823 -2.1345,0.47727 -2.3105,0.62009 -0.176,0.14282 -1.74824,0.56108 -3.49386,0.92946 -1.74563,0.36839 -3.77109,0.95891 -4.50104,1.31227 -0.72994,0.35336 -1.7497,0.64182 -2.26613,0.64104 -1.43863,-0.002 -5.37873,2.15822 -7.08848,3.88673 -0.84177,0.851 -1.74834,1.54895 -2.01461,1.55099 -0.26626,0.002 -0.62626,0.32771 -0.8,0.72371 -0.36795,0.83869 -2.17138,1.10657 -3.161532,0.46961 z"
     id="path152"
     inkscape:connector-curvature="0" />
</svg>
