<?xml version="1.0" encoding="UTF-8" standalone="no"?>
<!-- Created with Inkscape (http://www.inkscape.org/) -->

<svg
   xmlns:dc="http://purl.org/dc/elements/1.1/"
   xmlns:cc="http://creativecommons.org/ns#"
   xmlns:rdf="http://www.w3.org/1999/02/22-rdf-syntax-ns#"
   xmlns:svg="http://www.w3.org/2000/svg"
   xmlns="http://www.w3.org/2000/svg"
   xmlns:sodipodi="http://sodipodi.sourceforge.net/DTD/sodipodi-0.dtd"
   xmlns:inkscape="http://www.inkscape.org/namespaces/inkscape"
   version="1.1"
   id="svg130"
   width="214.72"
   height="98.879997"
   viewBox="0 0 214.72 98.879997"
   sodipodi:docname="Leaf02.svg"
   inkscape:version="0.92.4 (5da689c313, 2019-01-14)">
  <metadata
     id="metadata136">
    <rdf:RDF>
      <cc:Work
         rdf:about="">
        <dc:format>image/svg+xml</dc:format>
        <dc:type
           rdf:resource="http://purl.org/dc/dcmitype/StillImage" />
        <dc:title></dc:title>
      </cc:Work>
    </rdf:RDF>
  </metadata>
  <defs
     id="defs134" />
  <sodipodi:namedview
     pagecolor="#ffffff"
     bordercolor="#666666"
     borderopacity="1"
     objecttolerance="10"
     gridtolerance="10"
     guidetolerance="10"
     inkscape:pageopacity="0"
     inkscape:pageshadow="2"
     inkscape:window-width="1920"
     inkscape:window-height="1017"
     id="namedview132"
     showgrid="false"
     inkscape:zoom="1.3366244"
     inkscape:cx="17.207526"
     inkscape:cy="49.439999"
     inkscape:window-x="-8"
     inkscape:window-y="-8"
     inkscape:window-maximized="1"
     inkscape:current-layer="svg130" />
  <path
     style="fill:#90ad91;stroke-width:0.31999999"
     d="m 93.970787,97.999995 c -0.08804,-0.484 -0.175526,-2.0883 -0.194425,-3.56512 -0.01891,-1.47681 -0.09827,-2.78853 -0.176391,-2.91492 -0.07812,-0.1264 -0.157225,-2.60522 -0.175798,-5.50849 l -0.03377,-5.27866 -1.254182,-1.88641 c -0.689802,-1.03752 -1.254643,-2.0347 -1.255203,-2.21595 -6.4e-4,-0.18125 -1.243117,-1.69325 -2.761239,-3.36 -2.583587,-2.83652 -4.928435,-4.78592 -5.760598,-4.78908 -0.198448,-6.4e-4 -0.528355,-0.20324 -0.733123,-0.44997 -0.204772,-0.24673 -0.75362,-0.54431 -1.219664,-0.66128 -0.466048,-0.11697 -1.288141,-0.5268 -1.826877,-0.91074 -0.99584,-0.70969 -2.383127,-1.52719 -3.539517,-2.08575 -0.352,-0.17002 -1.576,-0.54696 -2.72,-0.83763 -1.144,-0.29068 -3.664,-1.02265 -5.6,-1.6266 -3.056653,-0.95355 -5.259533,-1.44324 -8.48,-1.88508 -0.44,-0.0604 -1.376,-0.27671 -2.08,-0.48077 -1.191773,-0.34543 -3.212307,-0.77895 -7.52,-1.61347 -4.291581,-0.8314 -4.392176,-0.86927 -12.16,-4.57757 -2.024,-0.96625 -4.04,-1.86162 -4.48,-1.98973 -0.44,-0.1281 -1.088,-0.5052 -1.44,-0.83801 -0.352,-0.33281 -1.792,-1.53571 -3.2,-2.67312 -1.408,-1.13741 -3.132125,-2.75734 -3.83139,-3.59984 -0.699264,-0.84249 -2.103264,-2.37031 -3.12,-3.39514 -1.016735,-1.02483 -1.84861,-2.06883 -1.84861,-2.32 0,-0.25117 -0.144181,-0.45667 -0.320404,-0.45667 -0.176221,0 -0.76127,-0.972 -1.300108,-2.16 -0.538838,-1.188 -1.187484,-2.519996 -1.441435,-2.959996 C 13.986765,30.341516 10.821612,23.425677 10.211645,21.409231 9.8174681,20.106154 9.0865941,18.126576 8.5874801,17.01017 c -0.499114,-1.116406 -0.90748,-2.186942 -0.90748,-2.378968 0,-0.192026 -0.269156,-0.934603 -0.598124,-1.650171 C 6.7529081,12.265464 6.2966821,11.176 6.0680401,10.56 5.8393991,9.944 5.272328,8.864 4.8078829,8.16 3.0440523,5.486407 1.487953,3.355976 1.2223388,3.251089 1.0706464,3.191188 0.72451711,2.712844 0.45316251,2.188102 0.06864511,1.444527 0.04347411,1.133193 0.33907761,0.77701302 1.1694784,-0.22355898 1.9095895,0.29108802 6.1289801,4.803105 c 0.413061,0.441708 1.127471,1.095055 1.587577,1.451883 0.460107,0.356827 1.081063,1.121599 1.379904,1.699492 0.29884,0.577893 1.2183889,1.918704 2.0434419,2.979579 0.825053,1.060876 1.644097,2.154071 1.820097,2.429323 0.768182,1.201385 5.595059,6.795109 5.869196,6.801637 0.115942,0.0028 0.923667,0.645246 1.794944,1.427745 0.871276,0.782499 1.987276,1.58971 2.48,1.793803 C 23.596863,23.590659 24,23.867276 24,24.00127 c 0,0.21029 2.29678,1.39925 4.32,2.236308 0.352,0.145631 1.288,0.555466 2.08,0.910743 0.792,0.355277 2.088,0.807479 2.88,1.004894 0.792,0.197414 2.304,0.768952 3.36,1.270085 1.056,0.501133 2.535181,1.202368 3.287069,1.5583 0.751888,0.355932 2.479888,0.885333 3.84,1.176447 1.360112,0.291114 4.344931,0.95033 6.632931,1.464928 2.288,0.5146 5.309744,1.0923 6.714989,1.28379 1.405241,0.19148 2.629606,0.39427 2.720809,0.45064 0.0912,0.0564 1.652064,0.20146 3.46858,0.32244 1.91319,0.12742 4.470876,0.55333 6.079187,1.01232 1.52704,0.4358 3.496435,0.94024 4.376435,1.12098 0.88,0.18074 2.488454,0.52943 3.574346,0.77487 1.085888,0.24543 2.38446,0.36422 2.885715,0.26397 1.019238,-0.20385 9.194925,1.56251 10.582499,2.28635 0.482592,0.25175 1.03192,0.45861 1.220733,0.45969 1.00639,0.006 4.263187,1.97941 5.097137,3.08888 0.50978,0.6782 1.23917,1.52109 1.62086,1.87309 0.66053,0.60915 0.69692,0.93274 0.75483,6.71181 0.0335,3.3395 0.1075,6.11848 0.16453,6.17551 0.057,0.057 1.45272,-0.53953 3.10153,-1.32569 4.5153,-2.15294 7.93362,-3.19689 13.23782,-4.04283 1.232,-0.19649 2.888,-0.49205 3.68,-0.6568 0.792,-0.16476 2.19453,-0.36214 3.11674,-0.43864 0.92221,-0.0765 3.51421,-0.57504 5.76,-1.10788 5.62555,-1.33474 12.3531,-2.84834 16.63893,-3.74353 1.97762,-0.41307 3.99362,-0.95118 4.48,-1.19579 0.48638,-0.24461 1.36588,-0.53643 1.95443,-0.64848 0.58856,-0.11204 1.95656,-0.61977 3.04,-1.12828 2.07936,-0.97593 2.59242,-1.20393 6.9299,-3.07959 4.43412,-1.91745 5.8748,-2.65639 6.72,-3.44673 0.87754,-0.82059 1.3226,-1.07333 6.72,-3.81604 2.14266,-1.08881 4.10765,-2.33519 4.70369,-2.983525 0.56302,-0.612431 1.1099,-1.113511 1.21528,-1.113511 0.10537,0 0.52523,-0.36 0.933,-0.8 0.40778,-0.44 0.82308,-0.8 0.92288,-0.8 0.0998,0 1.05355,-0.864 2.11943,-1.92 1.06588,-1.056 2.12119,-1.92 2.34512,-1.92 0.22392,0 0.76567,-0.324 1.20387,-0.72 0.4382,-0.396 1.37273,-1.149568 2.07673,-1.674596 1.96939,-1.468727 2.29657,-1.754249 4.95653,-4.325404 1.3656,-1.32 3.33683,-3.191999 4.38051,-4.159999 1.04368,-0.968 2.74815,-2.834346 3.78772,-4.147436 2.314,-2.922849 5.44568,-6.092564 6.01946,-6.092564 0.23332,0 0.77332,-0.37723 1.2,-0.838288 0.88639,-0.957811 2.98443,-2.36171198 3.52942,-2.36171198 0.77913,0 -0.0275,2.07309598 -1.16785,3.00150498 -0.62254,0.506829 -1.34005,1.419701 -1.59446,2.028605 -0.25442,0.608904 -0.79313,1.499938 -1.19713,1.980074 -0.78759,0.935984 -1.88764,3.08913 -3.28504,6.429816 -0.47853,1.144 -1.04887,2.439999 -1.26741,2.879999 -0.21855,0.44 -0.79423,2.024 -1.27929,3.52 -0.48506,1.496 -1.00805,2.8568 -1.1622,3.024 -0.15414,0.1672 -0.28515,0.5272 -0.29112,0.8 -0.006,0.2728 -0.28908,1.072 -0.62914,1.776 -0.34006,0.704 -0.62317,1.501552 -0.62914,1.772339 -0.006,0.270786 -0.29467,1.049018 -0.64155,1.729405 -0.34688,0.680386 -0.86858,1.970834 -1.15934,2.867661 -0.29075,0.896831 -0.65494,1.767391 -0.8093,1.934591 -0.15437,0.1672 -0.28067,0.56923 -0.28067,0.89338 0,0.32416 -0.26224,0.87086 -0.58275,1.21489 -0.32051,0.34403 -0.98081,1.59801 -1.46734,2.78662 -0.48652,1.18861 -1.09691,2.39798 -1.35641,2.68748 -0.25951,0.28951 -0.80254,1.47283 -1.20675,2.62961 -0.40421,1.15678 -1.11559,2.6023 -1.58084,3.21228 -0.46525,0.60997 -0.84591,1.24033 -0.84591,1.4008 0,0.16046 -0.288,0.55239 -0.64,0.87094 -0.352,0.31856 -0.64,0.75393 -0.64,0.96749 0,0.21357 -0.62252,1.01925 -1.38338,1.79041 -0.76086,0.77116 -1.84117,2.0765 -2.40069,2.90076 -0.55951,0.82425 -1.341,1.59822 -1.73662,1.71992 -0.39562,0.1217 -1.12579,0.70731 -1.62261,1.30135 -0.49681,0.59404 -1.07773,1.08007 -1.29093,1.08007 -0.2132,0 -1.17471,0.80383 -2.1367,1.78627 -1.96261,2.00436 -6.36758,5.49126 -7.82924,6.1975 -0.52791,0.25507 -1.39183,0.76741 -1.91983,1.13853 -1.03482,0.72736 -3.12644,1.75768 -3.56836,1.75774 -0.1494,3e-5 -1.39535,0.72003 -2.76877,1.6 -1.37342,0.87998 -2.74142,1.60454 -3.04,1.61014 -0.29858,0.006 -0.82239,0.2216 -1.16403,0.48 -0.34164,0.2584 -0.87726,0.46982 -1.19027,0.46982 -0.31301,0 -1.04148,0.26196 -1.61884,0.58214 -0.57735,0.32017 -1.76973,0.774 -2.64973,1.00851 -0.88,0.23451 -1.96,0.61272 -2.4,0.84045 -0.44,0.22774 -1.304,0.63169 -1.92,0.89766 -1.14896,0.4961 -8.76515,2.4548 -12.48,3.20956 -4.82421,0.98015 -11.08392,2.83893 -11.72736,3.48237 -0.12062,0.12062 -0.66331,0.22289 -1.20597,0.22726 -1.57485,0.0127 -11.9401,2.73977 -12.48516,3.28482 -0.27221,0.27221 -0.96441,0.58771 -1.53822,0.70109 -1.47344,0.29116 -2.55028,0.7092 -5.91194,2.29509 -1.62176,0.76508 -3.03537,1.39105 -3.14135,1.39105 -0.10599,0 -0.66468,0.36 -1.24156,0.8 -0.57687,0.44 -1.18701,0.8 -1.35587,0.8 -0.43566,0 -2.35257,2.03316 -2.35257,2.49524 0,0.21162 -0.12721,0.38476 -0.28268,0.38476 -0.15547,0 -0.35799,0.288 -0.45004,0.64 -0.11138,0.42592 -0.436483,0.64 -0.971898,0.64 -0.625532,0 -0.840144,-0.19579 -0.964595,-0.88 z M 214.08,0.32000002 c 0,-0.176 0.144,-0.319999997848674 0.32,-0.319999997848674 0.176,0 0.32,0.143999997848674 0.32,0.319999997848674 0,0.176 -0.144,0.32 -0.32,0.32 -0.176,0 -0.32,-0.144 -0.32,-0.32 z"
     id="path140"
     inkscape:connector-curvature="0" />
</svg>
