<?xml version="1.0" encoding="UTF-8" standalone="no"?>
<!-- Created with Inkscape (http://www.inkscape.org/) -->

<svg
   xmlns:dc="http://purl.org/dc/elements/1.1/"
   xmlns:cc="http://creativecommons.org/ns#"
   xmlns:rdf="http://www.w3.org/1999/02/22-rdf-syntax-ns#"
   xmlns:svg="http://www.w3.org/2000/svg"
   xmlns="http://www.w3.org/2000/svg"
   xmlns:sodipodi="http://sodipodi.sourceforge.net/DTD/sodipodi-0.dtd"
   xmlns:inkscape="http://www.inkscape.org/namespaces/inkscape"
   version="1.1"
   id="svg118"
   width="209.60001"
   height="119.04"
   viewBox="0 0 209.60001 119.04"
   sodipodi:docname="Leaf01.svg"
   inkscape:version="0.92.4 (5da689c313, 2019-01-14)">
  <metadata
     id="metadata124">
    <rdf:RDF>
      <cc:Work
         rdf:about="">
        <dc:format>image/svg+xml</dc:format>
        <dc:type
           rdf:resource="http://purl.org/dc/dcmitype/StillImage" />
        <dc:title></dc:title>
      </cc:Work>
    </rdf:RDF>
  </metadata>
  <defs
     id="defs122" />
  <sodipodi:namedview
     pagecolor="#ffffff"
     bordercolor="#666666"
     borderopacity="1"
     objecttolerance="10"
     gridtolerance="10"
     guidetolerance="10"
     inkscape:pageopacity="0"
     inkscape:pageshadow="2"
     inkscape:window-width="1920"
     inkscape:window-height="1017"
     id="namedview120"
     showgrid="false"
     inkscape:zoom="3.8728939"
     inkscape:cx="16.797213"
     inkscape:cy="59.52"
     inkscape:window-x="-8"
     inkscape:window-y="-8"
     inkscape:window-maximized="1"
     inkscape:current-layer="svg118" />
  <path
     style="fill:#90ad91;stroke-width:0.31999999"
     d="m 100.00553,117.84 c -1.40911,-1.84854 -3.61056,-3.9991 -5.68232,-5.55096 -2.94174,-2.20353 -3.78503,-2.72089 -5.15891,-3.16502 -0.704,-0.22758 -1.99095,-0.75358 -2.85989,-1.1689 C 85.43548,107.5398 84.52171,107.2 84.27382,107.2 c -0.2479,0 -0.83295,-0.26452 -1.30012,-0.58783 -0.46716,-0.32331 -2.43339,-1.36294 -4.369395,-2.31029 -1.936,-0.94736 -4.096,-2.09593 -4.8,-2.55239 -1.426833,-0.92514 -4.706046,-2.548756 -5.151895,-2.550826 -0.529815,-0.003 -5.689124,-2.78522 -8.512906,-4.59157 -1.00345,-0.6419 -1.911274,-1.16709 -2.017386,-1.16709 -0.106112,0 -1.046163,-0.57942 -2.089005,-1.2876 -1.042841,-0.70818 -2.150941,-1.38155 -2.462441,-1.49638 -0.623072,-0.22967 -4.704724,-2.99835 -8.330369,-5.65068 -1.278202,-0.93506 -3.616323,-3.01979 -5.19583,-4.63273 -1.579505,-1.61294 -2.962554,-2.93261 -3.073444,-2.93261 -0.195449,0 -1.050435,-0.87484 -3.886726,-3.97697 -0.748,-0.81811 -1.36,-1.69797 -1.36,-1.95525 0,-0.25728 -0.120065,-0.46778 -0.266811,-0.46778 -0.229954,0 -1.559427,-1.86412 -2.852775,-4 -0.213147,-0.352 -1.26674,-2.44 -2.341318,-4.64 -1.074578,-2.2 -2.088693,-4.2552 -2.253589,-4.56711 -0.164895,-0.31191 -0.587609,-1.33632 -0.939365,-2.27647 -0.351755,-0.94015 -0.924538,-1.96727 -1.272849,-2.28249 -0.348312,-0.31522 -0.635674,-0.80281 -0.638584,-1.08353 -0.0029,-0.28072 -0.506083,-2.0944 -1.118164,-4.0304 -0.612082,-1.936 -1.113701,-3.95073 -1.114711,-4.47717 -0.001,-0.52644 -0.508587,-1.98275 -1.12795,-3.23624 -0.619364,-1.2535 -1.353296,-3.126776 -1.630962,-4.16284 C 15.435569,33.553696 14.728832,30.386052 14.604608,29.28 14.44058,27.819553 13.839331,25.318195 13.181621,23.36 12.856494,22.392 12.34036,20.736 12.034657,19.68 10.980221,16.037627 10.205708,14.082026 9.3663439,12.942667 6.9419109,9.651721 4.4410039,6.628186 2.3665259,4.48006 1.0917499,3.160027 0.04774987,1.989632 0.04652587,1.879182 0.04532587,1.768732 0.25872187,1.50041 0.52079287,1.282911 1.2614429,0.66822597 3.0922979,1.172065 5.1185849,2.548192 c 0.993144,0.674481 2.525716,1.623888 3.405716,2.109794 2.0082911,1.108909 8.1685131,5.228292 10.0800011,6.740567 2.624799,2.07661 9.301141,7.924917 11.828477,10.361447 2.320292,2.236924 4.176279,3.873754 5.002903,4.412153 0.1924,0.125316 0.553722,0.659283 0.802931,1.186593 0.249213,0.527311 0.908298,1.175311 1.464634,1.44 0.556336,0.26469 2.835955,2.248061 5.065818,4.407491 2.229862,2.15943 4.581008,4.31607 5.224768,4.792534 0.643757,0.476461 1.73639,1.337655 2.42807,1.913763 0.69168,0.57611 1.434055,1.04747 1.649722,1.04747 0.21567,0 0.960432,0.468 1.655034,1.04 0.694598,0.572 1.804454,1.472 2.466352,2 0.661894,0.528 1.439213,1.18642 1.72737,1.46316 0.288156,0.27674 1.027923,0.84746 1.643923,1.26825 0.616,0.4208 1.264,0.92259 1.44,1.1151 0.176,0.1925 0.883594,0.77379 1.572429,1.29175 0.688835,0.51795 1.912835,1.45209 2.72,2.07586 2.405363,1.85885 5.218784,3.70102 7.573031,4.95865 1.217997,0.65066 2.502541,1.44171 2.854541,1.7579 0.352,0.31619 1.459788,0.9476 2.461753,1.40314 1.001962,0.45554 1.898892,0.95307 1.993172,1.10562 0.3088,0.49965 6.68717,3.47832 9.30507,4.34543 3.93529,1.30346 6.70498,1.60751 14.4,1.58084 8.42532,-0.0292 13.51511,-0.29688 14.04755,-0.73877 0.21482,-0.17828 1.498,-0.56749 2.85152,-0.8649 1.35352,-0.29741 2.46094,-0.66254 2.46094,-0.81139 0,-0.14885 0.288,-0.27064 0.64,-0.27064 0.352,0 0.64,-0.144 0.64,-0.32 0,-0.176 0.2592,-0.32 0.576,-0.32 0.3168,0 0.7128,-0.13079 0.88,-0.29064 0.1672,-0.15985 1.47506,-0.64699 2.90637,-1.08253 1.45756,-0.44352 3.42836,-1.34805 4.48,-2.05617 1.03269,-0.69536 2.59763,-1.58831 3.47763,-1.98433 4.38014,-1.97118 7.70252,-3.73253 9.40607,-4.98662 1.03671,-0.76318 2.29646,-1.61738 2.79943,-1.89821 0.94154,-0.52571 3.91175,-2.54801 4.37535,-2.979 0.14346,-0.13338 0.86346,-0.98576 1.6,-1.89418 1.49396,-1.84263 7.9287,-7.594362 14.02593,-12.537172 1.94074,-1.573295 4.30254,-4.268754 8.45647,-9.651152 1.84584,-2.391718 3.99977,-4.777532 6.69675,-7.417677 2.90539,-2.844168 3.30065,-3.241254 5.73692,-5.763357 1.89604,-1.962837 4.73576,-4.18008 6.17166,-4.818807 0.49028,-0.21809 1.82513,-0.937345 2.96634,-1.598344 C 200.22044,3.420817 201.3611,2.88 201.61403,2.88 c 0.25294,0 0.68722,-0.189583 0.96508,-0.421296 0.48934,-0.408071 3.96896,-1.89543203 5.34012,-2.28262803 0.84208,-0.237792 1.72508,0.08025 1.72508,0.621357 0,0.22492803 -0.34964,0.63805503 -0.77698,0.91805903 -2.55339,1.673047 -7.85478,8.318496 -7.86615,9.860454 -0.002,0.23323 -0.36172,1.194353 -0.8,2.135829 -0.43828,0.941476 -0.79687,2.028676 -0.79687,2.416 0,0.387324 -0.12118,0.841025 -0.26928,1.008225 -0.14811,0.1672 -0.59032,1.384 -0.9827,2.704 -0.39238,1.32 -0.99882,3.264 -1.34764,4.32 -1.3643,4.130211 -2.82156,8.982602 -2.83074,9.425786 -0.005,0.256185 -0.50045,1.552185 -1.10032,2.88 -0.59988,1.327817 -1.41418,3.278214 -1.80956,4.334218 -1.27116,3.39503 -2.25958,5.2937 -3.80653,7.312 -0.83194,1.08543 -1.69003,2.5111 -1.90688,3.16816 -0.3476,1.05322 -1.06263,2.53296 -2.20929,4.57204 -0.40169,0.71433 -1.97706,4.26174 -1.97706,4.45193 0,0.0688 -0.69608,1.25258 -1.54686,2.63052 -0.85077,1.37794 -2.005,3.44135 -2.56496,4.58535 -0.55995,1.144 -1.73981,3.016 -2.6219,4.16 -4.397,5.70256 -6.01676,7.94851 -6.55689,9.09172 -1.07571,2.27677 -12.1731,13.62828 -13.32321,13.62828 -0.34733,0 -1.53959,0.648 -2.64948,1.44 -1.10989,0.792 -2.22247,1.44 -2.4724,1.44 -0.24993,0 -1.01687,0.576 -1.7043,1.28 -0.68744,0.704 -1.42304,1.28 -1.63467,1.28 -0.21163,0 -0.99703,0.511516 -1.74534,1.136716 -0.74831,0.62519 -1.80593,1.34229 -2.35028,1.59356 -0.54434,0.25127 -1.20571,0.60017 -1.46971,0.77535 -1.28596,0.85326 -6.28931,2.72994 -9.12,3.42077 -1.232,0.30067 -2.672,0.80869 -3.2,1.12894 -0.528,0.32024 -1.18969,0.58281 -1.47041,0.58346 -0.28072,6.4e-4 -0.76365,0.28104 -1.07318,0.62306 -0.30953,0.34203 -1.01584,0.71833 -1.56959,0.83624 -0.55376,0.1179 -1.61092,0.48606 -2.34927,0.81813 -0.73834,0.33208 -1.53838,0.60377 -1.77786,0.60377 -0.53699,0 -4.43995,1.28221 -4.87969,1.60309 -0.176,0.12843 -0.85017,0.40419 -1.49816,0.61281 -0.64798,0.20862 -1.66829,0.76739 -2.26735,1.24171 -0.59906,0.47431 -2.01289,1.29439 -3.14185,1.82239 -1.12896,0.528 -2.3151,1.284 -2.63587,1.68 -0.49327,0.60895 -0.8946,0.72 -2.60202,0.72 -1.95688,0 -2.04685,-0.0368 -2.93353,-1.2 z"
     id="path128"
     inkscape:connector-curvature="0" />
</svg>
