<?xml version="1.0" encoding="UTF-8" standalone="no"?>
<!-- Created with Inkscape (http://www.inkscape.org/) -->

<svg
   xmlns:dc="http://purl.org/dc/elements/1.1/"
   xmlns:cc="http://creativecommons.org/ns#"
   xmlns:rdf="http://www.w3.org/1999/02/22-rdf-syntax-ns#"
   xmlns:svg="http://www.w3.org/2000/svg"
   xmlns="http://www.w3.org/2000/svg"
   xmlns:sodipodi="http://sodipodi.sourceforge.net/DTD/sodipodi-0.dtd"
   xmlns:inkscape="http://www.inkscape.org/namespaces/inkscape"
   version="1.1"
   id="svg166"
   width="224.64"
   height="83.199997"
   viewBox="0 0 224.64 83.199997"
   sodipodi:docname="Leaf05.svg"
   inkscape:version="0.92.4 (5da689c313, 2019-01-14)">
  <metadata
     id="metadata172">
    <rdf:RDF>
      <cc:Work
         rdf:about="">
        <dc:format>image/svg+xml</dc:format>
        <dc:type
           rdf:resource="http://purl.org/dc/dcmitype/StillImage" />
        <dc:title></dc:title>
      </cc:Work>
    </rdf:RDF>
  </metadata>
  <defs
     id="defs170" />
  <sodipodi:namedview
     pagecolor="#ffffff"
     bordercolor="#666666"
     borderopacity="1"
     objecttolerance="10"
     gridtolerance="10"
     guidetolerance="10"
     inkscape:pageopacity="0"
     inkscape:pageshadow="2"
     inkscape:window-width="1920"
     inkscape:window-height="1017"
     id="namedview168"
     showgrid="false"
     inkscape:zoom="1.2775997"
     inkscape:cx="18.002509"
     inkscape:cy="41.599998"
     inkscape:window-x="-8"
     inkscape:window-y="-8"
     inkscape:window-maximized="1"
     inkscape:current-layer="svg166" />
  <path
     style="fill:#90ad91;stroke-width:0.31999999"
     d="m 113.07534,81.679998 c -0.79904,-2.10277 -1.77572,-3.89135 -3.04082,-5.56859 -0.59098,-0.78353 -1.57852,-2.17285 -2.19452,-3.08738 -0.616,-0.91454 -1.264,-1.67275 -1.44,-1.68492 -0.176,-0.0122 -1.08443,-0.94844 -2.01872,-2.08062 -0.9343,-1.13217 -1.8567,-2.05849 -2.0498,-2.05849 -0.19309,0 -0.86034,-0.396 -1.48278,-0.88 -1.226907,-0.95402 -2.293757,-1.57488 -4.528697,-2.63548 -2.92808,-1.38954 -3.68374,-1.76826 -3.84,-1.92452 -0.80553,-0.80553 -5.7133,-2.13273 -10.69461,-2.89211 -1.21804,-0.18569 -2.345,-0.4182 -2.50437,-0.5167 -0.15936,-0.0985 -3.05079,-0.28611 -6.42539,-0.41692 -5.23726,-0.20302 -7.21328,-0.13121 -13.49563,0.49047 -4.048,0.40057 -8.584,0.8089 -10.08,0.9074 -4.97365,0.32748 -11.75803,1.40324 -13.28,2.10574 -1.098013,0.50681 -3.167977,0.94905 -4.328055,0.92467 -0.611571,-0.0128 -1.975948,0.28663 -3.031948,0.66553 -1.056,0.3789 -2.409066,0.81417 -3.006812,0.96727 -0.597747,0.1531 -1.184832,0.43697 -1.304635,0.63081 -0.1435,0.23219 -0.839732,0.27935 -2.040496,0.13822 -1.664904,-0.19567 -1.805007,-0.27265 -1.618586,-0.8893 0.112248,-0.37129 0.448174,-0.96308 0.746503,-1.31508 0.298328,-0.352 1.023322,-1.612 1.611097,-2.8 0.587775,-1.188 1.191137,-2.16 1.340805,-2.16 0.149668,0 0.273011,-0.252 0.274096,-0.56 0.0011,-0.308 0.211649,-0.96198 0.467923,-1.4533 1.194196,-2.28945 2.183128,-9.76939 1.933814,-14.6267 -0.306234,-5.96627 -0.495909,-6.5679 -5.04433,-16 -0.749,-1.55321 -3.708614,-5.989032 -5.551162,-8.319999 C 14.228821,13.832292 10.491287,9.9413857 9.810536,9.7299377 9.430741,9.6119687 8.117475,8.5147687 6.892166,7.2917157 5.666857,6.0686617 3.692396,4.4905657 2.504476,3.7848347 0.36572903,2.5142287 -0.18890497,1.8246237 0.17183603,0.88454567 0.38787503,0.32155767 3.192436,-0.11136033 3.664,0.34548667 c 0.1672,0.161982 0.5272,0.295216 0.8,0.296076 0.2728,8.6e-4 1.504,0.51977503 2.736,1.15314703 1.232,0.633372 3.282817,1.56671 4.557372,2.074085 1.274554,0.507374 2.570554,1.064839 2.88,1.23881 0.833812,0.468771 4.153714,1.769872 6.162628,2.415192 0.968,0.310949 2.408,0.929537 3.2,1.37464 0.792,0.445102 2.16,1.1487923 3.04,1.5637563 0.88,0.414963 1.816,0.893668 2.08,1.063788 0.264,0.17012 1.2,0.690037 2.08,1.155372 0.88,0.465334 1.943421,1.114619 2.363155,1.442854 0.419735,0.328236 1.11304,0.596792 1.540679,0.596792 0.929339,0 3.050019,0.823599 7.060399,2.74202 1.63033,0.779889 3.14233,1.418867 3.36,1.419952 0.21767,0.0011 0.79785,0.2117 1.28928,0.468035 0.49144,0.256336 1.42744,0.563446 2.08,0.682467 0.65257,0.119022 1.69049,0.477185 2.30649,0.795915 1.35949,0.70343 5.87484,2.64597 7.2,3.09749 0.528,0.17991 2.616,0.86053 4.64,1.51249 2.024,0.65195 4.976,1.61193 6.56,2.13328 1.584,0.52135 4.104,1.29049 5.6,1.7092 3.17024,0.88731 5.34884,1.59485 7.36,2.39029 0.792,0.31324 2.664,0.96637 4.16,1.45139 1.496,0.48502 3.08,1.07342 3.52,1.30756 0.44,0.23414 1.952,0.72761 3.36,1.09661 3.35729,0.87986 6.619927,1.83126 8.799997,2.56611 3.23608,1.0908 8.13289,2.15668 10.87182,2.36645 1.4915,0.11423 3.2915,0.35278 4,0.53011 0.94825,0.23733 2.34373,0.18518 5.28818,-0.19765 2.2,-0.28604 6.16,-0.76965 8.8,-1.07469 2.64,-0.30504 5.10886,-0.72312 5.48635,-0.92907 0.37749,-0.20595 1.52949,-0.45942 2.56,-0.56326 1.03051,-0.10383 4.39365,-0.6719 7.47365,-1.26237 3.08,-0.59047 6.73792,-1.24162 8.12871,-1.44701 1.3908,-0.20539 2.8308,-0.48586 3.2,-0.62326 0.36921,-0.13741 2.11129,-0.68945 3.87129,-1.22675 1.76,-0.53731 4.16779,-1.27343 5.35064,-1.63584 1.18285,-0.3624 2.76685,-0.74804 3.52,-0.85696 1.24925,-0.18068 4.79655,-1.39906 7.60936,-2.61358 0.616,-0.26597 2.2,-0.73863 3.52,-1.05035 1.32,-0.31172 3.192,-0.81014 4.16,-1.1076 0.968,-0.29745 2.46844,-0.74156 3.33431,-0.9869 0.86587,-0.24534 2.1303,-0.73588 2.80985,-1.09008 0.67955,-0.3542 1.55511,-0.64541 1.94569,-0.64712 0.39059,-0.002 1.48045,-0.36172 2.42193,-0.8 0.94147,-0.43829 2.03988,-0.79688 2.44091,-0.79688 0.88299,0 2.89616,-0.81218 4.05671,-1.6366 0.46717,-0.331871 1.00167,-0.603399 1.18779,-0.603399 0.18611,0 1.4002,-0.504 2.69797,-1.12 1.29777,-0.616 2.56327,-1.115935 2.81221,-1.110966 0.24895,0.005 1.31663,-0.422747 2.37263,-0.950478 1.056,-0.527731 2.28,-1.03119 2.72,-1.118798 0.44,-0.08761 2.15051,-0.963269 3.80113,-1.945912 2.54702,-1.516283 3.2007,-1.772039 4.32,-1.690235 1.15088,0.08411 1.33114,0.201947 1.41517,0.925093 0.0973,0.837332 -0.80695,2.004693 -2.52219,3.25605 -4.63634,3.382444 -6.30588,5.043295 -7.48077,7.441805 -0.85869,1.75301 -3.03722,4.98034 -3.88372,5.75344 -0.59957,0.54758 -1.5987,2.18963 -2.04444,3.36 -0.23461,0.616 -0.74746,1.84 -1.13967,2.72 -1.44768,3.24815 -1.98721,5.95021 -2.42802,12.16 -0.23737,3.344 -0.40474,6.224 -0.37193,6.4 0.16172,0.86739 1.42716,4.18072 1.70149,4.45505 0.17212,0.17212 0.31295,0.50163 0.31295,0.73223 0,0.47507 1.93325,3.35604 3.08025,4.59023 0.41786,0.44963 0.75975,0.96652 0.75975,1.14863 0,0.18213 0.36,0.49516 0.8,0.69564 0.44,0.20047 0.80327,0.61959 0.80727,0.93136 0.004,0.31641 0.46354,0.79081 1.04,1.07374 0.73568,0.36108 1.06309,0.76509 1.13829,1.40461 l 0.10556,0.89774 -1.70556,-0.22435 c -0.93806,-0.12339 -1.84236,-0.35947 -2.00956,-0.52461 -0.1672,-0.16515 -0.68909,-0.30027 -1.15977,-0.30027 -0.47067,0 -1.48587,-0.22824 -2.256,-0.5072 -0.77012,-0.27896 -2.84023,-0.85704 -4.60023,-1.28463 -1.76,-0.42759 -3.632,-0.97584 -4.16,-1.21833 -1.49074,-0.68464 -3.82564,-1.21207 -7.84,-1.77098 -1.32,-0.18378 -3.12,-0.47602 -4,-0.64942 -0.88,-0.1734 -3.688,-0.54247 -6.24,-0.82016 -2.552,-0.27769 -6.512,-0.74472 -8.8,-1.03784 -4.91342,-0.62947 -8.29604,-0.66525 -14.45422,-0.15291 -4.13088,0.34368 -10.62872,1.65013 -11.46343,2.30483 -0.17729,0.13905 -1.07879,0.43015 -2.00334,0.64689 -0.92454,0.21673 -1.76104,0.52359 -1.85888,0.6819 -0.0978,0.15832 -0.4214,0.28874 -0.71902,0.28982 -0.29761,9.6e-4 -0.95357,0.21709 -1.45769,0.48 -0.50412,0.26292 -1.05835,0.47803 -1.23164,0.47803 -0.32327,0 -1.44504,0.46537 -4.25178,1.76386 -0.88,0.40712 -2.176,0.98078 -2.88,1.27481 -0.704,0.29402 -1.496,0.66765 -1.76,0.83028 -0.264,0.16263 -0.84,0.45618 -1.28,0.65233 -3.01455,1.34389 -4.28767,2.17288 -6.46748,4.21129 -2.52102,2.3575 -5.05252,5.83819 -5.05252,6.94697 0,0.75107 -0.90645,1.28046 -2.1925,1.28046 -0.84438,0 -1.02124,-0.17545 -1.53216,-1.52 z"
     id="path176"
     inkscape:connector-curvature="0" />
</svg>
