<?xml version="1.0" encoding="UTF-8" standalone="no"?>
<!-- Created with Inkscape (http://www.inkscape.org/) -->

<svg
   xmlns:dc="http://purl.org/dc/elements/1.1/"
   xmlns:cc="http://creativecommons.org/ns#"
   xmlns:rdf="http://www.w3.org/1999/02/22-rdf-syntax-ns#"
   xmlns:svg="http://www.w3.org/2000/svg"
   xmlns="http://www.w3.org/2000/svg"
   xmlns:sodipodi="http://sodipodi.sourceforge.net/DTD/sodipodi-0.dtd"
   xmlns:inkscape="http://www.inkscape.org/namespaces/inkscape"
   version="1.1"
   id="svg10"
   width="208"
   height="122.24"
   viewBox="0 0 208 122.24"
   sodipodi:docname="Leaf03-Dark.svg"
   inkscape:version="0.92.4 (5da689c313, 2019-01-14)">
  <metadata
     id="metadata16">
    <rdf:RDF>
      <cc:Work
         rdf:about="">
        <dc:format>image/svg+xml</dc:format>
        <dc:type
           rdf:resource="http://purl.org/dc/dcmitype/StillImage" />
        <dc:title></dc:title>
      </cc:Work>
    </rdf:RDF>
  </metadata>
  <defs
     id="defs14" />
  <sodipodi:namedview
     pagecolor="#ffffff"
     bordercolor="#666666"
     borderopacity="1"
     objecttolerance="10"
     gridtolerance="10"
     guidetolerance="10"
     inkscape:pageopacity="0"
     inkscape:pageshadow="2"
     inkscape:window-width="1920"
     inkscape:window-height="1017"
     id="namedview12"
     showgrid="false"
     inkscape:zoom="3.4767671"
     inkscape:cx="104"
     inkscape:cy="61.119999"
     inkscape:window-x="-8"
     inkscape:window-y="-8"
     inkscape:window-maximized="1"
     inkscape:current-layer="layer1" />
  <g
     inkscape:groupmode="layer"
     id="layer2"
     inkscape:label="Vein"
     style="display:none">
    <path
       style="fill:#a9deaa;stroke-width:0.31999999"
       d="m 98.35138,121.85856 c -0.556499,-0.35799 -1.676022,-1.37935 -7.073322,-6.45312 -1.055433,-0.99216 -2.240499,-1.88463 -2.633475,-1.98327 -0.392979,-0.0986 -1.83344,-0.75585 -3.20103,-1.46049 -1.367587,-0.70464 -3.782525,-1.75674 -5.366525,-2.33798 -1.584,-0.58125 -3.312,-1.28496 -3.84,-1.56381 -0.528,-0.27885 -1.591293,-0.50788 -2.362874,-0.50897 -0.77158,-9.6e-4 -1.99558,-0.15683 -2.72,-0.3461 -0.724419,-0.18928 -2.181126,-0.56873 -3.237126,-0.84324 -1.056,-0.27451 -3.052835,-0.84262 -4.437411,-1.26247 -1.384576,-0.41985 -3.400576,-0.89102 -4.48,-1.04706 -1.079424,-0.15603 -2.394589,-0.51218 -2.922589,-0.79143 -0.528,-0.27925 -1.491501,-0.50861 -2.141114,-0.5097 -0.649612,-9.6e-4 -1.270112,-0.14597 -1.378886,-0.32197 -0.108774,-0.176 -0.568566,-0.32 -1.02176,-0.32 -0.453194,0 -1.380694,-0.144 -2.061114,-0.32 -0.680419,-0.176 -1.849126,-0.47878 -2.597126,-0.67284 -0.748,-0.19407 -1.940995,-0.61554 -2.651101,-0.93662 -0.710105,-0.32107 -1.718105,-0.68587 -2.24,-0.810664 -0.521894,-0.124796 -2.446137,-0.927321 -4.276099,-1.783392 -1.829958,-0.856067 -3.517578,-1.556486 -3.750266,-1.556486 -0.612176,0 -2.796787,-1.271418 -3.104891,-1.807005 -0.144296,-0.250838 -0.828296,-0.682512 -1.52,-0.959277 -0.691704,-0.276764 -1.257643,-0.620131 -1.257643,-0.763036 0,-0.142909 -0.432,-0.354714 -0.96,-0.470682 -0.528,-0.115968 -0.96,-0.343411 -0.96,-0.505427 0,-0.162013 -0.140942,-0.294573 -0.313205,-0.294573 -0.172263,0 -1.305467,-0.972 -2.518231,-2.16 -1.212764,-1.188 -3.267822,-3.096 -4.566795,-4.24 -3.938283,-3.468429 -5.835477,-5.51609 -6.820479,-7.361405 -2.0940262,-3.922985 -3.3856147,-6.641926 -3.8756041,-8.158595 -0.2843015,-0.88 -0.8508535,-2.392 -1.2590042,-3.36 C 6.3955587,64.980948 5.817766,63.361217 5.5197263,62.349543 5.2216863,61.33787 4.8714857,60.444407 4.7415027,60.364074 4.6115196,60.283742 4.3234412,59.167473 4.1013286,57.883479 3.4894303,54.346209 2.8406206,51.385118 2.4562943,50.375738 c -0.1898954,-0.498736 -0.493438,-1.62679 -0.6745389,-2.50679 -0.181101,-0.88 -0.4442283,-2.104 -0.5847274,-2.72 -0.87529353,-3.837613 -0.98526574,-5.215117 -0.97078575,-12.16 0.0150616,-7.223826 0.21316003,-10.824024 0.97723205,-17.76 0.1938829,-1.76 0.3980238,-4.136 0.4536465,-5.2800003 C 1.8063681,6.8793554 2.4302494,4.1850091 3.3041823,2.8358086 3.7292476,2.1795821 4.0770281,1.5058678 4.0770281,1.3386657 c 0,-0.56829293 1.0028934,-1.30971805 1.7715984,-1.30971805 0.9149648,0 1.4284016,0.83358739 1.4284016,2.31907375 0,0.5946315 0.36,1.8273922 0.8,2.7394684 0.44,0.9120758 0.8,1.7526733 0.8,1.8679939 0,0.115321 0.3759901,1.0160269 0.8355334,2.001569 0.4595435,0.9855424 1.0702615,2.2958953 1.3571505,2.9118953 0.649765,1.395155 2.192972,3.424941 4.505977,5.92673 0.979736,1.059701 2.501339,2.767918 3.381339,3.796038 3.340628,3.902916 7.409894,7.773607 11.095879,10.554416 9.904479,7.472214 11.963436,8.758234 16.264121,10.158544 1.144,0.37249 2.368,0.844941 2.72,1.049894 0.577603,0.336311 1.941706,0.888103 5.76,2.329975 0.704,0.265846 2.026208,0.823725 2.93824,1.239731 0.912032,0.416006 2.856032,0.983722 4.32,1.26159 1.463968,0.277869 4.02976,0.846957 5.70176,1.26464 1.672,0.417684 4.336,0.848087 5.92,0.956452 3.428022,0.234518 7.661664,1.095366 10.56,2.147219 0.528,0.191622 1.608,0.572262 2.4,0.845872 0.792,0.273606 1.783421,0.76104 2.203155,1.083184 0.419735,0.322144 0.942611,0.585715 1.161946,0.585715 0.514393,0 5.150349,3.463667 6.374768,4.76279 1.097584,1.164548 1.479609,1.231908 2.025869,0.35721 0.219827,-0.352 0.668265,-0.64 0.996531,-0.64 0.328265,0 1.227053,-0.585587 1.997293,-1.301302 0.77024,-0.715719 2.19244,-1.724839 3.16044,-2.242493 1.98884,-1.063565 2.7006,-1.493715 3.79948,-2.296205 0.42176,-0.308 0.98995,-0.56 1.26264,-0.56 0.2727,0 1.13073,-0.307357 1.90673,-0.683014 2.53129,-1.225376 9.52944,-2.812234 13.9538,-3.16408 2.26746,-0.18032 4.24728,-0.404877 4.3996,-0.499018 0.15232,-0.09414 5.71171,-0.238538 12.35419,-0.320883 6.7018,-0.08308 12.64835,-0.296583 13.3604,-0.479687 2.52427,-0.649123 9.94104,-3.243612 10.88316,-3.807081 0.528,-0.315789 3.048,-1.642832 5.6,-2.948986 5.43969,-2.784115 11.29702,-6.600717 13.7265,-8.944093 0.48287,-0.465762 1.58795,-1.460546 2.45573,-2.210628 0.86777,-0.750083 1.82389,-1.737005 2.1247,-2.193159 0.30081,-0.456154 1.19178,-1.621371 1.97992,-2.589371 0.78815,-0.968 1.87526,-2.516 2.41581,-3.44 0.54055,-0.924 1.10997,-1.68 1.26538,-1.68 0.15542,0 0.36672,-0.335223 0.46955,-0.74494 0.10283,-0.409717 0.5557,-1.142813 1.00638,-1.629103 0.45068,-0.486289 1.0592,-1.267066 1.35228,-1.73506 0.29307,-0.467993 0.91504,-1.354897 1.38216,-1.970897 0.95399,-1.258058 2.22159,-4.4355497 2.22159,-5.5688496 0,-0.9435334 1.15163,-2.4311507 1.88206,-2.4311507 1.67486,0 1.9479,1.1188144 2.57709,10.5600003 1.0048,15.077247 1.08526,20.193642 0.35675,22.685558 -0.17454,0.59706 -0.2469,1.199565 -0.16078,1.338906 0.0861,0.139344 -0.0497,0.802842 -0.3018,1.474442 -0.2521,0.671603 -0.53869,2.157094 -0.63687,3.301094 -0.33712,3.928378 -2.76738,12.375136 -4.84754,16.848362 -0.2579,0.554598 -0.46891,1.286195 -0.46891,1.625766 0,0.339574 -0.3594,1.325811 -0.79866,2.191638 -0.43926,0.865828 -0.79926,1.73961 -0.8,1.941738 -0.002,0.421674 -1.81427,3.959696 -2.26283,4.416496 -0.16418,0.1672 -0.29851,0.53728 -0.29851,0.8224 0,0.28512 -0.504,1.107213 -1.12,1.82687 -0.616,0.719658 -1.12,1.403261 -1.12,1.51912 0,0.560746 -2.28666,3.115146 -8.5802,9.584816 -3.00552,3.089632 -6.32362,5.942794 -6.91122,5.942794 -0.24742,0 -3.11732,1.897126 -3.38858,2.24 -0.26565,0.335779 -2.98412,2.074656 -3.84,2.456259 -0.44,0.196179 -1.73837,0.803779 -2.88527,1.350218 -1.14689,0.546438 -2.23086,0.993523 -2.40882,0.993523 -0.17795,0 -1.11159,0.404051 -2.07473,0.897892 -0.96315,0.49384 -2.25518,1.09162 -2.87118,1.32839 -0.616,0.23677 -2.03005,0.84072 -3.14233,1.34211 -1.11227,0.50138 -2.16082,0.91161 -2.33009,0.91161 -0.46236,0 -4.24002,1.30122 -4.60758,1.58708 -0.32175,0.25024 -8.57998,2.20894 -12.16,2.88413 -1.056,0.19916 -2.208,0.48971 -2.56,0.64566 -0.352,0.15596 -1.90076,0.45144 -3.44169,0.65663 -1.54093,0.2052 -2.88143,0.5021 -2.97889,0.65979 -0.0975,0.15769 -0.60532,0.28671 -1.12858,0.28671 -0.52327,0 -1.45505,0.21044 -2.07062,0.46764 -0.61557,0.2572 -2.01495,0.62984 -3.10972,0.82807 -1.09478,0.19823 -2.1345,0.47727 -2.3105,0.62009 -0.176,0.14282 -1.74824,0.56108 -3.49386,0.92946 -1.74563,0.36839 -3.77109,0.95891 -4.50104,1.31227 -0.72994,0.35336 -1.7497,0.64182 -2.26613,0.64104 -1.43863,-0.002 -5.37873,2.15822 -7.08848,3.88673 -0.84177,0.851 -1.74834,1.54895 -2.01461,1.55099 -0.26626,0.002 -0.62626,0.32771 -0.8,0.72371 -0.36795,0.83869 -2.17138,1.10657 -3.16153,0.46961 z"
       id="path24"
       inkscape:connector-curvature="0" />
  </g>
  <g
     id="g20" />
  <g
     inkscape:groupmode="layer"
     id="layer1"
     inkscape:label="Main"
     style="display:inline">
    <path
       style="fill:#90ad91;stroke-width:0.31999999"
       d="m 100.33207,100.60633 0.13842,-21.691781 0.76038,-1.508186 c 1.24208,-2.463632 2.62899,-3.783328 5.21505,-4.962323 1.30542,-0.595145 2.74542,-1.343305 3.2,-1.662579 1.98206,-1.392083 5.59598,-2.964758 9.30652,-4.049926 5.44324,-1.591908 5.5695,-1.612743 16.30404,-2.690128 9.49101,-0.95258 13.13376,-1.545389 18.85757,-3.06882 2.92411,-0.778272 10.24148,-3.24456 12.40675,-4.181641 0.5546,-0.240019 1.0987,-0.436397 1.20911,-0.436397 0.11041,0 1.26282,-0.504 2.56091,-1.12 1.2981,-0.616 2.4454,-1.12 2.54955,-1.12 0.61868,0 5.0384,-2.30839 5.19348,-2.712518 0.10288,-0.268116 0.39218,-0.487482 0.64287,-0.487482 0.25069,0 0.53869,-0.216 0.64,-0.48 0.10131,-0.264 0.37622,-0.48 0.61091,-0.48 0.23469,0 1.03383,-0.72 1.77585,-1.6 0.74203,-0.88 1.48662,-1.6 1.65464,-1.6 0.35639,0 3.47464,-2.521763 3.84849,-3.112323 0.1398,-0.220829 0.7878,-1.039376 1.44,-1.818995 0.65221,-0.77962 1.90583,-2.390592 2.78583,-3.579933 0.88,-1.189344 2.25266,-2.892864 3.05034,-3.785597 0.79769,-0.892733 1.66169,-1.925686 1.92,-2.295453 2.59425,-3.713596 3.5045,-5.2789 3.69934,-6.361577 0.1261,-0.700633 0.99842,-2.860633 1.9385,-4.8 0.94008,-1.939367 1.70981,-3.903363 1.71053,-4.364435 6.4e-4,-0.461072 0.27085,-1.685072 0.6003,-2.72 0.32946,-1.034928 0.69847,-2.385687 0.82001,-3.001687 0.12155,-0.616 0.39199,-1.5520009 0.60099,-2.0800009 0.36406,-0.9197626 0.3899,-0.8661126 0.61639,1.2800009 0.30253,2.866707 0.73821,9.209478 1.17594,17.12 0.35741,6.458954 0.27091,10.253322 -0.27644,12.125558 -0.17454,0.59706 -0.2469,1.199565 -0.16078,1.338906 0.0861,0.139344 -0.0497,0.802842 -0.3018,1.474442 -0.2521,0.671603 -0.53869,2.157094 -0.63687,3.301094 -0.33712,3.928378 -2.76738,12.375136 -4.84754,16.848362 -0.2579,0.554598 -0.46891,1.286195 -0.46891,1.625766 0,0.339574 -0.3594,1.325811 -0.79866,2.191638 -0.43926,0.865828 -0.79926,1.73961 -0.8,1.941738 -0.002,0.421674 -1.81427,3.959696 -2.26283,4.416496 -0.16418,0.1672 -0.29851,0.53728 -0.29851,0.8224 0,0.28512 -0.504,1.107213 -1.12,1.82687 -0.616,0.719658 -1.12,1.403261 -1.12,1.51912 0,0.560746 -2.28666,3.115146 -8.5802,9.584816 -3.00552,3.089632 -6.32362,5.942794 -6.91122,5.942794 -0.24742,0 -3.11732,1.897126 -3.38858,2.24 -0.26565,0.335779 -2.98412,2.074656 -3.84,2.456259 -0.44,0.196179 -1.73837,0.803779 -2.88527,1.350218 -1.14689,0.546438 -2.23086,0.993523 -2.40882,0.993523 -0.17795,0 -1.11159,0.404051 -2.07473,0.897881 -0.96315,0.49384 -2.25518,1.09162 -2.87118,1.32839 -0.616,0.23677 -2.03005,0.84072 -3.14233,1.34211 -1.11227,0.50138 -2.16082,0.91161 -2.33009,0.91161 -0.46236,0 -4.24002,1.30122 -4.60758,1.58708 -0.32175,0.25024 -8.57998,2.20894 -12.16,2.88413 -1.056,0.19916 -2.208,0.48971 -2.56,0.64566 -0.352,0.15596 -1.90076,0.45144 -3.44169,0.65663 -1.54093,0.2052 -2.88143,0.5021 -2.97889,0.65979 -0.0975,0.15769 -0.60532,0.28671 -1.12858,0.28671 -0.52327,0 -1.45505,0.21044 -2.07062,0.46764 -0.61557,0.2572 -2.01495,0.62984 -3.10972,0.82807 -1.09478,0.19823 -2.1345,0.47727 -2.3105,0.62009 -0.176,0.14282 -1.74824,0.56108 -3.49386,0.92946 -1.74563,0.36839 -3.77109,0.95891 -4.50104,1.31227 -0.72994,0.35336 -1.7497,0.64182 -2.26613,0.64104 -1.43863,-0.002 -5.37873,2.15822 -7.08848,3.88673 -0.84177,0.851 -1.74834,1.54895 -2.01461,1.55099 -0.26626,0.002 -0.62626,0.32687 -0.8,0.72184 -0.17373,0.39497 -0.54061,0.76028 -0.81528,0.81179 -0.44964,0.0843 -0.48561,-2.06753 -0.36097,-21.59813 z m -3.961524,19.64911 c -2.855162,-2.94072 -6.881562,-6.47884 -7.725402,-6.78854 -0.490992,-0.1802 -1.97271,-0.87631 -3.29271,-1.5469 -1.32,-0.6706 -3.696,-1.69813 -5.28,-2.2834 -1.584,-0.58527 -3.312,-1.29227 -3.84,-1.57112 -0.528,-0.27885 -1.591293,-0.50788 -2.362874,-0.50897 -0.77158,-9.6e-4 -1.99558,-0.15683 -2.72,-0.3461 -0.724419,-0.18928 -2.181126,-0.56873 -3.237126,-0.84324 -1.056,-0.27451 -3.052835,-0.84262 -4.437411,-1.26247 -1.384576,-0.41985 -3.400576,-0.89102 -4.48,-1.04706 -1.079424,-0.15603 -2.394589,-0.51218 -2.922589,-0.79143 -0.528,-0.27925 -1.491501,-0.50861 -2.141114,-0.5097 -0.649612,-9.6e-4 -1.270112,-0.14597 -1.378886,-0.32197 -0.108774,-0.176 -0.568566,-0.32 -1.02176,-0.32 -0.453194,0 -1.416694,-0.15479 -2.141114,-0.34397 -0.724419,-0.18918 -1.893126,-0.49196 -2.597126,-0.67284 -0.704,-0.18089 -1.860995,-0.59157 -2.571101,-0.91265 -0.710105,-0.321059 -1.718105,-0.685859 -2.24,-0.810653 -0.521894,-0.124796 -2.446137,-0.927321 -4.276099,-1.783392 -1.829958,-0.856067 -3.517578,-1.556486 -3.750266,-1.556486 -0.612176,0 -2.796787,-1.271418 -3.104891,-1.807005 -0.144296,-0.250838 -0.828296,-0.682512 -1.52,-0.959277 -0.691704,-0.276764 -1.257643,-0.620131 -1.257643,-0.763036 0,-0.142909 -0.432,-0.354714 -0.96,-0.470682 -0.528,-0.115968 -0.96,-0.343411 -0.96,-0.505427 0,-0.162013 -0.140942,-0.294573 -0.313205,-0.294573 -0.172263,0 -1.305467,-0.972 -2.518231,-2.16 -1.212764,-1.188 -3.267822,-3.096 -4.566795,-4.24 -3.938283,-3.468429 -5.835477,-5.51609 -6.820479,-7.361405 -2.0940258,-3.922985 -3.3856143,-6.641926 -3.8756037,-8.158595 -0.2843015,-0.88 -0.8508535,-2.392 -1.2590042,-3.36 -0.408151,-0.968 -0.9859437,-2.587731 -1.2839834,-3.599405 C 5.2170927,61.343471 4.8668921,60.450008 4.7369091,60.369675 4.606926,60.289343 4.3188476,59.173074 4.096735,57.88908 3.4848367,54.35181 2.836027,51.390719 2.4517007,50.381339 c -0.1898954,-0.498736 -0.493438,-1.62679 -0.6745389,-2.50679 -0.181101,-0.88 -0.4442283,-2.104 -0.5847273,-2.72 -0.87529356,-3.837613 -0.98526577,-5.215117 -0.97078578,-12.16 0.0150616,-7.223826 0.21316003,-10.824024 0.97723208,-17.76 0.1938828,-1.76 0.3996701,-4.136 0.4573051,-5.2800009 C 1.7916625,7.2654652 2.4366113,4.0400502 2.9827541,3.320327 3.3563209,2.8280296 3.4146854,3.0246916 3.4321375,4.8345481 c 0.032772,3.3985152 0.5722394,6.6199659 1.4626349,8.7341749 0.4599799,1.092205 1.3066595,3.209826 1.8815104,4.705826 1.3970026,3.63558 2.8580624,6.479184 4.4048552,8.573001 0.701828,0.950029 1.832552,2.854278 2.512721,4.231664 0.680168,1.377386 1.579523,2.847191 1.998565,3.266234 0.419042,0.419043 1.282657,1.546515 1.919144,2.505498 0.636488,0.958982 1.463047,2.103603 1.836798,2.543603 0.37375,0.44 1.276636,1.52 2.006412,2.4 2.063095,2.487782 3.693827,3.925046 6.292069,5.54559 1.316928,0.821376 3.366103,2.417104 4.553725,3.546058 2.665852,2.534166 4.416905,3.714806 6.491862,4.377104 1.408611,0.44961 5.166954,1.93584 8,3.163584 0.528,0.228816 2.328,0.809059 4,1.289424 1.672,0.480368 4.192,1.34313 5.6,1.917251 3.450755,1.407069 4.412742,1.687719 7.075984,2.064336 1.251792,0.177021 3.123792,0.548867 4.16,0.82632 1.036208,0.277456 3.972016,0.628042 6.524016,0.779079 5.149811,0.304784 12.617267,1.784816 14.652877,2.904166 2.474819,1.360861 4.867123,3.339859 4.867123,4.026256 0,0.224182 0.697254,1.24544 1.549453,2.269462 2.65207,3.186788 2.555091,2.241783 2.677645,26.091361 0.05946,11.572 0.03269,21.0314 -0.05949,21.0209 -0.09218,-0.0105 -0.753456,-0.6225 -1.469494,-1.36 z m 4.021894,-53.836417 v -7.368948 l 1.37524,-1.149552 c 0.75638,-0.632256 2.08838,-1.528035 2.96,-1.99062 1.8059,-0.958423 2.53636,-1.400896 3.62424,-2.195354 0.42176,-0.308 0.98995,-0.56 1.26264,-0.56 0.2727,0 1.13073,-0.307357 1.90673,-0.683014 2.53129,-1.225376 9.52944,-2.812234 13.9538,-3.16408 2.26746,-0.18032 4.24728,-0.404877 4.3996,-0.499018 0.15232,-0.09414 5.71171,-0.238538 12.35419,-0.320883 6.7018,-0.08308 12.64835,-0.296583 13.3604,-0.479687 2.52427,-0.649123 9.94104,-3.243612 10.88316,-3.807081 0.528,-0.315789 3.048,-1.642832 5.6,-2.948986 5.43969,-2.784115 11.29702,-6.600717 13.7265,-8.944093 0.48287,-0.465762 1.58795,-1.460546 2.45573,-2.210628 0.86777,-0.750083 1.82389,-1.737005 2.1247,-2.193159 0.30081,-0.456154 1.19178,-1.621371 1.97992,-2.589371 0.78815,-0.968 1.87526,-2.516 2.41581,-3.44 0.54055,-0.924 1.10997,-1.68 1.26538,-1.68 0.15542,0 0.36672,-0.335223 0.46955,-0.74494 0.10283,-0.409717 0.5557,-1.142813 1.00638,-1.629103 0.45068,-0.486289 1.0592,-1.267066 1.35228,-1.73506 0.29307,-0.467993 0.91504,-1.354897 1.38216,-1.970897 0.95399,-1.258058 2.22159,-4.4355503 2.22159,-5.5688502 0,-0.711991 1.20883,-2.6089901 1.48594,-2.3318742 0.0731,0.073139 -0.37527,2.0088829 -0.99648,4.3016534 -0.6212,2.292769 -1.12946,4.462717 -1.12946,4.822105 0,0.359388 -0.91623,2.499228 -2.03606,4.7552 -1.11984,2.255971 -2.18867,4.559234 -2.3752,5.118361 -0.49967,1.497854 -2.30117,4.138514 -4.4641,6.54354 -1.04869,1.166073 -2.85917,3.398073 -4.02329,4.959999 -1.87209,2.511812 -6.11802,6.796948 -7.54576,7.61544 -0.28357,0.162567 -1.39166,1.170567 -2.46241,2.24 -2.35168,2.348775 -3.99282,3.686026 -4.53667,3.696589 -0.38187,0.0074 -1.0666,0.294263 -5.16147,2.16224 -3.46522,1.580746 -4.71034,2.094816 -6.43504,2.656816 -0.968,0.315424 -2.984,1.019197 -4.48,1.563939 -6.52375,2.375501 -14.63148,4.026957 -22.88,4.660407 -8.87874,0.681846 -12.07885,1.168486 -17.04179,2.591545 -4.58324,1.314186 -9.24723,3.341472 -10.95821,4.763181 -0.264,0.219367 -1.38601,0.874557 -2.49336,1.455981 -1.10734,0.581424 -2.58334,1.644387 -3.28,2.362141 l -1.26664,1.305005 z m -4.107731,4.373849 c -2.235619,-3.18832 -5.953673,-5.614013 -10.132275,-6.61039 -4.980374,-1.187562 -6.84929,-1.48112 -11.188048,-1.75736 -2.634451,-0.167728 -5.442874,-0.506663 -6.240934,-0.753187 -0.798061,-0.246525 -2.603018,-0.685197 -4.011018,-0.974823 -1.408,-0.289629 -3.002224,-0.665187 -3.54272,-0.834579 -0.540496,-0.169392 -1.167907,-0.307984 -1.39425,-0.307984 -0.226342,0 -1.296118,-0.421565 -2.37728,-0.936813 -1.081161,-0.515248 -3.40575,-1.394694 -5.16575,-1.954323 -1.76,-0.559629 -4.784,-1.667936 -6.72,-2.462906 -1.936,-0.794966 -4.24,-1.659606 -5.12,-1.92142 -2.094477,-0.62314 -3.297578,-1.477728 -7.52,-5.341604 -0.44,-0.402636 -1.808,-1.398217 -3.04,-2.212403 -2.693076,-1.779753 -3.586543,-2.564089 -6.266452,-5.501049 -3.014824,-3.304 -5.994418,-7.512315 -7.305815,-10.318579 -0.351886,-0.753003 -1.133612,-1.977003 -1.737169,-2.72 C 12.631725,23.857235 10.986593,21.071033 10.037107,18.588128 9.5336764,17.27166 8.5686153,14.970549 7.8925267,13.474549 7.0489388,11.607919 6.5603113,9.9513763 6.3350937,8.1945481 5.9339148,5.0651225 5.8180975,0.42221832 6.1333491,0.106967 c 0.4108358,-0.41083588 1.1390854,0.9757736 1.1390854,2.1688535 0,0.6374222 0.36,1.9051935 0.8,2.8172697 0.44,0.9120758 0.8,1.7526733 0.8,1.8679939 0,0.115321 0.3759901,1.0160269 0.8355334,2.001569 0.4595441,0.9855424 1.0702611,2.2958959 1.3571501,2.9118959 0.649765,1.395155 2.192972,3.424941 4.505977,5.92673 0.979736,1.059701 2.501339,2.767918 3.381339,3.796038 3.340628,3.902916 7.409894,7.773607 11.095879,10.554416 9.904479,7.472214 11.963436,8.758234 16.264121,10.158544 1.144,0.37249 2.368,0.844941 2.72,1.049894 0.577603,0.336311 1.941706,0.888103 5.76,2.329975 0.704,0.265846 2.026208,0.823725 2.93824,1.239731 0.912032,0.416006 2.856032,0.983722 4.32,1.26159 1.463968,0.277869 4.02976,0.846957 5.70176,1.26464 1.672,0.417684 4.336,0.848087 5.92,0.956452 3.428022,0.234518 7.661664,1.095366 10.56,2.147219 0.528,0.191622 1.608,0.572262 2.4,0.845872 0.792,0.273606 1.783421,0.76104 2.203155,1.083184 0.419735,0.322144 0.940051,0.585715 1.156263,0.585715 0.516275,0 4.343059,2.834122 6.306054,4.670275 l 1.548816,1.448736 -0.08715,5.789203 -0.08714,5.789204 z"
       id="path22"
       inkscape:connector-curvature="0" />
  </g>
</svg>
