<?xml version="1.0" encoding="UTF-8" standalone="no"?>
<!-- Created with Inkscape (http://www.inkscape.org/) -->

<svg
   xmlns:dc="http://purl.org/dc/elements/1.1/"
   xmlns:cc="http://creativecommons.org/ns#"
   xmlns:rdf="http://www.w3.org/1999/02/22-rdf-syntax-ns#"
   xmlns:svg="http://www.w3.org/2000/svg"
   xmlns="http://www.w3.org/2000/svg"
   xmlns:sodipodi="http://sodipodi.sourceforge.net/DTD/sodipodi-0.dtd"
   xmlns:inkscape="http://www.inkscape.org/namespaces/inkscape"
   version="1.1"
   id="svg154"
   width="230.08"
   height="90.879997"
   viewBox="0 0 230.08 90.879997"
   sodipodi:docname="Leaf04.svg"
   inkscape:version="0.92.4 (5da689c313, 2019-01-14)">
  <metadata
     id="metadata160">
    <rdf:RDF>
      <cc:Work
         rdf:about="">
        <dc:format>image/svg+xml</dc:format>
        <dc:type
           rdf:resource="http://purl.org/dc/dcmitype/StillImage" />
        <dc:title></dc:title>
      </cc:Work>
    </rdf:RDF>
  </metadata>
  <defs
     id="defs158" />
  <sodipodi:namedview
     pagecolor="#ffffff"
     bordercolor="#666666"
     borderopacity="1"
     objecttolerance="10"
     gridtolerance="10"
     guidetolerance="10"
     inkscape:pageopacity="0"
     inkscape:pageshadow="2"
     inkscape:window-width="1920"
     inkscape:window-height="1017"
     id="namedview156"
     showgrid="false"
     inkscape:zoom="2"
     inkscape:cx="18.438467"
     inkscape:cy="45.439999"
     inkscape:window-x="-8"
     inkscape:window-y="-8"
     inkscape:window-maximized="1"
     inkscape:current-layer="svg154" />
  <path
     style="fill:#90ad91;stroke-width:0.31999999"
     d="m 106.37157,90.143189 c -1.496,-0.15902 -3.76809,-0.50019 -5.04909,-0.75814 -1.28101,-0.25796 -3.352397,-0.46901 -4.603107,-0.46901 -2.57422,0 -5.01304,-0.35834 -9.8678,-1.44987 -1.848,-0.4155 -3.936,-0.84718 -4.64,-0.95929 -0.704,-0.11212 -1.712,-0.39104 -2.24,-0.61983 -2.69563,-1.16804 -6.24185,-2.1143 -7.09122,-1.89218 -0.36965,0.0967 -2.19502,-0.26081 -4.05637,-0.7944 -1.86135,-0.53359 -3.89461,-1.0659 -4.51835,-1.18291 -0.62373,-0.11701 -1.13406,-0.30566 -1.13406,-0.41922 0,-0.31477 -2.42316,-1.0023 -3.53252,-1.0023 -0.54042,0 -1.61309,-0.28723 -2.38371,-0.63828 -0.770608,-0.35106 -2.310708,-0.76969 -3.422439,-0.93031 -1.111731,-0.16061 -2.453331,-0.52049 -2.981331,-0.79974 -0.528,-0.27925 -1.203501,-0.50862 -1.501114,-0.5097 -0.297612,-9.6e-4 -0.621171,-0.1315 -0.719014,-0.28982 -0.09784,-0.15832 -0.903664,-0.46195 -1.790714,-0.67475 -0.887049,-0.2128 -2.217996,-0.6793 -2.95766,-1.03667 -1.865306,-0.90122 -8.569229,-2.83054 -11.431498,-3.28987 -0.792,-0.12709 -1.724041,-0.42903 -2.071202,-0.67097 -0.347161,-0.24194 -0.941057,-0.43989 -1.319768,-0.43989 -0.378711,0 -1.317769,-0.222 -2.086795,-0.49333 -0.769026,-0.27133 -2.463515,-0.71336 -3.765531,-0.9823 -1.302015,-0.26894 -2.670916,-0.68081 -3.042002,-0.91527 -0.371086,-0.23445 -1.1439,-0.52412 -1.717363,-0.6437 -1.799646,-0.37527 -2.139661,-2.31606 -0.679868,-3.88066 1.006799,-1.07909 3.707838,-6.6505 4.091523,-8.43956 0.925202,-4.31407 -0.0053,-12.7055 -2.060572,-18.58247 -0.458299,-1.31049 -1.274549,-3.67871 -1.813889,-5.26271 -0.53934,-1.584 -1.1483,-3.096 -1.353244,-3.36 -0.204945,-0.264 -0.725575,-1.26917 -1.156958,-2.23372 -0.431382,-0.96455 -1.546048,-2.90855 -2.477036,-4.32 -0.930988,-1.41145 -2.10667,-3.44059 -2.612626,-4.50919 -0.5059551,-1.06861 -1.2703361,-2.36461 -1.6986241,-2.88001 -0.428288,-0.51539 -0.867888,-1.30335 -0.97689,-1.75101 -0.184523,-0.75783 -5.665396,-9.47731 -6.212141,-9.88285 -0.51140203,-0.37933 -2.32701403,-2.87955004 -2.32701403,-3.20446004 0,-0.67333 1.793463,-0.32312 2.88709003,0.56376 0.6121,0.49638004 1.941223,1.44659004 2.953605,2.11158004 1.012382,0.66498 2.130958,1.61669 2.485725,2.11492 0.354767,0.49822 1.182455,1.22737 1.839306,1.62034 0.656851,0.39296 2.2262161,1.55511 3.4874781,2.58256 1.261263,1.02744 2.381814,1.86808 2.490115,1.86808 0.108301,0 1.295724,0.828 2.638717,1.84 1.342993,1.012 3.122725,2.272 3.954958,2.8 0.832234,0.528 2.602367,1.716 3.933628,2.64 1.331262,0.924 2.55993,1.68 2.730374,1.68 0.170445,0 0.718747,0.34402 1.218449,0.76449 0.809233,0.68093 2.568302,1.57767 6.660555,3.39545 0.704,0.31272 2.136029,0.96214 3.182285,1.44316 3.119728,1.4343 6.319814,2.74458 7.937715,3.25011 0.836,0.26121 1.52,0.58912 1.52,0.72869 0,0.13957 0.9,0.50086 2,0.80287 3.168938,0.87005 4.397939,1.32033 6.95097,2.5467 1.31504,0.63169 2.82704,1.15039 3.36,1.15266 0.90415,0.004 3.77755,0.79192 5.60903,1.53835 0.44,0.17933 1.592,0.55878 2.56,0.84323 0.968,0.28446 2.696,0.79414 3.84,1.13263 1.144,0.33849 3.736,0.98982 5.76,1.44741 2.024,0.45759 4.544,1.03149 5.6,1.27533 1.056,0.24385 3.864,0.59675 6.24,0.78422 2.376,0.18747 5.76,0.49036 7.52,0.67308 4.347647,0.45138 17.285527,0.67068 18.167957,0.30796 0.39162,-0.16097 3.01604,-0.46543 5.83204,-0.67658 2.816,-0.21115 6.272,-0.47072 7.68,-0.57683 1.408,-0.10611 2.728,-0.30201 2.93334,-0.43534 0.52316,-0.33969 6.2819,-1.4965 6.56837,-1.31945 0.12936,0.08 1.0684,-0.0606 2.08675,-0.3123 1.01835,-0.25171 2.39011,-0.46855 3.04836,-0.48188 0.65825,-0.0133 1.59425,-0.22622 2.08,-0.4731 1.08657,-0.55224 8.20541,-2.968 9.52318,-3.23167 0.528,-0.10564 1.392,-0.25634 1.92,-0.33488 0.528,-0.0785 1.968,-0.43075 3.2,-0.78269 1.232,-0.35194 3.608,-0.99359 5.28,-1.4259 3.1774,-0.82153 5.5768,-1.58015 7.2,-2.27642 0.528,-0.22649 1.4377,-0.51256 2.02156,-0.63571 0.58385,-0.12315 1.44785,-0.42545 1.92,-0.67178 0.47214,-0.24633 1.05978,-0.44876 1.30587,-0.44984 1.51532,-0.007 12.48022,-4.3185 14.75257,-5.80128 0.44,-0.28712 1.952,-0.98164 3.36,-1.54338 2.80898,-1.12068 5.53379,-2.43928 8,-3.87138 0.88,-0.51101 3.832,-2.04095 6.56,-3.39987 2.728,-1.35892 5.008,-2.58671 5.06667,-2.72842 0.0587,-0.1417 0.31066,-0.25764 0.56,-0.25764 0.24933,0 0.45333,-0.144 0.45333,-0.32 0,-0.176 0.216,-0.32 0.48,-0.32 0.264,0 0.48,-0.12759 0.48,-0.28354 0,-0.15595 0.5134,-0.52716 1.1409,-0.82493 2.04023,-0.96815 3.95174,-2.42426 5.33324,-4.06265 1.57865,-1.87218 2.25957,-2.30383 3.17559,-2.0131 0.57463,0.18239 0.64131,0.39199 0.48807,1.53446 -0.1002,0.74706 -0.44521,1.54002 -0.79236,1.82111 -0.33818,0.27385 -0.97566,1.06943 -1.41663,1.76797 -0.44097,0.69854 -1.03735,1.46559 -1.32529,1.70456 -0.28794,0.23897 -0.52352,0.63285 -0.52352,0.8753 0,0.24245 -0.28833,0.72915 -0.64074,1.08156 -0.6258,0.6258 -2.87926,4.68514 -2.87926,5.18664 0,0.13894 -0.288,0.54062 -0.64,0.89262 -0.352,0.352 -0.64458,0.964 -0.65018,1.36 -0.006,0.396 -0.2216,0.99952 -0.48,1.34116 -0.2584,0.34164 -0.46982,1.02075 -0.46982,1.50914 0,0.48839 -0.23596,1.43287 -0.52436,2.09884 -0.28839,0.66597 -0.62912,1.49886 -0.75718,1.85086 -0.12806,0.352 -0.38544,1 -0.57195,1.44 -0.18652,0.44 -0.41118,2.24 -0.49924,4 -0.0881,1.76 -0.3209,3.64531 -0.51742,4.18958 -0.5296,1.46675 -0.2571,12.37903 0.4028,16.13042 0.68275,3.88134 0.7902,4.24322 2.32764,7.84 0.2257,0.528 0.50159,1.392 0.61309,1.92 0.1115,0.528 0.35647,1.56894 0.54436,2.3132 0.50667,2.00695 -0.25402,3.46121 -2.06814,3.95378 -0.74228,0.20155 -2.4296,0.77254 -3.7496,1.26889 -1.32,0.49634 -2.904,0.99312 -3.52,1.10396 -0.616,0.11084 -1.768,0.40089 -2.56,0.64456 -0.792,0.24367 -2.52,0.75496 -3.84,1.1362 -4.56107,1.31731 -6.56715,1.96791 -8.41098,2.7278 -1.01803,0.41956 -2.81777,0.91728 -3.99941,1.10605 -1.30901,0.20911 -2.40833,0.58736 -2.8136,0.9681 -0.36584,0.34368 -1.41168,0.83314 -2.32408,1.08768 -0.91241,0.25454 -2.41335,0.69189 -3.33543,0.97187 -0.92207,0.27999 -2.4685,0.69316 -3.4365,0.91815 -0.968,0.225 -2.048,0.55684 -2.4,0.73742 -0.352,0.18058 -3.088,0.78948 -6.08,1.35311 -2.992,0.56362 -6.304,1.23676 -7.36,1.49585 -4.82052,1.18273 -10.6745,2.43445 -11.84,2.53168 -0.704,0.0587 -2.1044,0.40713 -3.11201,0.77424 -1.0076,0.3671 -2.1596,0.6682 -2.56,0.6691 -0.40039,9.6e-4 -2.38921,0.35427 -4.4196,0.78527 -2.03038,0.43099 -3.97438,0.77927 -4.32,0.77395 -0.91956,-0.0141 -9.06473,0.58772 -15.50839,1.14594 -3.08,0.26682 -6.032,0.44016 -6.56,0.38519 -0.528,-0.055 -1.11052,0.012 -1.2945,0.14885 -0.54409,0.40469 -5.53281,0.53805 -8.4655,0.22631 z"
     id="path164"
     inkscape:connector-curvature="0" />
</svg>
